<svg xmlns="http://www.w3.org/2000/svg" xmlns:svg="http://www.w3.org/2000/svg" id="svg5835" width="261.154" height="445.531" version="1.1"><defs id="defs5837"><marker id="Arrow1Mend" orient="auto" refX="0" refY="0" style="overflow:visible"><path id="path4415" d="M 0,0 5,-5 -12.5,0 5,5 0,0 z" transform="matrix(-0.4,0,0,-0.4,-4,0)" style="fill-rule:evenodd;stroke:#000;stroke-width:1pt;marker-start:none"/></marker><marker id="marker6610" orient="auto" refX="0" refY="0" style="overflow:visible"><path id="path6612" d="M 0,0 5,-5 -12.5,0 5,5 0,0 z" transform="matrix(-0.4,0,0,-0.4,-4,0)" style="fill-rule:evenodd;stroke:#000;stroke-width:1pt;marker-start:none"/></marker><marker id="Arrow1Mend-2" orient="auto" refX="0" refY="0" style="overflow:visible"><path id="path4415-6" d="M 0,0 5,-5 -12.5,0 5,5 0,0 z" transform="matrix(-0.4,0,0,-0.4,-4,0)" style="fill-rule:evenodd;stroke:#000;stroke-width:1pt;marker-start:none"/></marker><marker id="Arrow1Mend-4" orient="auto" refX="0" refY="0" style="overflow:visible"><path id="path4415-0" d="M 0,0 5,-5 -12.5,0 5,5 0,0 z" transform="matrix(-0.4,0,0,-0.4,-4,0)" style="fill-rule:evenodd;stroke:#000;stroke-width:1pt;marker-start:none"/></marker><marker id="Arrow1Mend-8" orient="auto" refX="0" refY="0" style="overflow:visible"><path id="path4415-8" d="M 0,0 5,-5 -12.5,0 5,5 0,0 z" transform="matrix(-0.4,0,0,-0.4,-4,0)" style="fill-rule:evenodd;stroke:#000;stroke-width:1pt;marker-start:none"/></marker><marker id="Arrow1Mend-23" orient="auto" refX="0" refY="0" style="overflow:visible"><path id="path4415-4" d="M 0,0 5,-5 -12.5,0 5,5 0,0 z" transform="matrix(-0.4,0,0,-0.4,-4,0)" style="fill-rule:evenodd;stroke:#000;stroke-width:1pt;marker-start:none"/></marker><marker id="Arrow1Mend-1" orient="auto" refX="0" refY="0" style="overflow:visible"><path id="path4415-00" d="M 0,0 5,-5 -12.5,0 5,5 0,0 z" transform="matrix(-0.4,0,0,-0.4,-4,0)" style="fill-rule:evenodd;stroke:#000;stroke-width:1pt;marker-start:none"/></marker><marker id="Arrow1Mend-232" orient="auto" refX="0" refY="0" style="overflow:visible"><path id="path4415-1" d="M 0,0 5,-5 -12.5,0 5,5 0,0 z" transform="matrix(-0.4,0,0,-0.4,-4,0)" style="fill-rule:evenodd;stroke:#000;stroke-width:1pt;marker-start:none"/></marker><marker id="Arrow1Mend-48" orient="auto" refX="0" refY="0" style="overflow:visible"><path id="path4415-3" d="M 0,0 5,-5 -12.5,0 5,5 0,0 z" transform="matrix(-0.4,0,0,-0.4,-4,0)" style="fill-rule:evenodd;stroke:#000;stroke-width:1pt;marker-start:none"/></marker><marker id="Arrow1Mend-22" orient="auto" refX="0" refY="0" style="overflow:visible"><path id="path4415-45" d="M 0,0 5,-5 -12.5,0 5,5 0,0 z" transform="matrix(-0.4,0,0,-0.4,-4,0)" style="fill-rule:evenodd;stroke:#000;stroke-width:1pt;marker-start:none"/></marker><marker id="Arrow1Mend-5" orient="auto" refX="0" refY="0" style="overflow:visible"><path id="path4415-40" d="M 0,0 5,-5 -12.5,0 5,5 0,0 z" transform="matrix(-0.4,0,0,-0.4,-4,0)" style="fill-rule:evenodd;stroke:#000;stroke-width:1pt;marker-start:none"/></marker><marker id="Arrow1Mend-26" orient="auto" refX="0" refY="0" style="overflow:visible"><path id="path4415-2" d="M 0,0 5,-5 -12.5,0 5,5 0,0 z" transform="matrix(-0.4,0,0,-0.4,-4,0)" style="fill-rule:evenodd;stroke:#000;stroke-width:1pt;marker-start:none"/></marker><marker id="marker7204" orient="auto" refX="0" refY="0" style="overflow:visible"><path id="path7206" d="M 0,0 5,-5 -12.5,0 5,5 0,0 z" transform="matrix(-0.4,0,0,-0.4,-4,0)" style="fill-rule:evenodd;stroke:#000;stroke-width:1pt;marker-start:none"/></marker><marker id="marker7208" orient="auto" refX="0" refY="0" style="overflow:visible"><path id="path7210" d="M 0,0 5,-5 -12.5,0 5,5 0,0 z" transform="matrix(-0.4,0,0,-0.4,-4,0)" style="fill-rule:evenodd;stroke:#000;stroke-width:1pt;marker-start:none"/></marker><marker id="Arrow1Mend-25" orient="auto" refX="0" refY="0" style="overflow:visible"><path id="path4415-9" d="M 0,0 5,-5 -12.5,0 5,5 0,0 z" transform="matrix(-0.4,0,0,-0.4,-4,0)" style="fill-rule:evenodd;stroke:#000;stroke-width:1pt;marker-start:none"/></marker><marker id="marker7204-9" orient="auto" refX="0" refY="0" style="overflow:visible"><path id="path7206-8" d="M 0,0 5,-5 -12.5,0 5,5 0,0 z" transform="matrix(-0.4,0,0,-0.4,-4,0)" style="fill-rule:evenodd;stroke:#000;stroke-width:1pt;marker-start:none"/></marker><marker id="marker7208-8" orient="auto" refX="0" refY="0" style="overflow:visible"><path id="path7210-4" d="M 0,0 5,-5 -12.5,0 5,5 0,0 z" transform="matrix(-0.4,0,0,-0.4,-4,0)" style="fill-rule:evenodd;stroke:#000;stroke-width:1pt;marker-start:none"/></marker><marker id="Arrow1Mend-10" orient="auto" refX="0" refY="0" style="overflow:visible"><path id="path4415-12" d="M 0,0 5,-5 -12.5,0 5,5 0,0 z" transform="matrix(-0.4,0,0,-0.4,-4,0)" style="fill-rule:evenodd;stroke:#000;stroke-width:1pt;marker-start:none"/></marker><marker id="marker7333" orient="auto" refX="0" refY="0" style="overflow:visible"><path id="path7335" d="M 0,0 5,-5 -12.5,0 5,5 0,0 z" transform="matrix(-0.4,0,0,-0.4,-4,0)" style="fill-rule:evenodd;stroke:#000;stroke-width:1pt;marker-start:none"/></marker><marker id="Arrow1Mend-3" orient="auto" refX="0" refY="0" style="overflow:visible"><path id="path4415-85" d="M 0,0 5,-5 -12.5,0 5,5 0,0 z" transform="matrix(-0.4,0,0,-0.4,-4,0)" style="fill-rule:evenodd;stroke:#000;stroke-width:1pt;marker-start:none"/></marker><marker id="Arrow1Mend-7" orient="auto" refX="0" refY="0" style="overflow:visible"><path id="path4415-05" d="M 0,0 5,-5 -12.5,0 5,5 0,0 z" transform="matrix(-0.4,0,0,-0.4,-4,0)" style="fill-rule:evenodd;stroke:#000;stroke-width:1pt;marker-start:none"/></marker><marker id="Arrow1Mend-14" orient="auto" refX="0" refY="0" style="overflow:visible"><path id="path4415-63" d="M 0,0 5,-5 -12.5,0 5,5 0,0 z" transform="matrix(-0.4,0,0,-0.4,-4,0)" style="fill-rule:evenodd;stroke:#000;stroke-width:1pt;marker-start:none"/></marker><marker id="Arrow1Mend-86" orient="auto" refX="0" refY="0" style="overflow:visible"><path id="path4415-80" d="M 0,0 5,-5 -12.5,0 5,5 0,0 z" transform="matrix(-0.4,0,0,-0.4,-4,0)" style="fill-rule:evenodd;stroke:#000;stroke-width:1pt;marker-start:none"/></marker><marker id="Arrow1Mend-20" orient="auto" refX="0" refY="0" style="overflow:visible"><path id="path4415-7" d="M 0,0 5,-5 -12.5,0 5,5 0,0 z" transform="matrix(-0.4,0,0,-0.4,-4,0)" style="fill-rule:evenodd;stroke:#000;stroke-width:1pt;marker-start:none"/></marker></defs><metadata id="metadata_5.5"/><g id="layer6" transform="translate(-329.73425,-62.096435)" style="display:inline"><rect style="fill:#e8e8e8;fill-opacity:1;stroke:#000;stroke-width:.53149605;stroke-linecap:round;stroke-linejoin:round;stroke-miterlimit:4;stroke-opacity:1;stroke-dasharray:none;stroke-dashoffset:0;display:inline" id="rect6788-7-2-7-4-3" width="50" height="30" x="330" y="62.362" rx="3.543" ry="3.543"/><rect style="fill:#e8e8e8;fill-opacity:1;stroke:#000;stroke-width:.53149605;stroke-linecap:round;stroke-linejoin:round;stroke-miterlimit:4;stroke-opacity:1;stroke-dasharray:none;stroke-dashoffset:0;display:inline" id="rect6788-7-2-7-4-3-6" width="50" height="30" x="435" y="62.362" rx="3.543" ry="3.543"/><rect style="fill:#e8e8e8;fill-opacity:1;stroke:#000;stroke-width:.53149605;stroke-linecap:round;stroke-linejoin:round;stroke-miterlimit:4;stroke-opacity:1;stroke-dasharray:none;stroke-dashoffset:0;display:inline" id="rect6788-7-2-7-4-3-4" width="50" height="30" x="330" y="132.362" rx="3.543" ry="3.543"/><path style="fill:none;stroke:#000;stroke-width:.77952754;stroke-linecap:butt;stroke-linejoin:round;stroke-miterlimit:4;stroke-opacity:1;stroke-dasharray:none;marker-end:url(#Arrow1Mend);display:inline" id="path8845-6-0-7-0" d="m 575,111.91576 0,-18.267863"/><path style="fill:none;stroke:#000;stroke-width:.77952754;stroke-linecap:butt;stroke-linejoin:round;stroke-miterlimit:4;stroke-opacity:1;stroke-dasharray:none;marker-end:url(#Arrow1Mend);display:inline" id="path8845-6-0-7-0-4-7-9" d="m 485,77.36218 73.53571,0"/><path style="fill:#fff;fill-opacity:1;stroke:#000;stroke-width:.53149605;stroke-linecap:round;stroke-linejoin:round;stroke-miterlimit:4;stroke-opacity:1;stroke-dasharray:none;stroke-dashoffset:0;display:inline" id="rect6788-7-2-7-4-3-4-8-3" d="m 563,142.36218 24,0 c 3,0 4.5782,-1.97512 3,-5 l -12,-23 c -1.56821,-3 -4.41037,-2.96843 -6,0 l -12,23 c -1.5782,3.02488 0,5 3,5 z"/><path style="fill:none;stroke:#000;stroke-width:.53149605;stroke-linecap:round;stroke-linejoin:round;stroke-miterlimit:4;stroke-opacity:1;stroke-dasharray:none;stroke-dashoffset:0" id="path4082" d="m 310,72.362183 c 0,8.284271 -6.71573,15 -15,15 -8.28427,0 -15,-6.715729 -15,-15 0,-8.284272 6.71573,-15 15,-15 8.28427,0 15,6.715728 15,15 z" transform="translate(280,5)"/><path style="fill:none;stroke:#000;stroke-width:.53149605;stroke-linecap:round;stroke-linejoin:round;stroke-miterlimit:4;stroke-opacity:1;stroke-dasharray:none;stroke-dashoffset:0" id="path4082-9" d="m 310,72.362183 c 0,8.284271 -6.71573,15 -15,15 -8.28427,0 -15,-6.715729 -15,-15 0,-8.284272 6.71573,-15 15,-15 8.28427,0 15,6.715728 15,15 z" transform="translate(230,75)"/><path style="fill:none;stroke:#000;stroke-width:.53149605;stroke-linecap:round;stroke-linejoin:round;stroke-miterlimit:4;stroke-opacity:1;stroke-dasharray:none;stroke-dashoffset:0;display:inline" id="rect6788-7-2-7-4-3-4-8-4" d="m 411.55355,167.36218 52,0 c 3,0 4.03782,2.87043 3,5 l -10.45669,21.4567 c -0.85996,1.76461 -2.54331,3.5433 -5.54331,3.5433 l -26,0 c -3,0 -4.68335,-1.77869 -5.54331,-3.5433 l -10.45669,-21.4567 c -1.03782,-2.12957 0,-5 3,-5 z"/><path style="fill:none;stroke:#000;stroke-width:.53149605;stroke-linecap:round;stroke-linejoin:round;stroke-miterlimit:4;stroke-opacity:1;stroke-dasharray:none" id="path4116" d="m 401.46447,80.897712 7.07107,-7.071068"/><path style="fill:none;stroke:#000;stroke-width:.53149605;stroke-linecap:round;stroke-linejoin:round;stroke-miterlimit:4;stroke-opacity:1;stroke-dasharray:none" id="path4118" d="m 408.53554,80.897712 -7.07107,-7.071068"/><path style="fill:none;stroke:#000;stroke-width:.53149605;stroke-linecap:round;stroke-linejoin:round;stroke-miterlimit:4;stroke-opacity:1;stroke-dasharray:none;stroke-dashoffset:0" id="path4086-0" d="m 210,87.362183 c 0,2.761423 -2.23858,5 -5,5 -2.76142,0 -5,-2.238577 -5,-5 0,-2.761424 2.23858,-5 5,-5 2.76142,0 5,2.238576 5,5 z" transform="matrix(-0.70710678,-0.70710678,0.70710678,-0.70710678,488.1825,284.09346)"/><path style="fill:none;stroke:#000;stroke-width:.77952754;stroke-linecap:butt;stroke-linejoin:round;stroke-miterlimit:4;stroke-opacity:1;stroke-dasharray:none;marker-end:url(#Arrow1Mend)" id="path8845-6-0-7-0-4" d="m 400,77.362183 -18.625,0"/><path style="fill:none;stroke:#000;stroke-width:.77952754;stroke-linecap:butt;stroke-linejoin:round;stroke-miterlimit:4;stroke-opacity:1;stroke-dasharray:none" id="path4298" d="m 410,77.362183 25,0"/><path style="fill:none;stroke:#000;stroke-width:.53149605;stroke-linecap:round;stroke-linejoin:round;stroke-miterlimit:4;stroke-opacity:1;stroke-dasharray:none" id="path4116-0" d="m 351.46447,115.89771 7.07107,-7.07107"/><path style="fill:none;stroke:#000;stroke-width:.53149605;stroke-linecap:round;stroke-linejoin:round;stroke-miterlimit:4;stroke-opacity:1;stroke-dasharray:none" id="path4118-3" d="m 358.53554,115.89771 -7.07107,-7.07107"/><path style="fill:none;stroke:#000;stroke-width:.53149605;stroke-linecap:round;stroke-linejoin:round;stroke-miterlimit:4;stroke-opacity:1;stroke-dasharray:none;stroke-dashoffset:0" id="path4086-0-97" d="m 210,87.362183 c 0,2.761423 -2.23858,5 -5,5 -2.76142,0 -5,-2.238577 -5,-5 0,-2.761424 2.23858,-5 5,-5 2.76142,0 5,2.238576 5,5 z" transform="matrix(-0.70710678,-0.70710678,0.70710678,-0.70710678,438.1825,319.09346)"/><path style="fill:none;stroke:#000;stroke-width:.77952754;stroke-linecap:butt;stroke-linejoin:round;stroke-miterlimit:4;stroke-opacity:1;stroke-dasharray:none;display:inline" id="path4298-8" d="m 355,92.362183 0,14.732147"/><path style="fill:none;stroke:#000;stroke-width:.77952754;stroke-linecap:butt;stroke-linejoin:round;stroke-miterlimit:4;stroke-opacity:1;stroke-dasharray:none;marker-end:url(#Arrow1Mend);display:inline" id="path8845-6-0-7-0-4-7-6" d="m 355,117.45147 0,13.35714"/><path style="fill:none;stroke:#000;stroke-width:.77952754;stroke-linecap:butt;stroke-linejoin:round;stroke-miterlimit:4;stroke-opacity:1;stroke-dasharray:none;marker-end:url(#Arrow1Mend);display:inline" id="path8845-6-0-7-0-4-7-6-5" d="m 450,92.362183 0,73.624997"/><path style="fill:none;stroke:#000;stroke-width:.53149605;stroke-linecap:butt;stroke-linejoin:round;stroke-miterlimit:4;stroke-opacity:1;stroke-dasharray:none" id="path4116-1" d="m 466.46447,108.82665 7.07107,7.07107"/><path style="fill:none;stroke:#000;stroke-width:.53149605;stroke-linecap:butt;stroke-linejoin:round;stroke-miterlimit:4;stroke-opacity:1;stroke-dasharray:none" id="path4118-9" d="m 466.46447,115.89772 7.07107,-7.07107"/><path style="fill:none;stroke:#000;stroke-width:.53149605;stroke-linecap:butt;stroke-linejoin:round;stroke-miterlimit:4;stroke-opacity:1;stroke-dasharray:none;stroke-dashoffset:0" id="path4086-0-8" d="m 210,87.362183 c 0,2.761423 -2.23858,5 -5,5 -2.76142,0 -5,-2.238577 -5,-5 0,-2.761424 2.23858,-5 5,-5 2.76142,0 5,2.238576 5,5 z" transform="matrix(0.70710678,-0.70710678,0.70710678,0.70710678,263.26872,195.54468)"/><path style="fill:none;stroke:#000;stroke-width:.77952754;stroke-linecap:butt;stroke-linejoin:round;stroke-miterlimit:4;stroke-opacity:1;stroke-dasharray:none;marker-end:url(#Arrow1Mend)" id="path8845-6-0-7-0-4-6" d="m 470,107.36218 0,-13.53571"/><path style="fill:none;stroke:#000;stroke-width:.77952754;stroke-linecap:butt;stroke-linejoin:round;stroke-miterlimit:4;stroke-opacity:1;stroke-dasharray:none" id="path4298-5" d="m 470,117.36218 0,30"/><path style="fill:none;stroke:#000;stroke-width:.77952754;stroke-linecap:butt;stroke-linejoin:round;stroke-miterlimit:4;stroke-opacity:1;stroke-dasharray:none;marker-end:url(#Arrow1Mend);display:inline" id="path8845-6-0-7-0-4-7-6-5-4" d="m 380,147.36218 128.53571,0"/><path style="fill:none;stroke:#000;stroke-width:.77952754;stroke-linecap:round;stroke-linejoin:round;stroke-miterlimit:4;stroke-opacity:1;stroke-dasharray:none;marker-end:url(#Arrow1Mend);display:inline" id="path8845-6-0-7-0-4-7-6-9" d="m 425,147.36218 0,18.625"/><path style="fill:#000;fill-opacity:1;stroke:#000;stroke-width:1.0629921;stroke-linecap:round;stroke-linejoin:round;stroke-miterlimit:4;stroke-opacity:1;stroke-dasharray:none;stroke-dashoffset:0;display:inline" id="path9674-69-6-1-6" d="m 237,128.36218 c 0,0.55229 -0.44772,1 -1,1 -0.55228,0 -1,-0.44771 -1,-1 0,-0.55228 0.44772,-1 1,-1 0.55228,0 1,0.44772 1,1 z" transform="translate(188.98984,19)"/><path style="fill:none;stroke:#000;stroke-width:.53149605;stroke-linecap:round;stroke-linejoin:round;stroke-miterlimit:4;stroke-opacity:1;stroke-dasharray:none" id="path4116-8" d="m 351.46447,181.82665 7.07107,7.07107"/><path style="fill:none;stroke:#000;stroke-width:.53149605;stroke-linecap:round;stroke-linejoin:round;stroke-miterlimit:4;stroke-opacity:1;stroke-dasharray:none" id="path4118-6" d="m 351.46447,188.89772 7.07107,-7.07107"/><path style="fill:none;stroke:#000;stroke-width:.53149605;stroke-linecap:round;stroke-linejoin:round;stroke-miterlimit:4;stroke-opacity:1;stroke-dasharray:none;stroke-dashoffset:0" id="path4086-0-9" d="m 210,87.362183 c 0,2.761423 -2.23858,5 -5,5 -2.76142,0 -5,-2.238577 -5,-5 0,-2.761424 2.23858,-5 5,-5 2.76142,0 5,2.238576 5,5 z" transform="matrix(0.70710678,-0.70710678,0.70710678,0.70710678,148.26872,268.54468)"/><path style="fill:none;stroke:#000;stroke-width:.77952754;stroke-linecap:butt;stroke-linejoin:round;stroke-miterlimit:4;stroke-opacity:1;stroke-dasharray:none;marker-end:url(#Arrow1Mend);display:inline" id="path8845-6-0-7-0-4-7" d="m 355,180.36218 0,-16.625"/><path style="fill:none;stroke:#000;stroke-width:.77952754;stroke-linecap:butt;stroke-linejoin:round;stroke-miterlimit:4;stroke-opacity:1;stroke-dasharray:none;marker-end:none;display:inline" id="path8845-1-4-88" d="m 355,190.36218 0,17 c 0,3 2,5 5,5 l 72.55357,0 c 3,-3e-5 5,-2 5,-5 l 0,-10"/><path style="fill:none;stroke:#000;stroke-width:.77952754;stroke-linecap:round;stroke-linejoin:round;stroke-miterlimit:4;stroke-opacity:1;stroke-dasharray:none;marker-end:url(#Arrow1Mend);display:inline" id="path8845-6-0-7-0-4-7-6-5-9" d="m 525,77.362183 0,53.624997"/><path style="fill:#000;fill-opacity:1;stroke:#000;stroke-width:1.0629921;stroke-linecap:round;stroke-linejoin:round;stroke-miterlimit:4;stroke-opacity:1;stroke-dasharray:none;stroke-dashoffset:0;display:inline" id="path9674-69-6-1-6-9" d="m 237,128.36218 c 0,0.55229 -0.44772,1 -1,1 -0.55228,0 -1,-0.44771 -1,-1 0,-0.55228 0.44772,-1 1,-1 0.55228,0 1,0.44772 1,1 z" transform="translate(233.98984,19)"/><path style="fill:#000;fill-opacity:1;stroke:#000;stroke-width:1.0629921;stroke-linecap:round;stroke-linejoin:round;stroke-miterlimit:4;stroke-opacity:1;stroke-dasharray:none;stroke-dashoffset:0;display:inline" id="path9674-69-6-1-6-95" d="m 237,128.36218 c 0,0.55229 -0.44772,1 -1,1 -0.55228,0 -1,-0.44771 -1,-1 0,-0.55228 0.44772,-1 1,-1 0.55228,0 1,0.44772 1,1 z" transform="translate(288.98984,-51)"/><rect style="fill:#fff;fill-opacity:1;stroke:#000;stroke-width:.53149605;stroke-linecap:round;stroke-linejoin:round;stroke-miterlimit:4;stroke-opacity:1;stroke-dasharray:none;stroke-dashoffset:0;display:inline" id="rect6788-7-2-7-4" width="35" height="35" x="40.945" y="475.621" rx="3.543" ry="3.543" transform="matrix(0.70710678,-0.70710678,0.70710678,0.70710678,0,0)"/><path style="fill:none;stroke:#000;stroke-width:.77952754;stroke-linecap:butt;stroke-linejoin:round;stroke-miterlimit:4;stroke-opacity:1;stroke-dasharray:none;marker-end:url(#Arrow1Mend)" id="path8845-6-0-7-0-4-7-6-0" d="m 413.55357,307.36218 31.08927,0"/><path style="fill:none;stroke:#000;stroke-width:.77952754;stroke-linecap:round;stroke-linejoin:round;stroke-miterlimit:4;stroke-opacity:1;stroke-dasharray:none;marker-end:url(#Arrow1Mend)" id="path8845-6-0-7-0-4-7-6-2" d="m 390,262.36219 0,20.17857"/><rect style="fill:#fff;fill-opacity:1;stroke:#000;stroke-width:.53149605;stroke-linecap:round;stroke-linejoin:round;stroke-miterlimit:4;stroke-opacity:1;stroke-dasharray:none;stroke-dashoffset:0;display:inline" id="rect6788-7-2-7-4-39" width="35" height="35" x="97.514" y="617.043" rx="3.543" ry="3.543" transform="matrix(0.70710678,-0.70710678,0.70710678,0.70710678,0,0)"/><path style="fill:none;stroke:#000;stroke-width:.77952754;stroke-linecap:butt;stroke-linejoin:round;stroke-miterlimit:4;stroke-opacity:1;stroke-dasharray:none;marker-end:url(#Arrow1Mend)" id="path8845-6-0-7-0-4-7-6-2-7" d="m 530,322.36218 0,20.12627"/><rect style="fill:#e8e8e8;fill-opacity:1;stroke:#000;stroke-width:.53149605;stroke-linecap:round;stroke-linejoin:round;stroke-miterlimit:4;stroke-opacity:1;stroke-dasharray:none;stroke-dashoffset:0;display:inline" id="rect6788-7-2-7-4-3-60" width="50" height="30" x="420" y="352.362" rx="3.543" ry="3.543"/><rect style="fill:#e8e8e8;fill-opacity:1;stroke:#000;stroke-width:.53149605;stroke-linecap:round;stroke-linejoin:round;stroke-miterlimit:4;stroke-opacity:1;stroke-dasharray:none;stroke-dashoffset:0;display:inline" id="rect6788-7-2-7-4-3-4-4" width="50" height="30" x="365" y="427.362" rx="3.543" ry="3.543"/><rect style="fill:#e8e8e8;fill-opacity:1;stroke:#000;stroke-width:.53149605;stroke-linecap:round;stroke-linejoin:round;stroke-miterlimit:4;stroke-opacity:1;stroke-dasharray:none;stroke-dashoffset:0;display:inline" id="rect6788-7-2-7-4-3-2" width="50" height="30" x="365" y="477.362" rx="3.543" ry="3.543"/><path style="fill:none;stroke:#000;stroke-width:.77952754;stroke-linecap:butt;stroke-linejoin:round;stroke-miterlimit:4;stroke-opacity:1;stroke-dasharray:none;marker-end:url(#Arrow1Mend)" id="path8845-6-0-7-0-4-7-6-6-0" d="m 390,457.36218 0,18.50508"/><rect style="fill:#e8e8e8;fill-opacity:1;stroke:#000;stroke-width:.53149605;stroke-linecap:round;stroke-linejoin:round;stroke-miterlimit:4;stroke-opacity:1;stroke-dasharray:none;stroke-dashoffset:0;display:inline" id="rect6788-7-2-7-4-3-60-8" width="50" height="30" x="505" y="292.362" rx="3.543" ry="3.543"/><path style="fill:none;stroke:#000;stroke-width:.77952754;stroke-linecap:butt;stroke-linejoin:round;stroke-miterlimit:4;stroke-opacity:1;stroke-dasharray:none;marker-end:url(#Arrow1Mend)" id="path8845-6-0-7-0-4-7-6-0-9" d="m 470,367.36218 35.1894,0"/><path style="fill:none;stroke:#000;stroke-width:.77952754;stroke-linecap:butt;stroke-linejoin:round;stroke-miterlimit:4;stroke-opacity:1;stroke-dasharray:none;marker-end:url(#Arrow1Mend)" id="path8845-1-4-88-5" d="m 553.44643,367.36218 21.55357,0 c 3,0 5,-2 5,-5 l 0,-50 c 0,-3 -2,-5 -5,-5 l -18.44194,-4e-5"/><path style="fill:none;stroke:#000;stroke-width:.77952754;stroke-linecap:butt;stroke-linejoin:round;stroke-miterlimit:4;stroke-opacity:1;stroke-dasharray:none;marker-end:url(#Arrow1Mend);display:inline" id="path8845-1-0-3" d="m 530,390.78246 0,11.57972 c 0,3 -2,5 -5,5 l -130,0 c -3,0 -5,2 -5,5 l 0,13.44194"/><path style="fill:none;stroke:#000;stroke-width:.77952754;stroke-linecap:butt;stroke-linejoin:round;stroke-miterlimit:4;stroke-opacity:1;stroke-dasharray:none;marker-end:url(#Arrow1Mend)" id="path8845-1-4-88-8" d="m 390,330.80861 0,31.55357 c 0,3 2,5 5,5 l 23.44194,4e-5"/><path style="fill:none;stroke:#000;stroke-width:.77952754;stroke-linecap:butt;stroke-linejoin:round;stroke-miterlimit:4;stroke-opacity:1;stroke-dasharray:none;marker-end:url(#Arrow1Mend)" id="path8845-1-4-88-5-3" d="m 365,492.36218 -20,0 c -3,0 -5,-2 -5,-5 l 0,-175 c 0,-3 2,-5 5,-5 l 20.26786,-4e-5"/></g><g id="layer7" transform="translate(-329.73425,-62.096435)" style="display:inline"><text style="font-size:11px;font-style:normal;font-variant:normal;font-weight:400;font-stretch:normal;text-align:center;line-height:125%;letter-spacing:0;word-spacing:0;text-anchor:middle;fill:#000;fill-opacity:1;stroke:none;font-family:Inconsolata LGC;-inkscape-font-specification:Inconsolata LGC" id="text4630" x="405" y="94.362" xml:space="preserve"><tspan id="tspan4632" x="405" y="94.362" dx="0 2 2">a←b</tspan></text><text style="font-size:11px;font-style:normal;font-variant:normal;font-weight:400;font-stretch:normal;text-align:start;line-height:125%;letter-spacing:0;word-spacing:0;text-anchor:start;fill:#000;fill-opacity:1;stroke:none;display:inline;font-family:Inconsolata LGC;-inkscape-font-specification:Inconsolata LGC" id="text4634" x="365.893" y="115.362" xml:space="preserve"><tspan id="tspan4636" x="365.893" y="115.362" dx="0 2 2">t←a</tspan></text><text style="font-size:11px;font-style:normal;font-variant:normal;font-weight:400;font-stretch:normal;text-align:start;line-height:125%;letter-spacing:0;word-spacing:0;text-anchor:start;fill:#000;fill-opacity:1;stroke:none;display:inline;font-family:Inconsolata LGC;-inkscape-font-specification:Inconsolata LGC" id="text4638" x="481" y="115.362" xml:space="preserve"><tspan id="tspan4640" x="481" y="115.362" dx="0 2 2">b←t</tspan></text><text style="font-size:11px;font-style:normal;font-variant:normal;font-weight:400;font-stretch:normal;text-align:start;line-height:125%;letter-spacing:0;word-spacing:0;text-anchor:start;fill:#000;fill-opacity:1;stroke:none;display:inline;font-family:Inconsolata LGC;-inkscape-font-specification:Inconsolata LGC" id="text4634-5" x="366" y="188.362" xml:space="preserve"><tspan id="tspan4636-2" x="366" y="188.362" dx="0 2 2">t←d</tspan></text><text style="font-size:11px;font-style:normal;font-variant:normal;font-weight:400;font-stretch:normal;text-align:center;line-height:125%;letter-spacing:0;word-spacing:0;text-anchor:middle;fill:#000;fill-opacity:1;stroke:none;display:inline;font-family:Inconsolata LGC;-inkscape-font-specification:Sans" id="text6689-7-1" x="355" y="80.911" xml:space="preserve"><tspan id="tspan6691-7-5" x="355" y="80.911">a</tspan></text><text style="font-size:11px;font-style:normal;font-variant:normal;font-weight:400;font-stretch:normal;text-align:center;line-height:125%;letter-spacing:0;word-spacing:0;text-anchor:middle;fill:#000;fill-opacity:1;stroke:none;display:inline;font-family:Inconsolata LGC;-inkscape-font-specification:Sans" id="text6689-7-1-5" x="460" y="80.911" xml:space="preserve"><tspan id="tspan6691-7-5-7" x="460" y="80.911">b</tspan></text><text style="font-size:11px;font-style:normal;font-variant:normal;font-weight:400;font-stretch:normal;text-align:center;line-height:125%;letter-spacing:0;word-spacing:0;text-anchor:middle;fill:#000;fill-opacity:1;stroke:none;display:inline;font-family:Inconsolata LGC;-inkscape-font-specification:Sans" id="text6689-7-1-3" x="355" y="151.268" xml:space="preserve"><tspan id="tspan6691-7-5-6" x="355" y="151.268">t</tspan></text><text style="font-size:11px;font-style:normal;font-variant:normal;font-weight:400;font-stretch:normal;text-align:center;line-height:125%;letter-spacing:0;word-spacing:0;text-anchor:middle;fill:#000;fill-opacity:1;stroke:none;display:inline;font-family:Inconsolata LGC;-inkscape-font-specification:Sans" id="text6689-7-1-3-1-1" x="437.464" y="185.362" xml:space="preserve"><tspan id="tspan6691-7-5-6-0-9" x="437.464" y="185.362" dx="0 -4">--</tspan></text><text style="font-size:11px;font-style:normal;font-variant:normal;font-weight:400;font-stretch:normal;text-align:center;line-height:125%;letter-spacing:0;word-spacing:0;text-anchor:middle;fill:#000;fill-opacity:1;stroke:none;display:inline;font-family:Inconsolata LGC;-inkscape-font-specification:Inconsolata LGC" id="text4171-6" x="525" y="150.934" xml:space="preserve"><tspan id="tspan4173-6" x="525" y="150.934">&lt;</tspan></text><text style="font-size:11px;font-style:normal;font-variant:normal;font-weight:400;font-stretch:normal;text-align:center;line-height:125%;letter-spacing:0;word-spacing:0;text-anchor:middle;fill:#000;fill-opacity:1;stroke:none;display:inline;font-family:Inconsolata LGC;-inkscape-font-specification:Inconsolata LGC" id="text4051" x="575" y="135.362" xml:space="preserve"><tspan id="tspan4053" x="575" y="135.362">0</tspan></text><text style="font-size:11px;font-style:normal;font-variant:normal;font-weight:400;font-stretch:normal;text-align:center;line-height:125%;letter-spacing:0;word-spacing:0;text-anchor:middle;fill:#000;fill-opacity:1;stroke:none;display:inline;font-family:Inconsolata LGC;-inkscape-font-specification:Inconsolata LGC" id="text4171" x="575" y="80.934" xml:space="preserve"><tspan id="tspan4173" x="575" y="80.934">=</tspan></text><text style="font-size:11px;font-style:normal;font-variant:normal;font-weight:400;font-stretch:normal;text-align:center;line-height:125%;letter-spacing:0;word-spacing:0;text-anchor:middle;fill:#000;fill-opacity:1;stroke:none;display:inline;font-family:Inconsolata LGC;-inkscape-font-specification:Inconsolata LGC" id="text3191" x="390.268" y="310.898" xml:space="preserve"><tspan id="tspan3193" x="390.268" y="310.898">=</tspan></text><text style="font-size:11px;font-style:normal;font-variant:normal;font-weight:400;font-stretch:normal;text-align:center;line-height:125%;letter-spacing:0;word-spacing:0;text-anchor:middle;fill:#000;fill-opacity:1;stroke:none;display:inline;font-family:Inconsolata LGC;-inkscape-font-specification:Inconsolata LGC" id="text4364" x="390" y="256.362" xml:space="preserve"><tspan id="tspan4366" x="390" y="256.362">start</tspan></text><text style="font-size:11px;font-style:normal;font-variant:normal;font-weight:400;font-stretch:normal;text-align:start;line-height:125%;letter-spacing:0;word-spacing:0;text-anchor:start;fill:#000;fill-opacity:1;stroke:none;display:inline;font-family:Inconsolata LGC;-inkscape-font-specification:Inconsolata LGC" id="text4368" x="417" y="300.362" xml:space="preserve"><tspan id="tspan4370" x="417" y="300.362">yes</tspan></text><text style="font-size:11px;font-style:normal;font-variant:normal;font-weight:400;font-stretch:normal;text-align:start;line-height:125%;letter-spacing:0;word-spacing:0;text-anchor:start;fill:#000;fill-opacity:1;stroke:none;display:inline;font-family:Inconsolata LGC;-inkscape-font-specification:Inconsolata LGC" id="text4372" x="453" y="310.362" xml:space="preserve"><tspan id="tspan4374" x="453" y="310.362">done</tspan></text><text style="font-size:11px;font-style:normal;font-variant:normal;font-weight:400;font-stretch:normal;text-align:start;line-height:125%;letter-spacing:0;word-spacing:0;text-anchor:start;fill:#000;fill-opacity:1;stroke:none;display:inline;font-family:Inconsolata LGC;-inkscape-font-specification:Inconsolata LGC" id="text4376" x="396" y="346.362" xml:space="preserve"><tspan id="tspan4378" x="396" y="346.362">no</tspan></text><text style="font-size:11px;font-style:normal;font-variant:normal;font-weight:400;font-stretch:normal;text-align:center;line-height:125%;letter-spacing:0;word-spacing:0;text-anchor:middle;fill:#000;fill-opacity:1;stroke:none;display:inline;font-family:Inconsolata LGC;-inkscape-font-specification:Inconsolata LGC" id="text3191-1" x="530" y="370.898" xml:space="preserve"><tspan id="tspan3193-1" x="530" y="370.898">&lt;</tspan></text><text style="font-size:11px;font-style:normal;font-variant:normal;font-weight:400;font-stretch:normal;text-align:start;line-height:125%;letter-spacing:0;word-spacing:0;text-anchor:start;fill:#000;fill-opacity:1;stroke:none;display:inline;font-family:Inconsolata LGC;-inkscape-font-specification:Inconsolata LGC" id="text4368-2" x="560" y="360.362" xml:space="preserve"><tspan id="tspan4370-7" x="560" y="360.362">no</tspan></text><text style="font-size:11px;font-style:normal;font-variant:normal;font-weight:400;font-stretch:normal;text-align:start;line-height:125%;letter-spacing:0;word-spacing:0;text-anchor:start;fill:#000;fill-opacity:1;stroke:none;display:inline;font-family:Inconsolata LGC;-inkscape-font-specification:Inconsolata LGC" id="text4376-6" x="536" y="402.362" xml:space="preserve"><tspan id="tspan4378-2" x="536" y="402.362">yes</tspan></text><text style="font-size:11px;font-style:normal;font-variant:normal;font-weight:400;font-stretch:normal;text-align:center;line-height:125%;letter-spacing:0;word-spacing:0;text-anchor:middle;fill:#000;fill-opacity:1;stroke:none;display:inline;font-family:Inconsolata LGC;-inkscape-font-specification:Sans" id="text6689-7-1-9" x="445" y="370.911" xml:space="preserve"><tspan id="tspan6691-7-5-8" x="445" y="370.911" dx="0 2 2">t←a</tspan></text><text style="font-size:11px;font-style:normal;font-variant:normal;font-weight:400;font-stretch:normal;text-align:center;line-height:125%;letter-spacing:0;word-spacing:0;text-anchor:middle;fill:#000;fill-opacity:1;stroke:none;display:inline;font-family:Inconsolata LGC;-inkscape-font-specification:Sans" id="text6689-7-1-1" x="390" y="445.911" xml:space="preserve"><tspan id="tspan6691-7-5-7-7" x="390" y="445.911" dx="0 2 2">a←b</tspan></text><text style="font-size:11px;font-style:normal;font-variant:normal;font-weight:400;font-stretch:normal;text-align:center;line-height:125%;letter-spacing:0;word-spacing:0;text-anchor:middle;fill:#000;fill-opacity:1;stroke:none;display:inline;font-family:Inconsolata LGC;-inkscape-font-specification:Sans" id="text6689-7-1-12" x="390" y="495.911" xml:space="preserve"><tspan id="tspan6691-7-5-5" x="390" y="495.911" dx="0 2 2">b←t</tspan></text><text style="font-size:11px;font-style:normal;font-variant:normal;font-weight:400;font-stretch:normal;text-align:center;line-height:125%;letter-spacing:0;word-spacing:0;text-anchor:middle;fill:#000;fill-opacity:1;stroke:none;display:inline;font-family:Inconsolata LGC;-inkscape-font-specification:Sans" id="text6689-7-1-9-0" x="530" y="310.911" xml:space="preserve"><tspan id="tspan6691-7-5-8-2" x="530" y="310.911" dx="0 2 2">t←d</tspan></text></g></svg>