<svg xmlns="http://www.w3.org/2000/svg" xmlns:svg="http://www.w3.org/2000/svg" id="svg4401" width="416.867" height="280.531" version="1.1"><defs id="defs4403"><marker id="Arrow1Mend" orient="auto" refX="0" refY="0" style="overflow:visible"><path id="path4415" d="M 0,0 5,-5 -12.5,0 5,5 0,0 z" transform="matrix(-0.4,0,0,-0.4,-4,0)" style="fill-rule:evenodd;stroke:#000;stroke-width:1pt;marker-start:none"/></marker><marker id="marker4990" orient="auto" refX="0" refY="0" style="overflow:visible"><path id="path4992" d="M 0,0 5,-5 -12.5,0 5,5 0,0 z" transform="matrix(-0.4,0,0,-0.4,-4,0)" style="fill-rule:evenodd;stroke:#000;stroke-width:1pt;marker-start:none"/></marker><marker id="marker4994" orient="auto" refX="0" refY="0" style="overflow:visible"><path id="path4996" d="M 0,0 5,-5 -12.5,0 5,5 0,0 z" transform="matrix(-0.4,0,0,-0.4,-4,0)" style="fill-rule:evenodd;stroke:#000;stroke-width:1pt;marker-start:none"/></marker><marker id="marker4998" orient="auto" refX="0" refY="0" style="overflow:visible"><path id="path5000" d="M 0,0 5,-5 -12.5,0 5,5 0,0 z" transform="matrix(-0.4,0,0,-0.4,-4,0)" style="fill-rule:evenodd;stroke:#000;stroke-width:1pt;marker-start:none"/></marker><marker id="marker5002" orient="auto" refX="0" refY="0" style="overflow:visible"><path id="path5004" d="M 0,0 5,-5 -12.5,0 5,5 0,0 z" transform="matrix(-0.4,0,0,-0.4,-4,0)" style="fill-rule:evenodd;stroke:#000;stroke-width:1pt;marker-start:none"/></marker><marker id="marker5006" orient="auto" refX="0" refY="0" style="overflow:visible"><path id="path5008" d="M 0,0 5,-5 -12.5,0 5,5 0,0 z" transform="matrix(-0.4,0,0,-0.4,-4,0)" style="fill-rule:evenodd;stroke:#000;stroke-width:1pt;marker-start:none"/></marker><marker id="marker5010" orient="auto" refX="0" refY="0" style="overflow:visible"><path id="path5012" d="M 0,0 5,-5 -12.5,0 5,5 0,0 z" transform="matrix(-0.4,0,0,-0.4,-4,0)" style="fill-rule:evenodd;stroke:#000;stroke-width:1pt;marker-start:none"/></marker><marker id="Arrow1Mend-5" orient="auto" refX="0" refY="0" style="overflow:visible"><path id="path4415-4" d="M 0,0 5,-5 -12.5,0 5,5 0,0 z" transform="matrix(-0.4,0,0,-0.4,-4,0)" style="fill-rule:evenodd;stroke:#000;stroke-width:1pt;marker-start:none"/></marker><marker id="Arrow1Mend-4" orient="auto" refX="0" refY="0" style="overflow:visible"><path id="path4415-9" d="M 0,0 5,-5 -12.5,0 5,5 0,0 z" transform="matrix(-0.4,0,0,-0.4,-4,0)" style="fill-rule:evenodd;stroke:#000;stroke-width:1pt;marker-start:none"/></marker><marker id="Arrow1Mend-48" orient="auto" refX="0" refY="0" style="overflow:visible"><path id="path4415-7" d="M 0,0 5,-5 -12.5,0 5,5 0,0 z" transform="matrix(-0.4,0,0,-0.4,-4,0)" style="fill-rule:evenodd;stroke:#000;stroke-width:1pt;marker-start:none"/></marker><marker id="Arrow1Mend-7" orient="auto" refX="0" refY="0" style="overflow:visible"><path id="path4415-0" d="M 0,0 5,-5 -12.5,0 5,5 0,0 z" transform="matrix(-0.4,0,0,-0.4,-4,0)" style="fill-rule:evenodd;stroke:#000;stroke-width:1pt;marker-start:none"/></marker><marker id="Arrow1Mend-9" orient="auto" refX="0" refY="0" style="overflow:visible"><path id="path4415-1" d="M 0,0 5,-5 -12.5,0 5,5 0,0 z" transform="matrix(-0.4,0,0,-0.4,-4,0)" style="fill-rule:evenodd;stroke:#000;stroke-width:1pt;marker-start:none"/></marker><marker id="Arrow1Mend-2" orient="auto" refX="0" refY="0" style="overflow:visible"><path id="path4415-2" d="M 0,0 5,-5 -12.5,0 5,5 0,0 z" transform="matrix(-0.4,0,0,-0.4,-4,0)" style="fill-rule:evenodd;stroke:#000;stroke-width:1pt;marker-start:none"/></marker><marker id="Arrow1Mend-28" orient="auto" refX="0" refY="0" style="overflow:visible"><path id="path4415-93" d="M 0,0 5,-5 -12.5,0 5,5 0,0 z" transform="matrix(-0.4,0,0,-0.4,-4,0)" style="fill-rule:evenodd;stroke:#000;stroke-width:1pt;marker-start:none"/></marker></defs><metadata id="metadata_5.4"/><g id="layer4" transform="translate(-355.34328,-72.096435)" style="display:inline"><path style="fill:none;stroke:#000;stroke-width:.53149605;stroke-linecap:round;stroke-linejoin:round;stroke-miterlimit:4;stroke-opacity:1;stroke-dasharray:none;stroke-dashoffset:0;display:inline" id="rect6788-7-2-7-4-3-4-8" d="m 436.40564,72.362183 52,0 c 3,0 4.03782,2.87043 3,5 l -10.45669,21.4567 c -0.85996,1.764607 -2.54331,3.543297 -5.54331,3.543297 l -26,0 c -3,0 -4.68335,-1.77869 -5.54331,-3.543297 l -10.45669,-21.4567 c -1.03782,-2.12957 0,-5 3,-5 z"/><path style="fill:none;stroke:#000;stroke-width:.53149605;stroke-linecap:round;stroke-linejoin:round;stroke-miterlimit:4;stroke-opacity:1;stroke-dasharray:none" id="path4116" d="m 461.46447,180.89771 7.07107,-7.07107"/><path style="fill:none;stroke:#000;stroke-width:.53149605;stroke-linecap:round;stroke-linejoin:round;stroke-miterlimit:4;stroke-opacity:1;stroke-dasharray:none" id="path4118" d="m 468.53554,180.89771 -7.07107,-7.07107"/><path style="fill:none;stroke:#000;stroke-width:.53149605;stroke-linecap:round;stroke-linejoin:round;stroke-miterlimit:4;stroke-opacity:1;stroke-dasharray:none;stroke-dashoffset:0" id="path4086-0" d="m 210,87.362183 c 0,2.761423 -2.23858,5 -5,5 -2.76142,0 -5,-2.238577 -5,-5 0,-2.761424 2.23858,-5 5,-5 2.76142,0 5,2.238576 5,5 z" transform="matrix(-0.70710678,-0.70710678,0.70710678,-0.70710678,548.1825,384.09346)"/><path style="fill:none;stroke:#000;stroke-width:.53149605;stroke-linecap:round;stroke-linejoin:round;stroke-miterlimit:4;stroke-opacity:1;stroke-dasharray:none" id="path4116-8" d="m 516.46447,226.82665 7.07107,7.07107"/><path style="fill:none;stroke:#000;stroke-width:.53149605;stroke-linecap:round;stroke-linejoin:round;stroke-miterlimit:4;stroke-opacity:1;stroke-dasharray:none" id="path4118-6" d="m 516.46447,233.89772 7.07107,-7.07107"/><path style="fill:none;stroke:#000;stroke-width:.53149605;stroke-linecap:round;stroke-linejoin:round;stroke-miterlimit:4;stroke-opacity:1;stroke-dasharray:none;stroke-dashoffset:0" id="path4086-0-9" d="m 210,87.362183 c 0,2.761423 -2.23858,5 -5,5 -2.76142,0 -5,-2.238577 -5,-5 0,-2.761424 2.23858,-5 5,-5 2.76142,0 5,2.238576 5,5 z" transform="matrix(0.70710678,-0.70710678,0.70710678,0.70710678,313.26872,313.54468)"/><path style="fill:none;stroke:#000;stroke-width:.53149605;stroke-linecap:round;stroke-linejoin:round;stroke-miterlimit:4;stroke-opacity:1;stroke-dasharray:none" id="path4116-0" d="m 459.01802,300.89771 7.07107,-7.07107"/><path style="fill:none;stroke:#000;stroke-width:.53149605;stroke-linecap:round;stroke-linejoin:round;stroke-miterlimit:4;stroke-opacity:1;stroke-dasharray:none" id="path4118-3" d="m 466.08909,300.89771 -7.07107,-7.07107"/><path style="fill:none;stroke:#000;stroke-width:.53149605;stroke-linecap:round;stroke-linejoin:round;stroke-miterlimit:4;stroke-opacity:1;stroke-dasharray:none;stroke-dashoffset:0" id="path4086-0-97" d="m 210,87.362183 c 0,2.761423 -2.23858,5 -5,5 -2.76142,0 -5,-2.238577 -5,-5 0,-2.761424 2.23858,-5 5,-5 2.76142,0 5,2.238576 5,5 z" transform="matrix(-0.70710678,-0.70710678,0.70710678,-0.70710678,545.73605,504.09346)"/><rect style="fill:#e8e8e8;fill-opacity:1;stroke:#000;stroke-width:.53149605;stroke-linecap:round;stroke-linejoin:round;stroke-miterlimit:4;stroke-opacity:1;stroke-dasharray:none;stroke-dashoffset:0;display:inline" id="rect6788-7-2-7-4-3" width="50" height="30" x="390" y="162.362" rx="3.543" ry="3.543"/><rect style="fill:#e8e8e8;fill-opacity:1;stroke:#000;stroke-width:.53149605;stroke-linecap:round;stroke-linejoin:round;stroke-miterlimit:4;stroke-opacity:1;stroke-dasharray:none;stroke-dashoffset:0;display:inline" id="rect6788-7-2-7-4-3-6" width="50" height="30" x="485" y="162.362" rx="3.543" ry="3.543"/><path style="fill:none;stroke:#000;stroke-width:.77952754;stroke-linecap:butt;stroke-linejoin:round;stroke-miterlimit:4;stroke-opacity:1;stroke-dasharray:none;marker-end:url(#Arrow1Mend)" id="path8845-6-0-7-0" d="m 575,241.89789 0,-48.16071"/><path style="fill:none;stroke:#000;stroke-width:.77952754;stroke-linecap:butt;stroke-linejoin:round;stroke-miterlimit:4;stroke-opacity:1;stroke-dasharray:none;marker-end:url(#Arrow1Mend)" id="path8845-6-0-7-0-4" d="m 460,177.36218 -18.625,0"/><path style="fill:none;stroke:#000;stroke-width:.77952754;stroke-linecap:butt;stroke-linejoin:round;stroke-miterlimit:4;stroke-opacity:1;stroke-dasharray:none" id="path4298" d="m 470,177.36218 15,0"/><path style="fill:none;stroke:#000;stroke-width:.77952754;stroke-linecap:butt;stroke-linejoin:round;stroke-miterlimit:4;stroke-opacity:1;stroke-dasharray:none;marker-end:url(#Arrow1Mend)" id="path8845-6-0-7-0-4-7" d="m 520,225.36218 0,-31.625"/><path style="fill:none;stroke:#000;stroke-width:.77952754;stroke-linecap:butt;stroke-linejoin:round;stroke-miterlimit:4;stroke-opacity:1;stroke-dasharray:none" id="path4298-8" d="m 462.55355,272.36218 0,20"/><path style="fill:none;stroke:#000;stroke-width:.77952754;stroke-linecap:butt;stroke-linejoin:round;stroke-miterlimit:4;stroke-opacity:1;stroke-dasharray:none;marker-end:url(#Arrow1Mend)" id="path8845-6-0-7-0-4-7-6" d="m 462.55355,302.36218 0,18.53571"/><path style="fill:none;stroke:#000;stroke-width:.77952754;stroke-linecap:butt;stroke-linejoin:round;stroke-miterlimit:4;stroke-opacity:1;stroke-dasharray:none;marker-end:none" id="path8845-1-4-88" d="m 520,235.36218 0,97 c 0,3 -2,5 -5,5 l -27.26786,4e-5"/><path style="fill:none;stroke:#000;stroke-width:.77952754;stroke-linecap:butt;stroke-linejoin:round;stroke-miterlimit:4;stroke-opacity:1;stroke-dasharray:none;marker-end:url(#Arrow1Mend)" id="path8845-1-0" d="m 425,192.36218 0,20 c 0,3 2,5 5,5 l 10,0 c 3,0 5,2 5,5 l 0,18.53571"/><path style="fill:none;stroke:#000;stroke-width:.77952754;stroke-linecap:butt;stroke-linejoin:round;stroke-miterlimit:4;stroke-opacity:1;stroke-dasharray:none;marker-end:url(#Arrow1Mend)" id="path8845-1-0-3" d="m 500,192.36218 0,20 c 0,3 -2,5 -5,5 l -10,0 c -3,0 -5,2 -5,5 l 0,18.625"/><path style="fill:none;stroke:#000;stroke-width:.77952754;stroke-linecap:butt;stroke-linejoin:round;stroke-miterlimit:4;stroke-opacity:1;stroke-dasharray:none;marker-end:url(#Arrow1Mend)" id="path8845-6-0-7-0-4-7-9" d="m 535,177.36218 23.625,0"/><rect style="fill:#e8e8e8;fill-opacity:1;stroke:#000;stroke-width:.53149605;stroke-linecap:round;stroke-linejoin:round;stroke-miterlimit:4;stroke-opacity:1;stroke-dasharray:none;stroke-dashoffset:0;display:inline" id="rect6788-7-2-7-4-3-4" width="50" height="30" x="437.554" y="322.362" rx="3.543" ry="3.543"/><path style="fill:none;stroke:#000;stroke-width:.53149605;stroke-linecap:round;stroke-linejoin:round;stroke-miterlimit:4;stroke-opacity:1;stroke-dasharray:none;stroke-dashoffset:0;display:inline" id="rect6788-7-2-7-4-3-4-8-4" d="m 436.63135,242.36218 52,0 c 3,0 4.03782,2.87043 3,5 l -10.45669,21.4567 c -0.85996,1.76461 -2.54331,3.5433 -5.54331,3.5433 l -26,0 c -3,0 -4.68335,-1.77869 -5.54331,-3.5433 l -10.45669,-21.4567 c -1.03782,-2.12957 0,-5 3,-5 z"/><path style="fill:#fff;fill-opacity:1;stroke:#000;stroke-width:.53149605;stroke-linecap:round;stroke-linejoin:round;stroke-miterlimit:4;stroke-opacity:1;stroke-dasharray:none;stroke-dashoffset:0;display:inline" id="rect6788-7-2-7-4-3-4-8-3" d="m 563,272.36218 24,0 c 3,0 4.5782,-1.97512 3,-5 l -12,-23 c -1.56821,-3 -4.41037,-2.96843 -6,0 l -12,23 c -1.5782,3.02488 0,5 3,5 z"/><path style="fill:none;stroke:#000;stroke-width:.53149605;stroke-linecap:round;stroke-linejoin:round;stroke-miterlimit:4;stroke-opacity:1;stroke-dasharray:none;stroke-dashoffset:0" id="path4082" d="m 310,72.362183 c 0,8.284271 -6.71573,15 -15,15 -8.28427,0 -15,-6.715729 -15,-15 0,-8.284272 6.71573,-15 15,-15 8.28427,0 15,6.715728 15,15 z" transform="translate(280,105)"/><path style="fill:none;stroke:#000;stroke-width:.53149605;stroke-linecap:round;stroke-linejoin:round;stroke-miterlimit:4;stroke-opacity:1;stroke-dasharray:none;stroke-dashoffset:0;display:inline" id="rect6788-7-2-7-4-3-4-8-9" d="m 359,242.36218 52,0 c 3,0 4.03782,2.87043 3,5 l -10.45669,21.4567 C 402.68335,270.58349 401,272.36218 398,272.36218 l -26,0 c -3,0 -4.68335,-1.77869 -5.54331,-3.5433 L 356,247.36218 c -1.03782,-2.12957 0,-5 3,-5 z"/><path style="fill:none;stroke:#000;stroke-width:.77952754;stroke-linecap:butt;stroke-linejoin:round;stroke-miterlimit:4;stroke-opacity:1;stroke-dasharray:none;marker-end:url(#Arrow1Mend)" id="path8845-1-0-4" d="m 462,122.36218 -42,0 c -3,0 -5,2 -5,5 l -4e-5,33.53571"/><path style="fill:none;stroke:#000;stroke-width:.77952754;stroke-linecap:butt;stroke-linejoin:round;stroke-miterlimit:4;stroke-opacity:1;stroke-dasharray:none;marker-end:url(#Arrow1Mend)" id="path8845-1-0-4-5" d="m 463,122.36218 42,0 c 3,0 5,2 5,5 l 4e-5,33.53571"/><path style="fill:#000;fill-opacity:1;stroke:#000;stroke-width:1.0629921;stroke-linecap:round;stroke-linejoin:round;stroke-miterlimit:4;stroke-opacity:1;stroke-dasharray:none;stroke-dashoffset:0;display:inline" id="path9674-69-6-1-6" d="m 237,128.36218 c 0,0.55229 -0.44772,1 -1,1 -0.55228,0 -1,-0.44771 -1,-1 0,-0.55228 0.44772,-1 1,-1 0.55228,0 1,0.44772 1,1 z" transform="translate(226.49492,-5.9999974)"/><path style="fill:none;stroke:#000;stroke-width:.77952754;stroke-linecap:butt;stroke-linejoin:round;stroke-miterlimit:4;stroke-opacity:1;stroke-dasharray:none;marker-end:url(#Arrow1Mend)" id="path8845-1-0-1" d="m 405,192.36218 0,20 c 0,3 -2,5 -5,5 l -10,0 c -3,0 -5,2 -5,5 l 0,18.625"/><path style="fill:none;stroke:#000;stroke-width:.77952754;stroke-linecap:butt;stroke-linejoin:round;stroke-miterlimit:4;stroke-opacity:1;stroke-dasharray:none" id="path4298-8-8" d="m 462.49493,102.36218 0,20"/><path style="fill:#fff;fill-opacity:1;stroke:#000;stroke-width:.53149605;stroke-linecap:round;stroke-linejoin:round;stroke-miterlimit:4;stroke-opacity:1;stroke-dasharray:none;stroke-dashoffset:0" id="path4086-0-4-4" d="m 210,87.362183 c 0,2.761423 -2.23858,5 -5,5 -2.76142,0 -5,-2.238577 -5,-5 0,-2.761424 2.23858,-5 5,-5 2.76142,0 5,2.238576 5,5 z" transform="matrix(-0.70710678,-0.70710678,0.70710678,-0.70710678,498.1825,349.09346)"/><path style="fill:none;stroke:#000;stroke-width:.53149605;stroke-linecap:round;stroke-linejoin:round;stroke-miterlimit:4;stroke-opacity:1;stroke-dasharray:none" id="path4116-3-1" d="m 411.46447,145.89771 7.07107,-7.07106"/><path style="fill:none;stroke:#000;stroke-width:.53149605;stroke-linecap:round;stroke-linejoin:round;stroke-miterlimit:4;stroke-opacity:1;stroke-dasharray:none" id="path4118-65-6" d="m 418.53554,145.89771 -7.07107,-7.07106"/><path style="fill:#fff;fill-opacity:1;stroke:#000;stroke-width:.53149605;stroke-linecap:round;stroke-linejoin:round;stroke-miterlimit:4;stroke-opacity:1;stroke-dasharray:none;stroke-dashoffset:0" id="path4086-0-4-2" d="m 210,87.362183 c 0,2.761423 -2.23858,5 -5,5 -2.76142,0 -5,-2.238577 -5,-5 0,-2.761424 2.23858,-5 5,-5 2.76142,0 5,2.238576 5,5 z" transform="matrix(-0.70710678,-0.70710678,0.70710678,-0.70710678,593.1825,349.09346)"/><path style="fill:none;stroke:#000;stroke-width:.53149605;stroke-linecap:round;stroke-linejoin:round;stroke-miterlimit:4;stroke-opacity:1;stroke-dasharray:none" id="path4116-3-8" d="m 506.46447,145.89771 7.07107,-7.07106"/><path style="fill:none;stroke:#000;stroke-width:.53149605;stroke-linecap:round;stroke-linejoin:round;stroke-miterlimit:4;stroke-opacity:1;stroke-dasharray:none" id="path4118-65-0" d="m 513.53554,145.89771 -7.07107,-7.07106"/><g style="stroke-width:.53149605;stroke-linecap:butt;stroke-miterlimit:4;stroke-dasharray:none" id="g4122-0-5-8" transform="matrix(0.70710678,0.70710678,-0.70710678,0.70710678,301.8175,90.6309)"><path id="path4116-0-3-0" d="m 205,82.362183 0,10" style="fill:none;stroke:#000;stroke-width:.53149605;stroke-linecap:butt;stroke-linejoin:round;stroke-miterlimit:4;stroke-opacity:1;stroke-dasharray:none"/><path id="path4118-3-8-2" d="m 200,87.362183 10,0" style="fill:none;stroke:#000;stroke-width:.53149605;stroke-linecap:butt;stroke-linejoin:round;stroke-miterlimit:4;stroke-opacity:1;stroke-dasharray:none"/><path id="path4086-0-97-1-1" d="m 210,87.362183 c 0,2.761423 -2.23858,5 -5,5 -2.76142,0 -5,-2.238577 -5,-5 0,-2.761424 2.23858,-5 5,-5 2.76142,0 5,2.238576 5,5 z" style="fill:none;stroke:#000;stroke-width:.53149605;stroke-linecap:butt;stroke-linejoin:round;stroke-miterlimit:4;stroke-opacity:1;stroke-dasharray:none;stroke-dashoffset:0"/></g><path style="fill:none;stroke:#000;stroke-width:.77952754;stroke-linecap:round;stroke-linejoin:round;stroke-miterlimit:4;stroke-opacity:1;stroke-dasharray:none" id="path4298-8-6-0" d="m 385,317.36218 0,-14.77679"/><path style="fill:none;stroke:#000;stroke-width:.77952754;stroke-linecap:butt;stroke-linejoin:round;stroke-miterlimit:4;stroke-opacity:1;stroke-dasharray:none;marker-end:url(#Arrow1Mend)" id="path8845-6-0-7-0-4-7-6-5-5" d="m 385,292.36218 0,-18.71429"/></g><g id="layer5" transform="translate(-355.34328,-72.096435)" style="display:inline"><text style="font-size:11px;font-style:normal;font-variant:normal;font-weight:400;font-stretch:normal;text-align:start;line-height:139.99999762%;letter-spacing:0;word-spacing:0;text-anchor:start;fill:#000;fill-opacity:1;stroke:none;font-family:Inconsolata LGC;-inkscape-font-specification:Inconsolata LGC" id="text5698" x="600" y="82.362" xml:space="preserve"><tspan id="tspan5700" x="600" y="82.362" style="font-size:10px;line-height:139.99999762%">(controller</tspan><tspan id="tspan5702" x="600" y="96.362" style="font-size:10px;line-height:139.99999762%"> gcd-loop</tspan><tspan id="tspan5704" x="600" y="110.362" style="font-size:10px;line-height:139.99999762%"> (assign a (op read))</tspan><tspan id="tspan5706" x="600" y="124.362" style="font-size:10px;line-height:139.99999762%"> (assign b (op read))</tspan><tspan id="tspan5708" x="600" y="138.362" style="font-size:10px;line-height:139.99999762%"> test-b</tspan><tspan id="tspan5710" x="600" y="152.362" style="font-size:10px;line-height:139.99999762%"> (test (op =) </tspan><tspan id="tspan5804" x="600" y="166.362" style="font-size:10px;line-height:139.99999762%"> (reg b) </tspan><tspan id="tspan5806" x="600" y="180.362" style="font-size:10px;line-height:139.99999762%"> (const 0))</tspan><tspan id="tspan5712" x="600" y="194.362" style="font-size:10px;line-height:139.99999762%"> (branch (label gcd-done))</tspan><tspan id="tspan5714" x="600" y="208.362" style="font-size:10px;line-height:139.99999762%"> (assign t </tspan><tspan id="tspan5808" x="600" y="222.362" style="font-size:10px;line-height:139.99999762%"> (op rem) </tspan><tspan id="tspan5810" x="600" y="236.362" style="font-size:10px;line-height:139.99999762%"> (reg a) </tspan><tspan id="tspan5812" x="600" y="250.362" style="font-size:10px;line-height:139.99999762%"> (reg b))</tspan><tspan id="tspan5716" x="600" y="264.362" style="font-size:10px;line-height:139.99999762%"> (assign a (reg b))</tspan><tspan id="tspan5718" x="600" y="278.362" style="font-size:10px;line-height:139.99999762%"> (assign b (reg t))</tspan><tspan id="tspan5720" x="600" y="292.362" style="font-size:10px;line-height:139.99999762%"> (goto (label test-b))</tspan><tspan id="tspan5722" x="600" y="306.362" style="font-size:10px;line-height:139.99999762%"> gcd-done</tspan><tspan id="tspan5724" x="600" y="320.362" style="font-size:10px;line-height:139.99999762%"> (perform (op print) </tspan><tspan id="tspan5814" x="600" y="334.362" style="font-size:10px;line-height:139.99999762%"> (reg a))</tspan><tspan id="tspan5726" x="600" y="348.362" style="font-size:10px;line-height:139.99999762%"> (goto (label gcd-loop)))</tspan></text><text style="font-size:11px;font-style:normal;font-variant:normal;font-weight:400;font-stretch:normal;text-align:center;line-height:125%;letter-spacing:0;word-spacing:0;text-anchor:middle;fill:#000;fill-opacity:1;stroke:none;display:inline;font-family:Inconsolata LGC;-inkscape-font-specification:Sans" id="text6689-7-1-3-1" x="462.406" y="90.553" xml:space="preserve"><tspan id="tspan6691-7-5-6-0" x="462.406" y="90.553">read</tspan></text><text style="font-size:11px;font-style:normal;font-variant:normal;font-weight:400;font-stretch:normal;text-align:center;line-height:125%;letter-spacing:0;word-spacing:0;text-anchor:middle;fill:#000;fill-opacity:1;stroke:none;display:inline;font-family:Inconsolata LGC;-inkscape-font-specification:Sans" id="text6689-7-1" x="415" y="180.911" xml:space="preserve"><tspan id="tspan6691-7-5" x="415" y="180.911">a</tspan></text><text style="font-size:11px;font-style:normal;font-variant:normal;font-weight:400;font-stretch:normal;text-align:center;line-height:125%;letter-spacing:0;word-spacing:0;text-anchor:middle;fill:#000;fill-opacity:1;stroke:none;display:inline;font-family:Inconsolata LGC;-inkscape-font-specification:Sans" id="text6689-7-1-5" x="510" y="180.911" xml:space="preserve"><tspan id="tspan6691-7-5-7" x="510" y="180.911">b</tspan></text><text style="font-size:11px;font-style:normal;font-variant:normal;font-weight:400;font-stretch:normal;text-align:center;line-height:125%;letter-spacing:0;word-spacing:0;text-anchor:middle;fill:#000;fill-opacity:1;stroke:none;display:inline;font-family:Inconsolata LGC;-inkscape-font-specification:Sans" id="text6689-7-1-3" x="462.554" y="341.268" xml:space="preserve"><tspan id="tspan6691-7-5-6" x="462.554" y="341.268">t</tspan></text><text style="font-size:11px;font-style:normal;font-variant:normal;font-weight:400;font-stretch:normal;text-align:center;line-height:125%;letter-spacing:0;word-spacing:0;text-anchor:middle;fill:#000;fill-opacity:1;stroke:none;display:inline;font-family:Inconsolata LGC;-inkscape-font-specification:Sans" id="text6689-7-1-3-1-1" x="462.631" y="260.553" xml:space="preserve"><tspan id="tspan6691-7-5-6-0-9" x="462.631" y="260.553">rem</tspan></text><text style="font-size:11px;font-style:normal;font-variant:normal;font-weight:400;font-stretch:normal;text-align:center;line-height:125%;letter-spacing:0;word-spacing:0;text-anchor:middle;fill:#000;fill-opacity:1;stroke:none;display:inline;font-family:Inconsolata LGC;-inkscape-font-specification:Inconsolata LGC" id="text4630" x="465" y="194.362" xml:space="preserve"><tspan id="tspan4632" x="465" y="194.362" dx="0 2 2">a←b</tspan></text><text style="font-size:11px;font-style:normal;font-variant:normal;font-weight:400;font-stretch:normal;text-align:start;line-height:125%;letter-spacing:0;word-spacing:0;text-anchor:start;fill:#000;fill-opacity:1;stroke:none;display:inline;font-family:Inconsolata LGC;-inkscape-font-specification:Inconsolata LGC" id="text4634" x="473.446" y="300.362" xml:space="preserve"><tspan id="tspan4636" x="473.446" y="300.362" dx="0 2 2">t←r</tspan></text><text style="font-size:11px;font-style:normal;font-variant:normal;font-weight:400;font-stretch:normal;text-align:start;line-height:125%;letter-spacing:0;word-spacing:0;text-anchor:start;fill:#000;fill-opacity:1;stroke:none;display:inline;font-family:Inconsolata LGC;-inkscape-font-specification:Inconsolata LGC" id="text4638" x="531" y="233.362" xml:space="preserve"><tspan id="tspan4640" x="531" y="233.362" dx="0 2 2">b←t</tspan></text><text style="font-size:11px;font-style:normal;font-variant:normal;font-weight:400;font-stretch:normal;text-align:center;line-height:125%;letter-spacing:0;word-spacing:0;text-anchor:middle;fill:#000;fill-opacity:1;stroke:none;display:inline;font-family:Inconsolata LGC;-inkscape-font-specification:Inconsolata LGC" id="text4051" x="575" y="265.362" xml:space="preserve"><tspan id="tspan4053" x="575" y="265.362">0</tspan></text><text style="font-size:11px;font-style:normal;font-variant:normal;font-weight:400;font-stretch:normal;text-align:center;line-height:125%;letter-spacing:0;word-spacing:0;text-anchor:middle;fill:#000;fill-opacity:1;stroke:none;display:inline;font-family:Inconsolata LGC;-inkscape-font-specification:Inconsolata LGC" id="text4171" x="575" y="180.934" xml:space="preserve"><tspan id="tspan4173" x="575" y="180.934">=</tspan></text><text style="font-size:11px;font-style:normal;font-variant:normal;font-weight:400;font-stretch:normal;text-align:center;line-height:125%;letter-spacing:0;word-spacing:0;text-anchor:middle;fill:#000;fill-opacity:1;stroke:none;display:inline;font-family:Inconsolata LGC;-inkscape-font-specification:Sans" id="text6689-7-1-3-1-3" x="385" y="260.553" xml:space="preserve"><tspan id="tspan6691-7-5-6-0-0" x="385" y="260.553">print</tspan></text><text style="font-size:11px;font-style:normal;font-variant:normal;font-weight:400;font-stretch:normal;text-align:end;line-height:125%;letter-spacing:0;word-spacing:0;text-anchor:end;fill:#000;fill-opacity:1;stroke:none;display:inline;font-family:Inconsolata LGC;-inkscape-font-specification:Inconsolata LGC" id="text4630-9" x="404" y="145.362" xml:space="preserve"><tspan id="tspan4632-0" x="404" y="145.362" dx="0 2 2">a←rd</tspan></text><text style="font-size:11px;font-style:normal;font-variant:normal;font-weight:400;font-stretch:normal;text-align:start;line-height:125%;letter-spacing:0;word-spacing:0;text-anchor:start;fill:#000;fill-opacity:1;stroke:none;display:inline;font-family:Inconsolata LGC;-inkscape-font-specification:Inconsolata LGC" id="text4630-9-2" x="521" y="145.362" xml:space="preserve"><tspan id="tspan4632-0-2" x="521" y="145.362" dx="0 2 2">b←rd</tspan></text><text style="font-size:11px;font-style:normal;font-variant:normal;font-weight:400;font-stretch:normal;text-align:start;line-height:125%;letter-spacing:0;word-spacing:0;text-anchor:start;fill:#000;fill-opacity:1;stroke:none;display:inline;font-family:Inconsolata LGC;-inkscape-font-specification:Inconsolata LGC" id="text5516-3" x="396" y="301.362" xml:space="preserve"><tspan id="tspan5518-1" x="396" y="301.362">P</tspan></text></g></svg>