<svg xmlns="http://www.w3.org/2000/svg" xmlns:svg="http://www.w3.org/2000/svg" id="svg2" width="388.399" height="164.488" version="1.1"><defs id="defs4"><marker id="Arrow2Lstart" orient="auto" refX="0" refY="0" style="overflow:visible"><path id="path3899" d="M 8.7185878,4.0337352 -2.2072895,0.01601326 8.7185884,-4.0017078 c -1.7454984,2.3720609 -1.7354408,5.6174519 -6e-7,8.035443 z" transform="matrix(1.1,0,0,1.1,1.1,0)" style="font-size:12px;fill-rule:evenodd;stroke-width:.625;stroke-linejoin:round"/></marker><marker id="Arrow1Mstart" orient="auto" refX="0" refY="0" style="overflow:visible"><path id="path3887" d="M 0,0 5,-5 -12.5,0 5,5 0,0 z" transform="matrix(0.4,0,0,0.4,4,0)" style="fill-rule:evenodd;stroke:#000;stroke-width:1pt;marker-start:none"/></marker><marker id="Arrow1Lstart" orient="auto" refX="0" refY="0" style="overflow:visible"><path id="path3881" d="M 0,0 5,-5 -12.5,0 5,5 0,0 z" transform="matrix(0.8,0,0,0.8,10,0)" style="fill-rule:evenodd;stroke:#000;stroke-width:1pt;marker-start:none"/></marker><marker id="Arrow1Lend" orient="auto" refX="0" refY="0" style="overflow:visible"><path id="path3884" d="M 0,0 5,-5 -12.5,0 5,5 0,0 z" transform="matrix(-0.8,0,0,-0.8,-10,0)" style="fill-rule:evenodd;stroke:#000;stroke-width:1pt;marker-start:none"/></marker></defs><metadata id="metadata_4.1"/><g id="layer2" transform="translate(-55.208,-55.118304)" style="display:inline"><path style="fill:none;stroke:#000;stroke-width:1;stroke-linecap:round;stroke-linejoin:round;stroke-miterlimit:4;stroke-opacity:1;stroke-dasharray:none;stroke-dashoffset:0" id="path3768" d="m 320,137.36218 c 0,41.42136 -33.57864,75 -75,75 -41.42136,0 -75,-33.57864 -75,-75 0,-41.421354 33.57864,-74.999997 75,-74.999997 41.42136,0 75,33.578643 75,74.999997 z"/><path id="path3770-3-3" d="m 320,139.86218 c 0,20.71068 -16.78932,37.5 -37.5,37.5 -20.71068,0 -34.5,-14.49999 -37.5,-37.5 l 0,0 m 0,1e-5 c -3,-23 -16.78932,-37.5 -37.5,-37.5 -20.71068,0 -37.5,16.78932 -37.5,37.5 l 0,0" transform="matrix(1,0,0,-1,0,277.22437)" style="fill:none;stroke:#000;stroke-width:1;stroke-linecap:round;stroke-linejoin:round;stroke-miterlimit:4;stroke-opacity:1;stroke-dashoffset:0;display:inline"/><path style="fill:#e8e8e8;fill-opacity:1;stroke:none" id="path3811" d="m 240.35714,211.44352 c -28.70393,-1.47148 -54.80687,-20.92554 -65.1044,-48.52114 -1.23131,-3.29971 -2.76726,-8.74153 -2.73848,-9.70236 0.008,-0.26192 0.48503,0.45336 1.06041,1.58951 4.76169,9.40252 13.58249,16.51587 24.1039,19.43809 3.30438,0.91777 4.05211,0.99128 10,0.98323 5.87064,-0.008 6.73148,-0.0925 9.9187,-0.97367 8.4569,-2.33821 15.38814,-7.30038 20.07294,-14.37052 4.25046,-6.41463 6.22224,-11.85446 7.87842,-21.73532 1.46937,-8.76634 2.86687,-13.32352 5.79297,-18.89051 5.65025,-10.74976 15.39403,-17.32778 27.3414,-18.45818 19.56215,-1.850856 36.6965,11.27652 40.09954,30.72201 0.69845,3.9911 0.51927,12.03002 -0.38927,17.46417 -4.14688,24.80338 -20.00582,45.52832 -42.83983,55.98438 -11.30266,5.17568 -22.01949,7.14581 -35.1963,6.47031 z"/><path style="fill:none;stroke:#000;stroke-width:1;stroke-linecap:round;stroke-linejoin:round;stroke-miterlimit:4;stroke-opacity:1;stroke-dasharray:none;stroke-dashoffset:0;marker-start:url(#Arrow2Lstart);marker-end:none;display:inline" id="path3768-5" d="m 163.68272,218.67946 c -44.91029,-44.91029 -44.91029,-117.72426 0,-162.634556"/><path style="fill:none;stroke:#000;stroke-width:1;stroke-linecap:round;stroke-linejoin:round;stroke-miterlimit:4;stroke-opacity:1;stroke-dasharray:none;stroke-dashoffset:0;marker-start:url(#Arrow2Lstart);display:inline" id="path3768-5-2" d="m 326.31728,56.044899 c 44.91029,44.910291 44.91029,117.724261 0,162.634561 0,0 0,0 0,0"/></g><g id="layer3" transform="translate(-55.208,-55.118304)" style="display:inline"><text style="font-size:11px;font-style:normal;font-variant:normal;font-weight:400;font-stretch:normal;text-align:center;line-height:125%;letter-spacing:0;word-spacing:0;text-anchor:middle;fill:#000;fill-opacity:1;stroke:none;display:inline;font-family:Inconsolata LGC;-inkscape-font-specification:Sans" id="text3813" x="207.321" y="140.719" xml:space="preserve"><tspan id="tspan3815" x="207.321" y="140.719">Eval</tspan></text><text style="font-size:11px;font-style:normal;font-variant:normal;font-weight:400;font-stretch:normal;text-align:center;line-height:125%;letter-spacing:0;word-spacing:0;text-anchor:middle;fill:#000;fill-opacity:1;stroke:none;display:inline;font-family:Inconsolata LGC;-inkscape-font-specification:Sans" id="text3817" x="282.321" y="140.719" xml:space="preserve"><tspan id="tspan3819" x="282.321" y="140.719">Apply</tspan></text><text style="font-size:13px;font-style:normal;font-variant:normal;font-weight:400;font-stretch:normal;text-align:start;line-height:129.99999523%;letter-spacing:0;word-spacing:0;text-anchor:start;fill:#000;fill-opacity:1;stroke:none;display:inline;font-family:Linux Biolinum O;-inkscape-font-specification:Linux Biolinum O" id="text5250" x="55" y="133.719" xml:space="preserve"><tspan id="tspan5252" x="55" y="133.719" style="line-height:129.99999523%">Procedure,</tspan><tspan id="tspan5254" x="55" y="150.619" style="line-height:129.99999523%">Arguments</tspan></text><text style="font-size:13px;font-style:normal;font-variant:normal;font-weight:400;font-stretch:normal;text-align:start;line-height:129.99999523%;letter-spacing:0;word-spacing:0;text-anchor:start;fill:#000;fill-opacity:1;stroke:none;display:inline;font-family:Linux Biolinum O;-inkscape-font-specification:Linux Biolinum O" id="text5256" x="375" y="133.791" xml:space="preserve"><tspan id="tspan5258" x="375" y="133.791" style="line-height:129.99999523%">Expression,</tspan><tspan id="tspan5260" x="375" y="150.691" style="line-height:129.99999523%">Environment</tspan></text></g></svg>