<svg xmlns="http://www.w3.org/2000/svg" xmlns:svg="http://www.w3.org/2000/svg" id="svg5767" width="416.364" height="250.409" version="1.1"><defs id="defs5769"><marker id="Arrow1Mend" orient="auto" refX="0" refY="0" style="overflow:visible"><path id="path4415" d="M 0,0 5,-5 -12.5,0 5,5 0,0 z" transform="matrix(-0.4,0,0,-0.4,-4,0)" style="fill-rule:evenodd;stroke:#000;stroke-width:1pt;marker-start:none"/></marker><marker id="marker5789" orient="auto" refX="0" refY="0" style="overflow:visible"><path id="path5791" d="M 0,0 5,-5 -12.5,0 5,5 0,0 z" transform="matrix(-0.4,0,0,-0.4,-4,0)" style="fill-rule:evenodd;stroke:#000;stroke-width:1pt;marker-start:none"/></marker><marker id="marker5793" orient="auto" refX="0" refY="0" style="overflow:visible"><path id="path5795" d="M 0,0 5,-5 -12.5,0 5,5 0,0 z" transform="matrix(-0.4,0,0,-0.4,-4,0)" style="fill-rule:evenodd;stroke:#000;stroke-width:1pt;marker-start:none"/></marker><marker id="marker5797" orient="auto" refX="0" refY="0" style="overflow:visible"><path id="path5799" d="M 0,0 5,-5 -12.5,0 5,5 0,0 z" transform="matrix(-0.4,0,0,-0.4,-4,0)" style="fill-rule:evenodd;stroke:#000;stroke-width:1pt;marker-start:none"/></marker><marker id="marker5801" orient="auto" refX="0" refY="0" style="overflow:visible"><path id="path5803" d="M 0,0 5,-5 -12.5,0 5,5 0,0 z" transform="matrix(-0.4,0,0,-0.4,-4,0)" style="fill-rule:evenodd;stroke:#000;stroke-width:1pt;marker-start:none"/></marker><marker id="Arrow1Mend-7" orient="auto" refX="0" refY="0" style="overflow:visible"><path id="path4415-9" d="M 0,0 5,-5 -12.5,0 5,5 0,0 z" transform="matrix(-0.4,0,0,-0.4,-4,0)" style="fill-rule:evenodd;stroke:#000;stroke-width:1pt;marker-start:none"/></marker><marker id="marker6673" orient="auto" refX="0" refY="0" style="overflow:visible"><path id="path6675" d="M 0,0 5,-5 -12.5,0 5,5 0,0 z" transform="matrix(-0.4,0,0,-0.4,-4,0)" style="fill-rule:evenodd;stroke:#000;stroke-width:1pt;marker-start:none"/></marker><marker id="Arrow1Mend-5" orient="auto" refX="0" refY="0" style="overflow:visible"><path id="path4415-8" d="M 0,0 5,-5 -12.5,0 5,5 0,0 z" transform="matrix(-0.4,0,0,-0.4,-4,0)" style="fill-rule:evenodd;stroke:#000;stroke-width:1pt;marker-start:none"/></marker><marker id="marker6673-8" orient="auto" refX="0" refY="0" style="overflow:visible"><path id="path6675-9" d="M 0,0 5,-5 -12.5,0 5,5 0,0 z" transform="matrix(-0.4,0,0,-0.4,-4,0)" style="fill-rule:evenodd;stroke:#000;stroke-width:1pt;marker-start:none"/></marker><marker id="Arrow1Mend-73" orient="auto" refX="0" refY="0" style="overflow:visible"><path id="path4415-0" d="M 0,0 5,-5 -12.5,0 5,5 0,0 z" transform="matrix(-0.4,0,0,-0.4,-4,0)" style="fill-rule:evenodd;stroke:#000;stroke-width:1pt;marker-start:none"/></marker><marker id="marker6673-2" orient="auto" refX="0" refY="0" style="overflow:visible"><path id="path6675-3" d="M 0,0 5,-5 -12.5,0 5,5 0,0 z" transform="matrix(-0.4,0,0,-0.4,-4,0)" style="fill-rule:evenodd;stroke:#000;stroke-width:1pt;marker-start:none"/></marker><marker id="Arrow1Mend-77" orient="auto" refX="0" refY="0" style="overflow:visible"><path id="path4415-09" d="M 0,0 5,-5 -12.5,0 5,5 0,0 z" transform="matrix(-0.4,0,0,-0.4,-4,0)" style="fill-rule:evenodd;stroke:#000;stroke-width:1pt;marker-start:none"/></marker></defs><metadata id="metadata_4.6"/><g id="layer9" transform="translate(-4.6102362,-12.096435)" style="display:inline"><path style="fill:#e8e8e8;fill-opacity:1;stroke:#000;stroke-width:.53149605;stroke-linecap:round;stroke-linejoin:round;stroke-miterlimit:4;stroke-opacity:1;stroke-dasharray:none;stroke-dashoffset:0;display:inline" id="rect4940-7" d="m 108,12.362183 194,0 c 6,0 8,2 8,8 l 0,194.000007 c 0,5.99999 -2,7.99999 -8,7.99999 l -194,0 c -5.97955,0 -8,-1.93117 -8,-7.99999 l 0,-194.000007 c 0,-6 2,-8 8,-8 z"/></g><g id="layer11" transform="translate(-4.6102362,-12.096435)" style="display:inline"><g id="g6635" transform="translate(35,-121.4848)" style="fill:#fff;fill-opacity:1;stroke-width:.53149605;stroke-miterlimit:4;stroke-dasharray:none"><rect id="rect6788-7-9" width="60" height="30" x="195" y="218.847" rx="3.543" ry="3.543" style="fill:#fff;fill-opacity:1;stroke:#000;stroke-width:.53149605;stroke-linecap:round;stroke-linejoin:round;stroke-miterlimit:4;stroke-opacity:1;stroke-dasharray:none;stroke-dashoffset:0;display:inline"/></g><rect style="fill:#fff;fill-opacity:1;stroke:#000;stroke-width:.53149605;stroke-linecap:round;stroke-linejoin:round;stroke-miterlimit:4;stroke-opacity:1;stroke-dasharray:none;stroke-dashoffset:0;display:inline" id="rect6788-7-2-7-4" width="30" height="30" x="145" y="47.362" rx="3.543" ry="3.543"/><rect style="fill:#fff;fill-opacity:1;stroke:#000;stroke-width:.53149605;stroke-linecap:round;stroke-linejoin:round;stroke-miterlimit:4;stroke-opacity:1;stroke-dasharray:none;stroke-dashoffset:0;display:inline" id="rect6788-7-2-7-9-3" width="30" height="30" x="185" y="147.362" rx="3.543" ry="3.543"/><path style="fill:#000;fill-opacity:1;stroke:#000;stroke-width:1.0629921;stroke-linecap:round;stroke-linejoin:round;stroke-miterlimit:4;stroke-opacity:1;stroke-dasharray:none;stroke-dashoffset:0;display:inline" id="path9674-69-6-1-2" d="m 237,128.36218 c 0,0.55229 -0.44772,1 -1,1 -0.55228,0 -1,-0.44771 -1,-1 0,-0.55228 0.44772,-1 1,-1 0.55228,0 1,0.44772 1,1 z" transform="translate(-55.982146,74)"/><path style="fill:#000;fill-opacity:1;stroke:#000;stroke-width:1.0629921;stroke-linecap:round;stroke-linejoin:round;stroke-miterlimit:4;stroke-opacity:1;stroke-dasharray:none;stroke-dashoffset:0;display:inline" id="path9674-69-6-1-6" d="m 237,128.36218 c 0,0.55229 -0.44772,1 -1,1 -0.55228,0 -1,-0.44771 -1,-1 0,-0.55228 0.44772,-1 1,-1 0.55228,0 1,0.44772 1,1 z" transform="translate(-115.98219,-16.04473)"/><path style="fill:none;stroke:#000;stroke-width:.77952754;stroke-linecap:round;stroke-linejoin:round;stroke-miterlimit:4;stroke-opacity:1;stroke-dasharray:none;marker-end:url(#Arrow1Mend)" id="path8845-1-4-8" d="m 180,202.36218 -15,0 c -3,0 -5,-2 -5,-5 l -4e-5,-118.505073"/><path style="fill:none;stroke:#000;stroke-width:.77952754;stroke-linecap:round;stroke-linejoin:round;stroke-miterlimit:4;stroke-opacity:1;stroke-dasharray:none;marker-end:url(#Arrow1Mend)" id="path8845-1-2" d="m 180,202.36218 15,0 c 3,0 5,-2 5,-5 l 4e-5,-18.56821"/><path style="fill:none;stroke:#000;stroke-width:.77952754;stroke-linecap:round;stroke-linejoin:round;stroke-miterlimit:4;stroke-opacity:1;stroke-dasharray:none;marker-end:url(#Arrow1Mend)" id="path8845-1-4-1" d="m 120,112.36218 0,-44.999997 c 0,-3 2,-4.999995 5,-4.999995 l 18.44194,-4e-5"/><path style="fill:none;stroke:#000;stroke-width:.77952754;stroke-linecap:round;stroke-linejoin:round;stroke-miterlimit:4;stroke-opacity:1;stroke-dasharray:none;marker-end:url(#Arrow1Mend)" id="path8845-1-6" d="m 120,112.36218 0,45 c 0,3 2,5 5,5 l 58.50508,4e-5"/><path style="fill:none;stroke:#000;stroke-width:.77952754;stroke-linecap:butt;stroke-linejoin:round;stroke-miterlimit:4;stroke-opacity:1;stroke-dasharray:none;marker-end:url(#Arrow1Mend)" id="path8845-1-4-88" d="m 175,62.362183 80,0 c 3,0 5,2 5,5 l 4e-5,28.505076"/><path style="fill:none;stroke:#000;stroke-width:.77952754;stroke-linecap:butt;stroke-linejoin:round;stroke-miterlimit:4;stroke-opacity:1;stroke-dasharray:none;marker-end:url(#Arrow1Mend)" id="path8845-1-0" d="m 215,162.36218 40,0 c 3,0 5,-2 5,-5 l 4e-5,-28.63135"/><path style="fill:none;stroke:#000;stroke-width:.77952754;stroke-linecap:butt;stroke-linejoin:round;stroke-miterlimit:4;stroke-opacity:1;stroke-dasharray:none;marker-end:url(#Arrow1Mend)" id="path8845-6-0-7" d="m 290,112.36218 130,0"/><path style="fill:none;stroke:#000;stroke-width:.77952754;stroke-linecap:round;stroke-linejoin:round;stroke-miterlimit:4;stroke-opacity:1;stroke-dasharray:none" id="path5605-6" d="m 180,202.36218 0,45"/><path style="fill:none;stroke:#000;stroke-width:.77952754;stroke-linecap:round;stroke-linejoin:round;stroke-miterlimit:4;stroke-opacity:1;stroke-dasharray:none" id="path5605-7" d="m 120,112.36218 -115,0"/></g><g id="layer10" transform="translate(-4.6102362,-12.096435)" style="display:inline"><text style="font-size:11px;font-style:normal;font-variant:normal;font-weight:400;font-stretch:normal;text-align:center;line-height:125%;letter-spacing:0;word-spacing:0;text-anchor:middle;fill:#000;fill-opacity:1;stroke:none;font-family:Inconsolata LGC;-inkscape-font-specification:Inconsolata LGC" id="text8841-2" x="260" y="116.12" xml:space="preserve"><tspan id="tspan8843-9" x="260" y="116.12">merge</tspan></text><text style="font-size:11px;font-style:normal;font-variant:normal;font-weight:400;font-stretch:normal;text-align:center;line-height:125%;letter-spacing:0;word-spacing:0;text-anchor:middle;fill:#000;fill-opacity:1;stroke:none;font-family:Inconsolata LGC;-inkscape-font-specification:Sans" id="text6689-7" x="160" y="66.625" xml:space="preserve"><tspan id="tspan6691-7" x="160" y="66.625">A</tspan></text><text style="font-size:11px;font-style:normal;font-variant:normal;font-weight:400;font-stretch:normal;text-align:center;line-height:125%;letter-spacing:0;word-spacing:0;text-anchor:middle;fill:#000;fill-opacity:1;stroke:none;font-family:Inconsolata LGC;-inkscape-font-specification:Sans" id="text6689-9-7" x="200" y="166.625" xml:space="preserve"><tspan id="tspan6691-9-3" x="200" y="166.625">B</tspan></text><text style="font-size:11px;font-style:normal;font-variant:normal;font-weight:400;font-stretch:normal;text-align:center;line-height:125%;letter-spacing:0;word-spacing:0;text-anchor:middle;fill:#000;fill-opacity:1;stroke:none;font-family:Inconsolata LGC;-inkscape-font-specification:Inconsolata LGC" id="text5625-6" x="205" y="32.362" xml:space="preserve"><tspan id="tspan5627-1" x="205" y="32.362">(or A B)</tspan></text><text style="font-size:13px;font-style:normal;font-variant:normal;font-weight:400;font-stretch:normal;text-align:center;line-height:125%;letter-spacing:0;word-spacing:0;text-anchor:middle;fill:#000;fill-opacity:1;stroke:none;font-family:Linux Biolinum O;-inkscape-font-specification:Linux Biolinum O" id="text5629-5" x="179.554" y="262.362" xml:space="preserve"><tspan id="tspan5631-3" x="179.554" y="262.362">data base</tspan></text><text style="font-size:13px;font-style:normal;font-variant:normal;font-weight:400;font-stretch:normal;text-align:start;line-height:129.99999523%;letter-spacing:0;word-spacing:0;text-anchor:start;fill:#000;fill-opacity:1;stroke:none;font-family:Linux Biolinum O;-inkscape-font-specification:Linux Biolinum O" id="text5637-5" x="15" y="82.362" xml:space="preserve"><tspan id="tspan5639-90" x="15" y="82.362" style="line-height:129.99999523%">input stream</tspan><tspan id="tspan5641-0" x="15" y="99.262" style="line-height:129.99999523%">of frames</tspan></text><text style="font-size:13px;font-style:normal;font-variant:normal;font-weight:400;font-stretch:normal;text-align:start;line-height:129.99999523%;letter-spacing:0;word-spacing:0;text-anchor:start;fill:#000;fill-opacity:1;stroke:none;font-family:Linux Biolinum O;-inkscape-font-specification:Linux Biolinum O" id="text5637-3-6" x="325" y="82.362" xml:space="preserve"><tspan id="tspan5639-9-0" x="325" y="82.362" style="line-height:129.99999523%">output stream</tspan><tspan id="tspan5641-4-5" x="325" y="99.262" style="line-height:129.99999523%">of frames</tspan></text></g></svg>