<svg xmlns="http://www.w3.org/2000/svg" xmlns:svg="http://www.w3.org/2000/svg" id="svg4079" width="578.887" height="345.82" version="1.1"><defs id="defs4081"><marker id="EmptyTriangleOutL" orient="auto" refX="0" refY="0" style="overflow:visible"><path id="path4792" d="m 5.77,0 -8.65,5 0,-10 8.65,5 z" transform="matrix(0.8,0,0,0.8,-4.8,0)" style="fill:#fff;fill-rule:evenodd;stroke:#000;stroke-width:1pt;marker-start:none"/></marker><marker id="Tail" orient="auto" refX="0" refY="0" style="overflow:visible"><g id="g4667" transform="scale(-1.2,-1.2)"><path id="path4669" d="M -3.8048674,-3.9585227 0.54352094,0" style="fill:none;stroke:#000;stroke-width:.80000001;stroke-linecap:round;marker-start:none;marker-end:none"/><path id="path4671" d="M -1.2866832,-3.9585227 3.0617053,0" style="fill:none;stroke:#000;stroke-width:.80000001;stroke-linecap:round;marker-start:none;marker-end:none"/><path id="path4673" d="M 1.3053582,-3.9585227 5.6537466,0" style="fill:none;stroke:#000;stroke-width:.80000001;stroke-linecap:round;marker-start:none;marker-end:none"/><path id="path4675" d="M -3.8048674,4.1775838 0.54352094,0.21974226" style="fill:none;stroke:#000;stroke-width:.80000001;stroke-linecap:round;marker-start:none;marker-end:none"/><path id="path4677" d="M -1.2866832,4.1775838 3.0617053,0.21974226" style="fill:none;stroke:#000;stroke-width:.80000001;stroke-linecap:round;marker-start:none;marker-end:none"/><path id="path4679" d="M 1.3053582,4.1775838 5.6537466,0.21974226" style="fill:none;stroke:#000;stroke-width:.80000001;stroke-linecap:round;marker-start:none;marker-end:none"/></g></marker><marker id="Arrow2Lstart" orient="auto" refX="0" refY="0" style="overflow:visible"><path id="path4649" d="M 8.7185878,4.0337352 -2.2072895,0.01601326 8.7185884,-4.0017078 c -1.7454984,2.3720609 -1.7354408,5.6174519 -6e-7,8.035443 z" transform="matrix(1.1,0,0,1.1,1.1,0)" style="font-size:12px;fill-rule:evenodd;stroke-width:.625;stroke-linejoin:round"/></marker><marker id="Arrow1Lstart" orient="auto" refX="0" refY="0" style="overflow:visible"><path id="path4631" d="M 0,0 5,-5 -12.5,0 5,5 0,0 z" transform="matrix(0.8,0,0,0.8,10,0)" style="fill-rule:evenodd;stroke:#000;stroke-width:1pt;marker-start:none"/></marker><marker id="Arrow1Lend" orient="auto" refX="0" refY="0" style="overflow:visible"><path id="path4634" d="M 0,0 5,-5 -12.5,0 5,5 0,0 z" transform="matrix(-0.8,0,0,-0.8,-10,0)" style="fill-rule:evenodd;stroke:#000;stroke-width:1pt;marker-start:none"/></marker><marker id="Arrow2Lend" orient="auto" refX="0" refY="0" style="overflow:visible"><path id="path4652" d="M 8.7185878,4.0337352 -2.2072895,0.01601326 8.7185884,-4.0017078 c -1.7454984,2.3720609 -1.7354408,5.6174519 -6e-7,8.035443 z" transform="matrix(-1.1,0,0,-1.1,-1.1,0)" style="font-size:12px;fill-rule:evenodd;stroke-width:.625;stroke-linejoin:round"/></marker></defs><metadata id="metadata_1.3"/><g id="layer1" transform="translate(-81.822048,-76.167115)" style="display:inline"><text style="font-size:24px;font-style:normal;font-variant:normal;font-weight:400;font-stretch:normal;line-height:150%;letter-spacing:0;word-spacing:0;fill:#000;fill-opacity:1;stroke:none;font-family:LMMono12;-inkscape-font-specification:LMMono12" id="text4087" x="79.802" y="91.707" xml:space="preserve"><tspan id="tspan4089" x="79.802" y="91.707" style="font-size:20px;font-style:normal;font-variant:normal;font-weight:400;font-stretch:normal;line-height:150%;font-family:Inconsolata LGC;-inkscape-font-specification:Inconsolata LGC">(factorial 6)</tspan><tspan id="tspan4091" x="79.802" y="121.707" dy="0 0 0" style="font-size:20px;font-style:normal;font-variant:normal;font-weight:400;font-stretch:normal;line-height:150%;font-family:Inconsolata LGC;-inkscape-font-specification:Inconsolata LGC">(* 6 (factorial 5))</tspan><tspan id="tspan4093" x="79.802" y="151.707" dy="0 0 0 0 0 0 0 0" style="font-size:20px;font-style:normal;font-variant:normal;font-weight:400;font-stretch:normal;line-height:150%;font-family:Inconsolata LGC;-inkscape-font-specification:Inconsolata LGC">(* 6 (* 5 (factorial 4)))</tspan><tspan id="tspan4095" x="79.802" y="181.707" dy="0 0 0 0 0 0 0 0 0 0 0 0 0" style="font-size:20px;font-style:normal;font-variant:normal;font-weight:400;font-stretch:normal;line-height:150%;font-family:Inconsolata LGC;-inkscape-font-specification:Inconsolata LGC">(* 6 (* 5 (* 4 (factorial 3))))</tspan><tspan id="tspan4097" x="79.802" y="211.707" dy="0 0 0 0 0 0 0 0 0 0 0 0 0 0 0 0 0 0" style="font-size:20px;font-style:normal;font-variant:normal;font-weight:400;font-stretch:normal;line-height:150%;font-family:Inconsolata LGC;-inkscape-font-specification:Inconsolata LGC">(* 6 (* 5 (* 4 (* 3 (factorial 2)))))</tspan><tspan id="tspan4099" x="79.802" y="241.707" dy="0 0 0 0 0 0 0 0 0 0 0 0 0 0 0 0 0 0 0 0 0 0 0" style="font-size:20px;font-style:normal;font-variant:normal;font-weight:400;font-stretch:normal;line-height:150%;font-family:Inconsolata LGC;-inkscape-font-specification:Inconsolata LGC">(* 6 (* 5 (* 4 (* 3 (* 2 (factorial 1))))))</tspan><tspan id="tspan4101" x="79.802" y="271.707" dy="0 0 0 0 0 0 0 0 0 0 0 0 0 0 0 0 0 0 0 0 0 0 0" style="font-size:20px;font-style:normal;font-variant:normal;font-weight:400;font-stretch:normal;line-height:150%;font-family:Inconsolata LGC;-inkscape-font-specification:Inconsolata LGC">(* 6 (* 5 (* 4 (* 3 (* 2 1)))))</tspan><tspan id="tspan4103" x="79.802" y="301.707" dy="0 0 0 0 0 0 0 0 0 0 0 0 0 0 0 0 0 0" style="font-size:20px;font-style:normal;font-variant:normal;font-weight:400;font-stretch:normal;line-height:150%;font-family:Inconsolata LGC;-inkscape-font-specification:Inconsolata LGC">(* 6 (* 5 (* 4 (* 3 2))))</tspan><tspan id="tspan4105" x="79.802" y="331.707" dy="0 0 0 0 0 0 0 0 0 0 0 0 0" style="font-size:20px;font-style:normal;font-variant:normal;font-weight:400;font-stretch:normal;line-height:150%;font-family:Inconsolata LGC;-inkscape-font-specification:Inconsolata LGC">(* 6 (* 5 (* 4 6)))</tspan><tspan id="tspan4107" x="79.802" y="361.707" dy="0 0 0 0 0 0 0 0" style="font-size:20px;font-style:normal;font-variant:normal;font-weight:400;font-stretch:normal;line-height:150%;font-family:Inconsolata LGC;-inkscape-font-specification:Inconsolata LGC">(* 6 (* 5 24))</tspan><tspan id="tspan4109" x="79.802" y="391.707" dy="0 0 0" style="font-size:20px;font-style:normal;font-variant:normal;font-weight:400;font-stretch:normal;line-height:150%;font-family:Inconsolata LGC;-inkscape-font-specification:Inconsolata LGC">(* 6 120)</tspan><tspan id="tspan4111" x="79.802" y="421.707" style="font-size:20px;font-style:normal;font-variant:normal;font-weight:400;font-stretch:normal;line-height:150%;font-family:Inconsolata LGC;-inkscape-font-specification:Inconsolata LGC">720</tspan></text></g><g id="layer3" transform="translate(-81.822048,-76.167115)" style="display:inline"><path style="fill:none;stroke:#000;stroke-width:1.41732287;stroke-linecap:round;stroke-linejoin:round;stroke-miterlimit:4;stroke-opacity:1;stroke-dasharray:none;marker-start:url(#EmptyTriangleOutL);marker-end:url(#EmptyTriangleOutL)" id="path4118" d="m 280,84.362183 25,0 c 20,0 35,5 45.625,8.125 96.25,37.916667 183.125,71.958327 279.375,109.874997 25,10 30,20 30,35 0,15 -5,26.51523 -30,35 -131.25,43.75 -260.625,88.875 -391.875,132.625 -23.125,7.375 -40.86142,9.375 -63.125,9.375 l -35,0"/></g></svg>