<svg xmlns="http://www.w3.org/2000/svg" xmlns:svg="http://www.w3.org/2000/svg" id="svg2" width="744.094" height="1052.362" version="1.1" style="display:inline"><defs id="defs4"><marker id="Arrow1Mstart" orient="auto" refX="0" refY="0" style="overflow:visible"><path id="path4565" d="M 0,0 5,-5 -12.5,0 5,5 0,0 z" transform="matrix(0.4,0,0,0.4,4,0)" style="fill-rule:evenodd;stroke:#000;stroke-width:1pt;marker-start:none"/></marker><marker id="Arrow1Lstart" orient="auto" refX="0" refY="0" style="overflow:visible"><path id="path4559" d="M 0,0 5,-5 -12.5,0 5,5 0,0 z" transform="matrix(0.8,0,0,0.8,10,0)" style="fill-rule:evenodd;stroke:#000;stroke-width:1pt;marker-start:none"/></marker><marker id="Arrow1Mstart-0" orient="auto" refX="0" refY="0" style="overflow:visible"><path id="path4565-7" d="M 0,0 5,-5 -12.5,0 5,5 0,0 z" transform="matrix(0.4,0,0,0.4,4,0)" style="fill-rule:evenodd;stroke:#000;stroke-width:1pt;marker-start:none"/></marker><marker id="Arrow1Mstart-9" orient="auto" refX="0" refY="0" style="overflow:visible"><path id="path4565-6" d="M 0,0 5,-5 -12.5,0 5,5 0,0 z" transform="matrix(0.4,0,0,0.4,4,0)" style="fill-rule:evenodd;stroke:#000;stroke-width:1pt;marker-start:none"/></marker><marker id="Arrow1Mstart-2" orient="auto" refX="0" refY="0" style="overflow:visible"><path id="path4565-4" d="M 0,0 5,-5 -12.5,0 5,5 0,0 z" transform="matrix(0.4,0,0,0.4,4,0)" style="fill-rule:evenodd;stroke:#000;stroke-width:1pt;marker-start:none"/></marker><marker id="Arrow1Mstart-3" orient="auto" refX="0" refY="0" style="overflow:visible"><path id="path4565-2" d="M 0,0 5,-5 -12.5,0 5,5 0,0 z" transform="matrix(0.4,0,0,0.4,4,0)" style="fill-rule:evenodd;stroke:#000;stroke-width:1pt;marker-start:none"/></marker><marker id="marker3340" orient="auto" refX="0" refY="0" style="overflow:visible"><path id="path3342" d="M 0,0 5,-5 -12.5,0 5,5 0,0 z" transform="matrix(0.4,0,0,0.4,4,0)" style="fill-rule:evenodd;stroke:#000;stroke-width:1pt;marker-start:none"/></marker><marker id="marker3344" orient="auto" refX="0" refY="0" style="overflow:visible"><path id="path3346" d="M 0,0 5,-5 -12.5,0 5,5 0,0 z" transform="matrix(0.4,0,0,0.4,4,0)" style="fill-rule:evenodd;stroke:#000;stroke-width:1pt;marker-start:none"/></marker><marker id="Arrow1Mstart-6" orient="auto" refX="0" refY="0" style="overflow:visible"><path id="path4565-9" d="M 0,0 5,-5 -12.5,0 5,5 0,0 z" transform="matrix(0.4,0,0,0.4,4,0)" style="fill-rule:evenodd;stroke:#000;stroke-width:1pt;marker-start:none"/></marker><marker id="marker3411" orient="auto" refX="0" refY="0" style="overflow:visible"><path id="path3413" d="M 0,0 5,-5 -12.5,0 5,5 0,0 z" transform="matrix(0.4,0,0,0.4,4,0)" style="fill-rule:evenodd;stroke:#000;stroke-width:1pt;marker-start:none"/></marker><marker id="marker3415" orient="auto" refX="0" refY="0" style="overflow:visible"><path id="path3417" d="M 0,0 5,-5 -12.5,0 5,5 0,0 z" transform="matrix(0.4,0,0,0.4,4,0)" style="fill-rule:evenodd;stroke:#000;stroke-width:1pt;marker-start:none"/></marker><marker id="Arrow1Mstart-8" orient="auto" refX="0" refY="0" style="overflow:visible"><path id="path4565-95" d="M 0,0 5,-5 -12.5,0 5,5 0,0 z" transform="matrix(0.4,0,0,0.4,4,0)" style="fill-rule:evenodd;stroke:#000;stroke-width:1pt;marker-start:none"/></marker><marker id="marker3505" orient="auto" refX="0" refY="0" style="overflow:visible"><path id="path3507" d="M 0,0 5,-5 -12.5,0 5,5 0,0 z" transform="matrix(0.4,0,0,0.4,4,0)" style="fill-rule:evenodd;stroke:#000;stroke-width:1pt;marker-start:none"/></marker><marker id="marker3509" orient="auto" refX="0" refY="0" style="overflow:visible"><path id="path3511" d="M 0,0 5,-5 -12.5,0 5,5 0,0 z" transform="matrix(0.4,0,0,0.4,4,0)" style="fill-rule:evenodd;stroke:#000;stroke-width:1pt;marker-start:none"/></marker><marker id="Arrow1Mstart-88" orient="auto" refX="0" refY="0" style="overflow:visible"><path id="path4565-45" d="M 0,0 5,-5 -12.5,0 5,5 0,0 z" transform="matrix(0.4,0,0,0.4,4,0)" style="fill-rule:evenodd;stroke:#000;stroke-width:1pt;marker-start:none"/></marker><marker id="Arrow1Mstart-33" orient="auto" refX="0" refY="0" style="overflow:visible"><path id="path4565-46" d="M 0,0 5,-5 -12.5,0 5,5 0,0 z" transform="matrix(0.4,0,0,0.4,4,0)" style="fill-rule:evenodd;stroke:#000;stroke-width:1pt;marker-start:none"/></marker><marker id="marker3610" orient="auto" refX="0" refY="0" style="overflow:visible"><path id="path3612" d="M 0,0 5,-5 -12.5,0 5,5 0,0 z" transform="matrix(0.4,0,0,0.4,4,0)" style="fill-rule:evenodd;stroke:#000;stroke-width:1pt;marker-start:none"/></marker><marker id="Arrow1Mstart-27" orient="auto" refX="0" refY="0" style="overflow:visible"><path id="path4565-91" d="M 0,0 5,-5 -12.5,0 5,5 0,0 z" transform="matrix(0.4,0,0,0.4,4,0)" style="fill-rule:evenodd;stroke:#000;stroke-width:1pt;marker-start:none"/></marker><marker id="marker3686" orient="auto" refX="0" refY="0" style="overflow:visible"><path id="path3688" d="M 0,0 5,-5 -12.5,0 5,5 0,0 z" transform="matrix(0.4,0,0,0.4,4,0)" style="fill-rule:evenodd;stroke:#000;stroke-width:1pt;marker-start:none"/></marker><marker id="marker3690" orient="auto" refX="0" refY="0" style="overflow:visible"><path id="path3692" d="M 0,0 5,-5 -12.5,0 5,5 0,0 z" transform="matrix(0.4,0,0,0.4,4,0)" style="fill-rule:evenodd;stroke:#000;stroke-width:1pt;marker-start:none"/></marker><marker id="Arrow1Mstart-1" orient="auto" refX="0" refY="0" style="overflow:visible"><path id="path4565-26" d="M 0,0 5,-5 -12.5,0 5,5 0,0 z" transform="matrix(0.4,0,0,0.4,4,0)" style="fill-rule:evenodd;stroke:#000;stroke-width:1pt;marker-start:none"/></marker><marker id="marker3750" orient="auto" refX="0" refY="0" style="overflow:visible"><path id="path3752" d="M 0,0 5,-5 -12.5,0 5,5 0,0 z" transform="matrix(0.4,0,0,0.4,4,0)" style="fill-rule:evenodd;stroke:#000;stroke-width:1pt;marker-start:none"/></marker></defs><metadata id="metadata_2.3"/><g id="layer5"><rect style="fill:#d1e8ff;fill-opacity:1;stroke:#000;stroke-width:.53149606000000005;stroke-linecap:round;stroke-linejoin:round;stroke-miterlimit:4;stroke-opacity:1;stroke-dasharray:none;stroke-dashoffset:0;display:inline" id="rect3794-7-1-0" width="50" height="25" x="75" y="217.362" rx="3.543" ry="3.543"/><rect style="fill:#d1e8ff;fill-opacity:1;stroke:#000;stroke-width:.53149606000000005;stroke-linecap:round;stroke-linejoin:round;stroke-miterlimit:4;stroke-opacity:1;stroke-dasharray:none;stroke-dashoffset:0;display:inline" id="rect3794-7-1-0-3" width="50" height="25" x="280" y="217.362" rx="3.543" ry="3.543"/><rect style="display:inline;fill:#d1e8ff;fill-opacity:1;stroke:#000;stroke-width:.53149606000000005;stroke-linecap:round;stroke-linejoin:round;stroke-miterlimit:4;stroke-opacity:1;stroke-dasharray:none;stroke-dashoffset:0" id="rect3794-7-1-0-0" width="50" height="25" x="145" y="217.362" rx="3.543" ry="3.543"/><rect style="display:inline;fill:#d1e8ff;fill-opacity:1;stroke:#000;stroke-width:.53149606000000005;stroke-linecap:round;stroke-linejoin:round;stroke-miterlimit:4;stroke-opacity:1;stroke-dasharray:none;stroke-dashoffset:0" id="rect3794-7-1-0-0-6" width="50" height="25" x="63" y="262.362" rx="3.543" ry="3.543"/><rect style="display:inline;fill:#ffe8d1;stroke:#000;stroke-width:.53149606000000005;stroke-linecap:round;stroke-linejoin:round;stroke-miterlimit:4;stroke-opacity:1;stroke-dasharray:none;stroke-dashoffset:0;fill-opacity:1" id="rect3794-77-9-8-4" width="25" height="25" x="143" y="262.362" rx="3.543" ry="3.543"/><rect style="display:inline;fill:#ffe8d1;stroke:#000;stroke-width:.53149606000000005;stroke-linecap:round;stroke-linejoin:round;stroke-miterlimit:4;stroke-opacity:1;stroke-dasharray:none;stroke-dashoffset:0;fill-opacity:1" id="rect3794-77-9-48" width="25" height="25" x="173" y="262.362" rx="3.543" ry="3.543"/><rect style="display:inline;fill:#ffe8d1;stroke:#000;stroke-width:.53149606000000005;stroke-linecap:round;stroke-linejoin:round;stroke-miterlimit:4;stroke-opacity:1;stroke-dasharray:none;stroke-dashoffset:0;fill-opacity:1" id="rect3794-77-9-4-6" width="25" height="25" x="60" y="307.362" rx="3.543" ry="3.543"/><rect style="display:inline;fill:#ffe8d1;stroke:#000;stroke-width:.53149606000000005;stroke-linecap:round;stroke-linejoin:round;stroke-miterlimit:4;stroke-opacity:1;stroke-dasharray:none;stroke-dashoffset:0;fill-opacity:1" id="rect3794-77-9-5-4" width="25" height="25" x="90" y="307.362" rx="3.543" ry="3.543"/><rect style="display:inline;fill:#ffe8d1;stroke:#000;stroke-width:.53149606000000005;stroke-linecap:round;stroke-linejoin:round;stroke-miterlimit:4;stroke-opacity:1;stroke-dasharray:none;stroke-dashoffset:0;fill-opacity:1" id="rect3794-77-9" width="25" height="25" x="350" y="217.362" rx="3.543" ry="3.543"/><rect style="display:inline;fill:#d1e8ff;fill-opacity:1;stroke:#000;stroke-width:.53149606000000005;stroke-linecap:round;stroke-linejoin:round;stroke-miterlimit:4;stroke-opacity:1;stroke-dasharray:none;stroke-dashoffset:0" id="rect3794-7-1-0-6" width="50" height="25" x="268" y="262.362" rx="3.543" ry="3.543"/><rect style="display:inline;fill:#d1e8ff;fill-opacity:1;stroke:#000;stroke-width:.53149606000000005;stroke-linecap:round;stroke-linejoin:round;stroke-miterlimit:4;stroke-opacity:1;stroke-dasharray:none;stroke-dashoffset:0" id="rect3794-7-1-0-0-5" width="50" height="25" x="338" y="262.362" rx="3.543" ry="3.543"/><rect style="display:inline;fill:#ffe8d1;stroke:#000;stroke-width:.53149606000000005;stroke-linecap:round;stroke-linejoin:round;stroke-miterlimit:4;stroke-opacity:1;stroke-dasharray:none;stroke-dashoffset:0;fill-opacity:1" id="rect3794-77-9-4" width="25" height="25" x="268" y="307.362" rx="3.543" ry="3.543"/><rect style="display:inline;fill:#ffe8d1;stroke:#000;stroke-width:.53149606000000005;stroke-linecap:round;stroke-linejoin:round;stroke-miterlimit:4;stroke-opacity:1;stroke-dasharray:none;stroke-dashoffset:0;fill-opacity:1" id="rect3794-77-9-5" width="25" height="25" x="335" y="307.362" rx="3.543" ry="3.543"/><rect style="display:inline;fill:#ffe8d1;stroke:#000;stroke-width:.53149606000000005;stroke-linecap:round;stroke-linejoin:round;stroke-miterlimit:4;stroke-opacity:1;stroke-dasharray:none;stroke-dashoffset:0;fill-opacity:1" id="rect3794-77-9-8" width="25" height="25" x="365" y="307.362" rx="3.543" ry="3.543"/></g><g id="layer2" style="display:inline"><path style="fill:#000;fill-opacity:1;stroke:#000;stroke-width:0;stroke-linecap:round;stroke-linejoin:round;stroke-miterlimit:4;stroke-opacity:1;stroke-dasharray:none;stroke-dashoffset:0;display:inline" id="path4491-4-7" d="m 120,84.862183 a 2.5,2.5 0 1 1 -5,0 2.5,2.5 0 1 1 5,0 z" transform="translate(-29.5,145.47258)"/><path style="fill:#000;fill-opacity:1;stroke:#000;stroke-width:0;stroke-linecap:round;stroke-linejoin:round;stroke-miterlimit:4;stroke-opacity:1;stroke-dasharray:none;stroke-dashoffset:0;display:inline" id="path4491-44-0" d="m 120,84.862183 a 2.5,2.5 0 1 1 -5,0 2.5,2.5 0 1 1 5,0 z" transform="translate(-5,145.5)"/><path style="fill:none;stroke:#000;stroke-width:.77952756;stroke-linecap:round;stroke-linejoin:round;stroke-miterlimit:4;stroke-opacity:1;stroke-dasharray:none;marker-start:url(#Arrow1Mstart);display:inline" id="path4554-5-0" d="m 88,260.36218 0,-28"/><path style="fill:none;stroke:#000;stroke-width:.77952756;stroke-linecap:round;stroke-linejoin:round;stroke-miterlimit:4;stroke-opacity:1;stroke-dasharray:none;marker-start:url(#Arrow1Mstart);display:inline" id="path4554-5-2-3" d="m 143,230.36218 -28,0"/><path style="fill:none;stroke:#000;stroke-width:.77952756;stroke-linecap:round;stroke-linejoin:round;stroke-miterlimit:4;stroke-opacity:1;stroke-dasharray:none;marker-start:url(#Arrow1Mstart);display:inline" id="path4554-9-4" d="m 73,230.36218 -33,0"/><path style="display:inline;fill:none;stroke:#000;stroke-width:.77952756;stroke-linecap:round;stroke-linejoin:round;stroke-miterlimit:4;stroke-opacity:1;stroke-dasharray:none;marker-start:url(#Arrow1Mstart)" id="path4554-5-0-2-6" d="m 182,260.36218 0,-28"/><path style="display:inline;fill:none;stroke:#000;stroke-width:.77952756;stroke-linecap:round;stroke-linejoin:round;stroke-miterlimit:4;stroke-opacity:1;stroke-dasharray:none;marker-start:url(#Arrow1Mstart)" id="path4554-5-0-2" d="m 158,260.36218 0,-28"/><path style="display:inline;fill:none;stroke:#000;stroke-width:.77952756;stroke-linecap:round;stroke-linejoin:round;stroke-miterlimit:4;stroke-opacity:1;stroke-dasharray:none;marker-start:url(#Arrow1Mstart)" id="path4554-5-0-2-2" d="m 76,305.36218 0,-28"/><path style="display:inline;fill:none;stroke:#000;stroke-width:.77952756;stroke-linecap:round;stroke-linejoin:round;stroke-miterlimit:4;stroke-opacity:1;stroke-dasharray:none;marker-start:url(#Arrow1Mstart)" id="path4554-5-0-2-6-9" d="m 100,305.36218 0,-28"/><path style="display:inline;fill:none;stroke:#000;stroke-width:.77952756;stroke-linecap:round;stroke-linejoin:round;stroke-miterlimit:4;stroke-opacity:1;stroke-dasharray:none;marker-start:url(#Arrow1Mstart)" id="path4554-5-0-9" d="m 293,260.36218 0,-28"/><path style="display:inline;fill:none;stroke:#000;stroke-width:.77952756;stroke-linecap:round;stroke-linejoin:round;stroke-miterlimit:4;stroke-opacity:1;stroke-dasharray:none;marker-start:url(#Arrow1Mstart)" id="path4554-5-2-3-8" d="m 348,230.36218 -28,0"/><path style="display:inline;fill:none;stroke:#000;stroke-width:.77952756;stroke-linecap:round;stroke-linejoin:round;stroke-miterlimit:4;stroke-opacity:1;stroke-dasharray:none;marker-start:url(#Arrow1Mstart)" id="path4554-9-4-6" d="m 278,230.36218 -33,0"/><path style="display:inline;fill:none;stroke:#000;stroke-width:.53149606;stroke-linecap:butt;stroke-linejoin:miter;stroke-miterlimit:4;stroke-opacity:1;stroke-dasharray:none" id="path4405-1-3-3" d="m 305,217.36218 0,25"/><path style="display:inline;fill:none;stroke:#000;stroke-width:.53149606;stroke-linecap:butt;stroke-linejoin:miter;stroke-miterlimit:4;stroke-opacity:1;stroke-dasharray:none" id="path4405-1-3-8" d="m 170,217.36218 0,25"/><path style="display:inline;fill:none;stroke:#000;stroke-width:.53149606;stroke-linecap:butt;stroke-linejoin:miter;stroke-miterlimit:4;stroke-opacity:1;stroke-dasharray:none" id="path4405-1-3" d="m 100,217.36218 0,25"/><path style="display:inline;fill:none;stroke:#000;stroke-width:.53149606;stroke-linecap:butt;stroke-linejoin:miter;stroke-miterlimit:4;stroke-opacity:1;stroke-dasharray:none" id="path4405-1-3-8-1" d="m 88,262.36218 0,25"/><path style="display:inline;fill:none;stroke:#000;stroke-width:.53149606;stroke-linecap:butt;stroke-linejoin:miter;stroke-miterlimit:4;stroke-opacity:1;stroke-dasharray:none" id="path4405-1-3-84" d="m 293,262.36219 0,25"/><path style="display:inline;fill:none;stroke:#000;stroke-width:.53149606;stroke-linecap:butt;stroke-linejoin:miter;stroke-miterlimit:4;stroke-opacity:1;stroke-dasharray:none" id="path4405-1-3-8-6" d="m 363,262.36218 0,25"/><path style="display:inline;fill:none;stroke:#000;stroke-width:.77952756;stroke-linecap:round;stroke-linejoin:round;stroke-miterlimit:4;stroke-opacity:1;stroke-dasharray:none;marker-start:url(#Arrow1Mstart)" id="path4554-5-0-7" d="m 281,305.36218 0,-27.99999"/><path style="display:inline;fill:none;stroke:#000;stroke-width:.77952756;stroke-linecap:round;stroke-linejoin:round;stroke-miterlimit:4;stroke-opacity:1;stroke-dasharray:none;marker-start:url(#Arrow1Mstart)" id="path4554-5-2-3-2" d="m 336,275.36219 -28,0"/><path style="display:inline;fill:none;stroke:#000;stroke-width:.77952756;stroke-linecap:round;stroke-linejoin:round;stroke-miterlimit:4;stroke-opacity:1;stroke-dasharray:none;marker-start:url(#Arrow1Mstart)" id="path4554-5-0-2-26" d="m 351,305.36217 0,-27.99999"/><path style="display:inline;fill:none;stroke:#000;stroke-width:.77952756;stroke-linecap:round;stroke-linejoin:round;stroke-miterlimit:4;stroke-opacity:1;stroke-dasharray:none;marker-start:url(#Arrow1Mstart)" id="path4554-5-0-2-6-91" d="m 375,305.36217 0,-27.99999"/></g><g id="layer3" style="display:inline"><path style="fill:#000;fill-opacity:1;stroke:#000;stroke-width:0;stroke-linecap:round;stroke-linejoin:round;stroke-miterlimit:4;stroke-opacity:1;stroke-dasharray:none;stroke-dashoffset:0;display:inline" id="path4491-4-7-3" d="m 120,84.862183 a 2.5,2.5 0 1 1 -5,0 2.5,2.5 0 1 1 5,0 z" transform="translate(175.5,145.47258)"/><path style="fill:#000;fill-opacity:1;stroke:#000;stroke-width:0;stroke-linecap:round;stroke-linejoin:round;stroke-miterlimit:4;stroke-opacity:1;stroke-dasharray:none;stroke-dashoffset:0;display:inline" id="path4491-44-0-7" d="m 120,84.862183 a 2.5,2.5 0 1 1 -5,0 2.5,2.5 0 1 1 5,0 z" transform="translate(200,145.5)"/><path style="fill:#000;fill-opacity:1;stroke:#000;stroke-width:0;stroke-linecap:round;stroke-linejoin:round;stroke-miterlimit:4;stroke-opacity:1;stroke-dasharray:none;stroke-dashoffset:0;display:inline" id="path4491-4-7-6" d="m 120,84.862183 a 2.5,2.5 0 1 1 -5,0 2.5,2.5 0 1 1 5,0 z" transform="translate(163.5,190.47259)"/><path style="fill:#000;fill-opacity:1;stroke:#000;stroke-width:0;stroke-linecap:round;stroke-linejoin:round;stroke-miterlimit:4;stroke-opacity:1;stroke-dasharray:none;stroke-dashoffset:0;display:inline" id="path4491-44-0-6" d="m 120,84.862183 a 2.5,2.5 0 1 1 -5,0 2.5,2.5 0 1 1 5,0 z" transform="translate(188,190.50001)"/><text style="font-size:11px;font-style:normal;font-variant:normal;font-weight:400;font-stretch:normal;line-height:125%;letter-spacing:0;word-spacing:0;fill:#000;fill-opacity:1;stroke:none;font-family:Inconsolata LGC;-inkscape-font-specification:Inconsolata LGC" id="text3007-0-2" x="277.179" y="323.898" xml:space="preserve"><tspan id="tspan3009-8-5" x="277.179" y="323.898" style="font-weight:400;-inkscape-font-specification:Inconsolata LGC">1</tspan></text><text style="font-size:11px;font-style:normal;font-variant:normal;font-weight:400;font-stretch:normal;line-height:125%;letter-spacing:0;word-spacing:0;fill:#000;fill-opacity:1;stroke:none;font-family:Inconsolata LGC;-inkscape-font-specification:Inconsolata LGC" id="text3007-0" x="359.179" y="233.898" xml:space="preserve"><tspan id="tspan3009-8" x="359.179" y="233.898" style="font-weight:400;-inkscape-font-specification:Inconsolata LGC">4</tspan></text><path style="fill:#000;fill-opacity:1;stroke:#000;stroke-width:0;stroke-linecap:round;stroke-linejoin:round;stroke-miterlimit:4;stroke-opacity:1;stroke-dasharray:none;stroke-dashoffset:0;display:inline" id="path4491-4-7-37-2" d="m 120,84.862183 a 2.5,2.5 0 1 1 -5,0 2.5,2.5 0 1 1 5,0 z" transform="translate(233.5,190)"/><path style="fill:#000;fill-opacity:1;stroke:#000;stroke-width:0;stroke-linecap:round;stroke-linejoin:round;stroke-miterlimit:4;stroke-opacity:1;stroke-dasharray:none;stroke-dashoffset:0;display:inline" id="path4491-44-0-8-5" d="m 120,84.862183 a 2.5,2.5 0 1 1 -5,0 2.5,2.5 0 1 1 5,0 z" transform="translate(257.5,190)"/><text style="font-size:11px;font-style:normal;font-variant:normal;font-weight:400;font-stretch:normal;line-height:125%;letter-spacing:0;word-spacing:0;fill:#000;fill-opacity:1;stroke:none;font-family:Inconsolata LGC;-inkscape-font-specification:Inconsolata LGC" id="text3007-0-7" x="344.179" y="323.898" xml:space="preserve"><tspan id="tspan3009-8-52" x="344.179" y="323.898" style="font-weight:400;-inkscape-font-specification:Inconsolata LGC">2</tspan></text><text style="font-size:11px;font-style:normal;font-variant:normal;font-weight:400;font-stretch:normal;line-height:125%;letter-spacing:0;word-spacing:0;fill:#000;fill-opacity:1;stroke:none;font-family:Inconsolata LGC;-inkscape-font-specification:Inconsolata LGC" id="text3007-0-6" x="374.179" y="323.898" xml:space="preserve"><tspan id="tspan3009-8-6" x="374.179" y="323.898" style="font-weight:400;-inkscape-font-specification:Inconsolata LGC">3</tspan></text><path style="fill:#000;fill-opacity:1;stroke:#000;stroke-width:0;stroke-linecap:round;stroke-linejoin:round;stroke-miterlimit:4;stroke-opacity:1;stroke-dasharray:none;stroke-dashoffset:0;display:inline" id="path4491-4-7-37-7" d="m 120,84.862183 a 2.5,2.5 0 1 1 -5,0 2.5,2.5 0 1 1 5,0 z" transform="translate(-41.5,190)"/><path style="fill:#000;fill-opacity:1;stroke:#000;stroke-width:0;stroke-linecap:round;stroke-linejoin:round;stroke-miterlimit:4;stroke-opacity:1;stroke-dasharray:none;stroke-dashoffset:0;display:inline" id="path4491-44-0-8-2" d="m 120,84.862183 a 2.5,2.5 0 1 1 -5,0 2.5,2.5 0 1 1 5,0 z" transform="translate(-17.5,190)"/><path style="fill:#000;fill-opacity:1;stroke:#000;stroke-width:0;stroke-linecap:round;stroke-linejoin:round;stroke-miterlimit:4;stroke-opacity:1;stroke-dasharray:none;stroke-dashoffset:0;display:inline" id="path4491-4-7-37" d="m 120,84.862183 a 2.5,2.5 0 1 1 -5,0 2.5,2.5 0 1 1 5,0 z" transform="translate(40.5,145)"/><path style="fill:#000;fill-opacity:1;stroke:#000;stroke-width:0;stroke-linecap:round;stroke-linejoin:round;stroke-miterlimit:4;stroke-opacity:1;stroke-dasharray:none;stroke-dashoffset:0;display:inline" id="path4491-44-0-8" d="m 120,84.862183 a 2.5,2.5 0 1 1 -5,0 2.5,2.5 0 1 1 5,0 z" transform="translate(64.5,145)"/><text style="font-size:11px;font-style:normal;font-variant:normal;font-weight:400;font-stretch:normal;line-height:125%;letter-spacing:0;word-spacing:0;fill:#000;fill-opacity:1;stroke:none;font-family:Inconsolata LGC;-inkscape-font-specification:Inconsolata LGC" id="text3007-0-6-7" x="152.179" y="278.898" xml:space="preserve"><tspan id="tspan3009-8-6-4" x="152.179" y="278.898" style="font-weight:400;-inkscape-font-specification:Inconsolata LGC">3</tspan></text><text style="font-size:11px;font-style:normal;font-variant:normal;font-weight:400;font-stretch:normal;line-height:125%;letter-spacing:0;word-spacing:0;fill:#000;fill-opacity:1;stroke:none;font-family:Inconsolata LGC;-inkscape-font-specification:Inconsolata LGC" id="text3007-0-3" x="182.179" y="278.898" xml:space="preserve"><tspan id="tspan3009-8-3" x="182.179" y="278.898" style="font-weight:400;-inkscape-font-specification:Inconsolata LGC">4</tspan></text><text style="font-size:11px;font-style:normal;font-variant:normal;font-weight:400;font-stretch:normal;line-height:125%;letter-spacing:0;word-spacing:0;fill:#000;fill-opacity:1;stroke:none;font-family:Inconsolata LGC;-inkscape-font-specification:Inconsolata LGC" id="text3007-0-2-1" x="69.179" y="323.898" xml:space="preserve"><tspan id="tspan3009-8-5-5" x="69.179" y="323.898" style="font-weight:400;-inkscape-font-specification:Inconsolata LGC">1</tspan></text><text style="font-size:11px;font-style:normal;font-variant:normal;font-weight:400;font-stretch:normal;line-height:125%;letter-spacing:0;word-spacing:0;fill:#000;fill-opacity:1;stroke:none;font-family:Inconsolata LGC;-inkscape-font-specification:Inconsolata LGC" id="text3007-0-7-6" x="99.179" y="323.898" xml:space="preserve"><tspan id="tspan3009-8-52-6" x="99.179" y="323.898" style="font-weight:400;-inkscape-font-specification:Inconsolata LGC">2</tspan></text><text style="font-size:11px;font-style:normal;font-variant:normal;font-weight:400;font-stretch:normal;line-height:125%;letter-spacing:0;word-spacing:0;fill:#000;fill-opacity:1;stroke:none;font-family:Inconsolata LGC;-inkscape-font-specification:Inconsolata LGC" id="text4089" x="57.93" y="360.576" xml:space="preserve"><tspan id="tspan4091" x="57.93" y="360.576">(cons (cons 1 2) (cons (cons 1</tspan><tspan id="tspan4093" x="57.93" y="374.326"> (cons 3 4)) (cons 2 3))</tspan><tspan id="tspan4095" x="57.93" y="388.076"> 4)</tspan></text></g></svg>