<svg xmlns="http://www.w3.org/2000/svg" xmlns:svg="http://www.w3.org/2000/svg" id="svg5731" width="442.531" height="112.531" version="1.1"><defs id="defs5733"><marker id="Arrow1Mstart" orient="auto" refX="0" refY="0" style="overflow:visible"><path id="path4565" d="M 0,0 5,-5 -12.5,0 5,5 0,0 z" transform="matrix(0.4,0,0,0.4,4,0)" style="fill-rule:evenodd;stroke:#000;stroke-width:1pt;marker-start:none"/></marker><marker id="Arrow1Mstart-5" orient="auto" refX="0" refY="0" style="overflow:visible"><path id="path4565-2" d="M 0,0 5,-5 -12.5,0 5,5 0,0 z" transform="matrix(0.4,0,0,0.4,4,0)" style="fill-rule:evenodd;stroke:#000;stroke-width:1pt;marker-start:none"/></marker><marker id="Arrow1Mstart-8" orient="auto" refX="0" refY="0" style="overflow:visible"><path id="path4565-6" d="M 0,0 5,-5 -12.5,0 5,5 0,0 z" transform="matrix(0.4,0,0,0.4,4,0)" style="fill-rule:evenodd;stroke:#000;stroke-width:1pt;marker-start:none"/></marker><marker id="Arrow1Mstart-4" orient="auto" refX="0" refY="0" style="overflow:visible"><path id="path4565-67" d="M 0,0 5,-5 -12.5,0 5,5 0,0 z" transform="matrix(0.4,0,0,0.4,4,0)" style="fill-rule:evenodd;stroke:#000;stroke-width:1pt;marker-start:none"/></marker><marker id="Arrow1Mstart-3" orient="auto" refX="0" refY="0" style="overflow:visible"><path id="path4565-4" d="M 0,0 5,-5 -12.5,0 5,5 0,0 z" transform="matrix(0.4,0,0,0.4,4,0)" style="fill-rule:evenodd;stroke:#000;stroke-width:1pt;marker-start:none"/></marker><marker id="Arrow1Mstart-7" orient="auto" refX="0" refY="0" style="overflow:visible"><path id="path4565-9" d="M 0,0 5,-5 -12.5,0 5,5 0,0 z" transform="matrix(0.4,0,0,0.4,4,0)" style="fill-rule:evenodd;stroke:#000;stroke-width:1pt;marker-start:none"/></marker><marker id="Arrow1Mstart-81" orient="auto" refX="0" refY="0" style="overflow:visible"><path id="path4565-0" d="M 0,0 5,-5 -12.5,0 5,5 0,0 z" transform="matrix(0.4,0,0,0.4,4,0)" style="fill-rule:evenodd;stroke:#000;stroke-width:1pt;marker-start:none"/></marker></defs><metadata id="metadata_2.7"/><g id="layer4" transform="translate(-48.734252,-151.09643)" style="display:inline"><rect style="fill:#e8e8e8;fill-opacity:1;stroke:#000;stroke-width:.53149605;stroke-linecap:round;stroke-linejoin:round;stroke-miterlimit:4;stroke-opacity:1;stroke-dasharray:none;stroke-dashoffset:0;display:inline" id="rect3794-77-9-4-8" width="95" height="45" x="50" y="152.362" rx="7.087" ry="7.087"/><rect style="fill:#e8e8e8;fill-opacity:1;stroke:#000;stroke-width:.53149605;stroke-linecap:round;stroke-linejoin:round;stroke-miterlimit:4;stroke-opacity:1;stroke-dasharray:none;stroke-dashoffset:0;display:inline" id="rect3794-77-9-4-8-7" width="95" height="45" x="165" y="152.362" rx="7.087" ry="7.087"/><rect style="fill:#e8e8e8;fill-opacity:1;stroke:#000;stroke-width:.53149605;stroke-linecap:round;stroke-linejoin:round;stroke-miterlimit:4;stroke-opacity:1;stroke-dasharray:none;stroke-dashoffset:0;display:inline" id="rect3794-77-9-4-8-2" width="95" height="45" x="280" y="152.362" rx="7.087" ry="7.087"/><rect style="fill:#e8e8e8;fill-opacity:1;stroke:#000;stroke-width:.53149605;stroke-linecap:round;stroke-linejoin:round;stroke-miterlimit:4;stroke-opacity:1;stroke-dasharray:none;stroke-dashoffset:0;display:inline" id="rect3794-77-9-4-8-1" width="95" height="45" x="395" y="152.362" rx="7.087" ry="7.087"/><rect style="fill:#e8e8e8;fill-opacity:1;stroke:#000;stroke-width:.53149605;stroke-linecap:round;stroke-linejoin:round;stroke-miterlimit:4;stroke-opacity:1;stroke-dasharray:none;stroke-dashoffset:0;display:inline" id="rect3794-77-9-4-8-79" width="95" height="45" x="50" y="217.362" rx="7.087" ry="7.087"/><rect style="fill:#e8e8e8;fill-opacity:1;stroke:#000;stroke-width:.53149605;stroke-linecap:round;stroke-linejoin:round;stroke-miterlimit:4;stroke-opacity:1;stroke-dasharray:none;stroke-dashoffset:0;display:inline" id="rect3794-77-9-4-8-11" width="95" height="45" x="165" y="217.362" rx="7.087" ry="7.087"/><rect style="fill:#e8e8e8;fill-opacity:1;stroke:#000;stroke-width:.53149605;stroke-linecap:round;stroke-linejoin:round;stroke-miterlimit:4;stroke-opacity:1;stroke-dasharray:none;stroke-dashoffset:0;display:inline" id="rect3794-77-9-4-8-119" width="95" height="45" x="280" y="217.362" rx="7.087" ry="7.087"/><rect style="fill:#e8e8e8;fill-opacity:1;stroke:#000;stroke-width:.53149605;stroke-linecap:round;stroke-linejoin:round;stroke-miterlimit:4;stroke-opacity:1;stroke-dasharray:none;stroke-dashoffset:0;display:inline" id="rect3794-77-9-4-8-0" width="95" height="45" x="395" y="217.362" rx="7.087" ry="7.087"/><path style="fill:none;stroke:#000;stroke-width:.88582677;stroke-linecap:butt;stroke-linejoin:round;stroke-miterlimit:4;stroke-opacity:1;stroke-dasharray:none;marker-start:url(#Arrow1Mstart);display:inline" id="path4554-9-4-2" d="m 163,175.10964 -18,0" transform="translate(0,-2.5390623e-6)"/><path style="fill:none;stroke:#000;stroke-width:.88582677;stroke-linecap:butt;stroke-linejoin:round;stroke-miterlimit:4;stroke-opacity:1;stroke-dasharray:none;marker-start:url(#Arrow1Mstart);display:inline" id="path4554-9-4-2-0" d="m 278,175.10964 -18,0" transform="translate(0,-2.5390623e-6)"/><path style="fill:none;stroke:#000;stroke-width:.88582677;stroke-linecap:butt;stroke-linejoin:round;stroke-miterlimit:4;stroke-opacity:1;stroke-dasharray:none;marker-start:url(#Arrow1Mstart);display:inline" id="path4554-9-4-2-0-6" d="m 393,175.10964 -18,0" transform="translate(0,-2.5390623e-6)"/><path style="fill:none;stroke:#000;stroke-width:.88582677;stroke-linecap:butt;stroke-linejoin:round;stroke-miterlimit:4;stroke-opacity:1;stroke-dasharray:none;marker-start:url(#Arrow1Mstart);display:inline" id="path4554-9-4-2-0-61" d="m 393,240.10964 -18,0" transform="translate(0,-2.5390623e-6)"/><path style="fill:none;stroke:#000;stroke-width:.88582677;stroke-linecap:butt;stroke-linejoin:round;stroke-miterlimit:4;stroke-opacity:1;stroke-dasharray:none;marker-start:url(#Arrow1Mstart);display:inline" id="path4554-9-4-2-0-65" d="m 278,240.10964 -18,0" transform="translate(0,-2.5390623e-6)"/><path style="fill:none;stroke:#000;stroke-width:.88582677;stroke-linecap:butt;stroke-linejoin:round;stroke-miterlimit:4;stroke-opacity:1;stroke-dasharray:none;marker-start:url(#Arrow1Mstart);display:inline" id="path4554-9-4-2-0-8" d="m 163,240.10964 -18,0" transform="translate(0,-2.5390623e-6)"/></g><g id="layer5" transform="translate(-48.734252,-151.09643)" style="display:inline"><text style="font-size:11px;font-style:normal;font-variant:normal;font-weight:400;font-stretch:normal;text-align:start;line-height:125%;letter-spacing:0;word-spacing:0;text-anchor:start;fill:#000;fill-opacity:1;stroke:none;font-family:Inconsolata LGC;-inkscape-font-specification:Inconsolata LGC" id="text5834" x="60" y="171.352" xml:space="preserve"><tspan id="tspan5836" x="60" y="171.352">enumerate:</tspan><tspan id="tspan5838" x="60" y="185.102">tree leaves</tspan></text><text style="font-size:11px;font-style:normal;font-variant:normal;font-weight:400;font-stretch:normal;text-align:start;line-height:125%;letter-spacing:0;word-spacing:0;text-anchor:start;fill:#000;fill-opacity:1;stroke:none;font-family:Inconsolata LGC;-inkscape-font-specification:Inconsolata LGC" id="text5840" x="175" y="171.352" xml:space="preserve"><tspan id="tspan5842" x="175" y="171.352">filter:</tspan><tspan id="tspan5844" x="175" y="185.102">odd?</tspan></text><text style="font-size:11px;font-style:normal;font-variant:normal;font-weight:400;font-stretch:normal;text-align:start;line-height:125%;letter-spacing:0;word-spacing:0;text-anchor:start;fill:#000;fill-opacity:1;stroke:none;font-family:Inconsolata LGC;-inkscape-font-specification:Inconsolata LGC" id="text5846" x="290" y="171.352" xml:space="preserve"><tspan id="tspan5848" x="290" y="171.352">map:</tspan><tspan id="tspan5850" x="290" y="185.102">square</tspan></text><text style="font-size:11px;font-style:normal;font-variant:normal;font-weight:400;font-stretch:normal;text-align:start;line-height:125%;letter-spacing:0;word-spacing:0;text-anchor:start;fill:#000;fill-opacity:1;stroke:none;font-family:Inconsolata LGC;-inkscape-font-specification:Inconsolata LGC" id="text5852" x="405" y="171.352" xml:space="preserve"><tspan id="tspan5854" x="405" y="171.352">accumulate:</tspan><tspan id="tspan5856" x="405" y="185.102">+, 0</tspan></text><text style="font-size:11px;font-style:normal;font-variant:normal;font-weight:400;font-stretch:normal;text-align:start;line-height:125%;letter-spacing:0;word-spacing:0;text-anchor:start;fill:#000;fill-opacity:1;stroke:none;font-family:Inconsolata LGC;-inkscape-font-specification:Inconsolata LGC" id="text5876" x="60" y="236.352" xml:space="preserve"><tspan id="tspan5878" x="60" y="236.352">enumerate:</tspan><tspan id="tspan5880" x="60" y="250.102">integers</tspan></text><text style="font-size:11px;font-style:normal;font-variant:normal;font-weight:400;font-stretch:normal;text-align:start;line-height:125%;letter-spacing:0;word-spacing:0;text-anchor:start;fill:#000;fill-opacity:1;stroke:none;font-family:Inconsolata LGC;-inkscape-font-specification:Inconsolata LGC" id="text5870" x="175" y="236.352" xml:space="preserve"><tspan id="tspan5872" x="175" y="236.352">map:</tspan><tspan id="tspan5874" x="175" y="250.102">fib</tspan></text><text style="font-size:11px;font-style:normal;font-variant:normal;font-weight:400;font-stretch:normal;text-align:start;line-height:125%;letter-spacing:0;word-spacing:0;text-anchor:start;fill:#000;fill-opacity:1;stroke:none;font-family:Inconsolata LGC;-inkscape-font-specification:Inconsolata LGC" id="text5864" x="290" y="236.352" xml:space="preserve"><tspan id="tspan5866" x="290" y="236.352">filter:</tspan><tspan id="tspan5868" x="290" y="250.102">even?</tspan></text><text style="font-size:11px;font-style:normal;font-variant:normal;font-weight:400;font-stretch:normal;text-align:start;line-height:125%;letter-spacing:0;word-spacing:0;text-anchor:start;fill:#000;fill-opacity:1;stroke:none;font-family:Inconsolata LGC;-inkscape-font-specification:Inconsolata LGC" id="text5858" x="405" y="236.352" xml:space="preserve"><tspan id="tspan5860" x="405" y="236.352">accumulate:</tspan><tspan id="tspan5862" x="405" y="250.102">cons, ()</tspan></text></g></svg>