<svg xmlns="http://www.w3.org/2000/svg" xmlns:svg="http://www.w3.org/2000/svg" id="svg2" width="200.495" height="195.756" version="1.1" style="display:inline"><defs id="defs4"><marker id="Arrow1Mend" orient="auto" refX="0" refY="0" style="overflow:visible"><path id="path3843" d="M 0,0 5,-5 -12.5,0 5,5 0,0 z" transform="matrix(-0.4,0,0,-0.4,-4,0)" style="fill-rule:evenodd;stroke:#000;stroke-width:1pt;marker-start:none"/></marker><marker id="Arrow1Lstart" orient="auto" refX="0" refY="0" style="overflow:visible"><path id="path3834" d="M 0,0 5,-5 -12.5,0 5,5 0,0 z" transform="matrix(0.8,0,0,0.8,10,0)" style="fill-rule:evenodd;stroke:#000;stroke-width:1pt;marker-start:none"/></marker><marker id="Arrow1Lend" orient="auto" refX="0" refY="0" style="overflow:visible"><path id="path3837" d="M 0,0 5,-5 -12.5,0 5,5 0,0 z" transform="matrix(-0.8,0,0,-0.8,-10,0)" style="fill-rule:evenodd;stroke:#000;stroke-width:1pt;marker-start:none"/></marker><marker id="Arrow1Mstart" orient="auto" refX="0" refY="0" style="overflow:visible"><path id="path3840" d="M 0,0 5,-5 -12.5,0 5,5 0,0 z" transform="matrix(0.4,0,0,0.4,4,0)" style="fill-rule:evenodd;stroke:#000;stroke-width:1pt;marker-start:none"/></marker><marker id="Arrow1Lstart-3" orient="auto" refX="0" refY="0" style="overflow:visible"><path id="path3834-7" d="M 0,0 5,-5 -12.5,0 5,5 0,0 z" transform="matrix(0.8,0,0,0.8,10,0)" style="fill-rule:evenodd;stroke:#000;stroke-width:1pt;marker-start:none"/></marker><marker id="Arrow1Lstart-6" orient="auto" refX="0" refY="0" style="overflow:visible"><path id="path3834-4" d="M 0,0 5,-5 -12.5,0 5,5 0,0 z" transform="matrix(0.8,0,0,0.8,10,0)" style="fill-rule:evenodd;stroke:#000;stroke-width:1pt;marker-start:none"/></marker><marker id="Arrow1Lstart-9" orient="auto" refX="0" refY="0" style="overflow:visible"><path id="path3834-6" d="M 0,0 5,-5 -12.5,0 5,5 0,0 z" transform="matrix(0.8,0,0,0.8,10,0)" style="fill-rule:evenodd;stroke:#000;stroke-width:1pt;marker-start:none"/></marker><marker id="Arrow1Lstart-8" orient="auto" refX="0" refY="0" style="overflow:visible"><path id="path3834-0" d="M 0,0 5,-5 -12.5,0 5,5 0,0 z" transform="matrix(0.8,0,0,0.8,10,0)" style="fill-rule:evenodd;stroke:#000;stroke-width:1pt;marker-start:none"/></marker><marker id="Arrow1Mstart-6" orient="auto" refX="0" refY="0" style="overflow:visible"><path id="path3840-1" d="M 0,0 5,-5 -12.5,0 5,5 0,0 z" transform="matrix(0.4,0,0,0.4,4,0)" style="fill-rule:evenodd;stroke:#000;stroke-width:1pt;marker-start:none"/></marker></defs><metadata id="metadata_2.15"/><g id="layer2" transform="translate(-61.247,-55.936986)" style="display:inline"><path style="fill:none;stroke:#000;stroke-width:1px;stroke-linecap:round;stroke-linejoin:round;stroke-opacity:1;marker-start:url(#Arrow1Mstart)" id="path5021" d="M 243.91071,123.18361 130,192.36218"/><path style="fill:none;stroke:#000;stroke-width:1px;stroke-linecap:round;stroke-linejoin:round;stroke-opacity:1;marker-start:url(#Arrow1Mstart)" id="path5953" d="M 90.732143,128.71933 130,192.36218"/><path style="fill:none;stroke:#000;stroke-width:1px;stroke-linecap:round;stroke-linejoin:round;stroke-opacity:1;marker-end:url(#Arrow1Mend)" id="path6141" d="M 220,212.36218 131.38711,192.97186"/><path style="fill:#000;fill-opacity:1;stroke:none" id="path6329" d="m 240,212.36218 c 0,2.76143 -2.23858,5 -5,5 -2.76142,0 -5,-2.23857 -5,-5 0,-2.76142 2.23858,-5 5,-5 2.76142,0 5,2.23858 5,5 z" transform="matrix(0.40000028,0,0,0.40000028,125.99993,127.41725)"/><path style="fill:none;stroke:#000;stroke-width:.85039371;stroke-linecap:round;stroke-linejoin:round;stroke-miterlimit:4;stroke-opacity:1;stroke-dasharray:5.1023622,5.1023622;stroke-dashoffset:0;marker-start:none;display:inline" id="path5021-4" d="M 205,57.362183 90,127.36218"/><path style="fill:none;stroke:#000;stroke-width:.85039371;stroke-linecap:round;stroke-linejoin:round;stroke-miterlimit:4;stroke-opacity:1;stroke-dasharray:5.1023622,5.1023622;stroke-dashoffset:0;marker-start:none;display:inline" id="path5953-6" d="m 205,57.362185 40,64.999995"/></g><g id="layer3" transform="translate(-61.247,-55.936986)" style="display:inline"><text style="font-size:13px;font-style:normal;font-variant:normal;font-weight:400;font-stretch:normal;text-align:start;line-height:125%;letter-spacing:0;word-spacing:0;text-anchor:start;fill:#000;fill-opacity:1;stroke:none;font-family:Linux Biolinum O;-inkscape-font-specification:Linux Biolinum O" id="text3000" x="228" y="152.362" xml:space="preserve"><tspan id="tspan3004" x="228" y="152.362" style="font-size:13px;font-style:normal;font-variant:normal;font-weight:400;font-stretch:normal;font-family:Linux Biolinum O;-inkscape-font-specification:Linux Biolinum O">frame</tspan><tspan id="tspan3008" x="228" y="168.612" style="font-size:13px;font-style:normal;font-variant:normal;font-weight:400;font-stretch:normal;font-family:Linux Biolinum O;-inkscape-font-specification:Linux Biolinum O">edge1</tspan><tspan id="tspan3010" x="228" y="184.862" style="font-size:13px;font-style:normal;font-variant:normal;font-weight:400;font-stretch:normal;font-family:Linux Biolinum O;-inkscape-font-specification:Linux Biolinum O">vector</tspan></text><text style="font-size:13px;font-style:normal;font-variant:normal;font-weight:400;font-stretch:normal;text-align:start;line-height:125%;letter-spacing:0;word-spacing:0;text-anchor:start;fill:#000;fill-opacity:1;stroke:none;font-family:Linux Biolinum O;-inkscape-font-specification:Linux Biolinum O" id="text3000-7" x="62" y="157.362" xml:space="preserve"><tspan id="tspan3004-3" x="62" y="157.362" style="font-size:13px;font-style:normal;font-variant:normal;font-weight:400;font-stretch:normal;font-family:Linux Biolinum O;-inkscape-font-specification:Linux Biolinum O">frame</tspan><tspan id="tspan3008-3" x="62" y="173.612" style="font-size:13px;font-style:normal;font-variant:normal;font-weight:400;font-stretch:normal;font-family:Linux Biolinum O;-inkscape-font-specification:Linux Biolinum O">edge2</tspan><tspan id="tspan3010-9" x="62" y="189.862" style="font-size:13px;font-style:normal;font-variant:normal;font-weight:400;font-stretch:normal;font-family:Linux Biolinum O;-inkscape-font-specification:Linux Biolinum O">vector</tspan></text><text style="font-size:13px;font-style:normal;font-variant:normal;font-weight:400;font-stretch:normal;text-align:start;line-height:125%;letter-spacing:0;word-spacing:0;text-anchor:start;fill:#000;fill-opacity:1;stroke:none;font-family:Linux Biolinum O;-inkscape-font-specification:Linux Biolinum O" id="text3039" x="130" y="214.89" xml:space="preserve"><tspan id="tspan3043" x="130" y="214.89" style="font-size:13px;font-style:normal;font-variant:normal;font-weight:400;font-stretch:normal;font-family:Linux Biolinum O;-inkscape-font-specification:Linux Biolinum O">frame</tspan><tspan id="tspan3045" x="130" y="231.14" style="font-size:13px;font-style:normal;font-variant:normal;font-weight:400;font-stretch:normal;font-family:Linux Biolinum O;-inkscape-font-specification:Linux Biolinum O">origin</tspan><tspan id="tspan3053" x="130" y="247.39" style="font-size:13px;font-style:normal;font-variant:normal;font-weight:400;font-stretch:normal;font-family:Linux Biolinum O;-inkscape-font-specification:Linux Biolinum O">vector</tspan></text><text style="font-size:13px;font-style:normal;font-variant:normal;font-weight:400;font-stretch:normal;text-align:start;line-height:125%;letter-spacing:0;word-spacing:0;text-anchor:start;fill:#000;fill-opacity:1;stroke:none;font-family:Linux Biolinum O;-inkscape-font-specification:Linux Biolinum O" id="text3055" x="185" y="231.362" xml:space="preserve"><tspan id="tspan3059" x="185" y="231.362" style="font-size:13px;font-style:normal;font-variant:normal;font-weight:400;font-stretch:normal;font-family:Linux Biolinum O;-inkscape-font-specification:Linux Biolinum O">(0, 0) point on </tspan><tspan id="tspan3994" x="185" y="247.612" style="font-size:13px;font-style:normal;font-variant:normal;font-weight:400;font-stretch:normal;font-family:Linux Biolinum O;-inkscape-font-specification:Linux Biolinum O">display screen</tspan></text></g></svg>