<svg xmlns="http://www.w3.org/2000/svg" xmlns:svg="http://www.w3.org/2000/svg" style="display:inline" id="svg2" width="309.336" height="185.924" version="1.1"><defs id="defs4"><marker style="overflow:visible" id="Arrow1Sstart" orient="auto" refX="0" refY="0"><path style="fill-rule:evenodd;stroke:#000;stroke-width:1pt;marker-start:none" id="path14077" d="M 0,0 5,-5 -12.5,0 5,5 0,0 z" transform="matrix(0.2,0,0,0.2,1.2,0)"/></marker><marker style="overflow:visible" id="Arrow1Mstart" orient="auto" refX="0" refY="0"><path style="fill-rule:evenodd;stroke:#000;stroke-width:1pt;marker-start:none" id="path3840" d="M 0,0 5,-5 -12.5,0 5,5 0,0 z" transform="matrix(0.4,0,0,0.4,4,0)"/></marker><marker style="overflow:visible" id="Arrow1Mstart-3" orient="auto" refX="0" refY="0"><path style="fill-rule:evenodd;stroke:#000;stroke-width:1pt;marker-start:none" id="path3840-6" d="M 0,0 5,-5 -12.5,0 5,5 0,0 z" transform="matrix(0.4,0,0,0.4,4,0)"/></marker><marker style="overflow:visible" id="Arrow1Mstart-4" orient="auto" refX="0" refY="0"><path style="fill-rule:evenodd;stroke:#000;stroke-width:1pt;marker-start:none" id="path3840-1" d="M 0,0 5,-5 -12.5,0 5,5 0,0 z" transform="matrix(0.4,0,0,0.4,4,0)"/></marker><marker style="overflow:visible" id="Arrow1Mend" orient="auto" refX="0" refY="0"><path style="fill-rule:evenodd;stroke:#000;stroke-width:1pt;marker-start:none" id="path3843" d="M 0,0 5,-5 -12.5,0 5,5 0,0 z" transform="matrix(-0.4,0,0,-0.4,-4,0)"/></marker></defs><metadata id="metadata_2.20"/><g style="display:inline" id="layer2" transform="translate(-188.5,-87.938183)"><path id="path5021" d="m 430,252.36218 -240,0" style="fill:none;stroke:#000;stroke-width:1px;stroke-linecap:round;stroke-linejoin:round;stroke-opacity:1;marker-start:url(#Arrow1Mstart);display:inline"/><path id="path5021-6" d="m 220,112.36218 0,160" style="fill:none;stroke:#000;stroke-width:1px;stroke-linecap:round;stroke-linejoin:round;stroke-opacity:1;marker-start:url(#Arrow1Mstart);display:inline"/><path id="path6141-9" d="m 400,147.36218 -180,105" style="fill:none;stroke:#000;stroke-width:1px;stroke-linecap:round;stroke-linejoin:round;stroke-opacity:1;marker-end:none;display:inline"/><path id="path6329-9" d="m 240,212.36218 c 0,2.76143 -2.23858,5 -5,5 -2.76142,0 -5,-2.23857 -5,-5 0,-2.76142 2.23858,-5 5,-5 2.76142,0 5,2.23858 5,5 z" transform="matrix(0.40000028,0,0,0.40000028,305.99993,62.417249)" style="fill:#000;fill-opacity:1;stroke:none;marker-end:none;display:inline"/><path id="path4189" d="m 270,252.36218 c 0,8.77684 -2.31031,17.39904 -6.69873,25" transform="matrix(0.8660254,-0.5,0.5,0.8660254,-96.70668,143.81012)" style="fill:none;stroke:#000;stroke-width:.99900001;stroke-linecap:round;stroke-linejoin:round;stroke-miterlimit:4;stroke-opacity:1;stroke-dasharray:none;stroke-dashoffset:0;marker-start:none;marker-end:none;display:inline"/><path id="path4197" d="m 400,147.36218 0,105" style="fill:none;stroke:#000;stroke-width:1;stroke-linecap:round;stroke-linejoin:round;stroke-miterlimit:4;stroke-opacity:1;stroke-dasharray:2,4;stroke-dashoffset:0;display:inline"/><path id="path4197-5" d="m 400,147.36218 -180,0" style="fill:none;stroke:#000;stroke-width:1;stroke-linecap:round;stroke-linejoin:round;stroke-miterlimit:4;stroke-opacity:1;stroke-dasharray:2,4;stroke-dashoffset:0;display:inline"/></g><g style="display:inline" id="layer3" transform="translate(-188.5,-87.938183)"><text id="text3915" x="220" y="97.362" xml:space="preserve" style="font-size:13px;font-style:normal;font-variant:normal;font-weight:400;font-stretch:normal;text-align:center;line-height:125%;letter-spacing:0;word-spacing:0;text-anchor:middle;fill:#000;fill-opacity:1;stroke:none;font-family:Linux Biolinum O;-inkscape-font-specification:Linux Biolinum O"><tspan id="tspan3917" x="220" y="97.362">Imaginary</tspan></text><text id="text3919" x="457.294" y="255.362" xml:space="preserve" style="font-size:13px;font-style:normal;font-variant:normal;font-weight:400;font-stretch:normal;text-align:center;line-height:125%;letter-spacing:0;word-spacing:0;text-anchor:middle;fill:#000;fill-opacity:1;stroke:none;font-family:Linux Biolinum O;-inkscape-font-specification:Linux Biolinum O"><tspan id="tspan3921" x="457.294" y="255.362">Real</tspan></text><text id="text3923" x="415" y="150.362" xml:space="preserve" style="font-size:13px;font-style:italic;font-variant:normal;font-weight:400;font-stretch:normal;text-align:start;line-height:125%;letter-spacing:0;word-spacing:0;text-anchor:start;fill:#000;fill-opacity:1;stroke:none;font-family:Linux Libertine O;-inkscape-font-specification:Sans Italic"><tspan id="tspan3925" x="415" y="150.362" dx="0 0 0 0 0 0 0 0 0 .4 0 0 0 0 .8">z = x + iy = re<tspan id="tspan3927" dx=".4 .4" style="font-size:65.00091553%;baseline-shift:super">iA</tspan></tspan></text><text id="text4191" x="255" y="246.1" xml:space="preserve" style="font-size:13px;font-style:italic;font-variant:normal;font-weight:400;font-stretch:normal;text-align:center;line-height:125%;letter-spacing:0;word-spacing:0;text-anchor:middle;fill:#000;fill-opacity:1;stroke:none;font-family:Linux Libertine O;-inkscape-font-specification:Sans Italic"><tspan id="tspan4193" x="255" y="246.1">A</tspan></text><text id="text4217" x="210" y="149.362" xml:space="preserve" style="font-size:13px;font-style:italic;font-variant:normal;font-weight:400;font-stretch:normal;text-align:end;line-height:125%;letter-spacing:0;word-spacing:0;text-anchor:end;fill:#000;fill-opacity:1;stroke:none;font-family:Linux Libertine O;-inkscape-font-specification:Sans Italic"><tspan id="tspan4219" x="210" y="149.362">y</tspan></text><text id="text4221" x="400" y="267.362" xml:space="preserve" style="font-size:13px;font-style:italic;font-variant:normal;font-weight:400;font-stretch:normal;text-align:center;line-height:125%;letter-spacing:0;word-spacing:0;text-anchor:middle;fill:#000;fill-opacity:1;stroke:none;font-family:Linux Libertine O;-inkscape-font-specification:Sans Italic"><tspan id="tspan4223" x="400" y="267.362">x</tspan></text><text id="text4225" x="305" y="192.362" xml:space="preserve" style="font-size:13px;font-style:italic;font-variant:normal;font-weight:400;font-stretch:normal;text-align:center;line-height:125%;letter-spacing:0;word-spacing:0;text-anchor:middle;fill:#000;fill-opacity:1;stroke:none;font-family:Linux Libertine O;-inkscape-font-specification:Sans Italic"><tspan id="tspan4227" x="305" y="192.362">r</tspan></text></g></svg>