<svg xmlns="http://www.w3.org/2000/svg" xmlns:svg="http://www.w3.org/2000/svg" style="display:inline" id="svg2" width="89.541" height="102.432" version="1.1"><metadata id="metadata_2.6"/><g style="display:inline" id="layer2" transform="translate(-152.89148,-493.94153)"><flowRoot style="font-size:24px;font-style:normal;font-variant:normal;font-weight:400;font-stretch:normal;line-height:125%;letter-spacing:0;word-spacing:0;fill:#000;fill-opacity:1;stroke:none;font-family:LMMono12;-inkscape-font-specification:LMMono12" id="flowRoot3073" xml:space="preserve"><flowRegion id="flowRegion3075"><rect id="rect3077" width="88.571" height="63.571" x="492.857" y="255.934"/></flowRegion><flowPara id="flowPara3079"/></flowRoot><path id="path3923-1" d="m 190,547.36218 c 1,-15 6,-27 17.27273,-35 4.72727,11 5.72727,23 5.72727,35" style="fill:none;stroke:#000;stroke-width:.53149605;stroke-linecap:round;stroke-linejoin:round;stroke-miterlimit:4;stroke-opacity:1;stroke-dasharray:none;display:inline"/><path id="path3925-4" d="m 207.27273,512.36218 c 16.72727,7 24.72727,19 27.72727,35" style="fill:none;stroke:#000;stroke-width:.53149605;stroke-linecap:round;stroke-linejoin:round;stroke-miterlimit:4;stroke-opacity:1;stroke-dasharray:none;display:inline"/><path id="path3911-3" d="m 170,582.36218 c 2,-15 8,-26 20,-35 6,10 9,20 10,35" style="fill:none;stroke:#000;stroke-width:.53149605;stroke-linecap:round;stroke-linejoin:round;stroke-miterlimit:4;stroke-opacity:1;stroke-dasharray:none;display:inline"/><path id="path4491-44-0-8-5" d="m 119.55455,84.862183 c 0,1.134697 -0.91985,2.054551 -2.05455,2.054551 -1.1347,0 -2.05455,-0.919854 -2.05455,-2.054551 0,-1.134698 0.91985,-2.054551 2.05455,-2.054551 1.1347,0 2.05455,0.919853 2.05455,2.054551 z" transform="matrix(0.8503937,0,0,0.8503937,90.07874,475.3219)" style="fill:#000;fill-opacity:1;stroke:#000;stroke-width:0;stroke-linecap:round;stroke-linejoin:round;stroke-miterlimit:4;stroke-opacity:1;stroke-dasharray:none;stroke-dashoffset:0;display:inline"/><path id="path4491-44-0-8-5-1" d="m 119.55455,84.862183 c 0,1.134697 -0.91985,2.05455 -2.05455,2.05455 -1.1347,0 -2.05455,-0.919853 -2.05455,-2.05455 0,-1.134697 0.91985,-2.054551 2.05455,-2.054551 1.1347,0 2.05455,0.919854 2.05455,2.054551 z" transform="matrix(0.8503937,0,0,0.8503937,107.39467,440.43836)" style="fill:#000;fill-opacity:1;stroke:#000;stroke-width:0;stroke-linecap:round;stroke-linejoin:round;stroke-miterlimit:4;stroke-opacity:1;stroke-dasharray:none;stroke-dashoffset:0;display:inline"/></g><g style="display:inline" id="layer3" transform="translate(-152.89148,-493.94153)"><text id="text5080" x="207" y="503.434" xml:space="preserve" style="font-size:11px;font-style:normal;font-variant:normal;font-weight:400;font-stretch:normal;text-align:center;line-height:125%;letter-spacing:0;word-spacing:0;text-anchor:middle;fill:#000;fill-opacity:1;stroke:none;font-family:Inconsolata LGC;-inkscape-font-specification:Inconsolata LGC"><tspan id="tspan5082" x="207" y="503.434">((1 2) 3 4)</tspan></text><text id="text5689" x="185" y="542.362" xml:space="preserve" style="font-size:11px;font-style:normal;font-variant:normal;font-weight:400;font-stretch:normal;text-align:end;line-height:125%;letter-spacing:0;word-spacing:0;text-anchor:end;fill:#000;fill-opacity:1;stroke:none;display:inline;font-family:Inconsolata LGC;-inkscape-font-specification:Inconsolata LGC"><tspan id="tspan5691" x="185" y="542.362">(1 2)</tspan></text><text id="text5673" x="213" y="560.362" xml:space="preserve" style="font-size:11px;font-style:normal;font-variant:normal;font-weight:400;font-stretch:normal;text-align:center;line-height:125%;letter-spacing:0;word-spacing:0;text-anchor:middle;fill:#000;fill-opacity:1;stroke:none;display:inline;font-family:Inconsolata LGC;-inkscape-font-specification:Inconsolata LGC"><tspan id="tspan5675" x="213" y="560.362">3</tspan></text><text id="text5677" x="235" y="560.362" xml:space="preserve" style="font-size:11px;font-style:normal;font-variant:normal;font-weight:400;font-stretch:normal;text-align:center;line-height:125%;letter-spacing:0;word-spacing:0;text-anchor:middle;fill:#000;fill-opacity:1;stroke:none;display:inline;font-family:Inconsolata LGC;-inkscape-font-specification:Inconsolata LGC"><tspan id="tspan5679" x="235" y="560.362">4</tspan></text><text id="text5681" x="170" y="595.362" xml:space="preserve" style="font-size:11px;font-style:normal;font-variant:normal;font-weight:400;font-stretch:normal;text-align:center;line-height:125%;letter-spacing:0;word-spacing:0;text-anchor:middle;fill:#000;fill-opacity:1;stroke:none;display:inline;font-family:Inconsolata LGC;-inkscape-font-specification:Inconsolata LGC"><tspan id="tspan5683" x="170" y="595.362">1</tspan></text><text id="text5685" x="200" y="595.362" xml:space="preserve" style="font-size:11px;font-style:normal;font-variant:normal;font-weight:400;font-stretch:normal;text-align:center;line-height:125%;letter-spacing:0;word-spacing:0;text-anchor:middle;fill:#000;fill-opacity:1;stroke:none;display:inline;font-family:Inconsolata LGC;-inkscape-font-specification:Inconsolata LGC"><tspan id="tspan5687" x="200" y="595.362">2</tspan></text></g></svg>