<svg xmlns="http://www.w3.org/2000/svg" xmlns:svg="http://www.w3.org/2000/svg" id="svg7118" width="355.713" height="204.279" version="1.1" style="display:inline"><defs id="defs7120"><marker id="Arrow1Mend-6" orient="auto" refX="0" refY="0" style="overflow:visible"><path id="path3809-6-2" d="M 0,0 5,-5 -12.5,0 5,5 0,0 z" transform="matrix(-0.4,0,0,-0.4,-4,0)" style="fill-rule:evenodd;stroke:#000;stroke-width:1pt;marker-start:none"/></marker><marker id="marker7661" orient="auto" refX="0" refY="0" style="overflow:visible"><path id="path7663" d="M 0,0 5,-5 -12.5,0 5,5 0,0 z" transform="matrix(-0.4,0,0,-0.4,-4,0)" style="fill-rule:evenodd;stroke:#000;stroke-width:1pt;marker-start:none"/></marker><marker id="Arrow1Mend" orient="auto" refX="0" refY="0" style="overflow:visible"><path id="path3809" d="M 0,0 5,-5 -12.5,0 5,5 0,0 z" transform="matrix(-0.4,0,0,-0.4,-4,0)" style="fill-rule:evenodd;stroke:#000;stroke-width:1pt;marker-start:none"/></marker><marker id="marker7667" orient="auto" refX="0" refY="0" style="overflow:visible"><path id="path7669" d="M 0,0 5,-5 -12.5,0 5,5 0,0 z" transform="matrix(-0.4,0,0,-0.4,-4,0)" style="fill-rule:evenodd;stroke:#000;stroke-width:1pt;marker-start:none"/></marker></defs><metadata id="metadata_3.6"/><g id="layer4" transform="translate(-65.416,-82.096435)" style="display:inline"><path style="fill:#e8e8e8;fill-opacity:1;stroke:#000;stroke-width:.53149605;stroke-linecap:round;stroke-linejoin:round;stroke-miterlimit:4;stroke-opacity:1;stroke-dasharray:none;stroke-dashoffset:0" id="rect5327" d="m 135,82.362183 225,0 c 3,0 5,2 5,5 l 0,44.999997 c 0,3 -2,5 -5,5 l -225,0 c -3,0 -5,-2 -5,-5 l 0,-44.999997 c 0,-3 2,-5 5,-5 z"/><path style="fill:none;stroke:#000;stroke-width:.77952754;stroke-linecap:round;stroke-linejoin:round;stroke-miterlimit:4;stroke-opacity:1;stroke-dasharray:none;marker-end:url(#Arrow1Mend)" id="path3795" d="m 274.46429,170.80859 14.91071,0 c 3.08929,0 5.08929,-2 5.08929,-5 l 0,-26.44641"/><path style="fill:none;stroke:#000;stroke-width:.77952754;stroke-linecap:round;stroke-linejoin:round;stroke-miterlimit:4;stroke-opacity:1;stroke-dasharray:none;marker-end:url(#Arrow1Mend)" id="path3795-5" d="m 240,110.36218 15,0 c 3.08929,0 5.08929,2 5.08929,5 l 0,42"/><path style="fill:none;stroke:#000;stroke-width:.77952754;stroke-linecap:round;stroke-linejoin:round;stroke-miterlimit:4;stroke-opacity:1;stroke-dasharray:none;marker-end:url(#Arrow1Mend-6)" id="path4451" d="m 105,110.10964 23,0"/><path style="fill:none;stroke:#000;stroke-width:.77952754;stroke-linecap:round;stroke-linejoin:round;stroke-miterlimit:4;stroke-opacity:1;stroke-dasharray:none;marker-end:url(#Arrow1Mend-6)" id="path4451-5" d="m 248.46429,173.36216 0,27"/><path style="fill:none;stroke:#000;stroke-width:.50838757;stroke-linecap:round;stroke-linejoin:round;stroke-miterlimit:4;stroke-opacity:1;stroke-dasharray:none;stroke-dashoffset:0" id="path5435-9" d="m 199.17081,180.36218 c 0,6.16947 -5.00134,11.17081 -11.17081,11.17081 -6.16947,0 -11.17081,-5.00134 -11.17081,-11.17081 0,-6.16946 5.00134,-11.1708 11.17081,-11.1708 6.16947,0 11.17081,5.00134 11.17081,11.1708 z" transform="matrix(1.0454545,0,0,1.0454545,75.418835,-17.698277)"/><path style="fill:none;stroke:#000;stroke-width:.50838757;stroke-linecap:round;stroke-linejoin:round;stroke-miterlimit:4;stroke-opacity:1;stroke-dasharray:none;stroke-dashoffset:0" id="path5435-9-6" d="m 199.17081,180.36218 c 0,6.16947 -5.00134,11.17081 -11.17081,11.17081 -6.16947,0 -11.17081,-5.00134 -11.17081,-11.17081 0,-6.16946 5.00134,-11.17081 11.17081,-11.17081 6.16947,0 11.17081,5.00135 11.17081,11.17081 z" transform="matrix(1.0454545,0,0,1.0454545,51.918844,-17.69827)"/><path style="fill:#000;fill-opacity:1;stroke:#000;stroke-width:.35433072;stroke-linecap:round;stroke-linejoin:round;stroke-miterlimit:4;stroke-opacity:1;stroke-dasharray:none;stroke-dashoffset:0;display:inline" id="path5407" d="m 190,179.86218 c 0,1.38071 -1.11929,2.5 -2.5,2.5 -1.38071,0 -2.5,-1.11929 -2.5,-2.5 0,-1.38071 1.11929,-2.5 2.5,-2.5 1.38071,0 2.5,1.11929 2.5,2.5 z" transform="translate(60.96429,-8.9999968)"/><path style="fill:#000;fill-opacity:1;stroke:#000;stroke-width:.35433072;stroke-linecap:round;stroke-linejoin:round;stroke-miterlimit:4;stroke-opacity:1;stroke-dasharray:none;stroke-dashoffset:0;display:inline" id="path5407-7" d="m 190,179.86218 c 0,1.38071 -1.11929,2.5 -2.5,2.5 -1.38071,0 -2.5,-1.11929 -2.5,-2.5 0,-1.38071 1.11929,-2.5 2.5,-2.5 1.38071,0 2.5,1.11929 2.5,2.5 z" transform="translate(84.41072,-8.9999968)"/></g><g id="layer5" transform="translate(-65.416,-82.096435)" style="display:inline"><text style="font-size:13px;font-style:normal;font-variant:normal;font-weight:400;font-stretch:normal;text-align:start;line-height:129.99999523%;letter-spacing:0;word-spacing:0;text-anchor:start;fill:#000;fill-opacity:1;stroke:none;display:inline;font-family:Linux Biolinum O;-inkscape-font-specification:Sans" id="text5497" x="80" y="202.362" xml:space="preserve"><tspan id="tspan5499" x="80" y="202.362" style="line-height:129.99999523%">parameters:<tspan style="font-size:11px;font-style:normal;font-variant:normal;font-weight:400;font-stretch:normal;line-height:129.99999523%;font-family:Inconsolata LGC;-inkscape-font-specification:Inconsolata LGC" id="tspan8113"> balance</tspan></tspan><tspan id="tspan5501" x="80" y="221.229" style="line-height:129.99999523%">body:<tspan style="font-size:11px;font-style:normal;font-variant:normal;font-weight:400;font-stretch:normal;line-height:129.99999523%;font-family:Inconsolata LGC;-inkscape-font-specification:Inconsolata LGC" id="tspan5503" dy="0"> (lambda (amount)</tspan></tspan><tspan id="tspan7827" x="80" y="237.953" style="font-size:11px;font-style:normal;font-variant:normal;font-weight:400;font-stretch:normal;line-height:139.99999762%;font-family:Inconsolata LGC;-inkscape-font-specification:Inconsolata LGC"> (if (&gt;= balance amount)</tspan><tspan style="font-size:11px;font-style:normal;font-variant:normal;font-weight:400;font-stretch:normal;line-height:139.99999762%;font-family:Inconsolata LGC;-inkscape-font-specification:Inconsolata LGC" id="tspan7831" x="80" y="253.353" dx="0 0 0 0 0 0 0 0 0 0 0 0 0 0 0 0 0 0 0 0 0 0 0 0 0 0 0 0 0 0 0 0 0 0 -1.6 -4 -1"> (begin (set! balance (-- balance amount))</tspan><tspan style="font-size:11px;font-style:normal;font-variant:normal;font-weight:400;font-stretch:normal;line-height:139.99999762%;font-family:Inconsolata LGC;-inkscape-font-specification:Inconsolata LGC" id="tspan7833" x="80" y="268.753"> balance)</tspan><tspan style="font-size:11px;font-style:normal;font-variant:normal;font-weight:400;font-stretch:normal;line-height:139.99999762%;font-family:Inconsolata LGC;-inkscape-font-specification:Inconsolata LGC" id="tspan7835" x="80" y="284.153"> &quot;insufficient funds&quot;))</tspan></text><text style="font-size:11px;font-style:normal;font-variant:normal;font-weight:400;font-stretch:normal;text-align:start;line-height:129.99999523%;letter-spacing:0;word-spacing:0;text-anchor:start;fill:#000;fill-opacity:1;stroke:none;display:inline;font-family:Inconsolata LGC;-inkscape-font-specification:Inconsolata LGC" id="text5477" x="65" y="105.786" xml:space="preserve"><tspan id="tspan5479" x="65" y="105.786" style="font-size:13px;font-style:normal;font-variant:normal;font-weight:400;font-stretch:normal;line-height:129.99999523%;font-family:Linux Biolinum O;-inkscape-font-specification:Linux Biolinum O">global</tspan><tspan style="font-size:13px;font-style:normal;font-variant:normal;font-weight:400;font-stretch:normal;line-height:129.99999523%;font-family:Linux Biolinum O;-inkscape-font-specification:Linux Biolinum O" id="tspan5507" x="65" y="122.686">env</tspan></text><text style="font-size:11px;font-style:normal;font-variant:normal;font-weight:400;font-stretch:normal;text-align:start;line-height:125%;letter-spacing:0;word-spacing:0;text-anchor:start;fill:#000;fill-opacity:1;stroke:none;display:inline;font-family:Inconsolata LGC;-inkscape-font-specification:Inconsolata LGC" id="text5473" x="145" y="113.625" xml:space="preserve"><tspan id="tspan5475" x="145" y="113.625">make-withdraw:</tspan></text></g></svg>