<svg xmlns="http://www.w3.org/2000/svg" xmlns:svg="http://www.w3.org/2000/svg" id="svg3493" width="281.146" height="225.531" version="1.1" style="display:inline"><defs id="defs3495"><marker id="Arrow1Mstart" orient="auto" refX="0" refY="0" style="overflow:visible"><path id="path4565" d="M 0,0 5,-5 -12.5,0 5,5 0,0 z" transform="matrix(0.4,0,0,0.4,4,0)" style="fill-rule:evenodd;stroke:#000;stroke-width:1pt;marker-start:none"/></marker><marker id="marker4296" orient="auto" refX="0" refY="0" style="overflow:visible"><path id="path4298" d="M 0,0 5,-5 -12.5,0 5,5 0,0 z" transform="matrix(0.4,0,0,0.4,4,0)" style="fill-rule:evenodd;stroke:#000;stroke-width:1pt;marker-start:none"/></marker><marker id="marker4300" orient="auto" refX="0" refY="0" style="overflow:visible"><path id="path4302" d="M 0,0 5,-5 -12.5,0 5,5 0,0 z" transform="matrix(0.4,0,0,0.4,4,0)" style="fill-rule:evenodd;stroke:#000;stroke-width:1pt;marker-start:none"/></marker><marker id="marker4304" orient="auto" refX="0" refY="0" style="overflow:visible"><path id="path4306" d="M 0,0 5,-5 -12.5,0 5,5 0,0 z" transform="matrix(0.4,0,0,0.4,4,0)" style="fill-rule:evenodd;stroke:#000;stroke-width:1pt;marker-start:none"/></marker><marker id="marker4308" orient="auto" refX="0" refY="0" style="overflow:visible"><path id="path4310" d="M 0,0 5,-5 -12.5,0 5,5 0,0 z" transform="matrix(0.4,0,0,0.4,4,0)" style="fill-rule:evenodd;stroke:#000;stroke-width:1pt;marker-start:none"/></marker><marker id="Arrow1Mstart-5" orient="auto" refX="0" refY="0" style="overflow:visible"><path id="path4565-7" d="M 0,0 5,-5 -12.5,0 5,5 0,0 z" transform="matrix(0.4,0,0,0.4,4,0)" style="fill-rule:evenodd;stroke:#000;stroke-width:1pt;marker-start:none"/></marker><marker id="marker4296-0" orient="auto" refX="0" refY="0" style="overflow:visible"><path id="path4298-7" d="M 0,0 5,-5 -12.5,0 5,5 0,0 z" transform="matrix(0.4,0,0,0.4,4,0)" style="fill-rule:evenodd;stroke:#000;stroke-width:1pt;marker-start:none"/></marker><marker id="marker4300-8" orient="auto" refX="0" refY="0" style="overflow:visible"><path id="path4302-9" d="M 0,0 5,-5 -12.5,0 5,5 0,0 z" transform="matrix(0.4,0,0,0.4,4,0)" style="fill-rule:evenodd;stroke:#000;stroke-width:1pt;marker-start:none"/></marker><marker id="marker4304-9" orient="auto" refX="0" refY="0" style="overflow:visible"><path id="path4306-3" d="M 0,0 5,-5 -12.5,0 5,5 0,0 z" transform="matrix(0.4,0,0,0.4,4,0)" style="fill-rule:evenodd;stroke:#000;stroke-width:1pt;marker-start:none"/></marker><marker id="marker4308-9" orient="auto" refX="0" refY="0" style="overflow:visible"><path id="path4310-4" d="M 0,0 5,-5 -12.5,0 5,5 0,0 z" transform="matrix(0.4,0,0,0.4,4,0)" style="fill-rule:evenodd;stroke:#000;stroke-width:1pt;marker-start:none"/></marker><marker id="Arrow1Mstart-6" orient="auto" refX="0" refY="0" style="overflow:visible"><path id="path4565-5" d="M 0,0 5,-5 -12.5,0 5,5 0,0 z" transform="matrix(0.4,0,0,0.4,4,0)" style="fill-rule:evenodd;stroke:#000;stroke-width:1pt;marker-start:none"/></marker><marker id="Arrow1Mstart-8" orient="auto" refX="0" refY="0" style="overflow:visible"><path id="path4565-1" d="M 0,0 5,-5 -12.5,0 5,5 0,0 z" transform="matrix(0.4,0,0,0.4,4,0)" style="fill-rule:evenodd;stroke:#000;stroke-width:1pt;marker-start:none"/></marker><marker id="marker4752" orient="auto" refX="0" refY="0" style="overflow:visible"><path id="path4754" d="M 0,0 5,-5 -12.5,0 5,5 0,0 z" transform="matrix(0.4,0,0,0.4,4,0)" style="fill-rule:evenodd;stroke:#000;stroke-width:1pt;marker-start:none"/></marker><marker id="marker4756" orient="auto" refX="0" refY="0" style="overflow:visible"><path id="path4758" d="M 0,0 5,-5 -12.5,0 5,5 0,0 z" transform="matrix(0.4,0,0,0.4,4,0)" style="fill-rule:evenodd;stroke:#000;stroke-width:1pt;marker-start:none"/></marker><marker id="Arrow1Mstart-4" orient="auto" refX="0" refY="0" style="overflow:visible"><path id="path4565-4" d="M 0,0 5,-5 -12.5,0 5,5 0,0 z" transform="matrix(0.4,0,0,0.4,4,0)" style="fill-rule:evenodd;stroke:#000;stroke-width:1pt;marker-start:none"/></marker><marker id="marker4813" orient="auto" refX="0" refY="0" style="overflow:visible"><path id="path4815" d="M 0,0 5,-5 -12.5,0 5,5 0,0 z" transform="matrix(0.4,0,0,0.4,4,0)" style="fill-rule:evenodd;stroke:#000;stroke-width:1pt;marker-start:none"/></marker><marker id="marker4817" orient="auto" refX="0" refY="0" style="overflow:visible"><path id="path4819" d="M 0,0 5,-5 -12.5,0 5,5 0,0 z" transform="matrix(0.4,0,0,0.4,4,0)" style="fill-rule:evenodd;stroke:#000;stroke-width:1pt;marker-start:none"/></marker><marker id="Arrow1Mstart-9" orient="auto" refX="0" refY="0" style="overflow:visible"><path id="path4565-8" d="M 0,0 5,-5 -12.5,0 5,5 0,0 z" transform="matrix(0.4,0,0,0.4,4,0)" style="fill-rule:evenodd;stroke:#000;stroke-width:1pt;marker-start:none"/></marker><marker id="marker4813-5" orient="auto" refX="0" refY="0" style="overflow:visible"><path id="path4815-5" d="M 0,0 5,-5 -12.5,0 5,5 0,0 z" transform="matrix(0.4,0,0,0.4,4,0)" style="fill-rule:evenodd;stroke:#000;stroke-width:1pt;marker-start:none"/></marker><marker id="marker4817-2" orient="auto" refX="0" refY="0" style="overflow:visible"><path id="path4819-1" d="M 0,0 5,-5 -12.5,0 5,5 0,0 z" transform="matrix(0.4,0,0,0.4,4,0)" style="fill-rule:evenodd;stroke:#000;stroke-width:1pt;marker-start:none"/></marker><marker id="Arrow1Mstart-1" orient="auto" refX="0" refY="0" style="overflow:visible"><path id="path4565-6" d="M 0,0 5,-5 -12.5,0 5,5 0,0 z" transform="matrix(0.4,0,0,0.4,4,0)" style="fill-rule:evenodd;stroke:#000;stroke-width:1pt;marker-start:none"/></marker></defs><metadata id="metadata_3.12"/><g id="layer4" transform="translate(-129.1193,-122.09643)" style="display:inline"><rect style="fill:#e8e8e8;fill-opacity:1;stroke:#000;stroke-width:.53149605;stroke-linecap:round;stroke-linejoin:round;stroke-miterlimit:4;stroke-opacity:1;stroke-dasharray:none;stroke-dashoffset:0" id="rect3794-7-1-0-2" width="50" height="25" x="175" y="122.362" rx="3.543" ry="3.543"/><rect style="fill:#e8e8e8;fill-opacity:1;stroke:#000;stroke-width:.53149605;stroke-linecap:round;stroke-linejoin:round;stroke-miterlimit:4;stroke-opacity:1;stroke-dasharray:none;stroke-dashoffset:0" id="rect3794-7-1-0" width="50" height="25" x="280" y="122.362" rx="3.543" ry="3.543"/><rect style="fill:#e8e8e8;fill-opacity:1;stroke:#000;stroke-width:.53149605;stroke-linecap:round;stroke-linejoin:round;stroke-miterlimit:4;stroke-opacity:1;stroke-dasharray:none;stroke-dashoffset:0" id="rect3794-7-1-0-6" width="50" height="25" x="360" y="122.362" rx="3.543" ry="3.543"/><rect style="fill:#e8e8e8;fill-opacity:1;stroke:#000;stroke-width:.53149605;stroke-linecap:round;stroke-linejoin:round;stroke-miterlimit:4;stroke-opacity:1;stroke-dasharray:none;stroke-dashoffset:0" id="rect3794-7-1-0-5" width="50" height="25" x="280" y="202.362" rx="3.543" ry="3.543"/><rect style="fill:#e8e8e8;fill-opacity:1;stroke:#000;stroke-width:.53149605;stroke-linecap:round;stroke-linejoin:round;stroke-miterlimit:4;stroke-opacity:1;stroke-dasharray:none;stroke-dashoffset:0" id="rect3794-7-1-0-6-6" width="50" height="25" x="360" y="202.362" rx="3.543" ry="3.543"/><rect style="fill:#e8e8e8;fill-opacity:1;stroke:#000;stroke-width:.53149605;stroke-linecap:round;stroke-linejoin:round;stroke-miterlimit:4;stroke-opacity:1;stroke-dasharray:none;stroke-dashoffset:0" id="rect3794-7-1-0-0" width="50" height="25" x="280" y="282.362" rx="3.543" ry="3.543"/><rect style="fill:#e8e8e8;fill-opacity:1;stroke:#000;stroke-width:.53149605;stroke-linecap:round;stroke-linejoin:round;stroke-miterlimit:4;stroke-opacity:1;stroke-dasharray:none;stroke-dashoffset:0" id="rect3794-7-1-0-6-67" width="50" height="25" x="360" y="282.362" rx="3.543" ry="3.543"/></g><g id="layer2" transform="translate(-129.1193,-122.09643)" style="display:inline"><rect style="fill:none;stroke:#000;stroke-width:.53149605;stroke-linecap:round;stroke-linejoin:round;stroke-miterlimit:4;stroke-opacity:1;stroke-dasharray:none;stroke-dashoffset:0;display:inline" id="rect3794-77-9-4" width="25" height="25" x="280" y="162.362" rx="3.543" ry="3.543"/><rect style="fill:none;stroke:#000;stroke-width:.53149605;stroke-linecap:round;stroke-linejoin:round;stroke-miterlimit:4;stroke-opacity:1;stroke-dasharray:none;stroke-dashoffset:0;display:inline" id="rect3794-77-9-5" width="25" height="25" x="360" y="162.362" rx="3.543" ry="3.543"/><path style="fill:none;stroke:#000;stroke-width:.77952754;stroke-linecap:round;stroke-linejoin:round;stroke-miterlimit:4;stroke-opacity:1;stroke-dasharray:none;marker-start:url(#Arrow1Mstart);display:inline" id="path4554-5-2-3" d="m 358,135.36218 -38,0"/><path style="fill:#000;fill-opacity:1;stroke:#000;stroke-width:0;stroke-linecap:round;stroke-linejoin:round;stroke-miterlimit:4;stroke-opacity:1;stroke-dasharray:none;stroke-dashoffset:0;display:inline" id="path4491-44-0" d="m 120,84.862183 c 0,1.380711 -1.11929,2.5 -2.5,2.5 -1.38071,0 -2.5,-1.119289 -2.5,-2.5 0,-1.380712 1.11929,-2.5 2.5,-2.5 1.38071,0 2.5,1.119288 2.5,2.5 z" transform="translate(200,50.5)"/><path style="fill:#000;fill-opacity:1;stroke:#000;stroke-width:0;stroke-linecap:round;stroke-linejoin:round;stroke-miterlimit:4;stroke-opacity:1;stroke-dasharray:none;stroke-dashoffset:0;display:inline" id="path4491-4-7" d="m 120,84.862183 c 0,1.380711 -1.11929,2.5 -2.5,2.5 -1.38071,0 -2.5,-1.119289 -2.5,-2.5 0,-1.380712 1.11929,-2.5 2.5,-2.5 1.38071,0 2.5,1.119288 2.5,2.5 z" transform="translate(175.5,50.472581)"/><path style="fill:none;stroke:#000;stroke-width:.77952754;stroke-linecap:round;stroke-linejoin:round;stroke-miterlimit:4;stroke-opacity:1;stroke-dasharray:none;marker-start:url(#Arrow1Mstart);display:inline" id="path4554-5-0" d="m 293,160.36218 0,-23"/><path style="fill:none;stroke:#000;stroke-width:.53149605;stroke-linecap:butt;stroke-linejoin:miter;stroke-miterlimit:4;stroke-opacity:1;stroke-dasharray:none" id="path4405-1-3-84" d="m 385,122.36218 0,25"/><path style="fill:#000;fill-opacity:1;stroke:#000;stroke-width:0;stroke-linecap:round;stroke-linejoin:round;stroke-miterlimit:4;stroke-opacity:1;stroke-dasharray:none;stroke-dashoffset:0;display:inline" id="path4491-4-7-6" d="m 120,84.862183 c 0,1.380711 -1.11929,2.5 -2.5,2.5 -1.38071,0 -2.5,-1.119289 -2.5,-2.5 0,-1.380712 1.11929,-2.5 2.5,-2.5 1.38071,0 2.5,1.119288 2.5,2.5 z" transform="translate(255.5,50.47258)"/><path style="fill:none;stroke:#000;stroke-width:.77952754;stroke-linecap:round;stroke-linejoin:round;stroke-miterlimit:4;stroke-opacity:1;stroke-dasharray:none;marker-start:url(#Arrow1Mstart);display:inline" id="path4554-5-0-7" d="m 373,160.36218 0,-23"/><path style="fill:none;stroke:#000;stroke-width:.53149605;stroke-linecap:butt;stroke-linejoin:round;stroke-miterlimit:4;stroke-opacity:1;stroke-dasharray:none" id="path4373" d="m 385,147.36218 24,-24"/><path style="fill:none;stroke:#000;stroke-width:.77952754;stroke-linecap:round;stroke-linejoin:round;stroke-miterlimit:4;stroke-opacity:1;stroke-dasharray:none;marker-start:url(#Arrow1Mstart);display:inline" id="path4554-5-2-3-8" d="m 278,135.36218 -63,0"/><path style="fill:#000;fill-opacity:1;stroke:#000;stroke-width:0;stroke-linecap:round;stroke-linejoin:round;stroke-miterlimit:4;stroke-opacity:1;stroke-dasharray:none;stroke-dashoffset:0;display:inline" id="path4491-44-0-62" d="m 120,84.862183 c 0,1.380711 -1.11929,2.5 -2.5,2.5 -1.38071,0 -2.5,-1.119289 -2.5,-2.5 0,-1.380712 1.11929,-2.5 2.5,-2.5 1.38071,0 2.5,1.119288 2.5,2.5 z" transform="translate(95.000003,50.500003)"/><path style="fill:#000;fill-opacity:1;stroke:#000;stroke-width:0;stroke-linecap:round;stroke-linejoin:round;stroke-miterlimit:4;stroke-opacity:1;stroke-dasharray:none;stroke-dashoffset:0;display:inline" id="path4491-4-7-9" d="m 120,84.862183 c 0,1.380711 -1.11929,2.5 -2.5,2.5 -1.38071,0 -2.5,-1.119289 -2.5,-2.5 0,-1.380712 1.11929,-2.5 2.5,-2.5 1.38071,0 2.5,1.119288 2.5,2.5 z" transform="translate(70.500003,50.472584)"/><path style="fill:none;stroke:#000;stroke-width:.77952754;stroke-linecap:round;stroke-linejoin:round;stroke-miterlimit:4;stroke-opacity:1;stroke-dasharray:none;marker-start:url(#Arrow1Mstart);display:inline" id="path4554-5-0-2" d="m 278,214.8979 -84.96423,0.0549 c -3.03592,0 -5.03577,-2.09065 -5.03577,-5.18021 l 0,-72.41067"/><path style="fill:none;stroke:#000;stroke-width:.77952754;stroke-linecap:round;stroke-linejoin:round;stroke-miterlimit:4;stroke-opacity:1;stroke-dasharray:none;marker-start:url(#Arrow1Mstart);display:inline" id="path4554-9-4-6" d="m 173,135.36218 -33,0"/><path style="fill:none;stroke:#000;stroke-width:.53149605;stroke-linecap:butt;stroke-linejoin:miter;stroke-miterlimit:4;stroke-opacity:1;stroke-dasharray:none" id="path4405-1-3-7" d="m 200,122.36218 0,25"/><rect style="fill:none;stroke:#000;stroke-width:.53149605;stroke-linecap:round;stroke-linejoin:round;stroke-miterlimit:4;stroke-opacity:1;stroke-dasharray:none;stroke-dashoffset:0;display:inline" id="rect3794-77-9-4-4" width="25" height="25" x="280" y="242.362" rx="3.543" ry="3.543"/><rect style="fill:none;stroke:#000;stroke-width:.53149605;stroke-linecap:round;stroke-linejoin:round;stroke-miterlimit:4;stroke-opacity:1;stroke-dasharray:none;stroke-dashoffset:0;display:inline" id="rect3794-77-9-5-9" width="25" height="25" x="360" y="242.362" rx="3.543" ry="3.543"/><path style="fill:none;stroke:#000;stroke-width:.77952754;stroke-linecap:round;stroke-linejoin:round;stroke-miterlimit:4;stroke-opacity:1;stroke-dasharray:none;marker-start:url(#Arrow1Mstart);display:inline" id="path4554-5-2-3-85" d="m 358.00001,215.36218 -38,0"/><path style="fill:#000;fill-opacity:1;stroke:#000;stroke-width:0;stroke-linecap:round;stroke-linejoin:round;stroke-miterlimit:4;stroke-opacity:1;stroke-dasharray:none;stroke-dashoffset:0;display:inline" id="path4491-44-0-1" d="m 120,84.862183 c 0,1.380711 -1.11929,2.5 -2.5,2.5 -1.38071,0 -2.5,-1.119289 -2.5,-2.5 0,-1.380712 1.11929,-2.5 2.5,-2.5 1.38071,0 2.5,1.119288 2.5,2.5 z" transform="translate(200.00001,130.5)"/><path style="fill:#000;fill-opacity:1;stroke:#000;stroke-width:0;stroke-linecap:round;stroke-linejoin:round;stroke-miterlimit:4;stroke-opacity:1;stroke-dasharray:none;stroke-dashoffset:0;display:inline" id="path4491-4-7-7" d="m 120,84.862183 c 0,1.380711 -1.11929,2.5 -2.5,2.5 -1.38071,0 -2.5,-1.119289 -2.5,-2.5 0,-1.380712 1.11929,-2.5 2.5,-2.5 1.38071,0 2.5,1.119288 2.5,2.5 z" transform="translate(175.5,130.47258)"/><path style="fill:none;stroke:#000;stroke-width:.77952754;stroke-linecap:round;stroke-linejoin:round;stroke-miterlimit:4;stroke-opacity:1;stroke-dasharray:none;marker-start:url(#Arrow1Mstart);display:inline" id="path4554-5-0-27" d="m 293.00001,240.36218 0,-23"/><path style="fill:none;stroke:#000;stroke-width:.53149605;stroke-linecap:butt;stroke-linejoin:miter;stroke-miterlimit:4;stroke-opacity:1;stroke-dasharray:none" id="path4405-1-3-84-0" d="m 385,202.36218 0,25"/><path style="fill:#000;fill-opacity:1;stroke:#000;stroke-width:0;stroke-linecap:round;stroke-linejoin:round;stroke-miterlimit:4;stroke-opacity:1;stroke-dasharray:none;stroke-dashoffset:0;display:inline" id="path4491-4-7-6-8" d="m 120,84.862183 c 0,1.380711 -1.11929,2.5 -2.5,2.5 -1.38071,0 -2.5,-1.119289 -2.5,-2.5 0,-1.380712 1.11929,-2.5 2.5,-2.5 1.38071,0 2.5,1.119288 2.5,2.5 z" transform="translate(255.50001,130.47258)"/><path style="fill:none;stroke:#000;stroke-width:.77952754;stroke-linecap:round;stroke-linejoin:round;stroke-miterlimit:4;stroke-opacity:1;stroke-dasharray:none;marker-start:url(#Arrow1Mstart);display:inline" id="path4554-5-0-7-2" d="m 373.00001,240.36218 0,-23"/><path style="fill:none;stroke:#000;stroke-width:.53149605;stroke-linecap:butt;stroke-linejoin:round;stroke-miterlimit:4;stroke-opacity:1;stroke-dasharray:none" id="path4373-3" d="m 385,227.36218 24,-24"/><path style="fill:none;stroke:#000;stroke-width:.53149605;stroke-linecap:butt;stroke-linejoin:miter;stroke-miterlimit:4;stroke-opacity:1;stroke-dasharray:none" id="path4405-1-3-3" d="m 305,202.36218 0,25"/><rect style="fill:none;stroke:#000;stroke-width:.53149605;stroke-linecap:round;stroke-linejoin:round;stroke-miterlimit:4;stroke-opacity:1;stroke-dasharray:none;stroke-dashoffset:0;display:inline" id="rect3794-77-9-4-42" width="25" height="25" x="280" y="322.362" rx="3.543" ry="3.543"/><rect style="fill:none;stroke:#000;stroke-width:.53149605;stroke-linecap:round;stroke-linejoin:round;stroke-miterlimit:4;stroke-opacity:1;stroke-dasharray:none;stroke-dashoffset:0;display:inline" id="rect3794-77-9-5-6" width="25" height="25" x="360" y="322.362" rx="3.543" ry="3.543"/><path style="fill:none;stroke:#000;stroke-width:.77952754;stroke-linecap:round;stroke-linejoin:round;stroke-miterlimit:4;stroke-opacity:1;stroke-dasharray:none;marker-start:url(#Arrow1Mstart);display:inline" id="path4554-5-2-3-7" d="m 358.00001,295.36218 -38,0"/><path style="fill:#000;fill-opacity:1;stroke:#000;stroke-width:0;stroke-linecap:round;stroke-linejoin:round;stroke-miterlimit:4;stroke-opacity:1;stroke-dasharray:none;stroke-dashoffset:0;display:inline" id="path4491-44-0-9" d="m 120,84.862183 c 0,1.380711 -1.11929,2.5 -2.5,2.5 -1.38071,0 -2.5,-1.119289 -2.5,-2.5 0,-1.380712 1.11929,-2.5 2.5,-2.5 1.38071,0 2.5,1.119288 2.5,2.5 z" transform="translate(200.00001,210.5)"/><path style="fill:#000;fill-opacity:1;stroke:#000;stroke-width:0;stroke-linecap:round;stroke-linejoin:round;stroke-miterlimit:4;stroke-opacity:1;stroke-dasharray:none;stroke-dashoffset:0;display:inline" id="path4491-4-7-8" d="m 120,84.862183 c 0,1.380711 -1.11929,2.5 -2.5,2.5 -1.38071,0 -2.5,-1.119289 -2.5,-2.5 0,-1.380712 1.11929,-2.5 2.5,-2.5 1.38071,0 2.5,1.119288 2.5,2.5 z" transform="translate(175.5,210.47258)"/><path style="fill:none;stroke:#000;stroke-width:.77952754;stroke-linecap:round;stroke-linejoin:round;stroke-miterlimit:4;stroke-opacity:1;stroke-dasharray:none;marker-start:url(#Arrow1Mstart);display:inline" id="path4554-5-0-6" d="m 293.00001,320.36218 0,-23"/><path style="fill:none;stroke:#000;stroke-width:.53149605;stroke-linecap:butt;stroke-linejoin:miter;stroke-miterlimit:4;stroke-opacity:1;stroke-dasharray:none" id="path4405-1-3-84-1" d="m 385,282.36218 0,25"/><path style="fill:#000;fill-opacity:1;stroke:#000;stroke-width:0;stroke-linecap:round;stroke-linejoin:round;stroke-miterlimit:4;stroke-opacity:1;stroke-dasharray:none;stroke-dashoffset:0;display:inline" id="path4491-4-7-6-0" d="m 120,84.862183 c 0,1.380711 -1.11929,2.5 -2.5,2.5 -1.38071,0 -2.5,-1.119289 -2.5,-2.5 0,-1.380712 1.11929,-2.5 2.5,-2.5 1.38071,0 2.5,1.119288 2.5,2.5 z" transform="translate(255.50001,210.47258)"/><path style="fill:none;stroke:#000;stroke-width:.77952754;stroke-linecap:round;stroke-linejoin:round;stroke-miterlimit:4;stroke-opacity:1;stroke-dasharray:none;marker-start:url(#Arrow1Mstart);display:inline" id="path4554-5-0-7-0" d="m 373.00001,320.36218 0,-23"/><path style="fill:none;stroke:#000;stroke-width:.53149605;stroke-linecap:butt;stroke-linejoin:round;stroke-miterlimit:4;stroke-opacity:1;stroke-dasharray:none" id="path4373-0" d="m 385,307.36218 24,-24"/><path style="fill:none;stroke:#000;stroke-width:.53149605;stroke-linecap:butt;stroke-linejoin:miter;stroke-miterlimit:4;stroke-opacity:1;stroke-dasharray:none" id="path4405-1-3-9" d="m 305,282.36218 0,25"/><path style="fill:none;stroke:#000;stroke-width:.77952754;stroke-linecap:round;stroke-linejoin:round;stroke-miterlimit:4;stroke-opacity:1;stroke-dasharray:none;marker-start:url(#Arrow1Mstart);display:inline" id="path4554-9-4-6-9" d="m 278,294.89792 -33,0"/></g><g id="layer3" transform="translate(-129.1193,-122.09643)" style="display:inline"><text style="font-size:11px;font-style:normal;font-variant:normal;font-weight:400;font-stretch:normal;line-height:125%;letter-spacing:0;word-spacing:0;fill:#000;fill-opacity:1;stroke:none;font-family:Inconsolata LGC;-inkscape-font-specification:Inconsolata LGC" id="text3007-0-2" x="289.179" y="177.916" xml:space="preserve"><tspan id="tspan3009-8-5" x="289.179" y="177.916" style="font-weight:400;-inkscape-font-specification:Inconsolata LGC">c</tspan></text><text style="font-size:11px;font-style:normal;font-variant:normal;font-weight:400;font-stretch:normal;line-height:125%;letter-spacing:0;word-spacing:0;fill:#000;fill-opacity:1;stroke:none;font-family:Inconsolata LGC;-inkscape-font-specification:Inconsolata LGC" id="text3007-0-7" x="369.357" y="178.184" xml:space="preserve"><tspan id="tspan3009-8-52" x="369.357" y="178.184" style="font-weight:400;-inkscape-font-specification:Inconsolata LGC">d</tspan></text><text style="font-size:11px;font-style:normal;font-variant:normal;font-weight:400;font-stretch:normal;text-align:end;line-height:125%;letter-spacing:0;word-spacing:0;text-anchor:end;fill:#000;fill-opacity:1;stroke:none;font-family:Inconsolata LGC;-inkscape-font-specification:Inconsolata LGC" id="text4978" x="240" y="297.898" xml:space="preserve"><tspan id="tspan4980" x="240" y="297.898">y</tspan></text><text style="font-size:11px;font-style:normal;font-variant:normal;font-weight:400;font-stretch:normal;text-align:end;line-height:125%;letter-spacing:0;word-spacing:0;text-anchor:end;fill:#000;fill-opacity:1;stroke:none;font-family:Inconsolata LGC;-inkscape-font-specification:Inconsolata LGC" id="text4974" x="135" y="137.898" xml:space="preserve"><tspan id="tspan4976" x="135" y="137.898">x</tspan></text><text style="font-size:11px;font-style:normal;font-variant:normal;font-weight:400;font-stretch:normal;line-height:125%;letter-spacing:0;word-spacing:0;fill:#000;fill-opacity:1;stroke:none;font-family:Inconsolata LGC;-inkscape-font-specification:Inconsolata LGC" id="text3007-0-2-3" x="289.179" y="337.916" xml:space="preserve"><tspan id="tspan3009-8-5-3" x="289.179" y="337.916" style="font-weight:400;-inkscape-font-specification:Inconsolata LGC">e</tspan></text><text style="font-size:11px;font-style:normal;font-variant:normal;font-weight:400;font-stretch:normal;line-height:125%;letter-spacing:0;word-spacing:0;fill:#000;fill-opacity:1;stroke:none;font-family:Inconsolata LGC;-inkscape-font-specification:Inconsolata LGC" id="text3007-0-7-5" x="369.089" y="338.362" xml:space="preserve"><tspan id="tspan3009-8-52-1" x="369.089" y="338.362" style="font-weight:400;-inkscape-font-specification:Inconsolata LGC">f</tspan></text><text style="font-size:11px;font-style:normal;font-variant:normal;font-weight:400;font-stretch:normal;line-height:125%;letter-spacing:0;word-spacing:0;fill:#000;fill-opacity:1;stroke:none;font-family:Inconsolata LGC;-inkscape-font-specification:Inconsolata LGC" id="text3007-0-2-9" x="289.268" y="257.916" xml:space="preserve"><tspan id="tspan3009-8-5-1" x="289.268" y="257.916" style="font-weight:400;-inkscape-font-specification:Inconsolata LGC">a</tspan></text><text style="font-size:11px;font-style:normal;font-variant:normal;font-weight:400;font-stretch:normal;line-height:125%;letter-spacing:0;word-spacing:0;fill:#000;fill-opacity:1;stroke:none;font-family:Inconsolata LGC;-inkscape-font-specification:Inconsolata LGC" id="text3007-0-7-1" x="369" y="258.184" xml:space="preserve"><tspan id="tspan3009-8-52-2" x="369" y="258.184" style="font-weight:400;-inkscape-font-specification:Inconsolata LGC">b</tspan></text></g><path style="fill:none;stroke:#000;stroke-width:.53149605;stroke-linecap:butt;stroke-linejoin:miter;stroke-miterlimit:4;stroke-opacity:1;stroke-dasharray:none" id="path4405-1-3" d="m 175.8807,0.26574802 0,24.99999998"/></svg>