<svg xmlns="http://www.w3.org/2000/svg" xmlns:svg="http://www.w3.org/2000/svg" id="svg3108" width="220.531" height="49.176" version="1.1" style="display:inline"><metadata id="metadata_3.24"/><g id="layer2" transform="translate(-154.73425,-52.066092)" style="display:inline"><path style="fill:#e8e8e8;fill-opacity:1;stroke:#000;stroke-width:.53149605;stroke-linecap:round;stroke-linejoin:round;stroke-miterlimit:4;stroke-opacity:1;stroke-dasharray:none;stroke-dashoffset:0;display:inline" id="rect3794-77-9-4-42-8" d="m 252,52.362183 10,0 c 18,0 18,25 0,25 l -10,0 c -0.98149,0 -1.77165,-0.79015 -1.77165,-1.77165 l 0,-21.45669 c 0,-0.9815 0.79016,-1.77166 1.77165,-1.77166 z"/><path style="fill:none;stroke:#000;stroke-width:.53149605;stroke-linecap:round;stroke-linejoin:round;stroke-miterlimit:4;stroke-opacity:1;stroke-dasharray:none" id="path5898" d="m 235,72.362183 15.08839,0"/><path style="fill:none;stroke:#000;stroke-width:.53149605;stroke-linecap:round;stroke-linejoin:round;stroke-miterlimit:4;stroke-opacity:1;stroke-dasharray:none" id="path5898-1" d="m 235,57.362183 15.08839,0"/><path style="fill:none;stroke:#000;stroke-width:.53149605;stroke-linecap:round;stroke-linejoin:round;stroke-miterlimit:4;stroke-opacity:1;stroke-dasharray:none" id="path5898-9" d="m 275.60225,64.915733 15.39775,0"/><path style="fill:#e8e8e8;fill-opacity:1;stroke:#000;stroke-width:.53149605;stroke-linecap:round;stroke-linejoin:round;stroke-miterlimit:4;stroke-opacity:1;stroke-dasharray:none;stroke-dashoffset:0;display:inline" id="rect3794-77-9-4-42-8-9" d="m 328,52.36218 12,0 c 10,0 17,6 20,12.5 -3,6.5 -10,12.5 -20,12.5 l -12,0 c 5,-7 5,-18 0,-25 z"/><path style="fill:none;stroke:#000;stroke-width:.53149605;stroke-linecap:round;stroke-linejoin:round;stroke-miterlimit:4;stroke-opacity:1;stroke-dasharray:none" id="path5898-8" d="m 315,57.36218 15.44194,0"/><path style="fill:none;stroke:#000;stroke-width:.53149605;stroke-linecap:round;stroke-linejoin:round;stroke-miterlimit:4;stroke-opacity:1;stroke-dasharray:none" id="path5898-2" d="m 315,72.36218 15.39775,0"/><path style="fill:none;stroke:#000;stroke-width:.53149605;stroke-linecap:round;stroke-linejoin:round;stroke-miterlimit:4;stroke-opacity:1;stroke-dasharray:none" id="path5898-11" d="m 360,64.89792 15,0"/><path style="fill:#e8e8e8;fill-opacity:1;stroke:#000;stroke-width:.53149605;stroke-linecap:round;stroke-linejoin:round;stroke-miterlimit:4;stroke-opacity:1;stroke-dasharray:none;stroke-dashoffset:0;display:inline" id="rect3794-77-9-4-42-8-2" d="m 172,52.33184 c 0.97049,0 3,1 23,11 1.25254,0.68433 1.28411,2.25254 0,3 -20,10 -22.02806,11 -23,11 -0.98149,0 -1.77165,-0.79015 -1.77165,-1.77165 l 0,-21.45669 c 0,-0.9815 0.79016,-1.77166 1.77165,-1.77166 z"/><path style="fill:none;stroke:#000;stroke-width:.53149605;stroke-linecap:round;stroke-linejoin:round;stroke-miterlimit:4;stroke-opacity:1;stroke-dasharray:none;stroke-dashoffset:0" id="path3164" d="m 285.5625,209.86218 c 0,1.69137 -1.37113,3.0625 -3.0625,3.0625 -1.69137,0 -3.0625,-1.37113 -3.0625,-3.0625 0,-1.69137 1.37113,-3.0625 3.0625,-3.0625 1.69137,0 3.0625,1.37113 3.0625,3.0625 z" transform="translate(-83.4375,-145.03034)"/><path style="fill:none;stroke:#000;stroke-width:.53149605;stroke-linecap:round;stroke-linejoin:round;stroke-miterlimit:4;stroke-opacity:1;stroke-dasharray:none" id="path5898-2-0" d="m 155,64.86218 15.13258,0"/><path style="fill:none;stroke:#000;stroke-width:.53149605;stroke-linecap:round;stroke-linejoin:round;stroke-miterlimit:4;stroke-opacity:1;stroke-dasharray:none" id="path5898-2-4" d="m 202.2487,64.86218 9.39775,0"/></g><g id="layer3" transform="translate(-154.73425,-52.066092)" style="display:inline"><text style="font-size:13px;font-style:normal;font-variant:normal;font-weight:400;font-stretch:normal;text-align:center;line-height:125%;letter-spacing:0;word-spacing:0;text-anchor:middle;fill:#000;fill-opacity:1;stroke:none;font-family:Linux Biolinum O;-inkscape-font-specification:Linux Biolinum O" id="text4012" x="186" y="98.862" xml:space="preserve"><tspan id="tspan4014" x="186" y="98.862" style="font-size:10px">Inverter</tspan></text><text style="font-size:13px;font-style:normal;font-variant:normal;font-weight:400;font-stretch:normal;text-align:center;line-height:125%;letter-spacing:0;word-spacing:0;text-anchor:middle;fill:#000;fill-opacity:1;stroke:none;font-family:Linux Biolinum O;-inkscape-font-specification:Linux Biolinum O" id="text4016" x="263" y="98.862" xml:space="preserve"><tspan id="tspan4018" x="263" y="98.862" style="font-size:10px">And-gate</tspan></text><text style="font-size:13px;font-style:normal;font-variant:normal;font-weight:400;font-stretch:normal;text-align:center;line-height:125%;letter-spacing:0;word-spacing:0;text-anchor:middle;fill:#000;fill-opacity:1;stroke:none;font-family:Linux Biolinum O;-inkscape-font-specification:Linux Biolinum O" id="text4020" x="345" y="98.862" xml:space="preserve"><tspan id="tspan4022" x="345" y="98.862" style="font-size:10px">Or-gate</tspan></text></g></svg>