<svg xmlns="http://www.w3.org/2000/svg" xmlns:svg="http://www.w3.org/2000/svg" id="svg4049" width="281.054" height="110.531" version="1.1"><metadata id="metadata_3.25"/><g id="layer8" transform="translate(-87.032219,-97.096435)" style="display:inline"><path style="fill:#e8e8e8;fill-opacity:1;stroke:#000;stroke-width:.53149605;stroke-linecap:round;stroke-linejoin:round;stroke-miterlimit:4;stroke-opacity:1;stroke-dasharray:none;stroke-dashoffset:0;display:inline" id="rect4940" d="m 128,97.362183 199,0 c 6,0 8,2 8,7.999997 l 0,94 c 0,6 -2,8 -8,8 l -199,0 c -5.97955,0 -8,-1.93117 -8,-8 l 0,-94 c 0,-5.999997 2,-7.999997 8,-7.999997 z"/></g><g id="layer2" transform="translate(-87.032219,-97.096435)" style="display:inline"><path style="fill:#fff;fill-opacity:1;stroke:#000;stroke-width:.53149605;stroke-linecap:round;stroke-linejoin:round;stroke-miterlimit:4;stroke-opacity:1;stroke-dasharray:none;stroke-dashoffset:0;display:inline" id="rect3794-77-9-4-42-8-2" d="m 229,144.83184 c 0.97049,0 3,1 23,11 1.25254,0.68433 1.28411,2.25254 0,3 -20,10 -22.02806,11 -23,11 -0.98149,0 -1.77165,-0.79015 -1.77165,-1.77165 l 0,-21.45669 c 0,-0.9815 0.79016,-1.77166 1.77165,-1.77166 z"/><path style="fill:#fff;fill-opacity:1;stroke:#000;stroke-width:.53149605;stroke-linecap:round;stroke-linejoin:round;stroke-miterlimit:4;stroke-opacity:1;stroke-dasharray:none;stroke-dashoffset:0;display:inline" id="rect3794-77-9-4-42-8" d="m 292,117.36218 10,0 c 18,0 18,25 0,25 l -10,0 c -0.98149,0 -1.77165,-0.79015 -1.77165,-1.77165 l 0,-21.45669 c 0,-0.9815 0.79016,-1.77166 1.77165,-1.77166 z"/><path style="fill:none;stroke:#000;stroke-width:.53149605;stroke-linecap:round;stroke-linejoin:round;stroke-miterlimit:4;stroke-opacity:1;stroke-dasharray:none;display:inline" id="path5898-9" d="m 315.58963,129.91573 39.41037,0"/><path style="fill:#fff;fill-opacity:1;stroke:#000;stroke-width:.53149605;stroke-linecap:round;stroke-linejoin:round;stroke-miterlimit:4;stroke-opacity:1;stroke-dasharray:none;stroke-dashoffset:0;display:inline" id="rect3794-77-9-4-42-8-1" d="m 171,169.80863 10,0 c 18,0 18,25 0,25 l -10,0 c -0.98149,0 -1.77165,-0.79015 -1.77165,-1.77165 l 0,-21.45669 c 0,-0.9815 0.79016,-1.77166 1.77165,-1.77166 z"/><path style="fill:none;stroke:#000;stroke-width:.53149605;stroke-linecap:round;stroke-linejoin:round;stroke-miterlimit:4;stroke-opacity:1;stroke-dasharray:none;display:inline" id="path5898-5" d="m 100,189.80863 69.08929,0"/><path style="fill:none;stroke:#000;stroke-width:.53149605;stroke-linecap:round;stroke-linejoin:round;stroke-miterlimit:4;stroke-opacity:1;stroke-dasharray:none;display:inline" id="path5898-9-7" d="m 194.62119,182.36218 160.37881,0"/><path style="fill:none;stroke:#000;stroke-width:.53149605;stroke-linecap:round;stroke-linejoin:round;stroke-miterlimit:4;stroke-opacity:1;stroke-dasharray:none;display:inline" id="path5898-11" d="m 220,122.36218 70.0947,0"/><path style="fill:none;stroke:#000;stroke-width:.53149605;stroke-linecap:round;stroke-linejoin:round;stroke-miterlimit:4;stroke-opacity:1;stroke-dasharray:none;display:inline" id="path5898-9-7-4" d="m 290.0947,137.36218 -12.0947,0 c -2,0 -3,1 -3,3 l 0,14 c 0,2 -1,3 -3,3 l -12.73214,0"/><path style="fill:none;stroke:#000;stroke-width:.53149605;stroke-linecap:round;stroke-linejoin:round;stroke-miterlimit:4;stroke-opacity:1;stroke-dasharray:none;display:inline" id="path5898-11-5" d="m 100,114.80863 90.40179,0"/><path style="fill:none;stroke:#000;stroke-width:.53149605;stroke-linecap:butt;stroke-linejoin:round;stroke-miterlimit:4;stroke-opacity:1;stroke-dasharray:none;display:inline" id="path5898-9-7-4-2" d="m 227.08929,157.36218 -12.08929,0 c -2,0 -3,1 -3,3 l 0,22"/><path style="fill:none;stroke:#000;stroke-width:.53149605;stroke-linecap:butt;stroke-linejoin:round;stroke-miterlimit:4;stroke-opacity:1;stroke-dasharray:none;display:inline" id="path5898-11-5-2" d="m 155,114.82647 0,57.07142 c 0,2 1,3 3.03571,3 l 11.05358,0"/><path style="fill:none;stroke:#000;stroke-width:.53149605;stroke-linecap:round;stroke-linejoin:round;stroke-miterlimit:4;stroke-opacity:1;stroke-dasharray:none;display:inline" id="path5898-9-7-4-6" d="m 190.37881,129.80796 -50.37881,0 c -2,0 -3,1.10777 -3,3.10777 l 0,56.44645"/><path style="fill:#fff;fill-opacity:1;stroke:#000;stroke-width:.53149605;stroke-linecap:round;stroke-linejoin:round;stroke-miterlimit:4;stroke-opacity:1;stroke-dasharray:none;stroke-dashoffset:0;display:inline" id="rect3794-77-9-4-42-8-9" d="m 188,109.82644 12,0 c 10,0 17,6 20,12.5 -3,6.5 -10,12.5 -20,12.5 l -12,0 c 5,-7 5,-18 0,-25 z"/><path style="fill:#000;fill-opacity:1;stroke:#000;stroke-width:.70866144;stroke-linecap:round;stroke-linejoin:round;stroke-miterlimit:4;stroke-opacity:1;stroke-dasharray:none;stroke-dashoffset:0;display:inline" id="path4802-7" d="m 212,188.36218 c 0,0.55229 -0.44772,1 -1,1 -0.55228,0 -1,-0.44771 -1,-1 0,-0.55228 0.44772,-1 1,-1 0.55228,0 1,0.44772 1,1 z" transform="translate(1,-6)"/><path style="fill:#000;fill-opacity:1;stroke:#000;stroke-width:.70866144;stroke-linecap:round;stroke-linejoin:round;stroke-miterlimit:4;stroke-opacity:1;stroke-dasharray:none;stroke-dashoffset:0;display:inline" id="path4802-9-9" d="m 212,188.36218 c 0,0.55229 -0.44772,1 -1,1 -0.55228,0 -1,-0.44771 -1,-1 0,-0.55228 0.44772,-1 1,-1 0.55228,0 1,0.44772 1,1 z" transform="translate(-56.089286,-73.55357)"/><path style="fill:#000;fill-opacity:1;stroke:#000;stroke-width:.70866144;stroke-linecap:round;stroke-linejoin:round;stroke-miterlimit:4;stroke-opacity:1;stroke-dasharray:none;stroke-dashoffset:0;display:inline" id="path4802-9-0" d="m 212,188.36218 c 0,0.55229 -0.44772,1 -1,1 -0.55228,0 -1,-0.44771 -1,-1 0,-0.55228 0.44772,-1 1,-1 0.55228,0 1,0.44772 1,1 z" transform="translate(-74,1.4464285)"/><path style="fill:#fff;fill-opacity:1;stroke:#000;stroke-width:.53149605;stroke-linecap:round;stroke-linejoin:round;stroke-miterlimit:4;stroke-opacity:1;stroke-dasharray:none;stroke-dashoffset:0;display:inline" id="path3164" d="m 285.5625,209.86218 c 0,1.69137 -1.37113,3.0625 -3.0625,3.0625 -1.69137,0 -3.0625,-1.37113 -3.0625,-3.0625 0,-1.69137 1.37113,-3.0625 3.0625,-3.0625 1.69137,0 3.0625,1.37113 3.0625,3.0625 z" transform="translate(-26.4375,-52.530337)"/></g><g id="layer3" transform="translate(-87.032219,-97.096435)" style="display:inline"><text style="font-size:13px;font-style:normal;font-variant:normal;font-weight:400;font-stretch:normal;text-align:start;line-height:125%;letter-spacing:0;word-spacing:0;text-anchor:start;fill:#000;fill-opacity:1;stroke:none;display:inline;font-family:Linux Biolinum O;-inkscape-font-specification:Linux Biolinum O" id="text4958" x="224" y="116.362" xml:space="preserve"><tspan id="tspan4960" x="224" y="116.362">D</tspan></text><text style="font-size:13px;font-style:normal;font-variant:normal;font-weight:400;font-stretch:normal;text-align:start;line-height:125%;letter-spacing:0;word-spacing:0;text-anchor:start;fill:#000;fill-opacity:1;stroke:none;display:inline;font-family:Linux Biolinum O;-inkscape-font-specification:Linux Biolinum O" id="text4962" x="263" y="151.362" xml:space="preserve"><tspan id="tspan4964" x="263" y="151.362">E</tspan></text><text style="font-size:13px;font-style:normal;font-variant:normal;font-weight:400;font-stretch:normal;text-align:end;line-height:125%;letter-spacing:0;word-spacing:0;text-anchor:end;fill:#000;fill-opacity:1;stroke:none;display:inline;font-family:Linux Biolinum O;-inkscape-font-specification:Linux Biolinum O" id="text4942" x="95" y="118.362" xml:space="preserve"><tspan id="tspan4944" x="95" y="118.362">A</tspan></text><text style="font-size:13px;font-style:normal;font-variant:normal;font-weight:400;font-stretch:normal;text-align:end;line-height:125%;letter-spacing:0;word-spacing:0;text-anchor:end;fill:#000;fill-opacity:1;stroke:none;display:inline;font-family:Linux Biolinum O;-inkscape-font-specification:Linux Biolinum O" id="text4946" x="95" y="193.362" xml:space="preserve"><tspan id="tspan4948" x="95" y="193.362">B</tspan></text><text style="font-size:13px;font-style:normal;font-variant:normal;font-weight:400;font-stretch:normal;text-align:start;line-height:125%;letter-spacing:0;word-spacing:0;text-anchor:start;fill:#000;fill-opacity:1;stroke:none;display:inline;font-family:Linux Biolinum O;-inkscape-font-specification:Linux Biolinum O" id="text4950" x="360" y="133.362" xml:space="preserve"><tspan id="tspan4952" x="360" y="133.362">S</tspan></text><text style="font-size:13px;font-style:normal;font-variant:normal;font-weight:400;font-stretch:normal;text-align:start;line-height:125%;letter-spacing:0;word-spacing:0;text-anchor:start;fill:#000;fill-opacity:1;stroke:none;display:inline;font-family:Linux Biolinum O;-inkscape-font-specification:Linux Biolinum O" id="text4954" x="360" y="186.362" xml:space="preserve"><tspan id="tspan4956" x="360" y="186.362">C</tspan></text></g></svg>