<svg xmlns="http://www.w3.org/2000/svg" xmlns:svg="http://www.w3.org/2000/svg" id="svg6455" width="413.059" height="201.585" version="1.1" style="display:inline"><defs id="defs6457"><marker id="Arrow1Mend-6" orient="auto" refX="0" refY="0" style="overflow:visible"><path id="path3809-6-2" d="M 0,0 5,-5 -12.5,0 5,5 0,0 z" transform="matrix(-0.4,0,0,-0.4,-4,0)" style="fill-rule:evenodd;stroke:#000;stroke-width:1pt;marker-start:none"/></marker><marker id="marker6488" orient="auto" refX="0" refY="0" style="overflow:visible"><path id="path6490" d="M 0,0 5,-5 -12.5,0 5,5 0,0 z" transform="matrix(-0.4,0,0,-0.4,-4,0)" style="fill-rule:evenodd;stroke:#000;stroke-width:1pt;marker-start:none"/></marker><marker id="Arrow1Mend" orient="auto" refX="0" refY="0" style="overflow:visible"><path id="path3809" d="M 0,0 5,-5 -12.5,0 5,5 0,0 z" transform="matrix(-0.4,0,0,-0.4,-4,0)" style="fill-rule:evenodd;stroke:#000;stroke-width:1pt;marker-start:none"/></marker><marker id="marker6494" orient="auto" refX="0" refY="0" style="overflow:visible"><path id="path6496" d="M 0,0 5,-5 -12.5,0 5,5 0,0 z" transform="matrix(-0.4,0,0,-0.4,-4,0)" style="fill-rule:evenodd;stroke:#000;stroke-width:1pt;marker-start:none"/></marker><marker id="Arrow1Mend-6-0" orient="auto" refX="0" refY="0" style="overflow:visible"><path id="path3809-6-2-4" d="M 0,0 5,-5 -12.5,0 5,5 0,0 z" transform="matrix(-0.4,0,0,-0.4,-4,0)" style="fill-rule:evenodd;stroke:#000;stroke-width:1pt;marker-start:none"/></marker><marker id="Arrow1Mend-4" orient="auto" refX="0" refY="0" style="overflow:visible"><path id="path3809-6" d="M 0,0 5,-5 -12.5,0 5,5 0,0 z" transform="matrix(-0.4,0,0,-0.4,-4,0)" style="fill-rule:evenodd;stroke:#000;stroke-width:1pt;marker-start:none"/></marker><marker id="Arrow1Mend-7" orient="auto" refX="0" refY="0" style="overflow:visible"><path id="path3809-5" d="M 0,0 5,-5 -12.5,0 5,5 0,0 z" transform="matrix(-0.4,0,0,-0.4,-4,0)" style="fill-rule:evenodd;stroke:#000;stroke-width:1pt;marker-start:none"/></marker><marker id="Arrow1Mend-6-5" orient="auto" refX="0" refY="0" style="overflow:visible"><path id="path3809-6-2-2" d="M 0,0 5,-5 -12.5,0 5,5 0,0 z" transform="matrix(-0.4,0,0,-0.4,-4,0)" style="fill-rule:evenodd;stroke:#000;stroke-width:1pt;marker-start:none"/></marker><marker id="Arrow1Mend-48" orient="auto" refX="0" refY="0" style="overflow:visible"><path id="path3809-54" d="M 0,0 5,-5 -12.5,0 5,5 0,0 z" transform="matrix(-0.4,0,0,-0.4,-4,0)" style="fill-rule:evenodd;stroke:#000;stroke-width:1pt;marker-start:none"/></marker><marker id="Arrow1Mend-2" orient="auto" refX="0" refY="0" style="overflow:visible"><path id="path3809-3" d="M 0,0 5,-5 -12.5,0 5,5 0,0 z" transform="matrix(-0.4,0,0,-0.4,-4,0)" style="fill-rule:evenodd;stroke:#000;stroke-width:1pt;marker-start:none"/></marker></defs><metadata id="metadata_3.4"/><g id="layer8" transform="translate(-60.416,-72.096435)" style="display:inline"><path style="fill:#e8e8e8;fill-opacity:1;stroke:#000;stroke-width:.53149605;stroke-linecap:round;stroke-linejoin:round;stroke-miterlimit:4;stroke-opacity:1;stroke-dasharray:none;stroke-dashoffset:0" id="rect5327" d="m 135,72.362183 305,0 c 3,0 5,2 5,5 l 0,54.999997 c 0,3 -2,5 -5,5 l -305,0 c -3,0 -5,-2 -5,-5 l 0,-54.999997 c 0,-3 2,-5 5,-5 z"/><path style="fill:none;stroke:#000;stroke-width:.77952754;stroke-linecap:round;stroke-linejoin:round;stroke-miterlimit:4;stroke-opacity:1;stroke-dasharray:none;marker-end:url(#Arrow1Mend)" id="path3795" d="m 193,175.8086 14.91071,0 c 3.08929,0 5.08929,-2 5.08929,-5 l 0,-31.44641"/><path style="fill:none;stroke:#000;stroke-width:.77952754;stroke-linecap:round;stroke-linejoin:round;stroke-miterlimit:4;stroke-opacity:1;stroke-dasharray:none;marker-end:url(#Arrow1Mend)" id="path3795-5" d="m 160,122.36218 13.53571,0 c 3.08929,0 5.08929,2 5.08929,5 l 0,35"/><path style="fill:none;stroke:#000;stroke-width:.77952754;stroke-linecap:round;stroke-linejoin:round;stroke-miterlimit:4;stroke-opacity:1;stroke-dasharray:none;marker-end:url(#Arrow1Mend-6)" id="path4451" d="m 100,110.36218 28,0"/><path style="fill:none;stroke:#000;stroke-width:.77952754;stroke-linecap:round;stroke-linejoin:round;stroke-miterlimit:4;stroke-opacity:1;stroke-dasharray:none;marker-end:url(#Arrow1Mend-6)" id="path4451-5" d="m 167,178.36217 0,27"/><path style="fill:#000;fill-opacity:1;stroke:#000;stroke-width:.35433072;stroke-linecap:round;stroke-linejoin:round;stroke-miterlimit:4;stroke-opacity:1;stroke-dasharray:none;stroke-dashoffset:0" id="path5407" d="m 190,179.86218 c 0,1.38071 -1.11929,2.5 -2.5,2.5 -1.38071,0 -2.5,-1.11929 -2.5,-2.5 0,-1.38071 1.11929,-2.5 2.5,-2.5 1.38071,0 2.5,1.11929 2.5,2.5 z" transform="translate(-20.5,-3.9999992)"/><path style="fill:#000;fill-opacity:1;stroke:#000;stroke-width:.35433072;stroke-linecap:round;stroke-linejoin:round;stroke-miterlimit:4;stroke-opacity:1;stroke-dasharray:none;stroke-dashoffset:0" id="path5407-7" d="m 190,179.86218 c 0,1.38071 -1.11929,2.5 -2.5,2.5 -1.38071,0 -2.5,-1.11929 -2.5,-2.5 0,-1.38071 1.11929,-2.5 2.5,-2.5 1.38071,0 2.5,1.11929 2.5,2.5 z" transform="translate(2.94643,-3.9999992)"/><path style="fill:none;stroke:#000;stroke-width:.50838757;stroke-linecap:round;stroke-linejoin:round;stroke-miterlimit:4;stroke-opacity:1;stroke-dasharray:none;stroke-dashoffset:0" id="path5435-9" d="m 199.17081,180.36218 c 0,6.16947 -5.00134,11.17081 -11.17081,11.17081 -6.16947,0 -11.17081,-5.00134 -11.17081,-11.17081 0,-6.16946 5.00134,-11.17081 11.17081,-11.17081 6.16947,0 11.17081,5.00135 11.17081,11.17081 z" transform="matrix(1.0454545,0,0,1.0454545,-6.045455,-12.69828)"/><path style="fill:none;stroke:#000;stroke-width:.50838757;stroke-linecap:round;stroke-linejoin:round;stroke-miterlimit:4;stroke-opacity:1;stroke-dasharray:none;stroke-dashoffset:0" id="path5435-9-6" d="m 199.17081,180.36218 c 0,6.16947 -5.00134,11.17081 -11.17081,11.17081 -6.16947,0 -11.17081,-5.00134 -11.17081,-11.17081 0,-6.16946 5.00134,-11.17081 11.17081,-11.17081 6.16947,0 11.17081,5.00135 11.17081,11.17081 z" transform="matrix(1.0454545,0,0,1.0454545,-29.545446,-12.698273)"/><path style="fill:none;stroke:#000;stroke-width:.77952754;stroke-linecap:round;stroke-linejoin:round;stroke-miterlimit:4;stroke-opacity:1;stroke-dasharray:none;marker-end:url(#Arrow1Mend)" id="path3795-5-0" d="m 193,104.85712 87.53571,0 c 3.08929,0 5.08929,2 5.08929,4.99999 l 0,52.50507"/><path style="fill:none;stroke:#000;stroke-width:.77952754;stroke-linecap:round;stroke-linejoin:round;stroke-miterlimit:4;stroke-opacity:1;stroke-dasharray:none;marker-end:url(#Arrow1Mend)" id="path3795-5-0-1" d="m 246,87.005049 142.55357,0 c 3.08929,0 5.08929,2 5.08929,4.999994 l 0,70.357137"/><path style="fill:none;stroke:#000;stroke-width:.50838757;stroke-linecap:round;stroke-linejoin:round;stroke-miterlimit:4;stroke-opacity:1;stroke-dasharray:none;stroke-dashoffset:0" id="path5435-9-0" d="m 199.17081,180.36218 c 0,6.16947 -5.00134,11.17081 -11.17081,11.17081 -6.16947,0 -11.17081,-5.00134 -11.17081,-11.17081 0,-6.16946 5.00134,-11.1708 11.17081,-11.1708 6.16947,0 11.17081,5.00134 11.17081,11.1708 z" transform="matrix(1.0454545,0,0,1.0454545,100.95454,-12.698283)"/><path style="fill:none;stroke:#000;stroke-width:.50838757;stroke-linecap:round;stroke-linejoin:round;stroke-miterlimit:4;stroke-opacity:1;stroke-dasharray:none;stroke-dashoffset:0" id="path5435-9-6-2" d="m 199.17081,180.36218 c 0,6.16947 -5.00134,11.17081 -11.17081,11.17081 -6.16947,0 -11.17081,-5.00134 -11.17081,-11.17081 0,-6.16946 5.00134,-11.17081 11.17081,-11.17081 6.16947,0 11.17081,5.00135 11.17081,11.17081 z" transform="matrix(1.0454545,0,0,1.0454545,77.454554,-12.698273)"/><path style="fill:#000;fill-opacity:1;stroke:#000;stroke-width:.35433072;stroke-linecap:round;stroke-linejoin:round;stroke-miterlimit:4;stroke-opacity:1;stroke-dasharray:none;stroke-dashoffset:0" id="path5407-77" d="m 190,179.86218 c 0,1.38071 -1.11929,2.5 -2.5,2.5 -1.38071,0 -2.5,-1.11929 -2.5,-2.5 0,-1.38071 1.11929,-2.5 2.5,-2.5 1.38071,0 2.5,1.11929 2.5,2.5 z" transform="translate(86.500004,-4.0000029)"/><path style="fill:#000;fill-opacity:1;stroke:#000;stroke-width:.35433072;stroke-linecap:round;stroke-linejoin:round;stroke-miterlimit:4;stroke-opacity:1;stroke-dasharray:none;stroke-dashoffset:0" id="path5407-7-1" d="m 190,179.86218 c 0,1.38071 -1.11929,2.5 -2.5,2.5 -1.38071,0 -2.5,-1.11929 -2.5,-2.5 0,-1.38071 1.11929,-2.5 2.5,-2.5 1.38071,0 2.5,1.11929 2.5,2.5 z" transform="translate(109.94643,-4.0000029)"/><path style="fill:none;stroke:#000;stroke-width:.77952754;stroke-linecap:round;stroke-linejoin:round;stroke-miterlimit:4;stroke-opacity:1;stroke-dasharray:none;marker-end:url(#Arrow1Mend-6)" id="path4451-5-0" d="m 274,178.36216 0,27"/><path style="fill:none;stroke:#000;stroke-width:.77952754;stroke-linecap:round;stroke-linejoin:round;stroke-miterlimit:4;stroke-opacity:1;stroke-dasharray:none;marker-end:url(#Arrow1Mend)" id="path3795-2" d="m 300,175.80859 14.91071,0 c 3.08929,0 5.08929,-2 5.08929,-5 l 0,-31.44641"/><path style="fill:none;stroke:#000;stroke-width:.77952754;stroke-linecap:round;stroke-linejoin:round;stroke-miterlimit:4;stroke-opacity:1;stroke-dasharray:none;marker-end:url(#Arrow1Mend)" id="path3795-2-7" d="m 408,175.80858 14.91071,0 c 3.08929,0 5.08929,-2 5.08929,-5 l 0,-31.44641"/><path style="fill:none;stroke:#000;stroke-width:.50838757;stroke-linecap:round;stroke-linejoin:round;stroke-miterlimit:4;stroke-opacity:1;stroke-dasharray:none;stroke-dashoffset:0" id="path5435-9-0-8" d="m 199.17081,180.36218 c 0,6.16947 -5.00134,11.17081 -11.17081,11.17081 -6.16947,0 -11.17081,-5.00134 -11.17081,-11.17081 0,-6.16946 5.00134,-11.17081 11.17081,-11.17081 6.16947,0 11.17081,5.00135 11.17081,11.17081 z" transform="matrix(1.0454545,0,0,1.0454545,208.95454,-12.698283)"/><path style="fill:#000;fill-opacity:1;stroke:#000;stroke-width:.35433072;stroke-linecap:round;stroke-linejoin:round;stroke-miterlimit:4;stroke-opacity:1;stroke-dasharray:none;stroke-dashoffset:0" id="path5407-7-1-0" d="m 190,179.86218 c 0,1.38071 -1.11929,2.5 -2.5,2.5 -1.38071,0 -2.5,-1.11929 -2.5,-2.5 0,-1.38071 1.11929,-2.5 2.5,-2.5 1.38071,0 2.5,1.11929 2.5,2.5 z" transform="translate(217.94643,-4.0000036)"/><path style="fill:#000;fill-opacity:1;stroke:#000;stroke-width:.35433072;stroke-linecap:round;stroke-linejoin:round;stroke-miterlimit:4;stroke-opacity:1;stroke-dasharray:none;stroke-dashoffset:0" id="path5407-77-0" d="m 190,179.86218 c 0,1.38071 -1.11929,2.5 -2.5,2.5 -1.38071,0 -2.5,-1.11929 -2.5,-2.5 0,-1.38071 1.11929,-2.5 2.5,-2.5 1.38071,0 2.5,1.11929 2.5,2.5 z" transform="translate(194.5,-4.0000036)"/><path style="fill:none;stroke:#000;stroke-width:.77952754;stroke-linecap:round;stroke-linejoin:round;stroke-miterlimit:4;stroke-opacity:1;stroke-dasharray:none;marker-end:url(#Arrow1Mend-6)" id="path4451-5-0-6" d="m 382,178.36215 0,27"/><path style="fill:none;stroke:#000;stroke-width:.50838757;stroke-linecap:round;stroke-linejoin:round;stroke-miterlimit:4;stroke-opacity:1;stroke-dasharray:none;stroke-dashoffset:0" id="path5435-9-6-2-1" d="m 199.17081,180.36218 c 0,6.16947 -5.00134,11.17081 -11.17081,11.17081 -6.16947,0 -11.17081,-5.00134 -11.17081,-11.17081 0,-6.16946 5.00134,-11.17081 11.17081,-11.17081 6.16947,0 11.17081,5.00135 11.17081,11.17081 z" transform="matrix(1.0454545,0,0,1.0454545,185.45455,-12.698273)"/></g><g id="layer9" transform="translate(-60.416,-72.096435)" style="display:inline"><text style="font-size:11px;font-style:normal;font-variant:normal;font-weight:400;font-stretch:normal;text-align:start;line-height:125%;letter-spacing:0;word-spacing:0;text-anchor:start;fill:#000;fill-opacity:1;stroke:none;font-family:Inconsolata LGC;-inkscape-font-specification:Inconsolata LGC" id="text7282" x="145" y="107.362" xml:space="preserve"><tspan id="tspan7284" x="145" y="107.362">square:</tspan></text><text style="font-size:11px;font-style:normal;font-variant:normal;font-weight:400;font-stretch:normal;text-align:start;line-height:125%;letter-spacing:0;word-spacing:0;text-anchor:start;fill:#000;fill-opacity:1;stroke:none;font-family:Inconsolata LGC;-inkscape-font-specification:Inconsolata LGC" id="text5493" x="145" y="89.867" xml:space="preserve"><tspan id="tspan5495" x="145" y="89.867">sum-of-squares:</tspan></text><text style="font-size:11px;font-style:normal;font-variant:normal;font-weight:400;font-stretch:normal;text-align:start;line-height:125%;letter-spacing:0;word-spacing:0;text-anchor:start;fill:#000;fill-opacity:1;stroke:none;font-family:Inconsolata LGC;-inkscape-font-specification:Inconsolata LGC" id="text5473" x="145" y="125.291" xml:space="preserve"><tspan id="tspan5475" x="145" y="125.291">f:</tspan></text><text style="font-size:11px;font-style:normal;font-variant:normal;font-weight:400;font-stretch:normal;text-align:start;line-height:129.99999523%;letter-spacing:0;word-spacing:0;text-anchor:start;fill:#000;fill-opacity:1;stroke:none;font-family:Inconsolata LGC;-inkscape-font-specification:Inconsolata LGC" id="text5477" x="60" y="105.786" xml:space="preserve"><tspan id="tspan5479" x="60" y="105.786" style="font-size:13px;font-style:normal;font-variant:normal;font-weight:400;font-stretch:normal;line-height:129.99999523%;font-family:Linux Biolinum O;-inkscape-font-specification:Linux Biolinum O">global</tspan><tspan style="font-size:13px;font-style:normal;font-variant:normal;font-weight:400;font-stretch:normal;line-height:129.99999523%;font-family:Linux Biolinum O;-inkscape-font-specification:Linux Biolinum O" id="tspan5507" x="60" y="122.686">env</tspan></text><text style="font-size:13px;font-style:normal;font-variant:normal;font-weight:400;font-stretch:normal;text-align:start;line-height:129.99999523%;letter-spacing:0;word-spacing:0;text-anchor:start;fill:#000;fill-opacity:1;stroke:none;font-family:Linux Biolinum O;-inkscape-font-specification:Sans" id="text5497" x="90" y="222.362" xml:space="preserve"><tspan id="tspan5499" x="90" y="222.362" style="line-height:129.99999523%">parameters: <tspan style="font-size:11px;font-style:normal;font-variant:normal;font-weight:400;font-stretch:normal;line-height:129.99999523%;font-family:Inconsolata LGC;-inkscape-font-specification:Inconsolata LGC" id="tspan7268">a</tspan></tspan><tspan id="tspan5501" x="90" y="241.229" style="line-height:129.99999523%">body: <tspan style="font-size:11px;font-style:normal;font-variant:normal;font-weight:400;font-stretch:normal;line-height:129.99999523%;font-family:Inconsolata LGC;-inkscape-font-specification:Inconsolata LGC" id="tspan5503" dy="0">(sum-of-squares</tspan></tspan><tspan id="tspan7270" x="90" y="257.16" style="font-size:11px;font-style:normal;font-variant:normal;font-weight:400;font-stretch:normal;line-height:129.99999523%;font-family:Inconsolata LGC;-inkscape-font-specification:Inconsolata LGC"> (+ a 1)</tspan><tspan id="tspan7274" x="90" y="271.46" style="font-size:11px;line-height:129.99999523%"><tspan style="font-size:11px;font-style:normal;font-variant:normal;font-weight:400;font-stretch:normal;line-height:129.99999523%;font-family:Inconsolata LGC;-inkscape-font-specification:Inconsolata LGC" id="tspan7276" dy="0 0 0 0 0 0 0 0 0 0"> (* a 2))</tspan></tspan></text><text style="font-size:13px;font-style:normal;font-variant:normal;font-weight:400;font-stretch:normal;text-align:start;line-height:129.99999523%;letter-spacing:0;word-spacing:0;text-anchor:start;fill:#000;fill-opacity:1;stroke:none;font-family:Linux Biolinum O;-inkscape-font-specification:Sans" id="text5497-6" x="245" y="222.362" xml:space="preserve"><tspan id="tspan5499-8" x="245" y="222.362" style="line-height:129.99999523%">parameters: <tspan style="font-size:11px;font-style:normal;font-variant:normal;font-weight:400;font-stretch:normal;line-height:129.99999523%;font-family:Inconsolata LGC;-inkscape-font-specification:Inconsolata LGC" id="tspan7508">x</tspan></tspan><tspan id="tspan7274-5" x="245" y="241.229" style="line-height:129.99999523%">body: <tspan style="font-size:11px;font-style:normal;font-variant:normal;font-weight:400;font-stretch:normal;line-height:129.99999523%;font-family:Inconsolata LGC;-inkscape-font-specification:Inconsolata LGC" id="tspan5503-6" dy="0">(* x x)</tspan></tspan></text><text style="font-size:13px;font-style:normal;font-variant:normal;font-weight:400;font-stretch:normal;text-align:start;line-height:129.99999523%;letter-spacing:0;word-spacing:0;text-anchor:start;fill:#000;fill-opacity:1;stroke:none;font-family:Linux Biolinum O;-inkscape-font-specification:Sans" id="text5497-1" x="350" y="222.362" xml:space="preserve"><tspan id="tspan5499-2" x="350" y="222.362" style="line-height:129.99999523%">parameters: <tspan style="font-size:11px;font-style:normal;font-variant:normal;font-weight:400;font-stretch:normal;line-height:129.99999523%;font-family:Inconsolata LGC;-inkscape-font-specification:Inconsolata LGC" id="tspan7517" dx="0 0 1.6">x,y</tspan></tspan><tspan id="tspan5501-8" x="350" y="241.229" style="line-height:129.99999523%">body: <tspan style="font-size:11px;font-style:normal;font-variant:normal;font-weight:400;font-stretch:normal;line-height:129.99999523%;font-family:Inconsolata LGC;-inkscape-font-specification:Inconsolata LGC" id="tspan5503-3" dy="0">(+ (square x)</tspan></tspan><tspan id="tspan7270-5" x="350" y="257.16" style="font-size:11px;font-style:normal;font-variant:normal;font-weight:400;font-stretch:normal;line-height:129.99999523%;font-family:Inconsolata LGC;-inkscape-font-specification:Inconsolata LGC"> (square y))</tspan></text></g></svg>