<svg xmlns="http://www.w3.org/2000/svg" xmlns:svg="http://www.w3.org/2000/svg" style="display:inline" id="svg4796" width="194.266" height="164.857" version="1.1"><defs id="defs4798"><marker style="overflow:visible" id="Arrow1Mend" orient="auto" refX="0" refY="0"><path style="fill-rule:evenodd;stroke:#000;stroke-width:1pt;marker-start:none" id="path3809" d="M 0,0 5,-5 -12.5,0 5,5 0,0 z" transform="matrix(-0.4,0,0,-0.4,-4,0)"/></marker><marker style="overflow:visible" id="Arrow1Mend-3" orient="auto" refX="0" refY="0"><path style="fill-rule:evenodd;stroke:#000;stroke-width:1pt;marker-start:none" id="path3809-6" d="M 0,0 5,-5 -12.5,0 5,5 0,0 z" transform="matrix(-0.4,0,0,-0.4,-4,0)"/></marker><marker style="overflow:visible" id="Arrow1Mend-6" orient="auto" refX="0" refY="0"><path style="fill-rule:evenodd;stroke:#000;stroke-width:1pt;marker-start:none" id="path3809-6-2" d="M 0,0 5,-5 -12.5,0 5,5 0,0 z" transform="matrix(-0.4,0,0,-0.4,-4,0)"/></marker><marker style="overflow:visible" id="Arrow1Mend-6-9" orient="auto" refX="0" refY="0"><path style="fill-rule:evenodd;stroke:#000;stroke-width:1pt;marker-start:none" id="path3809-6-4" d="M 0,0 5,-5 -12.5,0 5,5 0,0 z" transform="matrix(-0.4,0,0,-0.4,-4,0)"/></marker></defs><metadata id="metadata_3.2"/><g style="display:inline" id="layer4" transform="translate(-57,-85.096435)"><path id="rect5327" d="m 130,87.362183 115,0 c 3,0 5,2 5,5 l 0,44.999997 c 0,3 -2,5 -5,5 l -115,0 c -3,0 -5,-2 -5,-5 l 0,-44.999997 c 0,-3 2,-5 5,-5 z" style="fill:#e8e8e8;fill-opacity:1;stroke:#000;stroke-width:.53149605;stroke-linecap:round;stroke-linejoin:round;stroke-miterlimit:4;stroke-opacity:1;stroke-dasharray:none;stroke-dashoffset:0"/><path id="path3795" d="m 215,180.80861 14.91071,0 c 3.08929,0 5.08929,-2 5.08929,-5 l 0,-31.44643" style="fill:none;stroke:#000;stroke-width:.77952754;stroke-linecap:round;stroke-linejoin:round;stroke-miterlimit:4;stroke-opacity:1;stroke-dasharray:none;marker-end:url(#Arrow1Mend)"/><path id="path3795-5" d="m 188,127.36218 7.53571,0 c 3.08929,0 5.08929,2 5.08929,5 l 0,35" style="fill:none;stroke:#000;stroke-width:.77952754;stroke-linecap:round;stroke-linejoin:round;stroke-miterlimit:4;stroke-opacity:1;stroke-dasharray:none;marker-end:url(#Arrow1Mend)"/><path id="path4451" d="m 100,115.36218 23,0" style="fill:none;stroke:#000;stroke-width:.77952754;stroke-linecap:round;stroke-linejoin:round;stroke-miterlimit:4;stroke-opacity:1;stroke-dasharray:none;marker-end:url(#Arrow1Mend-6)"/><path id="path4451-5" d="m 189,183.36218 0,27" style="fill:none;stroke:#000;stroke-width:.77952754;stroke-linecap:round;stroke-linejoin:round;stroke-miterlimit:4;stroke-opacity:1;stroke-dasharray:none;marker-end:url(#Arrow1Mend-6)"/><path id="path5407" d="m 190,179.86218 c 0,1.38071 -1.11929,2.5 -2.5,2.5 -1.38071,0 -2.5,-1.11929 -2.5,-2.5 0,-1.38071 1.11929,-2.5 2.5,-2.5 1.38071,0 2.5,1.11929 2.5,2.5 z" transform="translate(1.5,1)" style="fill:#000;fill-opacity:1;stroke:#000;stroke-width:.35433072;stroke-linecap:round;stroke-linejoin:round;stroke-miterlimit:4;stroke-opacity:1;stroke-dasharray:none;stroke-dashoffset:0"/><path id="path5407-7" d="m 190,179.86218 c 0,1.38071 -1.11929,2.5 -2.5,2.5 -1.38071,0 -2.5,-1.11929 -2.5,-2.5 0,-1.38071 1.11929,-2.5 2.5,-2.5 1.38071,0 2.5,1.11929 2.5,2.5 z" transform="translate(24.94643,1)" style="fill:#000;fill-opacity:1;stroke:#000;stroke-width:.35433072;stroke-linecap:round;stroke-linejoin:round;stroke-miterlimit:4;stroke-opacity:1;stroke-dasharray:none;stroke-dashoffset:0"/><path id="path5435-9" d="m 199.17081,180.36218 c 0,6.16947 -5.00134,11.17081 -11.17081,11.17081 -6.16947,0 -11.17081,-5.00134 -11.17081,-11.17081 0,-6.16946 5.00134,-11.17081 11.17081,-11.17081 6.16947,0 11.17081,5.00135 11.17081,11.17081 z" transform="matrix(1.0454545,0,0,1.0454545,15.954545,-7.698281)" style="fill:none;stroke:#000;stroke-width:.50838757;stroke-linecap:round;stroke-linejoin:round;stroke-miterlimit:4;stroke-opacity:1;stroke-dasharray:none;stroke-dashoffset:0"/><path id="path5435-9-6" d="m 199.17081,180.36218 c 0,6.16947 -5.00134,11.17081 -11.17081,11.17081 -6.16947,0 -11.17081,-5.00134 -11.17081,-11.17081 0,-6.16946 5.00134,-11.17081 11.17081,-11.17081 6.16947,0 11.17081,5.00135 11.17081,11.17081 z" transform="matrix(1.0454545,0,0,1.0454545,-7.545446,-7.6982733)" style="fill:none;stroke:#000;stroke-width:.50838757;stroke-linecap:round;stroke-linejoin:round;stroke-miterlimit:4;stroke-opacity:1;stroke-dasharray:none;stroke-dashoffset:0"/></g><g style="display:inline" id="layer5" transform="translate(-57,-85.096435)"><text id="text5493" x="140" y="107.362" xml:space="preserve" style="font-size:13px;font-style:italic;font-variant:normal;font-weight:400;font-stretch:normal;text-align:start;line-height:125%;letter-spacing:0;word-spacing:0;text-anchor:start;fill:#000;fill-opacity:1;stroke:none;font-family:Linux Biolinum O;-inkscape-font-specification:Sans Italic"><tspan id="tspan5495" x="140" y="107.362">other variables</tspan></text><text id="text5473" x="140" y="130.291" xml:space="preserve" style="font-size:11px;font-style:normal;font-variant:normal;font-weight:400;font-stretch:normal;text-align:start;line-height:125%;letter-spacing:0;word-spacing:0;text-anchor:start;fill:#000;fill-opacity:1;stroke:none;font-family:Inconsolata LGC;-inkscape-font-specification:Inconsolata LGC"><tspan id="tspan5475" x="140" y="130.291">square:</tspan></text><text id="text5477" x="60" y="110.576" xml:space="preserve" style="font-size:11px;font-style:normal;font-variant:normal;font-weight:400;font-stretch:normal;text-align:start;line-height:129.99999523%;letter-spacing:0;word-spacing:0;text-anchor:start;fill:#000;fill-opacity:1;stroke:none;font-family:Inconsolata LGC;-inkscape-font-specification:Inconsolata LGC"><tspan style="font-size:13px;font-style:normal;font-variant:normal;font-weight:400;font-stretch:normal;line-height:129.99999523%;font-family:Linux Biolinum O;-inkscape-font-specification:Linux Biolinum O" id="tspan5479" x="60" y="110.576">global</tspan><tspan id="tspan5507" x="60" y="127.476" style="font-size:13px;font-style:normal;font-variant:normal;font-weight:400;font-stretch:normal;line-height:129.99999523%;font-family:Linux Biolinum O;-inkscape-font-specification:Linux Biolinum O">env</tspan></text><text id="text5485" x="58" y="162.362" xml:space="preserve" style="font-size:11px;font-style:normal;font-variant:normal;font-weight:400;font-stretch:normal;text-align:start;line-height:139.99999762%;letter-spacing:0;word-spacing:0;text-anchor:start;fill:#000;fill-opacity:1;stroke:none;font-family:Inconsolata LGC;-inkscape-font-specification:Inconsolata LGC"><tspan id="tspan5487" x="58" y="162.362">(define (square x)</tspan><tspan id="tspan5589" x="58" y="177.762" dy="0 0 0 0 0"> (* x x))</tspan></text><text id="text5497" x="160" y="227.005" xml:space="preserve" style="font-size:13px;font-style:normal;font-variant:normal;font-weight:400;font-stretch:normal;text-align:start;line-height:129.99999523%;letter-spacing:0;word-spacing:0;text-anchor:start;fill:#000;fill-opacity:1;stroke:none;display:inline;font-family:Linux Biolinum O;-inkscape-font-specification:Sans"><tspan style="line-height:129.99999523%" id="tspan5499" x="160" y="227.005">parameters:<tspan id="tspan5505" style="font-size:11px;font-style:normal;font-variant:normal;font-weight:400;font-stretch:normal;line-height:129.99999523%;font-family:Inconsolata LGC;-inkscape-font-specification:Inconsolata LGC"> x</tspan></tspan><tspan style="line-height:129.99999523%" id="tspan5501" x="160" y="245.872">body: <tspan id="tspan8814" style="font-size:11px;font-style:normal;font-variant:normal;font-weight:500;font-stretch:normal;line-height:129.99999523%;font-family:Inconsolata LGC;-inkscape-font-specification:Inconsolata LGC Medium">(* x x)</tspan></tspan></text></g></svg>