<svg xmlns="http://www.w3.org/2000/svg" xmlns:svg="http://www.w3.org/2000/svg" id="svg2" width="251.392" height="295.425" version="1.1"><defs id="defs4"><marker id="Arrow1Mend" orient="auto" refX="0" refY="0" style="overflow:visible"><path id="path4415" d="M 0,0 5,-5 -12.5,0 5,5 0,0 z" transform="matrix(-0.4,0,0,-0.4,-4,0)" style="fill-rule:evenodd;stroke:#000;stroke-width:1pt;marker-start:none"/></marker><marker id="Arrow1Mend-7" orient="auto" refX="0" refY="0" style="overflow:visible"><path id="path4415-4" d="M 0,0 5,-5 -12.5,0 5,5 0,0 z" transform="matrix(-0.4,0,0,-0.4,-4,0)" style="fill-rule:evenodd;stroke:#000;stroke-width:1pt;marker-start:none"/></marker><marker id="Arrow1Mend-9" orient="auto" refX="0" refY="0" style="overflow:visible"><path id="path4415-3" d="M 0,0 5,-5 -12.5,0 5,5 0,0 z" transform="matrix(-0.4,0,0,-0.4,-4,0)" style="fill-rule:evenodd;stroke:#000;stroke-width:1pt;marker-start:none"/></marker><marker id="Arrow1Mend-5" orient="auto" refX="0" refY="0" style="overflow:visible"><path id="path4415-0" d="M 0,0 5,-5 -12.5,0 5,5 0,0 z" transform="matrix(-0.4,0,0,-0.4,-4,0)" style="fill-rule:evenodd;stroke:#000;stroke-width:1pt;marker-start:none"/></marker><marker id="Arrow1Mend-6" orient="auto" refX="0" refY="0" style="overflow:visible"><path id="path4415-7" d="M 0,0 5,-5 -12.5,0 5,5 0,0 z" transform="matrix(-0.4,0,0,-0.4,-4,0)" style="fill-rule:evenodd;stroke:#000;stroke-width:1pt;marker-start:none"/></marker><marker id="Arrow1Mend-1" orient="auto" refX="0" refY="0" style="overflow:visible"><path id="path4415-1" d="M 0,0 5,-5 -12.5,0 5,5 0,0 z" transform="matrix(-0.4,0,0,-0.4,-4,0)" style="fill-rule:evenodd;stroke:#000;stroke-width:1pt;marker-start:none"/></marker><marker id="Arrow1Mend-4" orient="auto" refX="0" refY="0" style="overflow:visible"><path id="path4415-15" d="M 0,0 5,-5 -12.5,0 5,5 0,0 z" transform="matrix(-0.4,0,0,-0.4,-4,0)" style="fill-rule:evenodd;stroke:#000;stroke-width:1pt;marker-start:none"/></marker><marker id="Arrow1Mend-96" orient="auto" refX="0" refY="0" style="overflow:visible"><path id="path4415-42" d="M 0,0 5,-5 -12.5,0 5,5 0,0 z" transform="matrix(-0.4,0,0,-0.4,-4,0)" style="fill-rule:evenodd;stroke:#000;stroke-width:1pt;marker-start:none"/></marker><marker id="Arrow1Mend-71" orient="auto" refX="0" refY="0" style="overflow:visible"><path id="path4415-74" d="M 0,0 5,-5 -12.5,0 5,5 0,0 z" transform="matrix(-0.4,0,0,-0.4,-4,0)" style="fill-rule:evenodd;stroke:#000;stroke-width:1pt;marker-start:none"/></marker><marker id="Arrow1Mend-8" orient="auto" refX="0" refY="0" style="overflow:visible"><path id="path4415-9" d="M 0,0 5,-5 -12.5,0 5,5 0,0 z" transform="matrix(-0.4,0,0,-0.4,-4,0)" style="fill-rule:evenodd;stroke:#000;stroke-width:1pt;marker-start:none"/></marker><marker id="Arrow1Mend-16" orient="auto" refX="0" refY="0" style="overflow:visible"><path id="path4415-99" d="M 0,0 5,-5 -12.5,0 5,5 0,0 z" transform="matrix(-0.4,0,0,-0.4,-4,0)" style="fill-rule:evenodd;stroke:#000;stroke-width:1pt;marker-start:none"/></marker></defs><metadata id="metadata_3.37"/><g id="layer2" transform="translate(-459.58214,-52.149584)" style="display:inline"><rect style="fill:#e8e8e8;fill-opacity:1;stroke:#000;stroke-width:.42519686;stroke-linecap:round;stroke-linejoin:round;stroke-miterlimit:4;stroke-opacity:1;stroke-dasharray:none;stroke-dashoffset:0;display:inline" id="rect6788-9-4" width="80" height="35" x="580" y="52.362" rx="3.543" ry="3.543"/><rect style="fill:#e8e8e8;fill-opacity:1;stroke:#000;stroke-width:.42519686;stroke-linecap:round;stroke-linejoin:round;stroke-miterlimit:4;stroke-opacity:1;stroke-dasharray:none;stroke-dashoffset:0;display:inline" id="rect6788-9-4-0" width="80" height="35" x="580" y="117.362" rx="3.543" ry="3.543"/><rect style="fill:#e8e8e8;fill-opacity:1;stroke:#000;stroke-width:.42519686;stroke-linecap:round;stroke-linejoin:round;stroke-miterlimit:4;stroke-opacity:1;stroke-dasharray:none;stroke-dashoffset:0;display:inline" id="rect6788-9-4-1" width="80" height="35" x="580" y="182.362" rx="3.543" ry="3.543"/><rect style="fill:#e8e8e8;fill-opacity:1;stroke:#000;stroke-width:.42519686;stroke-linecap:round;stroke-linejoin:round;stroke-miterlimit:4;stroke-opacity:1;stroke-dasharray:none;stroke-dashoffset:0;display:inline" id="rect6788-9-4-1-4" width="80" height="35" x="580" y="247.362" rx="3.543" ry="3.543"/><rect style="fill:#e8e8e8;fill-opacity:1;stroke:#000;stroke-width:.42519686;stroke-linecap:round;stroke-linejoin:round;stroke-miterlimit:4;stroke-opacity:1;stroke-dasharray:none;stroke-dashoffset:0;display:inline" id="rect6788-9-4-1-4-4" width="80" height="35" x="580" y="312.362" rx="3.543" ry="3.543"/><path style="fill:#e8e8e8;fill-opacity:1;stroke:#000;stroke-width:.42519686;stroke-linecap:round;stroke-linejoin:round;stroke-miterlimit:4;stroke-opacity:1;stroke-dasharray:none;stroke-dashoffset:0;display:inline" id="rect6788-0-5-5" d="m 485,237.46171 c -3,-1 -5,1 -5,3.54331 l 0,47.91339 c 0,2.5433 2,4.5433 5,3.5433 l 54,-24 c 4,-2 4,-5 0,-7 z"/><path style="fill:none;stroke:#000;stroke-width:.77952754;stroke-linecap:butt;stroke-linejoin:round;stroke-miterlimit:4;stroke-opacity:1;stroke-dasharray:none;marker-end:url(#Arrow1Mend);display:inline" id="path8845-9-3" d="m 542.17858,264.89792 35.82142,0"/><path style="fill:none;stroke:#000;stroke-width:.77952754;stroke-linecap:butt;stroke-linejoin:round;stroke-miterlimit:4;stroke-opacity:1;stroke-dasharray:none;marker-end:url(#Arrow1Mend);display:inline" id="path8845-9-7" d="m 660,134.89792 50,0"/><path style="fill:#000;fill-opacity:1;stroke:#000;stroke-width:1.0629921;stroke-linecap:round;stroke-linejoin:round;stroke-miterlimit:4;stroke-opacity:1;stroke-dasharray:none;stroke-dashoffset:0;display:inline" id="path9674-69" d="m 237,128.36218 c 0,0.55229 -0.44772,1 -1,1 -0.55228,0 -1,-0.44771 -1,-1 0,-0.55228 0.44772,-1 1,-1 0.55228,0 1,0.44772 1,1 z" transform="translate(443.93687,6.5133184)"/><path style="fill:none;stroke:#000;stroke-width:.77952754;stroke-linecap:butt;stroke-linejoin:round;stroke-miterlimit:4;stroke-opacity:1;stroke-dasharray:none;marker-end:url(#Arrow1Mend);display:inline" id="path8845-9-7-6" d="m 660,264.86722 50,0"/><path style="fill:#000;fill-opacity:1;stroke:#000;stroke-width:1.0629921;stroke-linecap:round;stroke-linejoin:round;stroke-miterlimit:4;stroke-opacity:1;stroke-dasharray:none;stroke-dashoffset:0;display:inline" id="path9674-69-7" d="m 237,128.36218 c 0,0.55229 -0.44772,1 -1,1 -0.55228,0 -1,-0.44771 -1,-1 0,-0.55228 0.44772,-1 1,-1 0.55228,0 1,0.44772 1,1 z" transform="translate(443.93687,136.48267)"/><path style="fill:none;stroke:#000;stroke-width:.77952754;stroke-linecap:round;stroke-linejoin:round;stroke-miterlimit:4;stroke-opacity:1;stroke-dasharray:none;marker-end:url(#Arrow1Mend);display:inline" id="path8845-9-7-4" d="m 680,134.36218 0,-59.464287 c 0,-3 -2,-4.999996 -5,-4.999996 l -13,0"/><path style="fill:none;stroke:#000;stroke-width:.77952754;stroke-linecap:round;stroke-linejoin:round;stroke-miterlimit:4;stroke-opacity:1;stroke-dasharray:none;marker-end:url(#Arrow1Mend);display:inline" id="path8845-9-7-4-5" d="m 680,264.36218 0,-59.44643 c 0,-3 -2,-5 -5,-5 l -13,0"/><path style="fill:none;stroke:#000;stroke-width:.77952754;stroke-linecap:round;stroke-linejoin:round;stroke-miterlimit:4;stroke-opacity:1;stroke-dasharray:none;marker-end:url(#Arrow1Mend);display:inline" id="path8845-9-7-4-6" d="m 680,265.36218 0,59.55357 c 0,3 -2,5 -5,5 l -13,0"/><path style="fill:none;stroke:#000;stroke-width:.77952754;stroke-linecap:butt;stroke-linejoin:round;stroke-miterlimit:4;stroke-opacity:1;stroke-dasharray:none;marker-end:url(#Arrow1Mend)" id="path8845-7-8" d="m 579.80353,329.8264 -114.83163,0 c -3,0 -5,-2 -5,-5 L 460,287.36218 c 0,-3.14335 1.8998,-5.05341 4.97187,-5.05341 l 13.02813,0"/><path style="fill:none;stroke:#000;stroke-width:.77952754;stroke-linecap:butt;stroke-linejoin:round;stroke-miterlimit:4;stroke-opacity:1;stroke-dasharray:none;marker-end:url(#Arrow1Mend)" id="path8845-7-8-7" d="m 579.87373,69.897897 -114.87373,0 c -3,0 -5,2 -5,5 l 0.0281,167.410873 c 0,3.14335 1.8998,5.05341 4.97187,5.05341 l 13.02813,0"/><path style="fill:none;stroke:#000;stroke-width:.77952754;stroke-linecap:butt;stroke-linejoin:round;stroke-miterlimit:4;stroke-opacity:1;stroke-dasharray:none;marker-end:url(#Arrow1Mend);display:inline" id="path8845-9-7-4-4" d="m 579.82143,199.84432 -14.82143,0 c -3,0 -5,-2 -5,-5 l 0,-54.92857 c 0,-3 2,-5 5,-5 l 13,0"/><path style="fill:none;stroke:#000;stroke-width:.77952754;stroke-linecap:round;stroke-linejoin:round;stroke-miterlimit:4;stroke-opacity:1;stroke-dasharray:3.11811024,3.11811024;stroke-dashoffset:0;marker-end:url(#Arrow1Mend)" id="path8845-1" d="m 640,167.36218 -15,0 c -3,0 -5,-2 -5,-5 l 0,-8"/><path style="fill:none;stroke:#000;stroke-width:.77952754;stroke-linecap:round;stroke-linejoin:round;stroke-miterlimit:4;stroke-opacity:1;stroke-dasharray:3.11811024,3.11811024;stroke-dashoffset:0;marker-end:url(#Arrow1Mend)" id="path8845-1-5" d="m 640,297.36218 -15,0 c -3,0 -5,-2 -5,-5 l 0,-8"/></g><g id="layer3" transform="translate(-459.58214,-52.149584)" style="display:inline"><text style="font-size:13px;font-style:italic;font-variant:normal;font-weight:400;font-stretch:normal;text-align:start;line-height:125%;letter-spacing:0;word-spacing:0;text-anchor:start;fill:#000;fill-opacity:1;stroke:none;display:inline;font-family:Linux Libertine O;-inkscape-font-specification:Sans Italic" id="text11756" x="560" y="257.362" xml:space="preserve"><tspan id="tspan11758" x="560" y="257.362" style="text-align:center;text-anchor:middle">di<tspan style="font-size:65.00091553%;text-align:center;text-anchor:middle;baseline-shift:sub" id="tspan4109">L</tspan></tspan></text><text style="font-size:13px;font-style:italic;font-variant:normal;font-weight:400;font-stretch:normal;text-align:start;line-height:125%;letter-spacing:0;word-spacing:0;text-anchor:start;fill:#000;fill-opacity:1;stroke:none;display:inline;font-family:Linux Libertine O;-inkscape-font-specification:Sans Italic" id="text11756-2" x="652" y="169.362" xml:space="preserve"><tspan id="tspan11758-4" x="652" y="169.362" style="text-align:center;text-anchor:middle">v<tspan style="font-size:65.00091553%;text-align:center;text-anchor:middle;baseline-shift:sub" id="tspan4109-4">C<tspan style="font-size:5.5px" id="tspan4486">0</tspan></tspan></tspan></text><text style="font-size:13px;font-style:italic;font-variant:normal;font-weight:400;font-stretch:normal;text-align:start;line-height:125%;letter-spacing:0;word-spacing:0;text-anchor:start;fill:#000;fill-opacity:1;stroke:none;display:inline;font-family:Linux Libertine O;-inkscape-font-specification:Sans Italic" id="text11756-3" x="695" y="257.362" xml:space="preserve"><tspan id="tspan11758-40" x="695" y="257.362" style="text-align:center;text-anchor:middle">i<tspan style="font-size:65.00091553%;text-align:center;text-anchor:middle;baseline-shift:sub" id="tspan4109-0">L</tspan></tspan></text><text style="font-size:13px;font-style:italic;font-variant:normal;font-weight:400;font-stretch:normal;text-align:start;line-height:125%;letter-spacing:0;word-spacing:0;text-anchor:start;fill:#000;fill-opacity:1;stroke:none;display:inline;font-family:Linux Libertine O;-inkscape-font-specification:Sans Italic" id="text11756-5" x="695" y="127.403" xml:space="preserve"><tspan id="tspan11758-5" x="695" y="127.403" style="text-align:center;text-anchor:middle">v<tspan style="font-size:65.00091553%;text-align:center;text-anchor:middle;baseline-shift:sub" id="tspan4109-7">C</tspan></tspan></text><text style="font-size:13px;font-style:italic;font-variant:normal;font-weight:400;font-stretch:normal;text-align:start;line-height:125%;letter-spacing:0;word-spacing:0;text-anchor:start;fill:#000;fill-opacity:1;stroke:none;display:inline;font-family:Linux Libertine O;-inkscape-font-specification:Sans Italic" id="text11756-5-9" x="546" y="169.362" xml:space="preserve"><tspan id="tspan11758-5-1" x="546" y="169.362" dx="0 -.3" style="text-align:center;text-anchor:middle">dv<tspan style="font-size:65.00091553%;text-align:center;text-anchor:middle;baseline-shift:sub" id="tspan4109-7-8">C</tspan></tspan></text><text style="font-size:13px;font-style:italic;font-variant:normal;font-weight:400;font-stretch:normal;text-align:start;line-height:125%;letter-spacing:0;word-spacing:0;text-anchor:start;fill:#000;fill-opacity:1;stroke:none;display:inline;font-family:Linux Libertine O;-inkscape-font-specification:Sans Italic" id="text11756-2-7" x="652" y="299.362" xml:space="preserve"><tspan id="tspan11758-4-4" x="652" y="299.362" style="text-align:center;text-anchor:middle">i<tspan style="font-size:65.00091553%;text-align:center;text-anchor:middle;baseline-shift:sub" id="tspan4109-4-4">L<tspan style="font-size:5.5px" id="tspan4486-5">0</tspan></tspan></tspan></text><text style="font-size:11px;font-style:normal;font-variant:normal;font-weight:400;font-stretch:normal;text-align:center;line-height:125%;letter-spacing:0;word-spacing:0;text-anchor:middle;fill:#000;fill-opacity:1;stroke:none;display:inline;font-family:Inconsolata LGC;-inkscape-font-specification:Inconsolata LGC" id="text8815-8-3" x="620" y="73.12" xml:space="preserve"><tspan id="tspan8821-8-7" x="620" y="73.12" dx="0 0 0 0 0 0 0 0" dy="0 0 0 0 0 0 0 0" style="font-size:10.5px">scale: <tspan id="tspan4065" style="font-size:10.5px;font-style:oblique;-inkscape-font-specification:Inconsolata LGC Oblique"><tspan id="tspan4548" style="font-size:10.5px;font-style:normal;-inkscape-font-specification:Inconsolata LGC">1</tspan>/L</tspan></tspan></text><text style="font-size:11px;font-style:normal;font-variant:normal;font-weight:400;font-stretch:normal;text-align:center;line-height:125%;letter-spacing:0;word-spacing:0;text-anchor:middle;fill:#000;fill-opacity:1;stroke:none;display:inline;font-family:Inconsolata LGC;-inkscape-font-specification:Inconsolata LGC" id="text8815-8-3-2" x="620" y="138.12" xml:space="preserve"><tspan id="tspan8821-8-7-7" x="620" y="138.12" style="font-size:10.5px">integral</tspan></text><text style="font-size:11px;font-style:normal;font-variant:normal;font-weight:400;font-stretch:normal;text-align:center;line-height:125%;letter-spacing:0;word-spacing:0;text-anchor:middle;fill:#000;fill-opacity:1;stroke:none;display:inline;font-family:Inconsolata LGC;-inkscape-font-specification:Inconsolata LGC" id="text8815-8-3-6" x="620" y="203.12" xml:space="preserve"><tspan id="tspan8821-8-7-1" x="620" y="203.12" dx="0 0 0 0 0 0 0 0" dy="0 0 0 0 0 0 0 0" style="font-size:10.5px">scale:-<tspan id="tspan4061" style="font-size:10.5px;font-style:oblique;-inkscape-font-specification:Inconsolata LGC Oblique"><tspan id="tspan4550" style="font-size:10.5px;font-style:normal;-inkscape-font-specification:Inconsolata LGC">1</tspan>/C</tspan></tspan></text><text style="font-size:11px;font-style:normal;font-variant:normal;font-weight:400;font-stretch:normal;text-align:center;line-height:125%;letter-spacing:0;word-spacing:0;text-anchor:middle;fill:#000;fill-opacity:1;stroke:none;display:inline;font-family:Inconsolata LGC;-inkscape-font-specification:Inconsolata LGC" id="text8815-8-3-6-3" x="620" y="268.12" xml:space="preserve"><tspan id="tspan8821-8-7-1-7" x="620" y="268.12" style="font-size:10.5px">integral</tspan></text><text style="font-size:11px;font-style:normal;font-variant:normal;font-weight:400;font-stretch:normal;text-align:center;line-height:125%;letter-spacing:0;word-spacing:0;text-anchor:middle;fill:#000;fill-opacity:1;stroke:none;display:inline;font-family:Inconsolata LGC;-inkscape-font-specification:Inconsolata LGC" id="text8815-8-3-6-3-5" x="620" y="333.12" xml:space="preserve"><tspan id="tspan8821-8-7-1-7-5" x="620" y="333.12" dx="0 0 0 0 0 0" dy="0 0 0 0 0 0" style="font-size:10.5px">scale:-<tspan id="tspan4057" style="font-size:10.5px;font-style:oblique;-inkscape-font-specification:Inconsolata LGC Oblique">R/L</tspan></tspan></text><text style="font-size:11px;font-style:normal;font-variant:normal;font-weight:400;font-stretch:normal;text-align:start;line-height:125%;letter-spacing:0;word-spacing:0;text-anchor:start;fill:#000;fill-opacity:1;stroke:none;display:inline;font-family:Inconsolata LGC;-inkscape-font-specification:Inconsolata LGC" id="text9178-7" x="489" y="268.431" xml:space="preserve"><tspan id="tspan9180-6" x="489" y="268.431" style="font-size:10.5px">add</tspan></text></g></svg>