<svg xmlns="http://www.w3.org/2000/svg" xmlns:svg="http://www.w3.org/2000/svg" id="svg2" width="177.709" height="115.531" version="1.1"><defs id="defs4"><marker id="Arrow1Mstart" orient="auto" refX="0" refY="0" style="overflow:visible"><path id="path4565" d="M 0,0 5,-5 -12.5,0 5,5 0,0 z" transform="matrix(0.4,0,0,0.4,4,0)" style="fill-rule:evenodd;stroke:#000;stroke-width:1pt;marker-start:none"/></marker><marker id="marker5346" orient="auto" refX="0" refY="0" style="overflow:visible"><path id="path5348" d="M 0,0 5,-5 -12.5,0 5,5 0,0 z" transform="matrix(0.4,0,0,0.4,4,0)" style="fill-rule:evenodd;stroke:#000;stroke-width:1pt;marker-start:none"/></marker><marker id="marker5350" orient="auto" refX="0" refY="0" style="overflow:visible"><path id="path5352" d="M 0,0 5,-5 -12.5,0 5,5 0,0 z" transform="matrix(0.4,0,0,0.4,4,0)" style="fill-rule:evenodd;stroke:#000;stroke-width:1pt;marker-start:none"/></marker><marker id="Arrow1Mstart-3" orient="auto" refX="0" refY="0" style="overflow:visible"><path id="path4565-9" d="M 0,0 5,-5 -12.5,0 5,5 0,0 z" transform="matrix(0.4,0,0,0.4,4,0)" style="fill-rule:evenodd;stroke:#000;stroke-width:1pt;marker-start:none"/></marker><marker id="marker5586" orient="auto" refX="0" refY="0" style="overflow:visible"><path id="path5588" d="M 0,0 5,-5 -12.5,0 5,5 0,0 z" transform="matrix(0.4,0,0,0.4,4,0)" style="fill-rule:evenodd;stroke:#000;stroke-width:1pt;marker-start:none"/></marker><marker id="Arrow1Mstart-4" orient="auto" refX="0" refY="0" style="overflow:visible"><path id="path4565-3" d="M 0,0 5,-5 -12.5,0 5,5 0,0 z" transform="matrix(0.4,0,0,0.4,4,0)" style="fill-rule:evenodd;stroke:#000;stroke-width:1pt;marker-start:none"/></marker><marker id="Arrow1Mstart-5" orient="auto" refX="0" refY="0" style="overflow:visible"><path id="path4565-38" d="M 0,0 5,-5 -12.5,0 5,5 0,0 z" transform="matrix(0.4,0,0,0.4,4,0)" style="fill-rule:evenodd;stroke:#000;stroke-width:1pt;marker-start:none"/></marker><marker id="Arrow1Mstart-0" orient="auto" refX="0" refY="0" style="overflow:visible"><path id="path4565-6" d="M 0,0 5,-5 -12.5,0 5,5 0,0 z" transform="matrix(0.4,0,0,0.4,4,0)" style="fill-rule:evenodd;stroke:#000;stroke-width:1pt;marker-start:none"/></marker></defs><metadata id="metadata_3.16"/><g id="layer2" transform="translate(-87.556601,-52.096432)" style="display:inline"><rect style="fill:#e8e8e8;fill-opacity:1;stroke:#000;stroke-width:.53149605;stroke-linecap:round;stroke-linejoin:round;stroke-miterlimit:4;stroke-opacity:1;stroke-dasharray:none;stroke-dashoffset:0" id="rect3794-7-1-0" width="50" height="25" x="140" y="52.362" rx="3.543" ry="3.543"/><rect style="fill:#e8e8e8;fill-opacity:1;stroke:#000;stroke-width:.53149605;stroke-linecap:round;stroke-linejoin:round;stroke-miterlimit:4;stroke-opacity:1;stroke-dasharray:none;stroke-dashoffset:0" id="rect3794-7-1-0-5" width="50" height="25" x="140" y="102.362" rx="3.543" ry="3.543"/><rect style="fill:#e8e8e8;fill-opacity:1;stroke:#000;stroke-width:.53149605;stroke-linecap:round;stroke-linejoin:round;stroke-miterlimit:4;stroke-opacity:1;stroke-dasharray:none;stroke-dashoffset:0" id="rect3794-7-1-0-6-6" width="50" height="25" x="215" y="102.362" rx="3.543" ry="3.543"/></g><g id="layer1" transform="translate(-87.556601,-52.096432)" style="display:inline"><rect style="fill:none;stroke:#000;stroke-width:.53149605;stroke-linecap:round;stroke-linejoin:round;stroke-miterlimit:4;stroke-opacity:1;stroke-dasharray:none;stroke-dashoffset:0;display:inline" id="rect3794-77-9-4-4" width="25" height="25" x="140" y="142.362" rx="3.543" ry="3.543"/><rect style="fill:none;stroke:#000;stroke-width:.53149605;stroke-linecap:round;stroke-linejoin:round;stroke-miterlimit:4;stroke-opacity:1;stroke-dasharray:none;stroke-dashoffset:0;display:inline" id="rect3794-77-9-5-9" width="25" height="25" x="215" y="142.362" rx="3.543" ry="3.543"/><path style="fill:none;stroke:#000;stroke-width:.77952754;stroke-linecap:round;stroke-linejoin:round;stroke-miterlimit:4;stroke-opacity:1;stroke-dasharray:none;marker-start:url(#Arrow1Mstart);display:inline" id="path4554-5-2-3-85" d="m 213,115.36218 -32.99998,0"/><path style="fill:#000;fill-opacity:1;stroke:#000;stroke-width:0;stroke-linecap:round;stroke-linejoin:round;stroke-miterlimit:4;stroke-opacity:1;stroke-dasharray:none;stroke-dashoffset:0;display:inline" id="path4491-44-0-1" d="m 120,84.862183 c 0,1.380711 -1.11929,2.5 -2.5,2.5 -1.38071,0 -2.5,-1.119289 -2.5,-2.5 0,-1.380712 1.11929,-2.5 2.5,-2.5 1.38071,0 2.5,1.119288 2.5,2.5 z" transform="translate(60.000016,30.499999)"/><path style="fill:#000;fill-opacity:1;stroke:#000;stroke-width:0;stroke-linecap:round;stroke-linejoin:round;stroke-miterlimit:4;stroke-opacity:1;stroke-dasharray:none;stroke-dashoffset:0;display:inline" id="path4491-4-7-7" d="m 120,84.862183 c 0,1.380711 -1.11929,2.5 -2.5,2.5 -1.38071,0 -2.5,-1.119289 -2.5,-2.5 0,-1.380712 1.11929,-2.5 2.5,-2.5 1.38071,0 2.5,1.119288 2.5,2.5 z" transform="translate(35.500003,30.472579)"/><path style="fill:none;stroke:#000;stroke-width:.77952754;stroke-linecap:round;stroke-linejoin:round;stroke-miterlimit:4;stroke-opacity:1;stroke-dasharray:none;marker-start:url(#Arrow1Mstart);display:inline" id="path4554-5-0-27" d="m 153.00002,140.36218 0,-23"/><path style="fill:none;stroke:#000;stroke-width:.53149605;stroke-linecap:butt;stroke-linejoin:miter;stroke-miterlimit:4;stroke-opacity:1;stroke-dasharray:none" id="path4405-1-3-84-0" d="m 240,102.36218 0,25"/><path style="fill:#000;fill-opacity:1;stroke:#000;stroke-width:0;stroke-linecap:round;stroke-linejoin:round;stroke-miterlimit:4;stroke-opacity:1;stroke-dasharray:none;stroke-dashoffset:0;display:inline" id="path4491-4-7-6-8" d="m 120,84.862183 c 0,1.380711 -1.11929,2.5 -2.5,2.5 -1.38071,0 -2.5,-1.119289 -2.5,-2.5 0,-1.380712 1.11929,-2.5 2.5,-2.5 1.38071,0 2.5,1.119288 2.5,2.5 z" transform="translate(110.50002,30.472579)"/><path style="fill:none;stroke:#000;stroke-width:.77952754;stroke-linecap:round;stroke-linejoin:round;stroke-miterlimit:4;stroke-opacity:1;stroke-dasharray:none;marker-start:url(#Arrow1Mstart);display:inline" id="path4554-5-0-7-2" d="m 228.00002,140.36218 0,-23"/><path style="fill:none;stroke:#000;stroke-width:.53149605;stroke-linecap:butt;stroke-linejoin:round;stroke-miterlimit:4;stroke-opacity:1;stroke-dasharray:none" id="path4373-3" d="m 240,127.36218 24,-24"/><path style="fill:none;stroke:#000;stroke-width:.53149605;stroke-linecap:butt;stroke-linejoin:miter;stroke-miterlimit:4;stroke-opacity:1;stroke-dasharray:none" id="path4405-1-3-3" d="m 165,102.36218 0,25"/><path style="fill:#000;fill-opacity:1;stroke:#000;stroke-width:0;stroke-linecap:round;stroke-linejoin:round;stroke-miterlimit:4;stroke-opacity:1;stroke-dasharray:none;stroke-dashoffset:0;display:inline" id="path4491-44-0" d="m 120,84.862183 c 0,1.380711 -1.11929,2.5 -2.5,2.5 -1.38071,0 -2.5,-1.119289 -2.5,-2.5 0,-1.380712 1.11929,-2.5 2.5,-2.5 1.38071,0 2.5,1.119288 2.5,2.5 z" transform="translate(60.000003,-19.500001)"/><path style="fill:#000;fill-opacity:1;stroke:#000;stroke-width:0;stroke-linecap:round;stroke-linejoin:round;stroke-miterlimit:4;stroke-opacity:1;stroke-dasharray:none;stroke-dashoffset:0;display:inline" id="path4491-4-7" d="m 120,84.862183 c 0,1.380711 -1.11929,2.5 -2.5,2.5 -1.38071,0 -2.5,-1.119289 -2.5,-2.5 0,-1.380712 1.11929,-2.5 2.5,-2.5 1.38071,0 2.5,1.119288 2.5,2.5 z" transform="translate(35.5,-19.52742)"/><path style="fill:none;stroke:#000;stroke-width:.77952754;stroke-linecap:round;stroke-linejoin:round;stroke-miterlimit:4;stroke-opacity:1;stroke-dasharray:none;marker-start:url(#Arrow1Mstart);display:inline" id="path4554-5-0" d="m 153.00001,100.36218 0,-33.000001"/><path style="fill:none;stroke:#000;stroke-width:.53149605;stroke-linecap:butt;stroke-linejoin:miter;stroke-miterlimit:4;stroke-opacity:1;stroke-dasharray:none" id="path4405-1-3" d="m 165,52.36218 0,25"/><path style="fill:none;stroke:#000;stroke-width:.77952754;stroke-linecap:round;stroke-linejoin:round;stroke-miterlimit:4;stroke-opacity:1;stroke-dasharray:none;marker-start:url(#Arrow1Mstart);display:inline" id="path4554-5-0-6" d="m 177.55355,100.36218 0,-32.999995"/><path style="fill:none;stroke:#000;stroke-width:.77952754;stroke-linecap:round;stroke-linejoin:round;stroke-miterlimit:4;stroke-opacity:1;stroke-dasharray:none;marker-start:url(#Arrow1Mstart);display:inline" id="path4554-9-4-6" d="m 138,65.362179 -33,0"/><path style="fill:none;stroke:#000;stroke-width:.77952754;stroke-linecap:round;stroke-linejoin:round;stroke-miterlimit:4;stroke-opacity:1;stroke-dasharray:none;marker-start:url(#Arrow1Mstart);display:inline" id="path4554-9-4-6-5" d="m 138,115.36218 -33,0"/></g><g id="layer5" transform="translate(-87.556601,-52.096432)" style="display:inline"><text style="font-size:11px;font-style:normal;font-variant:normal;font-weight:400;font-stretch:normal;text-align:end;line-height:125%;letter-spacing:0;word-spacing:0;text-anchor:end;fill:#000;fill-opacity:1;stroke:none;display:inline;font-family:Inconsolata LGC;-inkscape-font-specification:Inconsolata LGC" id="text4974" x="100" y="67.898" xml:space="preserve"><tspan id="tspan4976" x="100" y="67.898">z1</tspan></text><text style="font-size:11px;font-style:normal;font-variant:normal;font-weight:400;font-stretch:normal;text-align:end;line-height:125%;letter-spacing:0;word-spacing:0;text-anchor:end;fill:#000;fill-opacity:1;stroke:none;display:inline;font-family:Inconsolata LGC;-inkscape-font-specification:Inconsolata LGC" id="text4974-8" x="100" y="117.898" xml:space="preserve"><tspan id="tspan4976-9" x="100" y="117.898">x</tspan></text><text style="font-size:11px;font-style:normal;font-variant:normal;font-weight:400;font-stretch:normal;line-height:125%;letter-spacing:0;word-spacing:0;fill:#000;fill-opacity:1;stroke:none;display:inline;font-family:Inconsolata LGC;-inkscape-font-specification:Inconsolata LGC" id="text3007-0-2-9" x="149.268" y="157.916" xml:space="preserve"><tspan id="tspan3009-8-5-1" x="149.268" y="157.916" style="font-weight:400;-inkscape-font-specification:Inconsolata LGC">a</tspan></text><text style="font-size:11px;font-style:normal;font-variant:normal;font-weight:400;font-stretch:normal;line-height:125%;letter-spacing:0;word-spacing:0;fill:#000;fill-opacity:1;stroke:none;display:inline;font-family:Inconsolata LGC;-inkscape-font-specification:Inconsolata LGC" id="text3007-0-7-1" x="224" y="158.184" xml:space="preserve"><tspan id="tspan3009-8-52-2" x="224" y="158.184" style="font-weight:400;-inkscape-font-specification:Inconsolata LGC">b</tspan></text></g></svg>