<svg xmlns="http://www.w3.org/2000/svg" xmlns:svg="http://www.w3.org/2000/svg" id="svg3170" width="388.039" height="183.288" version="1.1"><defs id="defs3172"><marker id="Arrow1Mend-6" orient="auto" refX="0" refY="0" style="overflow:visible"><path id="path3809-6-2" d="M 0,0 5,-5 -12.5,0 5,5 0,0 z" transform="matrix(-0.4,0,0,-0.4,-4,0)" style="fill-rule:evenodd;stroke:#000;stroke-width:1pt;marker-start:none"/></marker><marker id="marker3973" orient="auto" refX="0" refY="0" style="overflow:visible"><path id="path3975" d="M 0,0 5,-5 -12.5,0 5,5 0,0 z" transform="matrix(-0.4,0,0,-0.4,-4,0)" style="fill-rule:evenodd;stroke:#000;stroke-width:1pt;marker-start:none"/></marker><marker id="marker3977" orient="auto" refX="0" refY="0" style="overflow:visible"><path id="path3979" d="M 0,0 5,-5 -12.5,0 5,5 0,0 z" transform="matrix(-0.4,0,0,-0.4,-4,0)" style="fill-rule:evenodd;stroke:#000;stroke-width:1pt;marker-start:none"/></marker><marker id="marker3981" orient="auto" refX="0" refY="0" style="overflow:visible"><path id="path3983" d="M 0,0 5,-5 -12.5,0 5,5 0,0 z" transform="matrix(-0.4,0,0,-0.4,-4,0)" style="fill-rule:evenodd;stroke:#000;stroke-width:1pt;marker-start:none"/></marker><marker id="Arrow1Mend" orient="auto" refX="0" refY="0" style="overflow:visible"><path id="path3809" d="M 0,0 5,-5 -12.5,0 5,5 0,0 z" transform="matrix(-0.4,0,0,-0.4,-4,0)" style="fill-rule:evenodd;stroke:#000;stroke-width:1pt;marker-start:none"/></marker><marker id="marker3987" orient="auto" refX="0" refY="0" style="overflow:visible"><path id="path3989" d="M 0,0 5,-5 -12.5,0 5,5 0,0 z" transform="matrix(-0.4,0,0,-0.4,-4,0)" style="fill-rule:evenodd;stroke:#000;stroke-width:1pt;marker-start:none"/></marker><marker id="Arrow1Mend-6-9" orient="auto" refX="0" refY="0" style="overflow:visible"><path id="path3809-6-2-9" d="M 0,0 5,-5 -12.5,0 5,5 0,0 z" transform="matrix(-0.4,0,0,-0.4,-4,0)" style="fill-rule:evenodd;stroke:#000;stroke-width:1pt;marker-start:none"/></marker><marker id="marker4149" orient="auto" refX="0" refY="0" style="overflow:visible"><path id="path4151" d="M 0,0 5,-5 -12.5,0 5,5 0,0 z" transform="matrix(-0.4,0,0,-0.4,-4,0)" style="fill-rule:evenodd;stroke:#000;stroke-width:1pt;marker-start:none"/></marker><marker id="Arrow1Mend-6-2" orient="auto" refX="0" refY="0" style="overflow:visible"><path id="path3809-6-2-5" d="M 0,0 5,-5 -12.5,0 5,5 0,0 z" transform="matrix(-0.4,0,0,-0.4,-4,0)" style="fill-rule:evenodd;stroke:#000;stroke-width:1pt;marker-start:none"/></marker><marker id="marker4580" orient="auto" refX="0" refY="0" style="overflow:visible"><path id="path4582" d="M 0,0 5,-5 -12.5,0 5,5 0,0 z" transform="matrix(-0.4,0,0,-0.4,-4,0)" style="fill-rule:evenodd;stroke:#000;stroke-width:1pt;marker-start:none"/></marker><marker id="Arrow1Mend-6-4" orient="auto" refX="0" refY="0" style="overflow:visible"><path id="path3809-6-2-51" d="M 0,0 5,-5 -12.5,0 5,5 0,0 z" transform="matrix(-0.4,0,0,-0.4,-4,0)" style="fill-rule:evenodd;stroke:#000;stroke-width:1pt;marker-start:none"/></marker><marker id="marker4680" orient="auto" refX="0" refY="0" style="overflow:visible"><path id="path4682" d="M 0,0 5,-5 -12.5,0 5,5 0,0 z" transform="matrix(-0.4,0,0,-0.4,-4,0)" style="fill-rule:evenodd;stroke:#000;stroke-width:1pt;marker-start:none"/></marker></defs><metadata id="metadata_3.5"/><g id="layer2" transform="translate(-87.22714,-97.096435)" style="display:inline"><path style="fill:#e8e8e8;fill-opacity:1;stroke:#000;stroke-width:.53149605;stroke-linecap:round;stroke-linejoin:round;stroke-miterlimit:4;stroke-opacity:1;stroke-dasharray:none;stroke-dashoffset:0" id="rect5327" d="m 150,97.362183 320,0 c 3,0 5,2 5,4.999997 l 0,50 c 0,3 -2,5 -5,5 l -320,0 c -3,0 -5,-2 -5,-5 l 0,-50 c 0,-2.999997 2,-4.999997 5,-4.999997 z"/><path style="fill:none;stroke:#000;stroke-width:.77952754;stroke-linecap:round;stroke-linejoin:round;stroke-miterlimit:4;stroke-opacity:1;stroke-dasharray:none;marker-end:url(#Arrow1Mend-6)" id="path4451" d="m 125,127.36218 18,0"/><path style="fill:#e8e8e8;fill-opacity:1;stroke:#000;stroke-width:.53149605;stroke-linecap:round;stroke-linejoin:round;stroke-miterlimit:4;stroke-opacity:1;stroke-dasharray:none;stroke-dashoffset:0" id="rect5327-2" d="m 340,177.36218 35,0 c 3,0 5,2 5,5 l 0,35.00001 c 0,3 -2,5 -5,5 l -35,0 c -3,0 -5,-2 -5,-5 l 0,-35.00001 c 0,-3 2,-5 5,-5 z"/><path style="fill:none;stroke:#000;stroke-width:.77952754;stroke-linecap:round;stroke-linejoin:round;stroke-miterlimit:4;stroke-opacity:1;stroke-dasharray:none;marker-end:url(#Arrow1Mend-6)" id="path4451-8" d="m 320,200.00505 13,0"/><path style="fill:none;stroke:#000;stroke-width:.77952754;stroke-linecap:round;stroke-linejoin:round;stroke-miterlimit:4;stroke-opacity:1;stroke-dasharray:none;marker-end:url(#Arrow1Mend-6)" id="path4451-8-3" d="m 357.64286,177.36219 0,-18.00001"/><path style="fill:#e8e8e8;fill-opacity:1;stroke:#000;stroke-width:.53149605;stroke-linecap:round;stroke-linejoin:round;stroke-miterlimit:4;stroke-opacity:1;stroke-dasharray:none;stroke-dashoffset:0" id="rect5327-2-7" d="m 150,177.36218 35,0 c 3,0 5,2 5,5 l 0,35.00001 c 0,3 -2,5 -5,5 l -35,0 c -3,0 -5,-2 -5,-5 l 0,-35.00001 c 0,-3 2,-5 5,-5 z"/><path style="fill:none;stroke:#000;stroke-width:.77952754;stroke-linecap:round;stroke-linejoin:round;stroke-miterlimit:4;stroke-opacity:1;stroke-dasharray:none;marker-end:url(#Arrow1Mend-6)" id="path4451-8-5" d="m 130,200.00505 13,0"/><path style="fill:none;stroke:#000;stroke-width:.77952754;stroke-linecap:round;stroke-linejoin:round;stroke-miterlimit:4;stroke-opacity:1;stroke-dasharray:none;marker-end:url(#Arrow1Mend-6)" id="path4451-8-3-5" d="m 167.64286,177.36219 0,-18.00001"/><path style="fill:#e8e8e8;fill-opacity:1;stroke:#000;stroke-width:.53149605;stroke-linecap:round;stroke-linejoin:round;stroke-miterlimit:4;stroke-opacity:1;stroke-dasharray:none;stroke-dashoffset:0" id="rect5327-2-9" d="m 245,177.36218 35,0 c 3,0 5,2 5,5 l 0,35.00001 c 0,3 -2,5 -5,5 l -35,0 c -3,0 -5,-2 -5,-5 l 0,-35.00001 c 0,-3 2,-5 5,-5 z"/><path style="fill:none;stroke:#000;stroke-width:.77952754;stroke-linecap:round;stroke-linejoin:round;stroke-miterlimit:4;stroke-opacity:1;stroke-dasharray:none;marker-end:url(#Arrow1Mend-6)" id="path4451-8-9" d="m 225,200.00505 13,0"/><path style="fill:none;stroke:#000;stroke-width:.77952754;stroke-linecap:round;stroke-linejoin:round;stroke-miterlimit:4;stroke-opacity:1;stroke-dasharray:none;marker-end:url(#Arrow1Mend-6)" id="path4451-8-3-57" d="m 262.64287,177.36219 0,-18.00001"/><path style="fill:#e8e8e8;fill-opacity:1;stroke:#000;stroke-width:.53149605;stroke-linecap:round;stroke-linejoin:round;stroke-miterlimit:4;stroke-opacity:1;stroke-dasharray:none;stroke-dashoffset:0" id="rect5327-2-6" d="m 435,177.36218 35,0 c 3,0 5,2 5,5 l 0,35.00001 c 0,3 -2,5 -5,5 l -35,0 c -3,0 -5,-2 -5,-5 l 0,-35.00001 c 0,-3 2,-5 5,-5 z"/><path style="fill:none;stroke:#000;stroke-width:.77952754;stroke-linecap:round;stroke-linejoin:round;stroke-miterlimit:4;stroke-opacity:1;stroke-dasharray:none;marker-end:url(#Arrow1Mend-6)" id="path4451-8-34" d="m 415,200.00505 13,0"/><path style="fill:none;stroke:#000;stroke-width:.77952754;stroke-linecap:round;stroke-linejoin:round;stroke-miterlimit:4;stroke-opacity:1;stroke-dasharray:none;marker-end:url(#Arrow1Mend-6)" id="path4451-8-3-3" d="m 452.64287,177.36219 0,-18.00001"/></g><g id="layer3" transform="translate(-87.22714,-97.096435)" style="display:inline"><text style="font-size:11px;font-style:normal;font-variant:normal;font-weight:400;font-stretch:normal;text-align:start;line-height:125%;letter-spacing:0;word-spacing:0;text-anchor:start;fill:#000;fill-opacity:1;stroke:none;font-family:Inconsolata LGC;-inkscape-font-specification:Inconsolata LGC" id="text6293-5" x="430" y="247.362" xml:space="preserve"><tspan id="tspan6295-8" x="430" y="247.362" dy="0 0 0">(* x x)</tspan></text><text style="font-size:11px;font-style:normal;font-variant:normal;font-weight:400;font-stretch:normal;text-align:start;line-height:125%;letter-spacing:0;word-spacing:0;text-anchor:start;fill:#000;fill-opacity:1;stroke:none;font-family:Inconsolata LGC;-inkscape-font-specification:Inconsolata LGC" id="text6297-4" x="439.713" y="195.651" xml:space="preserve"><tspan id="tspan6299-6" x="439.713" y="195.651">x:10</tspan></text><text style="font-size:11px;font-style:normal;font-variant:normal;font-weight:400;font-stretch:normal;text-align:start;line-height:125%;letter-spacing:0;word-spacing:0;text-anchor:start;fill:#000;fill-opacity:1;stroke:none;font-family:Inconsolata LGC;-inkscape-font-specification:Inconsolata LGC" id="text6301-1" x="399" y="203.719" xml:space="preserve"><tspan id="tspan6303-99" x="399" y="203.719">E4</tspan></text><text style="font-size:11px;font-style:normal;font-variant:normal;font-weight:400;font-stretch:normal;text-align:start;line-height:125%;letter-spacing:0;word-spacing:0;text-anchor:start;fill:#000;fill-opacity:1;stroke:none;font-family:Inconsolata LGC;-inkscape-font-specification:Inconsolata LGC" id="text6293" x="335" y="247.362" xml:space="preserve"><tspan id="tspan6295" x="335" y="247.362" dy="0 0 0">(* x x)</tspan></text><text style="font-size:11px;font-style:normal;font-variant:normal;font-weight:400;font-stretch:normal;text-align:start;line-height:125%;letter-spacing:0;word-spacing:0;text-anchor:start;fill:#000;fill-opacity:1;stroke:none;font-family:Inconsolata LGC;-inkscape-font-specification:Inconsolata LGC" id="text6297" x="344.713" y="195.651" xml:space="preserve"><tspan id="tspan6299" x="344.713" y="195.651">x:6</tspan></text><text style="font-size:11px;font-style:normal;font-variant:normal;font-weight:400;font-stretch:normal;text-align:start;line-height:125%;letter-spacing:0;word-spacing:0;text-anchor:start;fill:#000;fill-opacity:1;stroke:none;font-family:Inconsolata LGC;-inkscape-font-specification:Inconsolata LGC" id="text6301" x="304" y="203.719" xml:space="preserve"><tspan id="tspan6303" x="304" y="203.719">E3</tspan></text><text style="font-size:11px;font-style:normal;font-variant:normal;font-weight:400;font-stretch:normal;text-align:start;line-height:139.99999762%;letter-spacing:0;word-spacing:0;text-anchor:start;fill:#000;fill-opacity:1;stroke:none;font-family:Inconsolata LGC;-inkscape-font-specification:Inconsolata LGC" id="text6293-6" x="220" y="247.362" xml:space="preserve"><tspan id="tspan6295-6" x="220" y="247.362" dy="0">(+ (square x)</tspan><tspan id="tspan4730" x="220" y="262.762" dy="0 0 0 0 0 0 0 0 0 0 0 0 0 0 0"> (square y))</tspan></text><text style="font-size:11px;font-style:normal;font-variant:normal;font-weight:400;font-stretch:normal;text-align:start;line-height:125%;letter-spacing:0;word-spacing:0;text-anchor:start;fill:#000;fill-opacity:1;stroke:none;font-family:Inconsolata LGC;-inkscape-font-specification:Inconsolata LGC" id="text6297-1" x="249.713" y="195.651" xml:space="preserve"><tspan id="tspan6299-83" x="249.713" y="195.651">x:6</tspan></text><text style="font-size:11px;font-style:normal;font-variant:normal;font-weight:400;font-stretch:normal;text-align:start;line-height:125%;letter-spacing:0;word-spacing:0;text-anchor:start;fill:#000;fill-opacity:1;stroke:none;font-family:Inconsolata LGC;-inkscape-font-specification:Inconsolata LGC" id="text6297-5-2" x="250" y="210.362" xml:space="preserve"><tspan id="tspan6299-9-9" x="250" y="210.362">y:10</tspan></text><text style="font-size:11px;font-style:normal;font-variant:normal;font-weight:400;font-stretch:normal;text-align:start;line-height:125%;letter-spacing:0;word-spacing:0;text-anchor:start;fill:#000;fill-opacity:1;stroke:none;font-family:Inconsolata LGC;-inkscape-font-specification:Inconsolata LGC" id="text6301-5" x="209" y="203.719" xml:space="preserve"><tspan id="tspan6303-9" x="209" y="203.719">E2</tspan></text><text style="font-size:11px;font-style:normal;font-variant:normal;font-weight:400;font-stretch:normal;text-align:start;line-height:139.99999762%;letter-spacing:0;word-spacing:0;text-anchor:start;fill:#000;fill-opacity:1;stroke:none;font-family:Inconsolata LGC;-inkscape-font-specification:Inconsolata LGC" id="text6293-4" x="100" y="247.362" xml:space="preserve"><tspan id="tspan6295-2" x="100" y="247.362">(sum-of-squares</tspan><tspan id="tspan4564" x="100" y="262.762"> (+ a 1)</tspan><tspan id="tspan4566" x="100" y="278.162" dy="0 0 0 0 0"> (* a 2))</tspan></text><text style="font-size:11px;font-style:normal;font-variant:normal;font-weight:400;font-stretch:normal;text-align:start;line-height:125%;letter-spacing:0;word-spacing:0;text-anchor:start;fill:#000;fill-opacity:1;stroke:none;font-family:Inconsolata LGC;-inkscape-font-specification:Inconsolata LGC" id="text6297-9" x="154.713" y="195.651" xml:space="preserve"><tspan id="tspan6299-8" x="154.713" y="195.651">a:5</tspan></text><text style="font-size:11px;font-style:normal;font-variant:normal;font-weight:400;font-stretch:normal;text-align:start;line-height:125%;letter-spacing:0;word-spacing:0;text-anchor:start;fill:#000;fill-opacity:1;stroke:none;font-family:Inconsolata LGC;-inkscape-font-specification:Inconsolata LGC" id="text6301-2" x="114" y="203.719" xml:space="preserve"><tspan id="tspan6303-1" x="114" y="203.719">E1</tspan></text><text style="font-size:11px;font-style:normal;font-variant:normal;font-weight:400;font-stretch:normal;text-align:start;line-height:125%;letter-spacing:0;word-spacing:0;text-anchor:start;fill:#000;fill-opacity:1;stroke:none;font-family:Inconsolata LGC;-inkscape-font-specification:Inconsolata LGC" id="text5485" x="85.357" y="172.362" xml:space="preserve"><tspan id="tspan5589" x="85.357" y="172.362" dy="0 0 0 0 0">(f 5)</tspan></text><text style="font-size:11px;font-style:normal;font-variant:normal;font-weight:400;font-stretch:normal;text-align:start;line-height:129.99999523%;letter-spacing:0;word-spacing:0;text-anchor:start;fill:#000;fill-opacity:1;stroke:none;font-family:Inconsolata LGC;-inkscape-font-specification:Inconsolata LGC" id="text5477" x="87" y="122.786" xml:space="preserve"><tspan id="tspan5479" x="87" y="122.786" style="font-size:13px;font-style:normal;font-variant:normal;font-weight:400;font-stretch:normal;line-height:129.99999523%;font-family:Linux Biolinum O;-inkscape-font-specification:Linux Biolinum O">global</tspan><tspan style="font-size:13px;font-style:normal;font-variant:normal;font-weight:400;font-stretch:normal;line-height:129.99999523%;font-family:Linux Biolinum O;-inkscape-font-specification:Linux Biolinum O" id="tspan5507" x="87" y="139.686">env</tspan></text></g></svg>