<svg xmlns="http://www.w3.org/2000/svg" xmlns:svg="http://www.w3.org/2000/svg" id="svg4152" width="374.85" height="194.214" version="1.1"><defs id="defs4154"><marker id="Arrow1Mend-6" orient="auto" refX="0" refY="0" style="overflow:visible"><path id="path3809-6-2" d="M 0,0 5,-5 -12.5,0 5,5 0,0 z" transform="matrix(-0.4,0,0,-0.4,-4,0)" style="fill-rule:evenodd;stroke:#000;stroke-width:1pt;marker-start:none"/></marker><marker id="marker5058" orient="auto" refX="0" refY="0" style="overflow:visible"><path id="path5060" d="M 0,0 5,-5 -12.5,0 5,5 0,0 z" transform="matrix(-0.4,0,0,-0.4,-4,0)" style="fill-rule:evenodd;stroke:#000;stroke-width:1pt;marker-start:none"/></marker><marker id="marker5062" orient="auto" refX="0" refY="0" style="overflow:visible"><path id="path5064" d="M 0,0 5,-5 -12.5,0 5,5 0,0 z" transform="matrix(-0.4,0,0,-0.4,-4,0)" style="fill-rule:evenodd;stroke:#000;stroke-width:1pt;marker-start:none"/></marker><marker id="marker5066" orient="auto" refX="0" refY="0" style="overflow:visible"><path id="path5068" d="M 0,0 5,-5 -12.5,0 5,5 0,0 z" transform="matrix(-0.4,0,0,-0.4,-4,0)" style="fill-rule:evenodd;stroke:#000;stroke-width:1pt;marker-start:none"/></marker><marker id="Arrow1Mend" orient="auto" refX="0" refY="0" style="overflow:visible"><path id="path3809" d="M 0,0 5,-5 -12.5,0 5,5 0,0 z" transform="matrix(-0.4,0,0,-0.4,-4,0)" style="fill-rule:evenodd;stroke:#000;stroke-width:1pt;marker-start:none"/></marker><marker id="marker5072" orient="auto" refX="0" refY="0" style="overflow:visible"><path id="path5074" d="M 0,0 5,-5 -12.5,0 5,5 0,0 z" transform="matrix(-0.4,0,0,-0.4,-4,0)" style="fill-rule:evenodd;stroke:#000;stroke-width:1pt;marker-start:none"/></marker><marker id="Arrow1Mend-3" orient="auto" refX="0" refY="0" style="overflow:visible"><path id="path3809-6" d="M 0,0 5,-5 -12.5,0 5,5 0,0 z" transform="matrix(-0.4,0,0,-0.4,-4,0)" style="fill-rule:evenodd;stroke:#000;stroke-width:1pt;marker-start:none"/></marker><marker id="Arrow1Mend-6-4" orient="auto" refX="0" refY="0" style="overflow:visible"><path id="path3809-6-2-9" d="M 0,0 5,-5 -12.5,0 5,5 0,0 z" transform="matrix(-0.4,0,0,-0.4,-4,0)" style="fill-rule:evenodd;stroke:#000;stroke-width:1pt;marker-start:none"/></marker><marker id="Arrow1Mend-4" orient="auto" refX="0" refY="0" style="overflow:visible"><path id="path3809-68" d="M 0,0 5,-5 -12.5,0 5,5 0,0 z" transform="matrix(-0.4,0,0,-0.4,-4,0)" style="fill-rule:evenodd;stroke:#000;stroke-width:1pt;marker-start:none"/></marker><marker id="Arrow1Mend-6-9" orient="auto" refX="0" refY="0" style="overflow:visible"><path id="path3809-6-2-3" d="M 0,0 5,-5 -12.5,0 5,5 0,0 z" transform="matrix(-0.4,0,0,-0.4,-4,0)" style="fill-rule:evenodd;stroke:#000;stroke-width:1pt;marker-start:none"/></marker></defs><metadata id="metadata_3.9"/><g id="layer2" transform="translate(-75.416,-72.096438)" style="display:inline"><path style="fill:#e8e8e8;fill-opacity:1;stroke:#000;stroke-width:.53149605;stroke-linecap:round;stroke-linejoin:round;stroke-miterlimit:4;stroke-opacity:1;stroke-dasharray:none;stroke-dashoffset:0" id="rect5327" d="m 145,72.362186 300,0 c 3,0 5,2 5,5 l 0,44.999994 c 0,3 -2,5 -5,5 l -300,0 c -3,0 -5,-2 -5,-5 l 0,-44.999994 c 0,-3 2,-5 5,-5 z"/><path style="fill:none;stroke:#000;stroke-width:.77952754;stroke-linecap:round;stroke-linejoin:round;stroke-miterlimit:4;stroke-opacity:1;stroke-dasharray:none;marker-end:url(#Arrow1Mend)" id="path3795" d="m 205,197.36218 85,0 c 3.08929,0 5.08929,-2 5.08929,-5 l 0,-13"/><path style="fill:none;stroke:#000;stroke-width:.77952754;stroke-linecap:round;stroke-linejoin:round;stroke-miterlimit:4;stroke-opacity:1;stroke-dasharray:none;marker-end:url(#Arrow1Mend)" id="path3795-5" d="m 178,112.36218 7.53571,0 c 3.08929,0 5.08929,2 5.08929,5 l 0,66"/><path style="fill:none;stroke:#000;stroke-width:.77952754;stroke-linecap:round;stroke-linejoin:round;stroke-miterlimit:4;stroke-opacity:1;stroke-dasharray:none;marker-end:url(#Arrow1Mend-6)" id="path4451" d="m 115,100.36218 23,0"/><path style="fill:none;stroke:#000;stroke-width:.77952754;stroke-linecap:round;stroke-linejoin:round;stroke-miterlimit:4;stroke-opacity:1;stroke-dasharray:none;marker-end:url(#Arrow1Mend-6)" id="path4451-5" d="m 179,199.91575 0,27"/><path style="fill:#000;fill-opacity:1;stroke:#000;stroke-width:.35433072;stroke-linecap:round;stroke-linejoin:round;stroke-miterlimit:4;stroke-opacity:1;stroke-dasharray:none;stroke-dashoffset:0" id="path5407" d="m 190,179.86218 c 0,1.38071 -1.11929,2.5 -2.5,2.5 -1.38071,0 -2.5,-1.11929 -2.5,-2.5 0,-1.38071 1.11929,-2.5 2.5,-2.5 1.38071,0 2.5,1.11929 2.5,2.5 z" transform="translate(-8.4999995,17.553579)"/><path style="fill:#000;fill-opacity:1;stroke:#000;stroke-width:.35433072;stroke-linecap:round;stroke-linejoin:round;stroke-miterlimit:4;stroke-opacity:1;stroke-dasharray:none;stroke-dashoffset:0" id="path5407-7" d="m 190,179.86218 c 0,1.38071 -1.11929,2.5 -2.5,2.5 -1.38071,0 -2.5,-1.11929 -2.5,-2.5 0,-1.38071 1.11929,-2.5 2.5,-2.5 1.38071,0 2.5,1.11929 2.5,2.5 z" transform="translate(14.94643,17.553579)"/><path style="fill:none;stroke:#000;stroke-width:.50838757;stroke-linecap:round;stroke-linejoin:round;stroke-miterlimit:4;stroke-opacity:1;stroke-dasharray:none;stroke-dashoffset:0" id="path5435-9" d="m 199.17081,180.36218 c 0,6.16947 -5.00134,11.17081 -11.17081,11.17081 -6.16947,0 -11.17081,-5.00134 -11.17081,-11.17081 0,-6.16946 5.00134,-11.17081 11.17081,-11.17081 6.16947,0 11.17081,5.00135 11.17081,11.17081 z" transform="matrix(1.0454545,0,0,1.0454545,5.9545455,8.8552982)"/><path style="fill:none;stroke:#000;stroke-width:.50838757;stroke-linecap:round;stroke-linejoin:round;stroke-miterlimit:4;stroke-opacity:1;stroke-dasharray:none;stroke-dashoffset:0" id="path5435-9-6" d="m 199.17081,180.36218 c 0,6.16947 -5.00134,11.17081 -11.17081,11.17081 -6.16947,0 -11.17081,-5.00134 -11.17081,-11.17081 0,-6.16946 5.00134,-11.1708 11.17081,-11.1708 6.16947,0 11.17081,5.00134 11.17081,11.1708 z" transform="matrix(1.0454545,0,0,1.0454545,-17.545446,8.8553052)"/><path style="fill:#e8e8e8;fill-opacity:1;stroke:#000;stroke-width:.53149605;stroke-linecap:round;stroke-linejoin:round;stroke-miterlimit:4;stroke-opacity:1;stroke-dasharray:none;stroke-dashoffset:0" id="rect5327-2" d="m 250,147.36218 90,0 c 3,0 5,2 5,5 l 0,20 c 0,3 -2,5 -5,5 l -90,0 c -3,0 -5,-2 -5,-5 l 0,-20 c 0,-3 2,-5 5,-5 z"/><path style="fill:none;stroke:#000;stroke-width:.77952754;stroke-linecap:round;stroke-linejoin:round;stroke-miterlimit:4;stroke-opacity:1;stroke-dasharray:none;marker-end:url(#Arrow1Mend-6)" id="path4451-8" d="m 230,162.36218 13,0"/><path style="fill:none;stroke:#000;stroke-width:.77952754;stroke-linecap:round;stroke-linejoin:round;stroke-miterlimit:4;stroke-opacity:1;stroke-dasharray:none;marker-end:url(#Arrow1Mend-6)" id="path4451-8-3" d="m 295,147.36218 0,-18"/></g><g id="layer3" transform="translate(-75.416,-72.096438)" style="display:inline"><text style="font-size:11px;font-style:normal;font-variant:normal;font-weight:400;font-stretch:normal;text-align:start;line-height:125%;letter-spacing:0;word-spacing:0;text-anchor:start;fill:#000;fill-opacity:1;stroke:none;font-family:Inconsolata LGC;-inkscape-font-specification:Inconsolata LGC" id="text6301" x="214" y="166.076" xml:space="preserve"><tspan id="tspan6303" x="214" y="166.076">E1</tspan></text><text style="font-size:11px;font-style:normal;font-variant:normal;font-weight:400;font-stretch:normal;text-align:start;line-height:125%;letter-spacing:0;word-spacing:0;text-anchor:start;fill:#000;fill-opacity:1;stroke:none;font-family:Inconsolata LGC;-inkscape-font-specification:Inconsolata LGC" id="text5493" x="155" y="92.362" xml:space="preserve"><tspan id="tspan5495" x="155" y="92.362">make-withdraw: ...</tspan></text><text style="font-size:11px;font-style:normal;font-variant:normal;font-weight:400;font-stretch:normal;text-align:start;line-height:125%;letter-spacing:0;word-spacing:0;text-anchor:start;fill:#000;fill-opacity:1;stroke:none;font-family:Inconsolata LGC;-inkscape-font-specification:Inconsolata LGC" id="text5473" x="155" y="115.291" xml:space="preserve"><tspan id="tspan5475" x="155" y="115.291">W1:</tspan></text><text style="font-size:11px;font-style:normal;font-variant:normal;font-weight:400;font-stretch:normal;text-align:start;line-height:129.99999523%;letter-spacing:0;word-spacing:0;text-anchor:start;fill:#000;fill-opacity:1;stroke:none;font-family:Inconsolata LGC;-inkscape-font-specification:Inconsolata LGC" id="text5477" x="75" y="95.281" xml:space="preserve"><tspan id="tspan5479" x="75" y="95.281" style="font-size:13px;font-style:normal;font-variant:normal;font-weight:400;font-stretch:normal;line-height:129.99999523%;font-family:Linux Biolinum O;-inkscape-font-specification:Linux Biolinum O">global</tspan><tspan style="font-size:13px;font-style:normal;font-variant:normal;font-weight:400;font-stretch:normal;line-height:129.99999523%;font-family:Linux Biolinum O;-inkscape-font-specification:Linux Biolinum O" id="tspan5507" x="75" y="112.181">env</tspan></text><text style="font-size:11px;font-style:normal;font-variant:normal;font-weight:400;font-stretch:normal;text-align:center;line-height:125%;letter-spacing:0;word-spacing:0;text-anchor:middle;fill:#000;fill-opacity:1;stroke:none;font-family:Inconsolata LGC;-inkscape-font-specification:Inconsolata LGC" id="text6297" x="295" y="166.187" xml:space="preserve"><tspan id="tspan6299" x="295" y="166.187">balance: 50</tspan></text><text style="font-size:13px;font-style:normal;font-variant:normal;font-weight:400;font-stretch:normal;text-align:start;line-height:129.99999523%;letter-spacing:0;word-spacing:0;text-anchor:start;fill:#000;fill-opacity:1;stroke:none;font-family:Linux Biolinum O;-inkscape-font-specification:Sans" id="text5497" x="120" y="244.362" xml:space="preserve"><tspan id="tspan5499" x="120" y="244.362" style="line-height:129.99999523%">parameters: <tspan style="font-size:11px;font-style:normal;font-variant:normal;font-weight:400;font-stretch:normal;line-height:129.99999523%;font-family:Inconsolata LGC;-inkscape-font-specification:Inconsolata LGC" id="tspan5868" dx="2.5">amount</tspan></tspan><tspan id="tspan5914" x="120" y="263.229" style="font-style:normal;font-variant:normal;font-weight:400;font-stretch:normal;line-height:129.99999523%;font-family:Linux Biolinum O;-inkscape-font-specification:Sans">body: <tspan style="font-size:11px;font-style:normal;font-variant:normal;font-weight:400;font-stretch:normal;line-height:129.99999523%;font-family:Inconsolata LGC;-inkscape-font-specification:Inconsolata LGC" id="tspan5503">...</tspan></tspan></text></g></svg>