<svg xmlns="http://www.w3.org/2000/svg" xmlns:svg="http://www.w3.org/2000/svg" id="svg2" width="261.364" height="110.097" version="1.1"><defs id="defs4"><marker id="Arrow1Mend" orient="auto" refX="0" refY="0" style="overflow:visible"><path id="path4415" d="M 0,0 5,-5 -12.5,0 5,5 0,0 z" transform="matrix(-0.4,0,0,-0.4,-4,0)" style="fill-rule:evenodd;stroke:#000;stroke-width:1pt;marker-start:none"/></marker><marker id="Arrow1Mend-2" orient="auto" refX="0" refY="0" style="overflow:visible"><path id="path4415-3" d="M 0,0 5,-5 -12.5,0 5,5 0,0 z" transform="matrix(-0.4,0,0,-0.4,-4,0)" style="fill-rule:evenodd;stroke:#000;stroke-width:1pt;marker-start:none"/></marker><marker id="Arrow1Mend-8" orient="auto" refX="0" refY="0" style="overflow:visible"><path id="path4415-2" d="M 0,0 5,-5 -12.5,0 5,5 0,0 z" transform="matrix(-0.4,0,0,-0.4,-4,0)" style="fill-rule:evenodd;stroke:#000;stroke-width:1pt;marker-start:none"/></marker><marker id="Arrow1Mend-3" orient="auto" refX="0" refY="0" style="overflow:visible"><path id="path4415-28" d="M 0,0 5,-5 -12.5,0 5,5 0,0 z" transform="matrix(-0.4,0,0,-0.4,-4,0)" style="fill-rule:evenodd;stroke:#000;stroke-width:1pt;marker-start:none"/></marker></defs><metadata id="metadata_3.34"/><g id="layer1" transform="translate(-149.61024,-187.65518)" style="display:inline"><rect style="fill:#e8e8e8;fill-opacity:1;stroke:#000;stroke-width:.53149605;stroke-linecap:round;stroke-linejoin:round;stroke-miterlimit:4;stroke-opacity:1;stroke-dasharray:none;stroke-dashoffset:0;display:inline" id="rect6788-91" width="80" height="55" x="285" y="222.362" rx="3.543" ry="3.543"/><rect style="fill:#e8e8e8;fill-opacity:1;stroke:#000;stroke-width:.53149605;stroke-linecap:round;stroke-linejoin:round;stroke-miterlimit:4;stroke-opacity:1;stroke-dasharray:none;stroke-dashoffset:0;display:inline" id="rect6788" width="80" height="55" x="170" y="222.362" rx="3.543" ry="3.543"/><path style="fill:none;stroke:#000;stroke-width:.77952754;stroke-linecap:butt;stroke-linejoin:round;stroke-miterlimit:4;stroke-opacity:1;stroke-dasharray:none;marker-end:url(#Arrow1Mend);display:inline" id="path8845-9" d="m 250,249.91573 33,0"/><path style="fill:none;stroke:#000;stroke-width:.77952754;stroke-linecap:butt;stroke-linejoin:round;stroke-miterlimit:4;stroke-opacity:1;stroke-dasharray:none;marker-end:url(#Arrow1Mend);display:inline" id="path8845-9-1" d="m 365,249.89792 45,0"/><path style="fill:none;stroke:#000;stroke-width:.77952754;stroke-linecap:round;stroke-linejoin:round;stroke-miterlimit:4;stroke-opacity:1;stroke-dasharray:none;marker-end:url(#Arrow1Mend);display:inline" id="path8845-9-7" d="m 385,250.36218 0,42 c 0,3 -2,5 -5,5 l -225,0 c -3,0 -5,-2 -5,-5 l 0,-35 c 0,-3 2,-5 5,-5 l 13,0"/><path style="fill:#000;fill-opacity:1;stroke:#000;stroke-width:1.0629921;stroke-linecap:round;stroke-linejoin:round;stroke-miterlimit:4;stroke-opacity:1;stroke-dasharray:none;stroke-dashoffset:0;display:inline" id="path9674-69" d="m 237,128.36218 c 0,0.55229 -0.44772,1 -1,1 -0.55228,0 -1,-0.44771 -1,-1 0,-0.55228 0.44772,-1 1,-1 0.55228,0 1,0.44772 1,1 z" transform="translate(149,121.46426)"/><path style="fill:none;stroke:#000;stroke-width:.77952754;stroke-linecap:round;stroke-linejoin:round;stroke-miterlimit:4;stroke-opacity:1;stroke-dasharray:3.11811024,3.11811024;stroke-dashoffset:0;marker-end:url(#Arrow1Mend);display:inline" id="path8845-9-4" d="m 325,199.36218 0,21"/></g><g id="layer2" transform="translate(-149.61024,-187.65518)" style="display:inline"><text style="font-size:13px;font-style:italic;font-variant:normal;font-weight:400;font-stretch:normal;text-align:center;line-height:125%;letter-spacing:0;word-spacing:0;text-anchor:middle;fill:#000;fill-opacity:1;stroke:none;display:inline;font-family:Linux Libertine O;-inkscape-font-specification:Sans Italic" id="text11762" x="326" y="193.362" xml:space="preserve"><tspan id="tspan11764" x="326" y="193.362" dx="0 0">y<tspan style="font-size:65.00091553%;font-style:normal;baseline-shift:sub;-inkscape-font-specification:Linux Libertine O" id="tspan11766">0</tspan></tspan></text><text style="font-size:13px;font-style:italic;font-variant:normal;font-weight:400;font-stretch:normal;text-align:center;line-height:125%;letter-spacing:0;word-spacing:0;text-anchor:middle;fill:#000;fill-opacity:1;stroke:none;font-family:Linux Libertine O;-inkscape-font-specification:Sans Italic" id="text3452" x="266" y="243.362" xml:space="preserve"><tspan id="tspan3454" x="266" y="243.362">dy</tspan></text><text style="font-size:13px;font-style:italic;font-variant:normal;font-weight:400;font-stretch:normal;text-align:center;line-height:125%;letter-spacing:0;word-spacing:0;text-anchor:middle;fill:#000;fill-opacity:1;stroke:none;font-family:Linux Libertine O;-inkscape-font-specification:Sans Italic" id="text3456" x="396" y="243.362" xml:space="preserve"><tspan id="tspan3458" x="396" y="243.362">y</tspan></text><text style="font-size:11px;font-style:normal;font-variant:normal;font-weight:400;font-stretch:normal;text-align:center;line-height:125%;letter-spacing:0;word-spacing:0;text-anchor:middle;fill:#000;fill-opacity:1;stroke:none;font-family:Inconsolata LGC;-inkscape-font-specification:Inconsolata LGC" id="text8815-0" x="325" y="252.898" xml:space="preserve"><tspan id="tspan8821-0" x="325" y="252.898">integral</tspan></text><text style="font-size:11px;font-style:normal;font-variant:normal;font-weight:400;font-stretch:normal;text-align:center;line-height:125%;letter-spacing:0;word-spacing:0;text-anchor:middle;fill:#000;fill-opacity:1;stroke:none;font-family:Inconsolata LGC;-inkscape-font-specification:Inconsolata LGC" id="text8815" x="210" y="252.898" xml:space="preserve"><tspan id="tspan8821" x="210" y="252.898">map: <tspan style="font-style:oblique;-inkscape-font-specification:Inconsolata LGC Oblique" id="tspan11581">f</tspan></tspan></text></g></svg>