<svg xmlns="http://www.w3.org/2000/svg" xmlns:svg="http://www.w3.org/2000/svg" id="svg2" width="232.825" height="126.097" version="1.1"><defs id="defs4"><marker id="Arrow1Mend-4" orient="auto" refX="0" refY="0" style="overflow:visible"><path id="path4415-1" d="M 0,0 5,-5 -12.5,0 5,5 0,0 z" transform="matrix(-0.4,0,0,-0.4,-4,0)" style="fill-rule:evenodd;stroke:#000;stroke-width:1pt;marker-start:none"/></marker></defs><metadata id="metadata_3.36"/><g id="layer2" transform="translate(-332.42074,-106.65518)" style="display:inline"><path style="fill:none;stroke:#000;stroke-width:.77952754;stroke-linecap:round;stroke-linejoin:round;stroke-miterlimit:4;stroke-opacity:1;stroke-dasharray:none;marker-start:url(#Arrow1Mend-4);display:inline" id="path11772" d="m 415,127.36218 9,0 c 1.73214,0 2,-1 2.33639,-1.89851 C 427,124.36218 428,119.36218 430,119.36218 c 3,0 5,16 8,16 3,0 5,-16 8,-16 3,0 5,16 8,16 3,0 5,-16 8,-16 3,0 5,16 8,16 2,0 3.12627,-4.74746 3.62119,-6 0.4356,-0.92095 0.69448,-2 2.43289,-2 l 55.94592,0 c 2,0 3,1 3,3 l 0,17"/><path style="fill:none;stroke:#000;stroke-width:.77952754;stroke-linecap:round;stroke-linejoin:round;stroke-miterlimit:4;stroke-opacity:1;stroke-dasharray:none" id="path3938" d="m 412,127.36218 -44,0 c -2,0 -3,1 -3,3 l 0,32"/><path style="fill:none;stroke:#000;stroke-width:.77952754;stroke-linecap:round;stroke-linejoin:round;stroke-miterlimit:4;stroke-opacity:1;stroke-dasharray:none;marker-start:url(#Arrow1Mend-4)" id="path3943" d="m 535,147.36218 0,8 c 0,1.17857 0.80513,1.97126 1.9641,2.09127 6.1906,0.59481 9.2859,4.00177 9.2859,7.40873 0,3.75 -3.2158,7.5 -12.2158,7.5 -7.05357,0 -10.2842,-1.875 -10.2842,-5 0,-2.94643 3.49849,-5 10.2842,-5 9,0 12.97357,5.76191 12.9658,11.51786 -0.008,5.74404 -3.9658,11.48214 -12.9658,11.48214 -7.01631,0 -10.23941,-2.02743 -10.28813,-4.96274 -0.0506,-3.04793 3.18028,-5.03726 10.25393,-5.03726 9.0342,0 12.97571,5.72598 12.96003,11.46393 -0.0158,5.762 -3.92583,11.53607 -13.21257,11.53607 -6.83809,0 -10.02211,-1.82522 -10.02211,-4.92648 0,-3.06341 3.22735,-5.07352 10.40092,-5.07352 8.90793,0 12.25082,3.85622 12.13252,7.65821 -0.10388,3.33861 -3.1723,6.63541 -9.2134,7.24254 -1.31642,0.17416 -2.0454,0.98314 -2.04542,2.04568 l 3e-5,24.05358 c 0,2 -1,3 -3,3 l -164,-1e-5 c -2,0 -3,-1 -3,-3 l 0,-45"/><path style="fill:none;stroke:#000;stroke-width:.77952754;stroke-linecap:round;stroke-linejoin:round;stroke-miterlimit:4;stroke-opacity:1;stroke-dasharray:none;display:inline" id="path11968" d="m 380,175.8571 -30,0"/><path style="fill:none;stroke:#000;stroke-width:.77952754;stroke-linecap:round;stroke-linejoin:round;stroke-miterlimit:4;stroke-opacity:1;stroke-dasharray:none;display:inline" id="path11968-0" d="m 380,183.8571 -30,0"/><path style="fill:none;stroke:#000;stroke-width:.77952754;stroke-linecap:round;stroke-linejoin:round;stroke-miterlimit:4;stroke-opacity:1;stroke-dasharray:none;marker-start:url(#Arrow1Mend-4)" id="path4321" d="m 365,165.36218 0,10"/></g><g id="layer3" transform="translate(-332.42074,-106.65518)" style="display:inline"><text style="font-size:13px;font-style:normal;font-variant:normal;font-weight:400;font-stretch:normal;text-align:center;line-height:125%;letter-spacing:0;word-spacing:0;text-anchor:middle;fill:#000;fill-opacity:1;stroke:none;display:inline;font-family:Linux Libertine O;-inkscape-font-specification:Sans" id="text12008" x="425" y="112.867" xml:space="preserve"><tspan id="tspan12010" x="425" y="112.867">+</tspan></text><text style="font-size:13px;font-style:normal;font-variant:normal;font-weight:400;font-stretch:normal;text-align:center;line-height:125%;letter-spacing:0;word-spacing:0;text-anchor:middle;fill:#000;fill-opacity:1;stroke:none;display:inline;font-family:Linux Libertine O;-inkscape-font-specification:Sans" id="text12012" x="475" y="112.362" xml:space="preserve"><tspan id="tspan12014" x="475" y="112.362" dx="0 -1.071">--</tspan></text><text style="font-size:13px;font-style:italic;font-variant:normal;font-weight:400;font-stretch:normal;text-align:center;line-height:125%;letter-spacing:0;word-spacing:0;text-anchor:middle;fill:#000;fill-opacity:1;stroke:none;display:inline;font-family:Linux Libertine O;-inkscape-font-specification:Sans Italic" id="text12016" x="450" y="112.362" xml:space="preserve"><tspan id="tspan12018" x="450" y="112.362">v<tspan style="font-size:65.00091553%;baseline-shift:sub" id="tspan5218">R</tspan></tspan></text><text style="font-size:13px;font-style:italic;font-variant:normal;font-weight:400;font-stretch:normal;text-align:center;line-height:125%;letter-spacing:0;word-spacing:0;text-anchor:middle;fill:#000;fill-opacity:1;stroke:none;display:inline;font-family:Linux Libertine O;-inkscape-font-specification:Sans Italic" id="text11996" x="450" y="150.857" xml:space="preserve"><tspan id="tspan11998" x="450" y="150.857">R</tspan></text><text style="font-size:13px;font-style:italic;font-variant:normal;font-weight:400;font-stretch:normal;text-align:center;line-height:125%;letter-spacing:0;word-spacing:0;text-anchor:middle;fill:#000;fill-opacity:1;stroke:none;display:inline;font-family:Linux Libertine O;-inkscape-font-specification:Sans Italic" id="text12004" x="415" y="142.362" xml:space="preserve"><tspan id="tspan12006" x="415" y="142.362" dx="0 0">i<tspan style="font-size:65.00091553%;baseline-shift:sub" id="tspan5339">R</tspan></tspan></text><text style="font-size:13px;font-style:italic;font-variant:normal;font-weight:400;font-stretch:normal;text-align:center;line-height:125%;letter-spacing:0;word-spacing:0;text-anchor:middle;fill:#000;fill-opacity:1;stroke:none;display:inline;font-family:Linux Libertine O;-inkscape-font-specification:Sans Italic" id="text12000-1" x="513.758" y="183.877" xml:space="preserve"><tspan id="tspan12002-9" x="513.758" y="183.877">L</tspan></text><text style="font-size:13px;font-style:italic;font-variant:normal;font-weight:400;font-stretch:normal;text-align:center;line-height:125%;letter-spacing:0;word-spacing:0;text-anchor:middle;fill:#000;fill-opacity:1;stroke:none;display:inline;font-family:Linux Libertine O;-inkscape-font-specification:Sans Italic" id="text12016-91" x="560" y="182.362" xml:space="preserve"><tspan id="tspan12018-3" x="560" y="182.362">v<tspan style="font-size:65.00091553%;baseline-shift:sub" id="tspan5218-5">L</tspan></tspan></text><text style="font-size:13px;font-style:normal;font-variant:normal;font-weight:400;font-stretch:normal;text-align:center;line-height:125%;letter-spacing:0;word-spacing:0;text-anchor:middle;fill:#000;fill-opacity:1;stroke:none;display:inline;font-family:Linux Libertine O;-inkscape-font-specification:Sans" id="text12008-6" x="559.242" y="160.362" xml:space="preserve"><tspan id="tspan12010-4" x="559.242" y="160.362">+</tspan></text><text style="font-size:13px;font-style:normal;font-variant:normal;font-weight:400;font-stretch:normal;text-align:center;line-height:125%;letter-spacing:0;word-spacing:0;text-anchor:middle;fill:#000;fill-opacity:1;stroke:none;display:inline;font-family:Linux Libertine O;-inkscape-font-specification:Sans" id="text12012-8" x="559.242" y="207.362" xml:space="preserve"><tspan id="tspan12014-9" x="559.242" y="207.362" dx="0 -1.071">--</tspan></text><text style="font-size:13px;font-style:italic;font-variant:normal;font-weight:400;font-stretch:normal;text-align:center;line-height:125%;letter-spacing:0;word-spacing:0;text-anchor:middle;fill:#000;fill-opacity:1;stroke:none;display:inline;font-family:Linux Libertine O;-inkscape-font-specification:Sans Italic" id="text12004-8" x="522.758" y="146.605" xml:space="preserve"><tspan id="tspan12006-7" x="522.758" y="146.605" dx="0">i<tspan style="font-size:65.00091553%;baseline-shift:sub" id="tspan5339-9">L</tspan></tspan></text><text style="font-size:13px;font-style:italic;font-variant:normal;font-weight:400;font-stretch:normal;text-align:center;line-height:125%;letter-spacing:0;word-spacing:0;text-anchor:middle;fill:#000;fill-opacity:1;stroke:none;display:inline;font-family:Linux Libertine O;-inkscape-font-specification:Sans Italic" id="text12000" x="390.99" y="183.877" xml:space="preserve"><tspan id="tspan12002" x="390.99" y="183.877">C</tspan></text><text style="font-size:13px;font-style:italic;font-variant:normal;font-weight:400;font-stretch:normal;text-align:center;line-height:125%;letter-spacing:0;word-spacing:0;text-anchor:middle;fill:#000;fill-opacity:1;stroke:none;display:inline;font-family:Linux Libertine O;-inkscape-font-specification:Sans Italic" id="text12004-5" x="378" y="164.362" xml:space="preserve"><tspan id="tspan12006-6" x="378" y="164.362" dx="0">i<tspan style="font-size:65.00091553%;baseline-shift:sub" id="tspan5339-4">C</tspan></tspan></text><text style="font-size:13px;font-style:italic;font-variant:normal;font-weight:400;font-stretch:normal;text-align:center;line-height:125%;letter-spacing:0;word-spacing:0;text-anchor:middle;fill:#000;fill-opacity:1;stroke:none;display:inline;font-family:Linux Libertine O;-inkscape-font-specification:Sans Italic" id="text12016-9" x="337.242" y="182.362" xml:space="preserve"><tspan id="tspan12018-4" x="337.242" y="182.362">v<tspan style="font-size:65.00091553%;baseline-shift:sub" id="tspan5218-3">C</tspan></tspan></text><text style="font-size:13px;font-style:normal;font-variant:normal;font-weight:400;font-stretch:normal;text-align:center;line-height:125%;letter-spacing:0;word-spacing:0;text-anchor:middle;fill:#000;fill-opacity:1;stroke:none;display:inline;font-family:Linux Libertine O;-inkscape-font-specification:Sans" id="text12008-8" x="335.758" y="162.362" xml:space="preserve"><tspan id="tspan12010-3" x="335.758" y="162.362">+</tspan></text><text style="font-size:13px;font-style:normal;font-variant:normal;font-weight:400;font-stretch:normal;text-align:center;line-height:125%;letter-spacing:0;word-spacing:0;text-anchor:middle;fill:#000;fill-opacity:1;stroke:none;display:inline;font-family:Linux Libertine O;-inkscape-font-specification:Sans" id="text12012-3" x="335.758" y="203.877" xml:space="preserve"><tspan id="tspan12014-1" x="335.758" y="203.877" dx="0 -1.071">--</tspan></text></g></svg>