<svg xmlns="http://www.w3.org/2000/svg" xmlns:svg="http://www.w3.org/2000/svg" style="display:inline" id="svg6540" width="416.3" height="314.455" version="1.1"><defs id="defs6542"><marker style="overflow:visible" id="Arrow1Mend-6" orient="auto" refX="0" refY="0"><path style="fill-rule:evenodd;stroke:#000;stroke-width:1pt;marker-start:none" id="path3809-6-2" d="M 0,0 5,-5 -12.5,0 5,5 0,0 z" transform="matrix(-0.4,0,0,-0.4,-4,0)"/></marker><marker style="overflow:visible" id="marker7129" orient="auto" refX="0" refY="0"><path style="fill-rule:evenodd;stroke:#000;stroke-width:1pt;marker-start:none" id="path7131" d="M 0,0 5,-5 -12.5,0 5,5 0,0 z" transform="matrix(-0.4,0,0,-0.4,-4,0)"/></marker><marker style="overflow:visible" id="Arrow1Mend" orient="auto" refX="0" refY="0"><path style="fill-rule:evenodd;stroke:#000;stroke-width:1pt;marker-start:none" id="path3809" d="M 0,0 5,-5 -12.5,0 5,5 0,0 z" transform="matrix(-0.4,0,0,-0.4,-4,0)"/></marker><marker style="overflow:visible" id="marker7135" orient="auto" refX="0" refY="0"><path style="fill-rule:evenodd;stroke:#000;stroke-width:1pt;marker-start:none" id="path7137" d="M 0,0 5,-5 -12.5,0 5,5 0,0 z" transform="matrix(-0.4,0,0,-0.4,-4,0)"/></marker><marker style="overflow:visible" id="marker7139" orient="auto" refX="0" refY="0"><path style="fill-rule:evenodd;stroke:#000;stroke-width:1pt;marker-start:none" id="path7141" d="M 0,0 5,-5 -12.5,0 5,5 0,0 z" transform="matrix(-0.4,0,0,-0.4,-4,0)"/></marker><marker style="overflow:visible" id="marker7143" orient="auto" refX="0" refY="0"><path style="fill-rule:evenodd;stroke:#000;stroke-width:1pt;marker-start:none" id="path7145" d="M 0,0 5,-5 -12.5,0 5,5 0,0 z" transform="matrix(-0.4,0,0,-0.4,-4,0)"/></marker><marker style="overflow:visible" id="marker7147" orient="auto" refX="0" refY="0"><path style="fill-rule:evenodd;stroke:#000;stroke-width:1pt;marker-start:none" id="path7149" d="M 0,0 5,-5 -12.5,0 5,5 0,0 z" transform="matrix(-0.4,0,0,-0.4,-4,0)"/></marker><marker style="overflow:visible" id="marker7151" orient="auto" refX="0" refY="0"><path style="fill-rule:evenodd;stroke:#000;stroke-width:1pt;marker-start:none" id="path7153" d="M 0,0 5,-5 -12.5,0 5,5 0,0 z" transform="matrix(-0.4,0,0,-0.4,-4,0)"/></marker><marker style="overflow:visible" id="marker7155" orient="auto" refX="0" refY="0"><path style="fill-rule:evenodd;stroke:#000;stroke-width:1pt;marker-start:none" id="path7157" d="M 0,0 5,-5 -12.5,0 5,5 0,0 z" transform="matrix(-0.4,0,0,-0.4,-4,0)"/></marker><marker style="overflow:visible" id="marker7159" orient="auto" refX="0" refY="0"><path style="fill-rule:evenodd;stroke:#000;stroke-width:1pt;marker-start:none" id="path7161" d="M 0,0 5,-5 -12.5,0 5,5 0,0 z" transform="matrix(-0.4,0,0,-0.4,-4,0)"/></marker><marker style="overflow:visible" id="marker7163" orient="auto" refX="0" refY="0"><path style="fill-rule:evenodd;stroke:#000;stroke-width:1pt;marker-start:none" id="path7165" d="M 0,0 5,-5 -12.5,0 5,5 0,0 z" transform="matrix(-0.4,0,0,-0.4,-4,0)"/></marker><marker style="overflow:visible" id="Arrow1Mend-6-0" orient="auto" refX="0" refY="0"><path style="fill-rule:evenodd;stroke:#000;stroke-width:1pt;marker-start:none" id="path3809-6-2-7" d="M 0,0 5,-5 -12.5,0 5,5 0,0 z" transform="matrix(-0.4,0,0,-0.4,-4,0)"/></marker><marker style="overflow:visible" id="Arrow1Mend-6-9" orient="auto" refX="0" refY="0"><path style="fill-rule:evenodd;stroke:#000;stroke-width:1pt;marker-start:none" id="path3809-6-2-5" d="M 0,0 5,-5 -12.5,0 5,5 0,0 z" transform="matrix(-0.4,0,0,-0.4,-4,0)"/></marker><marker style="overflow:visible" id="Arrow1Mend-3" orient="auto" refX="0" refY="0"><path style="fill-rule:evenodd;stroke:#000;stroke-width:1pt;marker-start:none" id="path3809-6" d="M 0,0 5,-5 -12.5,0 5,5 0,0 z" transform="matrix(-0.4,0,0,-0.4,-4,0)"/></marker><marker style="overflow:visible" id="marker7736" orient="auto" refX="0" refY="0"><path style="fill-rule:evenodd;stroke:#000;stroke-width:1pt;marker-start:none" id="path7738" d="M 0,0 5,-5 -12.5,0 5,5 0,0 z" transform="matrix(-0.4,0,0,-0.4,-4,0)"/></marker><marker style="overflow:visible" id="Arrow1Mend-6-5" orient="auto" refX="0" refY="0"><path style="fill-rule:evenodd;stroke:#000;stroke-width:1pt;marker-start:none" id="path3809-6-2-52" d="M 0,0 5,-5 -12.5,0 5,5 0,0 z" transform="matrix(-0.4,0,0,-0.4,-4,0)"/></marker><marker style="overflow:visible" id="Arrow1Mend-6-3" orient="auto" refX="0" refY="0"><path style="fill-rule:evenodd;stroke:#000;stroke-width:1pt;marker-start:none" id="path3809-6-2-6" d="M 0,0 5,-5 -12.5,0 5,5 0,0 z" transform="matrix(-0.4,0,0,-0.4,-4,0)"/></marker><marker style="overflow:visible" id="Arrow1Mend-6-4" orient="auto" refX="0" refY="0"><path style="fill-rule:evenodd;stroke:#000;stroke-width:1pt;marker-start:none" id="path3809-6-2-9" d="M 0,0 5,-5 -12.5,0 5,5 0,0 z" transform="matrix(-0.4,0,0,-0.4,-4,0)"/></marker></defs><metadata id="metadata_3.11"/><g style="display:inline" id="layer4" transform="translate(-65,-62.096435)"><path id="path3795" d="m 210,142.30861 44.91071,0 c 3.08929,0 5.08929,-2 5.08929,-5 l 0,-27.94643" style="fill:none;stroke:#000;stroke-width:.77952754;stroke-linecap:round;stroke-linejoin:round;stroke-miterlimit:4;stroke-opacity:1;stroke-dasharray:none;marker-end:url(#Arrow1Mend)"/><path id="path4451-5" d="m 183.44642,142.36218 -48.44642,0 c -3,0 -5,2 -4.85863,4.99906 L 130,167.36218" style="fill:none;stroke:#000;stroke-width:.77952754;stroke-linecap:round;stroke-linejoin:round;stroke-miterlimit:4;stroke-opacity:1;stroke-dasharray:none;marker-end:url(#Arrow1Mend-6)"/><path id="path5407" d="m 189.50001,179.86218 c 0,1.10458 -0.89544,2.00001 -2.00001,2.00001 -1.10457,0 -2.00001,-0.89543 -2.00001,-2.00001 0,-1.10457 0.89544,-2 2.00001,-2 1.10457,0 2.00001,0.89543 2.00001,2 z" transform="translate(-3.500003,-37.499994)" style="fill:#000;fill-opacity:1;stroke:#000;stroke-width:1.35354328;stroke-linecap:round;stroke-linejoin:round;stroke-miterlimit:4;stroke-opacity:1;stroke-dasharray:none;stroke-dashoffset:0"/><path id="path5407-7" d="m 189.50001,179.86218 c 0,1.10458 -0.89544,2.00001 -2.00001,2.00001 -1.10457,0 -2.00001,-0.89543 -2.00001,-2.00001 0,-1.10457 0.89544,-2 2.00001,-2 1.10457,0 2.00001,0.89543 2.00001,2 z" transform="translate(19.946426,-37.499994)" style="fill:#000;fill-opacity:1;stroke:#000;stroke-width:1.35354328;stroke-linecap:round;stroke-linejoin:round;stroke-miterlimit:4;stroke-opacity:1;stroke-dasharray:none;stroke-dashoffset:0"/><path id="path5435-9" d="m 199.24156,180.36218 c 0,6.20854 -5.03302,11.24156 -11.24156,11.24156 -6.20854,0 -11.24156,-5.03302 -11.24156,-11.24156 0,-6.20854 5.03302,-11.24156 11.24156,-11.24156 6.20854,0 11.24156,5.03302 11.24156,11.24156 z" transform="matrix(1.0454545,0,0,1.0454545,10.954542,-46.198273)" style="fill:none;stroke:#000;stroke-width:.50838757;stroke-linecap:round;stroke-linejoin:round;stroke-miterlimit:4;stroke-opacity:1;stroke-dasharray:none;stroke-dashoffset:0"/><path id="path5435-9-6" d="m 199.18117,180.36218 c 0,6.17519 -5.00598,11.18117 -11.18117,11.18117 -6.17519,0 -11.18117,-5.00598 -11.18117,-11.18117 0,-6.17519 5.00598,-11.18117 11.18117,-11.18117 6.17519,0 11.18117,5.00598 11.18117,11.18117 z" transform="matrix(1.0454545,0,0,1.0454545,-12.54545,-46.198266)" style="fill:none;stroke:#000;stroke-width:.50838757;stroke-linecap:round;stroke-linejoin:round;stroke-miterlimit:4;stroke-opacity:1;stroke-dasharray:none;stroke-dashoffset:0"/><path id="path4451-8-3-2" d="m 390,127.36218 0,-18" style="fill:none;stroke:#000;stroke-width:.77952754;stroke-linecap:butt;stroke-linejoin:round;stroke-miterlimit:4;stroke-opacity:1;stroke-dasharray:none;marker-end:url(#Arrow1Mend-6)"/><path id="path3795-1" d="m 440,242.36218 14.91071,0 c 3.08929,0 5.08929,-2 5.08929,-5 l 0,-28" style="fill:none;stroke:#000;stroke-width:.77952754;stroke-linecap:round;stroke-linejoin:round;stroke-miterlimit:4;stroke-opacity:1;stroke-dasharray:none;marker-end:url(#Arrow1Mend)"/><path id="path4451-5-7" d="m 414,244.91575 0,27" style="fill:none;stroke:#000;stroke-width:.77952754;stroke-linecap:round;stroke-linejoin:round;stroke-miterlimit:4;stroke-opacity:1;stroke-dasharray:none;marker-end:url(#Arrow1Mend-6)"/><path id="path5407-8" d="m 189.55359,179.86218 c 0,1.13417 -0.91943,2.05359 -2.05359,2.05359 -1.13416,0 -2.05359,-0.91942 -2.05359,-2.05359 0,-1.13416 0.91943,-2.05358 2.05359,-2.05358 1.13416,0 2.05359,0.91942 2.05359,2.05358 z" transform="translate(226.5,62.553586)" style="fill:#000;fill-opacity:1;stroke:#000;stroke-width:1.24724412;stroke-linecap:round;stroke-linejoin:round;stroke-miterlimit:4;stroke-opacity:1;stroke-dasharray:none;stroke-dashoffset:0"/><path id="path5407-7-4" d="m 189.55359,179.86218 c 0,1.13417 -0.91943,2.05359 -2.05359,2.05359 -1.13416,0 -2.05359,-0.91942 -2.05359,-2.05359 0,-1.13416 0.91943,-2.05358 2.05359,-2.05358 1.13416,0 2.05359,0.91942 2.05359,2.05358 z" transform="translate(249.94643,62.553586)" style="fill:#000;fill-opacity:1;stroke:#000;stroke-width:1.24724412;stroke-linecap:round;stroke-linejoin:round;stroke-miterlimit:4;stroke-opacity:1;stroke-dasharray:none;stroke-dashoffset:0"/><path id="path5435-9-0" d="m 199.28795,180.36218 c 0,6.23417 -5.05379,11.28795 -11.28795,11.28795 -6.23416,0 -11.28795,-5.05378 -11.28795,-11.28795 0,-6.23416 5.05379,-11.28795 11.28795,-11.28795 6.23416,0 11.28795,5.05379 11.28795,11.28795 z" transform="matrix(1.0454545,0,0,1.0454545,240.95454,53.855306)" style="fill:none;stroke:#000;stroke-width:.50838757;stroke-linecap:round;stroke-linejoin:round;stroke-miterlimit:4;stroke-opacity:1;stroke-dasharray:none;stroke-dashoffset:0"/><path id="path5435-9-6-8" d="m 199.22757,180.36218 c 0,6.20082 -5.02675,11.22758 -11.22757,11.22758 -6.20082,0 -11.22757,-5.02676 -11.22757,-11.22758 0,-6.20081 5.02675,-11.22757 11.22757,-11.22757 6.20082,0 11.22757,5.02676 11.22757,11.22757 z" transform="matrix(1.0454545,0,0,1.0454545,217.45455,53.855316)" style="fill:none;stroke:#000;stroke-width:.50838757;stroke-linecap:round;stroke-linejoin:round;stroke-miterlimit:4;stroke-opacity:1;stroke-dasharray:none;stroke-dashoffset:0"/><path id="path4451-8-3-2-6" d="m 345,327.36218 0,-118" style="fill:none;stroke:#000;stroke-width:.77952754;stroke-linecap:butt;stroke-linejoin:round;stroke-miterlimit:4;stroke-opacity:1;stroke-dasharray:none;marker-end:url(#Arrow1Mend-6)"/><path id="path4451-8-3-2-6-9" d="m 315,252.36218 0,-43" style="fill:none;stroke:#000;stroke-width:.77952754;stroke-linecap:butt;stroke-linejoin:round;stroke-miterlimit:4;stroke-opacity:1;stroke-dasharray:none;marker-end:url(#Arrow1Mend-6)"/><path id="rect5327" d="m 135,62.362183 340,0 c 3,0 5,2 5,5 l 0,35.000007 c 0,2.99999 -2,4.99999 -5,4.99999 l -340,0 c -3,0 -5,-2 -5,-4.99999 l 0,-35.000007 c 0,-3 2,-5 5,-5 z" style="fill:#e8e8e8;fill-opacity:1;stroke:#000;stroke-width:.53149605;stroke-linecap:round;stroke-linejoin:round;stroke-miterlimit:4;stroke-opacity:1;stroke-dasharray:none;stroke-dashoffset:0;display:inline"/><path id="rect5327-4" d="m 305,127.36218 170,0 c 3,0 5,2 5,5 l 0,70.00001 c 0,2.99999 -2,4.99999 -5,4.99999 l -170,0 c -3,0 -5,-2 -5,-4.99999 l 0,-70.00001 c 0,-3 2,-5 5,-5 z" style="fill:#e8e8e8;fill-opacity:1;stroke:#000;stroke-width:.53149605;stroke-linecap:round;stroke-linejoin:round;stroke-miterlimit:4;stroke-opacity:1;stroke-dasharray:none;stroke-dashoffset:0;display:inline"/><path id="rect5327-2-0" d="m 255,252.36218 70,0 c 3,0 5,2 5,5 l 0,20 c 0,3 -2,5 -5,5 l -70,0 c -3,0 -5,-2 -5,-5 l 0,-20 c 0,-3 2,-5 5,-5 z" style="fill:#e8e8e8;fill-opacity:1;stroke:#000;stroke-width:.53149605;stroke-linecap:round;stroke-linejoin:round;stroke-miterlimit:4;stroke-opacity:1;stroke-dasharray:none;stroke-dashoffset:0"/><path id="rect5327-2-0-3" d="m 310,327.36218 70,0 c 3,0 5,2 5,5 l 0,20 c 0,3 -2,5 -5,5 l -70,0 c -3,0 -5,-2 -5,-5 l 0,-20 c 0,-3 2,-5 5,-5 z" style="fill:#e8e8e8;fill-opacity:1;stroke:#000;stroke-width:.53149605;stroke-linecap:round;stroke-linejoin:round;stroke-miterlimit:4;stroke-opacity:1;stroke-dasharray:none;stroke-dashoffset:0"/><path id="path3795-5" d="m 181.23223,84.604566 9.30348,0 c 3.08929,0 5.08929,2 5.08929,5 l 0,38.757614" style="fill:none;stroke:#000;stroke-width:.77952754;stroke-linecap:round;stroke-linejoin:round;stroke-miterlimit:4;stroke-opacity:1;stroke-dasharray:none;marker-end:url(#Arrow1Mend);display:inline"/><path id="path3795-5-5" d="m 405,159.36218 15.53571,0 c 3.08929,0 5.08929,2 5.08929,5 l 0,64" style="fill:none;stroke:#000;stroke-width:.77952754;stroke-linecap:round;stroke-linejoin:round;stroke-miterlimit:4;stroke-opacity:1;stroke-dasharray:none;marker-end:url(#Arrow1Mend);display:inline"/></g><g style="display:inline" id="layer5" transform="translate(-65,-62.096435)"><text id="text5497" x="65" y="184.362" xml:space="preserve" style="font-size:11px;font-style:normal;font-variant:normal;font-weight:400;font-stretch:normal;text-align:start;line-height:139.99999762%;letter-spacing:0;word-spacing:0;text-anchor:start;fill:#000;fill-opacity:1;stroke:none;font-family:Inconsolata LGC;-inkscape-font-specification:Inconsolata LGC"><tspan style="line-height:129.99999523%" id="tspan5499" x="65" y="184.362" dx="0 0 0 0 0 0 0 0 0 0 0 0 2.7"><tspan id="tspan7412" style="font-size:13px;font-style:normal;font-variant:normal;font-weight:400;font-stretch:normal;line-height:129.99999523%;font-family:Linux Biolinum O;-inkscape-font-specification:Linux Biolinum O">parameters:</tspan> x</tspan><tspan style="font-style:normal;font-variant:normal;font-weight:400;font-stretch:normal;line-height:129.99999523%;font-family:Inconsolata LGC;-inkscape-font-specification:Inconsolata LGC" id="tspan5914" x="65" y="203.229" dx="0 0 0 0 0 0 2.7"><tspan id="tspan7414" style="font-size:13px;font-style:normal;font-variant:normal;font-weight:400;font-stretch:normal;line-height:129.99999523%;font-family:Linux Biolinum O;-inkscape-font-specification:Linux Biolinum O">body:</tspan> (define good-enough? ...)</tspan><tspan id="tspan7406" x="65" y="219.953" style="font-style:normal;font-variant:normal;font-weight:400;font-stretch:normal;line-height:139.99999762%;font-family:Inconsolata LGC;-inkscape-font-specification:Inconsolata LGC"> (define improve ...)</tspan><tspan id="tspan7408" x="65" y="235.353" style="font-style:normal;font-variant:normal;font-weight:400;font-stretch:normal;line-height:139.99999762%;font-family:Inconsolata LGC;-inkscape-font-specification:Inconsolata LGC"> (define sqrt-iter ...)</tspan><tspan id="tspan7410" x="65" y="250.753" style="font-style:normal;font-variant:normal;font-weight:400;font-stretch:normal;line-height:139.99999762%;font-family:Inconsolata LGC;-inkscape-font-specification:Inconsolata LGC"> (sqrt-iter 1.0)</tspan></text><path id="path4451" d="m 105,84.867259 23,0" style="fill:none;stroke:#000;stroke-width:.77952754;stroke-linecap:round;stroke-linejoin:round;stroke-miterlimit:4;stroke-opacity:1;stroke-dasharray:none;marker-end:url(#Arrow1Mend-6)"/><text id="text5477" x="65" y="80.082" xml:space="preserve" style="font-size:11px;font-style:normal;font-variant:normal;font-weight:400;font-stretch:normal;text-align:start;line-height:129.99999523%;letter-spacing:0;word-spacing:0;text-anchor:start;fill:#000;fill-opacity:1;stroke:none;font-family:Inconsolata LGC;-inkscape-font-specification:Inconsolata LGC"><tspan style="font-size:13px;font-style:normal;font-variant:normal;font-weight:400;font-stretch:normal;line-height:129.99999523%;font-family:Linux Biolinum O;-inkscape-font-specification:Linux Biolinum O" id="tspan5479" x="65" y="80.082">global</tspan><tspan id="tspan5507" x="65" y="96.982" style="font-size:13px;font-style:normal;font-variant:normal;font-weight:400;font-stretch:normal;line-height:129.99999523%;font-family:Linux Biolinum O;-inkscape-font-specification:Linux Biolinum O">env</tspan></text><text id="text5473" x="145" y="87.362" xml:space="preserve" style="font-size:11px;font-style:normal;font-variant:normal;font-weight:400;font-stretch:normal;text-align:start;line-height:125%;letter-spacing:0;word-spacing:0;text-anchor:start;fill:#000;fill-opacity:1;stroke:none;font-family:Inconsolata LGC;-inkscape-font-specification:Inconsolata LGC"><tspan id="tspan5475" x="145" y="87.362">sqrt:</tspan></text><path id="path4451-8-7" d="m 285,167.36218 13,0" style="fill:none;stroke:#000;stroke-width:.77952754;stroke-linecap:round;stroke-linejoin:round;stroke-miterlimit:4;stroke-opacity:1;stroke-dasharray:none;marker-end:url(#Arrow1Mend-6)"/><text id="text6301-3" x="269" y="171.076" xml:space="preserve" style="font-size:11px;font-style:normal;font-variant:normal;font-weight:400;font-stretch:normal;text-align:start;line-height:125%;letter-spacing:0;word-spacing:0;text-anchor:start;fill:#000;fill-opacity:1;stroke:none;font-family:Inconsolata LGC;-inkscape-font-specification:Inconsolata LGC"><tspan id="tspan6303-9" x="269" y="171.076">E1</tspan></text><text id="text7591" x="315" y="147.362" xml:space="preserve" style="font-size:11px;font-style:normal;font-variant:normal;font-weight:400;font-stretch:normal;text-align:start;line-height:125%;letter-spacing:0;word-spacing:0;text-anchor:start;fill:#000;fill-opacity:1;stroke:none;font-family:Inconsolata LGC;-inkscape-font-specification:Inconsolata LGC"><tspan id="tspan7593" x="315" y="147.362">x:2</tspan></text><text id="text7595" x="315" y="162.362" xml:space="preserve" style="font-size:11px;font-style:normal;font-variant:normal;font-weight:400;font-stretch:normal;text-align:start;line-height:125%;letter-spacing:0;word-spacing:0;text-anchor:start;fill:#000;fill-opacity:1;stroke:none;font-family:Inconsolata LGC;-inkscape-font-specification:Inconsolata LGC"><tspan id="tspan7597" x="315" y="162.362">good-enough?:</tspan></text><text id="text7599" x="315" y="177.362" xml:space="preserve" style="font-size:11px;font-style:normal;font-variant:normal;font-weight:400;font-stretch:normal;text-align:start;line-height:125%;letter-spacing:0;word-spacing:0;text-anchor:start;fill:#000;fill-opacity:1;stroke:none;font-family:Inconsolata LGC;-inkscape-font-specification:Inconsolata LGC"><tspan id="tspan7601" x="315" y="177.362">improve: ...</tspan></text><text id="text7603" x="315" y="192.362" xml:space="preserve" style="font-size:11px;font-style:normal;font-variant:normal;font-weight:400;font-stretch:normal;text-align:start;line-height:125%;letter-spacing:0;word-spacing:0;text-anchor:start;fill:#000;fill-opacity:1;stroke:none;font-family:Inconsolata LGC;-inkscape-font-specification:Inconsolata LGC"><tspan id="tspan7605" x="315" y="192.362">sqrt-iter: ...</tspan></text><text id="text7800" x="365.17" y="287.424" xml:space="preserve" style="font-size:11px;font-style:normal;font-variant:normal;font-weight:400;font-stretch:normal;text-align:start;line-height:129.99999523%;letter-spacing:0;word-spacing:0;text-anchor:start;fill:#000;fill-opacity:1;stroke:none;font-family:Inconsolata LGC;-inkscape-font-specification:Inconsolata LGC"><tspan style="line-height:129.99999523%" id="tspan7802" x="365.17" y="287.424" dx="0 0 0 0 0 0 0 0 0 0 0 0 2.7"><tspan id="tspan7808" style="font-size:13px;font-style:normal;font-variant:normal;font-weight:400;font-stretch:normal;line-height:129.99999523%;font-family:Linux Biolinum O;-inkscape-font-specification:Linux Biolinum O">parameters:</tspan> guess</tspan><tspan style="line-height:129.99999523%" id="tspan7804" x="365.17" y="306.291" dx="0 0 0 0 0 0 2.7"><tspan id="tspan7810" style="font-size:13px;font-style:normal;font-variant:normal;font-weight:400;font-stretch:normal;line-height:129.99999523%;font-family:Linux Biolinum O;-inkscape-font-specification:Linux Biolinum O">body:</tspan> (&lt; (abs ...)</tspan><tspan id="tspan7806" x="365.17" y="322.222"> ...)</tspan></text><text id="text6297-6" x="290" y="270.45" xml:space="preserve" style="font-size:11px;font-style:normal;font-variant:normal;font-weight:400;font-stretch:normal;text-align:center;line-height:125%;letter-spacing:0;word-spacing:0;text-anchor:middle;fill:#000;fill-opacity:1;stroke:none;display:inline;font-family:Inconsolata LGC;-inkscape-font-specification:Inconsolata LGC"><tspan id="tspan6299-0" x="290" y="270.45">guess: 1</tspan></text><text id="text6297-6-2" x="345" y="345.45" xml:space="preserve" style="font-size:11px;font-style:normal;font-variant:normal;font-weight:400;font-stretch:normal;text-align:center;line-height:125%;letter-spacing:0;word-spacing:0;text-anchor:middle;fill:#000;fill-opacity:1;stroke:none;display:inline;font-family:Inconsolata LGC;-inkscape-font-specification:Inconsolata LGC"><tspan id="tspan6299-0-4" x="345" y="345.45">guess: 1</tspan></text><text id="text7827" x="330" y="299.362" xml:space="preserve" style="font-size:11px;font-style:normal;font-variant:normal;font-weight:400;font-stretch:normal;text-align:end;line-height:125%;letter-spacing:0;word-spacing:0;text-anchor:end;fill:#000;fill-opacity:1;stroke:none;display:inline;font-family:Inconsolata LGC;-inkscape-font-specification:Inconsolata LGC"><tspan id="tspan7829" x="330" y="299.362"><tspan id="tspan7831" style="font-size:13px;font-style:normal;font-variant:normal;font-weight:400;font-stretch:normal;text-align:end;text-anchor:end;font-family:Linux Biolinum O;-inkscape-font-specification:Linux Biolinum O">call to</tspan> sqrt-iter</tspan></text><g id="g7819" transform="translate(-210,-61.175154)" style="stroke-width:.77952754;stroke-miterlimit:4;stroke-dasharray:none;display:inline"><path style="fill:none;stroke:#000;stroke-width:.77952754;stroke-linecap:round;stroke-linejoin:round;stroke-miterlimit:4;stroke-opacity:1;stroke-dasharray:none;marker-end:url(#Arrow1Mend-6)" id="path4451-8-2" d="m 445,328.53734 13,0"/><text style="font-size:11px;font-style:normal;font-variant:normal;font-weight:400;font-stretch:normal;text-align:start;line-height:125%;letter-spacing:0;word-spacing:0;text-anchor:start;fill:#000;fill-opacity:1;stroke:none;font-family:Inconsolata LGC;-inkscape-font-specification:Inconsolata LGC" id="text6301-1" x="429" y="332.252" xml:space="preserve"><tspan id="tspan6303-0" x="429" y="332.252">E2</tspan></text></g><text id="text7827-9" x="345" y="374.362" xml:space="preserve" style="font-size:11px;font-style:normal;font-variant:normal;font-weight:400;font-stretch:normal;text-align:center;line-height:125%;letter-spacing:0;word-spacing:0;text-anchor:middle;fill:#000;fill-opacity:1;stroke:none;display:inline;font-family:Inconsolata LGC;-inkscape-font-specification:Inconsolata LGC"><tspan id="tspan7829-2" x="345" y="374.362"><tspan id="tspan7831-2" style="font-size:13px;font-style:normal;font-variant:normal;font-weight:400;font-stretch:normal;text-align:center;text-anchor:middle;font-family:Linux Biolinum O;-inkscape-font-specification:Linux Biolinum O">call to</tspan> good-enough?</tspan></text><g id="g7945" transform="translate(-165,-68.824844)" style="stroke-width:.77952754;stroke-miterlimit:4;stroke-dasharray:none;display:inline"><path style="fill:none;stroke:#000;stroke-width:.77952754;stroke-linecap:round;stroke-linejoin:round;stroke-miterlimit:4;stroke-opacity:1;stroke-dasharray:none;marker-end:url(#Arrow1Mend-6)" id="path4451-8-2-4" d="m 455,411.18703 13,0"/><text style="font-size:11px;font-style:normal;font-variant:normal;font-weight:400;font-stretch:normal;text-align:start;line-height:125%;letter-spacing:0;word-spacing:0;text-anchor:start;fill:#000;fill-opacity:1;stroke:none;font-family:Inconsolata LGC;-inkscape-font-specification:Inconsolata LGC" id="text6301-1-2" x="439" y="414.901" xml:space="preserve"><tspan id="tspan6303-0-4" x="439" y="414.901">E3</tspan></text></g></g></svg>