<svg xmlns="http://www.w3.org/2000/svg" xmlns:svg="http://www.w3.org/2000/svg" id="svg2" width="423.105" height="345.656" version="1.1"><defs id="defs4"><marker id="Arrow1Mstart" orient="auto" refX="0" refY="0" style="overflow:visible"><path id="path4223" d="M 0,0 5,-5 -12.5,0 5,5 0,0 z" transform="matrix(0.4,0,0,0.4,4,0)" style="fill-rule:evenodd;stroke:#000;stroke-width:1pt;marker-start:none"/></marker><marker id="Arrow1Mend" orient="auto" refX="0" refY="0" style="overflow:visible"><path id="path4226" d="M 0,0 5,-5 -12.5,0 5,5 0,0 z" transform="matrix(-0.4,0,0,-0.4,-4,0)" style="fill-rule:evenodd;stroke:#000;stroke-width:1pt;marker-start:none"/></marker><marker id="Arrow1Lend" orient="auto" refX="0" refY="0" style="overflow:visible"><path id="path4220" d="M 0,0 5,-5 -12.5,0 5,5 0,0 z" transform="matrix(-0.8,0,0,-0.8,-10,0)" style="fill-rule:evenodd;stroke:#000;stroke-width:1pt;marker-start:none"/></marker><marker id="Arrow1Mend-2" orient="auto" refX="0" refY="0" style="overflow:visible"><path id="path4226-1" d="M 0,0 5,-5 -12.5,0 5,5 0,0 z" transform="matrix(-0.4,0,0,-0.4,-4,0)" style="fill-rule:evenodd;stroke:#000;stroke-width:1pt;marker-start:none"/></marker><marker id="Arrow1Mend-1" orient="auto" refX="0" refY="0" style="overflow:visible"><path id="path4226-9" d="M 0,0 5,-5 -12.5,0 5,5 0,0 z" transform="matrix(-0.4,0,0,-0.4,-4,0)" style="fill-rule:evenodd;stroke:#000;stroke-width:1pt;marker-start:none"/></marker><marker id="Arrow1Mend-24" orient="auto" refX="0" refY="0" style="overflow:visible"><path id="path4226-7" d="M 0,0 5,-5 -12.5,0 5,5 0,0 z" transform="matrix(-0.4,0,0,-0.4,-4,0)" style="fill-rule:evenodd;stroke:#000;stroke-width:1pt;marker-start:none"/></marker><marker id="Arrow1Mend-3" orient="auto" refX="0" refY="0" style="overflow:visible"><path id="path4226-2" d="M 0,0 5,-5 -12.5,0 5,5 0,0 z" transform="matrix(-0.4,0,0,-0.4,-4,0)" style="fill-rule:evenodd;stroke:#000;stroke-width:1pt;marker-start:none"/></marker><marker id="Arrow1Mend-3-3" orient="auto" refX="0" refY="0" style="overflow:visible"><path id="path4226-2-4" d="M 0,0 5,-5 -12.5,0 5,5 0,0 z" transform="matrix(-0.4,0,0,-0.4,-4,0)" style="fill-rule:evenodd;stroke:#000;stroke-width:1pt;marker-start:none"/></marker><marker id="Arrow1Mend-9" orient="auto" refX="0" refY="0" style="overflow:visible"><path id="path4226-0" d="M 0,0 5,-5 -12.5,0 5,5 0,0 z" transform="matrix(-0.4,0,0,-0.4,-4,0)" style="fill-rule:evenodd;stroke:#000;stroke-width:1pt;marker-start:none"/></marker><marker id="Arrow1Mstart-3" orient="auto" refX="0" refY="0" style="overflow:visible"><path id="path4223-6" d="M 0,0 5,-5 -12.5,0 5,5 0,0 z" transform="matrix(0.4,0,0,0.4,4,0)" style="fill-rule:evenodd;stroke:#000;stroke-width:1pt;marker-start:none"/></marker><marker id="Arrow1Mend-6" orient="auto" refX="0" refY="0" style="overflow:visible"><path id="path4226-3" d="M 0,0 5,-5 -12.5,0 5,5 0,0 z" transform="matrix(-0.4,0,0,-0.4,-4,0)" style="fill-rule:evenodd;stroke:#000;stroke-width:1pt;marker-start:none"/></marker></defs><metadata id="metadata_3.29"/><g id="layer2" transform="translate(-83.161062,-61.972419)" style="display:inline"><path style="fill:none;stroke:#000;stroke-width:.77952754;stroke-linecap:round;stroke-linejoin:round;stroke-miterlimit:4;stroke-opacity:1;stroke-dasharray:none;marker-end:url(#Arrow1Lend);display:inline" id="path4076" d="M 95,62.362183 95,392.36218"/><path style="fill:#e8e8e8;fill-opacity:1;stroke:#000;stroke-width:.5905512;stroke-linecap:round;stroke-linejoin:round;stroke-miterlimit:4;stroke-opacity:1;stroke-dasharray:none;stroke-dashoffset:0" id="path4049" d="m 340,117.36218 c 0,13.80712 -11.19288,25 -25,25 -13.80712,0 -25,-11.19288 -25,-25 0,-13.80712 11.19288,-24.999997 25,-24.999997 13.80712,0 25,11.192877 25,24.999997 z" transform="matrix(0.9,0,0,0.9,29,9.2362183)"/><path style="fill:#e8e8e8;fill-opacity:1;stroke:#000;stroke-width:.5905512;stroke-linecap:round;stroke-linejoin:round;stroke-miterlimit:4;stroke-opacity:1;stroke-dasharray:none;stroke-dashoffset:0" id="path4049-1" d="m 340,117.36218 c 0,13.80712 -11.19288,25 -25,25 -13.80712,0 -25,-11.19288 -25,-25 0,-13.80712 11.19288,-24.999997 25,-24.999997 13.80712,0 25,11.192877 25,24.999997 z" transform="matrix(0.9,0,0,0.9,29,204.23622)"/><path style="fill:#e8e8e8;fill-opacity:1;stroke:#000;stroke-width:.5905512;stroke-linecap:round;stroke-linejoin:round;stroke-miterlimit:4;stroke-opacity:1;stroke-dasharray:none;stroke-dashoffset:0" id="path4049-2" d="m 340,117.36218 c 0,13.80712 -11.19288,25 -25,25 -13.80712,0 -25,-11.19288 -25,-25 0,-13.80712 11.19288,-24.999997 25,-24.999997 13.80712,0 25,11.192877 25,24.999997 z" transform="matrix(0.9,0,0,0.9,29,279.23622)"/><rect style="fill:none;stroke:#000;stroke-width:.53149605;stroke-linecap:round;stroke-linejoin:round;stroke-miterlimit:4;stroke-opacity:1;stroke-dasharray:none;stroke-dashoffset:0" id="rect4078-2-8-0" width="147" height="22" x="119" y="151.362" rx="10.984" ry="10.984"/><path style="fill:none;stroke:#000;stroke-width:.77952754;stroke-linecap:round;stroke-linejoin:round;stroke-miterlimit:4;stroke-opacity:1;stroke-dasharray:none;marker-end:url(#Arrow1Mend)" id="path4862" d="m 289.82143,115.00504 -69.82143,0 c -19.72888,0 -27.35714,7.85595 -27.35714,27.35714 l 0,7.51787"/><path style="fill:none;stroke:#000;stroke-width:.77952754;stroke-linecap:butt;stroke-linejoin:round;stroke-miterlimit:4;stroke-opacity:1;stroke-dasharray:none;marker-end:url(#Arrow1Mend)" id="path5050" d="m 192.64286,173.36218 0,26.51787"/><path style="fill:none;stroke:#000;stroke-width:.77952754;stroke-linecap:butt;stroke-linejoin:round;stroke-miterlimit:4;stroke-opacity:1;stroke-dasharray:none;marker-end:url(#Arrow1Mend)" id="path5050-5" d="m 192.64286,223.36218 0,26.51786"/><path style="fill:none;stroke:#000;stroke-width:.77952754;stroke-linecap:butt;stroke-linejoin:round;stroke-miterlimit:4;stroke-opacity:1;stroke-dasharray:none;marker-end:url(#Arrow1Mend)" id="path5050-9" d="m 432.62499,198.36218 0,26.51785"/><path style="fill:none;stroke:#000;stroke-width:.77952754;stroke-linecap:butt;stroke-linejoin:round;stroke-miterlimit:4;stroke-opacity:1;stroke-dasharray:none;marker-end:url(#Arrow1Mend)" id="path5050-7" d="m 432.62499,248.36218 0,86.51786"/><path style="fill:none;stroke:#000;stroke-width:.77952754;stroke-linecap:butt;stroke-linejoin:round;stroke-miterlimit:4;stroke-opacity:1;stroke-dasharray:none;marker-start:url(#Arrow1Mstart);marker-end:none" id="path4862-2" d="m 288,309.89792 -68,0 c -19.98142,0 -27.35714,-7.52947 -27.35714,-27.53574 l 0,-9"/><path style="fill:none;stroke:#000;stroke-width:.77952754;stroke-linecap:butt;stroke-linejoin:round;stroke-miterlimit:4;stroke-opacity:1;stroke-dasharray:none;marker-start:url(#Arrow1Mstart);marker-end:none" id="path4862-2-8" d="m 337,384.91575 68,0 c 19.98142,0 27.53572,-7.41179 27.53572,-21.35714 l 0,-5.19643"/><path style="fill:none;stroke:#000;stroke-width:.77952754;stroke-linecap:round;stroke-linejoin:round;stroke-miterlimit:4;stroke-opacity:1;stroke-dasharray:none;marker-end:url(#Arrow1Mend)" id="path4862-0" d="m 335.17858,114.89792 69.82142,0 c 20.23396,0 27.53572,7.71054 27.53572,27.46426 l 0,32.50003"/><rect style="fill:none;stroke:#000;stroke-width:.53149605;stroke-linecap:round;stroke-linejoin:round;stroke-miterlimit:4;stroke-opacity:1;stroke-dasharray:none;stroke-dashoffset:0;display:inline" id="rect4078-2-8-0-3" width="147" height="22" x="119" y="201.362" rx="10.984" ry="10.984"/><rect style="fill:none;stroke:#000;stroke-width:.53149605;stroke-linecap:round;stroke-linejoin:round;stroke-miterlimit:4;stroke-opacity:1;stroke-dasharray:none;stroke-dashoffset:0;display:inline" id="rect4078-2-8-0-6" width="147" height="22" x="119" y="251.362" rx="10.984" ry="10.984"/><rect style="fill:none;stroke:#000;stroke-width:.53149605;stroke-linecap:round;stroke-linejoin:round;stroke-miterlimit:4;stroke-opacity:1;stroke-dasharray:none;stroke-dashoffset:0;display:inline" id="rect4078-2-8-0-9" width="147" height="22" x="359" y="226.362" rx="10.984" ry="10.984"/><rect style="fill:none;stroke:#000;stroke-width:.53149605;stroke-linecap:round;stroke-linejoin:round;stroke-miterlimit:4;stroke-opacity:1;stroke-dasharray:none;stroke-dashoffset:0;display:inline" id="rect4078-2-8-0-0" width="147" height="22" x="359" y="176.362" rx="10.984" ry="10.984"/><rect style="fill:none;stroke:#000;stroke-width:.53149605;stroke-linecap:round;stroke-linejoin:round;stroke-miterlimit:4;stroke-opacity:1;stroke-dasharray:none;stroke-dashoffset:0;display:inline" id="rect4078-2-8-0-9-1" width="147" height="22" x="359" y="336.362" rx="10.984" ry="10.984"/></g><g id="layer3" transform="translate(-83.161062,-61.972419)" style="display:inline"><text style="font-size:13px;font-style:normal;font-variant:normal;font-weight:400;font-stretch:normal;text-align:start;line-height:125%;letter-spacing:0;word-spacing:0;text-anchor:start;fill:#000;fill-opacity:1;stroke:none;display:inline;font-family:Linux Biolinum O;-inkscape-font-specification:Linux Biolinum O" id="text3942" x="166.505" y="72.362" xml:space="preserve"><tspan id="tspan3944" x="166.505" y="72.362" style="font-size:13px">Peter</tspan></text><text style="font-size:13px;font-style:normal;font-variant:normal;font-weight:400;font-stretch:normal;text-align:center;line-height:125%;letter-spacing:0;word-spacing:0;text-anchor:middle;fill:#000;fill-opacity:1;stroke:none;display:inline;font-family:Linux Biolinum O;-inkscape-font-specification:Linux Biolinum O" id="text3966" x="192.536" y="166.352" xml:space="preserve"><tspan id="tspan3968" x="192.536" y="166.352" style="font-size:13px">Access balance: $100</tspan></text><text style="font-size:13px;font-style:normal;font-variant:normal;font-weight:400;font-stretch:normal;text-align:center;line-height:125%;letter-spacing:0;word-spacing:0;text-anchor:middle;fill:#000;fill-opacity:1;stroke:none;display:inline;font-family:Linux Biolinum O;-inkscape-font-specification:Linux Biolinum O" id="text3970" x="192.625" y="216.352" xml:space="preserve"><tspan id="tspan3972" x="192.625" y="216.352" style="font-size:13px">new value: 100-10=90</tspan></text><text style="font-size:13px;font-style:normal;font-variant:normal;font-weight:400;font-stretch:normal;text-align:center;line-height:125%;letter-spacing:0;word-spacing:0;text-anchor:middle;fill:#000;fill-opacity:1;stroke:none;display:inline;font-family:Linux Biolinum O;-inkscape-font-specification:Linux Biolinum O" id="text3974" x="192.536" y="266.352" xml:space="preserve"><tspan id="tspan3976" x="192.536" y="266.352" dx="0" style="font-size:11px"><tspan style="font-size:11px;font-style:normal;font-variant:normal;font-weight:400;font-stretch:normal;text-align:center;text-anchor:middle;font-family:Inconsolata LGC;-inkscape-font-specification:Inconsolata LGC" id="tspan4047">set!</tspan><tspan style="font-size:13px" id="tspan23275"> balance to $90</tspan></tspan></text><text style="font-size:13px;font-style:normal;font-variant:normal;font-weight:400;font-stretch:normal;text-align:center;line-height:125%;letter-spacing:0;word-spacing:0;text-anchor:middle;fill:#000;fill-opacity:1;stroke:none;display:inline;font-family:Linux Biolinum O;-inkscape-font-specification:Linux Biolinum O" id="text4041" x="95" y="407.362" xml:space="preserve"><tspan id="tspan4043" x="95" y="407.362" style="font-size:13px">time</tspan></text><text style="font-size:13px;font-style:normal;font-variant:normal;font-weight:400;font-stretch:normal;text-align:start;line-height:125%;letter-spacing:0;word-spacing:0;text-anchor:start;fill:#000;fill-opacity:1;stroke:none;display:inline;font-family:Linux Biolinum O;-inkscape-font-specification:Linux Biolinum O" id="text3946" x="312.267" y="72.362" xml:space="preserve"><tspan id="tspan3948" x="312.267" y="72.362" style="font-size:13px;text-align:center;text-anchor:middle">Bank</tspan></text><text style="font-size:13px;font-style:normal;font-variant:normal;font-weight:400;font-stretch:normal;text-align:end;line-height:125%;letter-spacing:0;word-spacing:0;text-anchor:end;fill:#000;fill-opacity:1;stroke:none;display:inline;font-family:Linux Biolinum O;-inkscape-font-specification:Linux Biolinum O" id="text3950" x="455" y="72.362" xml:space="preserve"><tspan id="tspan3952" x="455" y="72.362" style="font-size:13px">Paul</tspan></text><text style="font-size:13px;font-style:normal;font-variant:normal;font-weight:400;font-stretch:normal;text-align:start;line-height:125%;letter-spacing:0;word-spacing:0;text-anchor:start;fill:#000;fill-opacity:1;stroke:none;display:inline;font-family:Linux Biolinum O;-inkscape-font-specification:Linux Biolinum O" id="text3954" x="312.49" y="118.857" xml:space="preserve"><tspan id="tspan3956" x="312.49" y="118.857" style="font-size:13px;text-align:center;text-anchor:middle">$100</tspan></text><text style="font-size:13px;font-style:normal;font-variant:normal;font-weight:400;font-stretch:normal;text-align:center;line-height:125%;letter-spacing:0;word-spacing:0;text-anchor:middle;fill:#000;fill-opacity:1;stroke:none;display:inline;font-family:Linux Biolinum O;-inkscape-font-specification:Linux Biolinum O" id="text3958" x="312.472" y="313.895" xml:space="preserve"><tspan id="tspan3960" x="312.472" y="313.895" style="font-size:13px">$90</tspan></text><text style="font-size:13px;font-style:normal;font-variant:normal;font-weight:400;font-stretch:normal;text-align:start;line-height:125%;letter-spacing:0;word-spacing:0;text-anchor:start;fill:#000;fill-opacity:1;stroke:none;display:inline;font-family:Linux Biolinum O;-inkscape-font-specification:Linux Biolinum O" id="text3962" x="312.587" y="388.895" xml:space="preserve"><tspan id="tspan3964" x="312.587" y="388.895" style="font-size:13px;text-align:center;text-anchor:middle">$75</tspan></text><text style="font-size:13px;font-style:normal;font-variant:normal;font-weight:400;font-stretch:normal;text-align:center;line-height:125%;letter-spacing:0;word-spacing:0;text-anchor:middle;fill:#000;fill-opacity:1;stroke:none;display:inline;font-family:Linux Biolinum O;-inkscape-font-specification:Linux Biolinum O" id="text3966-4" x="432.536" y="191.352" xml:space="preserve"><tspan id="tspan3968-6" x="432.536" y="191.352" style="font-size:13px">Access balance: $100</tspan></text><text style="font-size:13px;font-style:normal;font-variant:normal;font-weight:400;font-stretch:normal;text-align:center;line-height:125%;letter-spacing:0;word-spacing:0;text-anchor:middle;fill:#000;fill-opacity:1;stroke:none;display:inline;font-family:Linux Biolinum O;-inkscape-font-specification:Linux Biolinum O" id="text3970-0" x="432.516" y="241.352" xml:space="preserve"><tspan id="tspan3972-1" x="432.516" y="241.352" style="font-size:13px">new value: 100-25=75</tspan></text><text style="font-size:13px;font-style:normal;font-variant:normal;font-weight:400;font-stretch:normal;text-align:center;line-height:125%;letter-spacing:0;word-spacing:0;text-anchor:middle;fill:#000;fill-opacity:1;stroke:none;display:inline;font-family:Linux Biolinum O;-inkscape-font-specification:Linux Biolinum O" id="text3974-9" x="432.536" y="351.352" xml:space="preserve"><tspan id="tspan3976-1" x="432.536" y="351.352" style="font-size:11px"><tspan style="font-size:11px;font-style:normal;font-variant:normal;font-weight:400;font-stretch:normal;text-align:center;text-anchor:middle;font-family:Inconsolata LGC;-inkscape-font-specification:Inconsolata LGC" id="tspan4045">set!</tspan><tspan style="font-size:13px" id="tspan23277"> balance to $75</tspan></tspan></text></g></svg>