<svg xmlns="http://www.w3.org/2000/svg" xmlns:svg="http://www.w3.org/2000/svg" id="svg3497" width="356.364" height="232.34" version="1.1"><defs id="defs3499"><marker id="Arrow1Mend" orient="auto" refX="0" refY="0" style="overflow:visible"><path id="path4415" d="M 0,0 5,-5 -12.5,0 5,5 0,0 z" transform="matrix(-0.4,0,0,-0.4,-4,0)" style="fill-rule:evenodd;stroke:#000;stroke-width:1pt;marker-start:none"/></marker><marker id="Arrow1Mend-0" orient="auto" refX="0" refY="0" style="overflow:visible"><path id="path4415-4" d="M 0,0 5,-5 -12.5,0 5,5 0,0 z" transform="matrix(-0.4,0,0,-0.4,-4,0)" style="fill-rule:evenodd;stroke:#000;stroke-width:1pt;marker-start:none"/></marker><marker id="Arrow1Mend-5" orient="auto" refX="0" refY="0" style="overflow:visible"><path id="path4415-9" d="M 0,0 5,-5 -12.5,0 5,5 0,0 z" transform="matrix(-0.4,0,0,-0.4,-4,0)" style="fill-rule:evenodd;stroke:#000;stroke-width:1pt;marker-start:none"/></marker><marker id="marker4370" orient="auto" refX="0" refY="0" style="overflow:visible"><path id="path4372" d="M 0,0 5,-5 -12.5,0 5,5 0,0 z" transform="matrix(-0.4,0,0,-0.4,-4,0)" style="fill-rule:evenodd;stroke:#000;stroke-width:1pt;marker-start:none"/></marker><marker id="marker4374" orient="auto" refX="0" refY="0" style="overflow:visible"><path id="path4376" d="M 0,0 5,-5 -12.5,0 5,5 0,0 z" transform="matrix(-0.4,0,0,-0.4,-4,0)" style="fill-rule:evenodd;stroke:#000;stroke-width:1pt;marker-start:none"/></marker><marker id="marker4378" orient="auto" refX="0" refY="0" style="overflow:visible"><path id="path4380" d="M 0,0 5,-5 -12.5,0 5,5 0,0 z" transform="matrix(-0.4,0,0,-0.4,-4,0)" style="fill-rule:evenodd;stroke:#000;stroke-width:1pt;marker-start:none"/></marker><marker id="Arrow1Mend-56" orient="auto" refX="0" refY="0" style="overflow:visible"><path id="path4415-5" d="M 0,0 5,-5 -12.5,0 5,5 0,0 z" transform="matrix(-0.4,0,0,-0.4,-4,0)" style="fill-rule:evenodd;stroke:#000;stroke-width:1pt;marker-start:none"/></marker><marker id="Arrow1Mend-04" orient="auto" refX="0" refY="0" style="overflow:visible"><path id="path4415-3" d="M 0,0 5,-5 -12.5,0 5,5 0,0 z" transform="matrix(-0.4,0,0,-0.4,-4,0)" style="fill-rule:evenodd;stroke:#000;stroke-width:1pt;marker-start:none"/></marker><marker id="Arrow1Mend-9" orient="auto" refX="0" refY="0" style="overflow:visible"><path id="path4415-7" d="M 0,0 5,-5 -12.5,0 5,5 0,0 z" transform="matrix(-0.4,0,0,-0.4,-4,0)" style="fill-rule:evenodd;stroke:#000;stroke-width:1pt;marker-start:none"/></marker><marker id="Arrow1Mend-8" orient="auto" refX="0" refY="0" style="overflow:visible"><path id="path4415-8" d="M 0,0 5,-5 -12.5,0 5,5 0,0 z" transform="matrix(-0.4,0,0,-0.4,-4,0)" style="fill-rule:evenodd;stroke:#000;stroke-width:1pt;marker-start:none"/></marker><marker id="Arrow1Mend-7" orient="auto" refX="0" refY="0" style="overflow:visible"><path id="path4415-1" d="M 0,0 5,-5 -12.5,0 5,5 0,0 z" transform="matrix(-0.4,0,0,-0.4,-4,0)" style="fill-rule:evenodd;stroke:#000;stroke-width:1pt;marker-start:none"/></marker><marker id="Arrow1Mend-4" orient="auto" refX="0" refY="0" style="overflow:visible"><path id="path4415-2" d="M 0,0 5,-5 -12.5,0 5,5 0,0 z" transform="matrix(-0.4,0,0,-0.4,-4,0)" style="fill-rule:evenodd;stroke:#000;stroke-width:1pt;marker-start:none"/></marker></defs><metadata id="metadata_3.35"/><g id="layer2" transform="translate(-64.610236,-445.28818)" style="display:inline"><rect style="fill:#e8e8e8;fill-opacity:1;stroke:#000;stroke-width:.53149605;stroke-linecap:round;stroke-linejoin:round;stroke-miterlimit:4;stroke-opacity:1;stroke-dasharray:none;stroke-dashoffset:0;display:inline" id="rect6788-91" width="80" height="55" x="295" y="482.362" rx="3.543" ry="3.543"/><path style="fill:none;stroke:#000;stroke-width:.77952754;stroke-linecap:butt;stroke-linejoin:round;stroke-miterlimit:4;stroke-opacity:1;stroke-dasharray:none;marker-end:url(#Arrow1Mend);display:inline" id="path8845-9" d="m 255,509.91573 38.50508,0"/><path style="fill:none;stroke:#000;stroke-width:.77952754;stroke-linecap:butt;stroke-linejoin:round;stroke-miterlimit:4;stroke-opacity:1;stroke-dasharray:none;marker-end:url(#Arrow1Mend);display:inline" id="path8845-9-1" d="m 375,509.89792 45,0"/><path style="fill:none;stroke:#000;stroke-width:.77952754;stroke-linecap:butt;stroke-linejoin:round;stroke-miterlimit:4;stroke-opacity:1;stroke-dasharray:none;marker-end:url(#Arrow1Mend-04);display:inline" id="path5001" d="m 395,509.85711 0,135.04079 c 0,3 -2,5 -5,5 l -133.50508,0"/><path style="fill:none;stroke:#000;stroke-width:.77952754;stroke-linecap:butt;stroke-linejoin:round;stroke-miterlimit:4;stroke-opacity:1;stroke-dasharray:none;marker-end:url(#Arrow1Mend-04);display:inline" id="path8845-9-7" d="m 87.821429,614.91575 -17.821429,0 c -3,0 -5,-2 -5,-5 l 0,-94.83928 c 0,-3 2,-5 5,-5 l 103.50508,0"/><path style="fill:#000;fill-opacity:1;stroke:#000;stroke-width:1.0629921;stroke-linecap:round;stroke-linejoin:round;stroke-miterlimit:4;stroke-opacity:1;stroke-dasharray:none;stroke-dashoffset:0;display:inline" id="path9674-69" d="m 237,128.36218 c 0,0.55229 -0.44772,1 -1,1 -0.55228,0 -1,-0.44771 -1,-1 0,-0.55228 0.44772,-1 1,-1 0.55228,0 1,0.44772 1,1 z" transform="translate(159,381.46426)"/><path style="fill:none;stroke:#000;stroke-width:.77952754;stroke-linecap:round;stroke-linejoin:round;stroke-miterlimit:4;stroke-opacity:1;stroke-dasharray:3.11811024,3.11811024;stroke-dashoffset:0;marker-end:url(#Arrow1Mend);display:inline" id="path8845-9-4" d="m 335,460.36218 0,20.50508"/><rect style="fill:#e8e8e8;fill-opacity:1;stroke:#000;stroke-width:.53149605;stroke-linecap:round;stroke-linejoin:round;stroke-miterlimit:4;stroke-opacity:1;stroke-dasharray:none;stroke-dashoffset:0;display:inline" id="rect6788" width="80" height="55" x="175" y="482.362" rx="3.543" ry="3.543"/><path style="fill:none;stroke:#000;stroke-width:.77952754;stroke-linecap:round;stroke-linejoin:round;stroke-miterlimit:4;stroke-opacity:1;stroke-dasharray:3.11811024,3.11811024;stroke-dashoffset:0;marker-end:url(#Arrow1Mend);display:inline" id="path8845-9-4-4" d="m 215,460.36218 0,20.50508"/><rect style="fill:#e8e8e8;fill-opacity:1;stroke:#000;stroke-width:.53149605;stroke-linecap:round;stroke-linejoin:round;stroke-miterlimit:4;stroke-opacity:1;stroke-dasharray:none;stroke-dashoffset:0;display:inline" id="rect6788-0" width="80" height="55" x="175" y="552.362" rx="3.543" ry="3.543"/><path style="fill:#e8e8e8;fill-opacity:1;stroke:#000;stroke-width:.53149605;stroke-linecap:round;stroke-linejoin:round;stroke-miterlimit:4;stroke-opacity:1;stroke-dasharray:none;stroke-dashoffset:0;display:inline" id="rect6788-0-5-5" d="m 145,587.37244 c 3,-1 5,1 5,3.54331 l 0,47.91339 c 0,2.5433 -2,4.5433 -5,3.5433 l -54,-24 c -4,-2 -4,-5 0,-7 z"/><path style="fill:none;stroke:#000;stroke-width:.77952754;stroke-linecap:butt;stroke-linejoin:round;stroke-miterlimit:4;stroke-opacity:1;stroke-dasharray:none;marker-end:url(#Arrow1Mend);display:inline" id="path8845-9-7-5" d="m 275,509.85711 0,65.05864 c 0,3 -2,5 -5,5 l -13.50508,0"/><path style="fill:#000;fill-opacity:1;stroke:#000;stroke-width:1.0629921;stroke-linecap:round;stroke-linejoin:round;stroke-miterlimit:4;stroke-opacity:1;stroke-dasharray:none;stroke-dashoffset:0;display:inline" id="path9674-69-9" d="m 237,128.36218 c 0,0.55229 -0.44772,1 -1,1 -0.55228,0 -1,-0.44771 -1,-1 0,-0.55228 0.44772,-1 1,-1 0.55228,0 1,0.44772 1,1 z" transform="translate(39,381.46426)"/><path style="fill:none;stroke:#000;stroke-width:.77952754;stroke-linecap:butt;stroke-linejoin:round;stroke-miterlimit:4;stroke-opacity:1;stroke-dasharray:none;marker-end:url(#Arrow1Mend);display:inline" id="path8845-9-5" d="m 175,632.36218 -23.50508,0"/><path style="fill:none;stroke:#000;stroke-width:.77952754;stroke-linecap:butt;stroke-linejoin:round;stroke-miterlimit:4;stroke-opacity:1;stroke-dasharray:none;marker-end:url(#Arrow1Mend);display:inline" id="path8845-9-5-3" d="m 175,597.36218 -23.50508,0"/><rect style="fill:#e8e8e8;fill-opacity:1;stroke:#000;stroke-width:.53149605;stroke-linecap:round;stroke-linejoin:round;stroke-miterlimit:4;stroke-opacity:1;stroke-dasharray:none;stroke-dashoffset:0;display:inline" id="rect6788-0-6" width="80" height="55" x="175" y="622.362" rx="3.543" ry="3.543"/></g><g id="layer3" transform="translate(-64.610236,-445.28818)" style="display:inline"><text style="font-size:13px;font-style:italic;font-variant:normal;font-weight:400;font-stretch:normal;text-align:center;line-height:125%;letter-spacing:0;word-spacing:0;text-anchor:middle;fill:#000;fill-opacity:1;stroke:none;font-family:Linux Libertine O;-inkscape-font-specification:Sans Italic" id="text3452-8" x="116" y="503.362" xml:space="preserve"><tspan id="tspan3454-1" x="116" y="503.362" dx="0 -.3 -.3">ddy</tspan></text><text style="font-size:13px;font-style:italic;font-variant:normal;font-weight:400;font-stretch:normal;text-align:center;line-height:125%;letter-spacing:0;word-spacing:0;text-anchor:middle;fill:#000;fill-opacity:1;stroke:none;display:inline;font-family:Linux Libertine O;-inkscape-font-specification:Sans Italic" id="text11762" x="336" y="454.362" xml:space="preserve"><tspan id="tspan11764" x="336" y="454.362" dx="0 0">y<tspan style="font-size:65.00091553%;font-style:normal;baseline-shift:sub;-inkscape-font-specification:Linux Libertine O" id="tspan11766">0</tspan></tspan></text><text style="font-size:13px;font-style:italic;font-variant:normal;font-weight:400;font-stretch:normal;text-align:center;line-height:125%;letter-spacing:0;word-spacing:0;text-anchor:middle;fill:#000;fill-opacity:1;stroke:none;font-family:Linux Libertine O;-inkscape-font-specification:Sans Italic" id="text3452" x="276" y="503.362" xml:space="preserve"><tspan id="tspan3454" x="276" y="503.362" dx="0 -.3">dy</tspan></text><text style="font-size:13px;font-style:italic;font-variant:normal;font-weight:400;font-stretch:normal;text-align:center;line-height:125%;letter-spacing:0;word-spacing:0;text-anchor:middle;fill:#000;fill-opacity:1;stroke:none;font-family:Linux Libertine O;-inkscape-font-specification:Sans Italic" id="text3456" x="406" y="503.362" xml:space="preserve"><tspan id="tspan3458" x="406" y="503.362">y</tspan></text><text style="font-size:11px;font-style:normal;font-variant:normal;font-weight:400;font-stretch:normal;text-align:center;line-height:125%;letter-spacing:0;word-spacing:0;text-anchor:middle;fill:#000;fill-opacity:1;stroke:none;font-family:Inconsolata LGC;-inkscape-font-specification:Inconsolata LGC" id="text8815-2-7" x="215" y="652.898" xml:space="preserve"><tspan id="tspan8821-4-5" x="215" y="652.898">scale: <tspan style="font-style:oblique;-inkscape-font-specification:Inconsolata LGC Oblique" id="tspan11581-0">b</tspan></tspan></text><text style="font-size:11px;font-style:normal;font-variant:normal;font-weight:400;font-stretch:normal;text-align:center;line-height:125%;letter-spacing:0;word-spacing:0;text-anchor:middle;fill:#000;fill-opacity:1;stroke:none;display:inline;font-family:Inconsolata LGC;-inkscape-font-specification:Inconsolata LGC" id="text8815-0" x="335" y="512.898" xml:space="preserve"><tspan id="tspan8821-0" x="335" y="512.898">integral</tspan></text><text style="font-size:11px;font-style:normal;font-variant:normal;font-weight:400;font-stretch:normal;text-align:center;line-height:125%;letter-spacing:0;word-spacing:0;text-anchor:middle;fill:#000;fill-opacity:1;stroke:none;display:inline;font-family:Inconsolata LGC;-inkscape-font-specification:Inconsolata LGC" id="text8815" x="215" y="512.898" xml:space="preserve"><tspan id="tspan8821" x="215" y="512.898">integral</tspan></text><text style="font-size:11px;font-style:normal;font-variant:normal;font-weight:400;font-stretch:normal;text-align:center;line-height:125%;letter-spacing:0;word-spacing:0;text-anchor:middle;fill:#000;fill-opacity:1;stroke:none;display:inline;font-family:Inconsolata LGC;-inkscape-font-specification:Inconsolata LGC" id="text8815-2" x="215" y="582.898" xml:space="preserve"><tspan id="tspan8821-4" x="215" y="582.898">scale: <tspan style="font-style:oblique;-inkscape-font-specification:Inconsolata LGC Oblique" id="tspan11581">a</tspan></tspan></text><text style="font-size:11px;font-style:normal;font-variant:normal;font-weight:400;font-stretch:normal;text-align:start;line-height:125%;letter-spacing:0;word-spacing:0;text-anchor:start;fill:#000;fill-opacity:1;stroke:none;display:inline;font-family:Inconsolata LGC;-inkscape-font-specification:Inconsolata LGC" id="text9178-7" x="118" y="617.837" xml:space="preserve"><tspan id="tspan9180-6" x="118" y="617.837">add</tspan></text><text style="font-size:13px;font-style:italic;font-variant:normal;font-weight:400;font-stretch:normal;text-align:center;line-height:125%;letter-spacing:0;word-spacing:0;text-anchor:middle;fill:#000;fill-opacity:1;stroke:none;display:inline;font-family:Linux Libertine O;-inkscape-font-specification:Sans Italic" id="text11762-9" x="216" y="454.362" xml:space="preserve"><tspan id="tspan11764-1" x="216" y="454.362" dx="0 -.3 0">dy<tspan style="font-size:65.00091553%;font-style:normal;baseline-shift:sub;-inkscape-font-specification:Linux Libertine O" id="tspan11766-9">0</tspan></tspan></text></g></svg>