<svg xmlns="http://www.w3.org/2000/svg" xmlns:svg="http://www.w3.org/2000/svg" id="svg7429" width="436.55" height="135.531" version="1.1"><defs id="defs7431"><marker id="Arrow1Mend" orient="auto" refX="0" refY="0" style="overflow:visible"><path id="path4415" d="M 0,0 5,-5 -12.5,0 5,5 0,0 z" transform="matrix(-0.4,0,0,-0.4,-4,0)" style="fill-rule:evenodd;stroke:#000;stroke-width:1pt;marker-start:none"/></marker><marker id="Arrow1Mend-2" orient="auto" refX="0" refY="0" style="overflow:visible"><path id="path4415-9" d="M 0,0 5,-5 -12.5,0 5,5 0,0 z" transform="matrix(-0.4,0,0,-0.4,-4,0)" style="fill-rule:evenodd;stroke:#000;stroke-width:1pt;marker-start:none"/></marker><marker id="Arrow1Mend-0" orient="auto" refX="0" refY="0" style="overflow:visible"><path id="path4415-0" d="M 0,0 5,-5 -12.5,0 5,5 0,0 z" transform="matrix(-0.4,0,0,-0.4,-4,0)" style="fill-rule:evenodd;stroke:#000;stroke-width:1pt;marker-start:none"/></marker><marker id="Arrow1Mend-20" orient="auto" refX="0" refY="0" style="overflow:visible"><path id="path4415-4" d="M 0,0 5,-5 -12.5,0 5,5 0,0 z" transform="matrix(-0.4,0,0,-0.4,-4,0)" style="fill-rule:evenodd;stroke:#000;stroke-width:1pt;marker-start:none"/></marker><marker id="Arrow1Mend-5" orient="auto" refX="0" refY="0" style="overflow:visible"><path id="path4415-02" d="M 0,0 5,-5 -12.5,0 5,5 0,0 z" transform="matrix(-0.4,0,0,-0.4,-4,0)" style="fill-rule:evenodd;stroke:#000;stroke-width:1pt;marker-start:none"/></marker><marker id="Arrow1Mend-200" orient="auto" refX="0" refY="0" style="overflow:visible"><path id="path4415-6" d="M 0,0 5,-5 -12.5,0 5,5 0,0 z" transform="matrix(-0.4,0,0,-0.4,-4,0)" style="fill-rule:evenodd;stroke:#000;stroke-width:1pt;marker-start:none"/></marker><marker id="Arrow1Mend-8" orient="auto" refX="0" refY="0" style="overflow:visible"><path id="path4415-1" d="M 0,0 5,-5 -12.5,0 5,5 0,0 z" transform="matrix(-0.4,0,0,-0.4,-4,0)" style="fill-rule:evenodd;stroke:#000;stroke-width:1pt;marker-start:none"/></marker><marker id="Arrow1Mend-9" orient="auto" refX="0" refY="0" style="overflow:visible"><path id="path4415-15" d="M 0,0 5,-5 -12.5,0 5,5 0,0 z" transform="matrix(-0.4,0,0,-0.4,-4,0)" style="fill-rule:evenodd;stroke:#000;stroke-width:1pt;marker-start:none"/></marker><marker id="Arrow1Mend-58" orient="auto" refX="0" refY="0" style="overflow:visible"><path id="path4415-40" d="M 0,0 5,-5 -12.5,0 5,5 0,0 z" transform="matrix(-0.4,0,0,-0.4,-4,0)" style="fill-rule:evenodd;stroke:#000;stroke-width:1pt;marker-start:none"/></marker></defs><metadata id="metadata_3.31"/><g id="layer4" transform="translate(-79.557087,-102.09643)" style="display:inline"><path style="fill:#e8e8e8;fill-opacity:1;stroke:#000;stroke-width:.53149605;stroke-linecap:round;stroke-linejoin:round;stroke-miterlimit:4;stroke-opacity:1;stroke-dasharray:none;stroke-dashoffset:0" id="rect4940" d="m 105,102.36218 382,0 c 6,0 8,2 8,8 l 0,119 c 0,6 -2,8 -8,8 l -382,0 c -5.97955,0 -8,-1.93117 -8,-8 l 0,-119 c 0,-6 2,-8 8,-8 z"/></g><g id="layer6" transform="translate(-79.557087,-102.09643)" style="display:inline"><rect style="fill:#fff;fill-opacity:1;stroke:#000;stroke-width:.53149605;stroke-linecap:round;stroke-linejoin:round;stroke-miterlimit:4;stroke-opacity:1;stroke-dasharray:none;stroke-dashoffset:0;display:inline" id="rect6788" width="85" height="55" x="200" y="157.362" rx="3.543" ry="3.543"/><path style="fill:none;stroke:#000;stroke-width:.88582677;stroke-linecap:butt;stroke-linejoin:round;stroke-miterlimit:4;stroke-opacity:1;stroke-dasharray:none;stroke-dashoffset:0;marker-end:url(#Arrow1Mend)" id="path8845" d="m 285,184.89789 23,0"/><path style="fill:#fff;fill-opacity:1;stroke:#000;stroke-width:.53149605;stroke-linecap:round;stroke-linejoin:round;stroke-miterlimit:4;stroke-opacity:1;stroke-dasharray:none;stroke-dashoffset:0;display:inline" id="rect6788-0" d="m 170,129.89789 c 3,-1 5,1 5,3.54331 l 0,47.91339 c 0,2.5433 -2,4.5433 -5,3.5433 l -54,-24 c -4,-2 -4,-5 0,-7 z"/><path style="fill:#fff;fill-opacity:1;stroke:#000;stroke-width:.53149605;stroke-linecap:round;stroke-linejoin:round;stroke-miterlimit:4;stroke-opacity:1;stroke-dasharray:none;stroke-dashoffset:0;display:inline" id="rect6788-0-5" d="m 425,129.89789 c -3,-1 -5,1 -5,3.54331 l 0,47.91339 c 0,2.5433 2,4.5433 5,3.5433 l 54,-24 c 4,-2 4,-5 0,-7 z"/><path style="fill:none;stroke:#000;stroke-width:.88582677;stroke-linecap:butt;stroke-linejoin:round;stroke-miterlimit:4;stroke-opacity:1;stroke-dasharray:none;stroke-dashoffset:0;marker-end:url(#Arrow1Mend)" id="path8845-1" d="m 175,169.89789 23,0"/><path style="fill:none;stroke:#000;stroke-width:.88582677;stroke-linecap:butt;stroke-linejoin:round;stroke-miterlimit:4;stroke-opacity:1;stroke-dasharray:none;stroke-dashoffset:0;marker-end:url(#Arrow1Mend)" id="path8845-9-4" d="m 395,169.89789 23,0"/><path style="fill:none;stroke:#000;stroke-width:.88582677;stroke-linecap:round;stroke-linejoin:round;stroke-miterlimit:4;stroke-opacity:1;stroke-dasharray:none;stroke-dashoffset:0;marker-end:url(#Arrow1Mend)" id="path8845-1-1" d="m 80,157.36218 31,0"/><path style="fill:none;stroke:#000;stroke-width:.88582677;stroke-linecap:butt;stroke-linejoin:round;stroke-miterlimit:4;stroke-opacity:1;stroke-dasharray:none;stroke-dashoffset:0;marker-end:url(#Arrow1Mend)" id="path8845-1-6" d="m 482,157.36218 33,0"/><path style="fill:none;stroke:#000;stroke-width:.88582677;stroke-linecap:butt;stroke-linejoin:round;stroke-miterlimit:4;stroke-opacity:1;stroke-dasharray:3.54330709,3.54330709;stroke-dashoffset:0;marker-end:url(#Arrow1Mend)" id="path8845-1-7" d="m 175,144.89792 243,0"/><path style="fill:none;stroke:#000;stroke-width:.88582677;stroke-linecap:round;stroke-linejoin:round;stroke-miterlimit:4;stroke-opacity:1;stroke-dasharray:3.54330709,3.54330709;stroke-dashoffset:0;marker-end:url(#Arrow1Mend)" id="path8845-1-7-3" d="m 241.08929,145.36218 0,10"/><path style="fill:#000;fill-opacity:1;stroke:#000;stroke-width:1.41732287;stroke-linecap:round;stroke-linejoin:round;stroke-miterlimit:4;stroke-opacity:1;stroke-dasharray:none;stroke-dashoffset:0" id="path9674-6" d="m 237,128.36218 c 0,0.55229 -0.44772,1 -1,1 -0.55228,0 -1,-0.44771 -1,-1 0,-0.55228 0.44772,-1 1,-1 0.55228,0 1,0.44772 1,1 z" transform="translate(5,16.535716)"/><rect style="fill:#fff;fill-opacity:1;stroke:#000;stroke-width:.53149605;stroke-linecap:round;stroke-linejoin:round;stroke-miterlimit:4;stroke-opacity:1;stroke-dasharray:none;stroke-dashoffset:0;display:inline" id="rect6788-7" width="85" height="55" x="310" y="157.362" rx="3.543" ry="3.543"/></g><g id="layer5" transform="translate(-79.557087,-102.09643)" style="display:inline"><text style="font-size:11px;font-style:normal;font-variant:normal;font-weight:400;font-stretch:normal;text-align:start;line-height:125%;letter-spacing:0;word-spacing:0;text-anchor:start;fill:#000;fill-opacity:1;stroke:none;font-family:Inconsolata LGC;-inkscape-font-specification:Inconsolata LGC" id="text8815" x="210" y="174.362" xml:space="preserve"><tspan id="tspan8817" x="210" y="174.362">filter:</tspan><tspan id="tspan8819" x="210" y="188.112">not</tspan><tspan id="tspan8821" x="210" y="201.862">divisible?</tspan></text><text style="font-size:11px;font-style:normal;font-variant:normal;font-weight:400;font-stretch:normal;text-align:start;line-height:125%;letter-spacing:0;word-spacing:0;text-anchor:start;fill:#000;fill-opacity:1;stroke:none;font-family:Inconsolata LGC;-inkscape-font-specification:Inconsolata LGC" id="text8841" x="320" y="174.362" xml:space="preserve"><tspan id="tspan8843" x="320" y="174.362">sieve</tspan></text><text style="font-size:11px;font-style:normal;font-variant:normal;font-weight:400;font-stretch:normal;text-align:start;line-height:125%;letter-spacing:0;word-spacing:0;text-anchor:start;fill:#000;fill-opacity:1;stroke:none;font-family:Inconsolata LGC;-inkscape-font-specification:Inconsolata LGC" id="text8841-0" x="110" y="121.362" xml:space="preserve"><tspan id="tspan8843-3" x="110" y="121.362">sieve</tspan></text><text style="font-size:11px;font-style:normal;font-variant:normal;font-weight:400;font-stretch:normal;text-align:end;line-height:125%;letter-spacing:0;word-spacing:0;text-anchor:end;fill:#000;fill-opacity:1;stroke:none;font-family:Inconsolata LGC;-inkscape-font-specification:Inconsolata LGC" id="text9060" x="171.495" y="147.898" xml:space="preserve"><tspan id="tspan9062" x="171.495" y="147.898">car</tspan></text><text style="font-size:11px;font-style:normal;font-variant:normal;font-weight:400;font-stretch:normal;text-align:end;line-height:125%;letter-spacing:0;word-spacing:0;text-anchor:end;fill:#000;fill-opacity:1;stroke:none;font-family:Inconsolata LGC;-inkscape-font-specification:Inconsolata LGC" id="text9064" x="171.495" y="172.898" xml:space="preserve"><tspan id="tspan9066" x="171.495" y="172.898">cdr</tspan></text><text style="font-size:11px;font-style:normal;font-variant:normal;font-weight:400;font-stretch:normal;text-align:start;line-height:125%;letter-spacing:0;word-spacing:0;text-anchor:start;fill:#000;fill-opacity:1;stroke:none;font-family:Inconsolata LGC;-inkscape-font-specification:Inconsolata LGC" id="text9178" x="425" y="160.362" xml:space="preserve"><tspan id="tspan9180" x="425" y="160.362">cons</tspan></text></g></svg>